<svg xmlns="http://www.w3.org/2000/svg" viewBox="0 0 791 848" width="791" height="848">
	<g id="g6676">
		<path id="path817" fill-rule="evenodd" class="shp0" d="M394.08 1.55C396.44 0.87 399.18 0.76 401.93 1.58C404.29 2.14 407.18 3.9 407.85 4.32C408.52 4.79 409.09 5.24 409.6 5.65C410.79 6.61 412.04 7.68 413.5 9C416.44 11.64 420.29 15.26 425.06 19.84C434.61 29.01 447.83 42.01 463.84 57.97C495.86 89.9 539 133.64 585.64 181.56L755.04 355.64C757.96 358.64 759.67 362.87 759.68 367.14L759.68 483.36C759.68 487.65 757.96 491.91 755.02 494.91L585.42 668.29C538.73 716.01 495.49 759.58 463.38 791.4C447.32 807.31 434.05 820.27 424.45 829.42C419.65 833.98 415.78 837.58 412.8 840.23C411.33 841.54 410.07 842.64 408.85 843.61C408.3 844.05 407.69 844.51 407.02 844.97C406.5 845.29 403.66 847.03 401.27 847.61C398.86 848.19 396.42 848.28 394.35 847.82C392.59 847.28 390.45 846.54 388.02 845.01C386.4 843.99 384.97 842.89 383.46 841.68C380.35 839.2 376.58 835.89 371.92 831.64C362.6 823.12 349.8 810.85 333.99 795.31C302.38 764.22 258.86 720.13 208.67 668.21L37.75 491.4C34.85 488.4 33.15 484.19 33.15 479.94L33.15 368.62C33.15 364.35 34.85 360.12 37.77 357.12L37.77 357.11L209.2 180.68C256.41 132.09 300.1 88.11 332.54 56.29C348.76 40.38 362.15 27.53 371.89 18.56C376.76 14.08 380.68 10.57 383.84 7.96C385.41 6.67 386.83 5.56 388.33 4.55C390.4 3.04 391.51 2.6 394.08 1.55ZM406.79 845.12C406.87 845.07 406.94 845.02 407.02 844.97C407.16 844.88 407.11 844.91 406.79 845.12ZM407.59 4.14C408.05 4.45 408.09 4.47 407.85 4.32C407.76 4.26 407.68 4.2 407.59 4.14ZM396.15 69.21C382.37 93.14 340.57 169.21 296.75 250.15C273.2 293.64 250.25 336.25 233.1 368.4C224.53 384.48 217.39 397.95 212.38 407.55C211 410.21 210.21 411.77 209.17 413.8C211.59 415.61 213.38 417.09 218.2 420.05C232.83 429.03 258.35 442.87 298.19 463.61C326.45 478.33 352.29 491.74 371.13 501.48C380.55 506.36 388.23 510.32 393.57 513.05C394.39 513.47 394.77 513.67 395.44 514.01C396.11 513.68 396.49 513.5 397.31 513.09C402.75 510.38 410.65 506.37 420.34 501.43C439.71 491.54 466.31 477.85 495.41 462.75L586.74 415.36L571.18 386.2C558.45 362.35 510.9 275.11 465.81 192.88C435.98 138.48 416.96 103.89 404.7 82.91C400.84 76.29 398.73 73.23 396.15 69.21ZM298.03 154.57C298.03 154.57 298.03 154.57 298.03 154.57C298.03 154.57 298.03 154.57 298.03 154.57L298.03 154.57ZM298.03 154.57C274.86 178.27 251.87 201.76 222.61 232.06L78.9 380.87L78.9 420.96C78.9 432.29 78.84 439.22 78.98 444.92C80.04 444.52 80.9 444.12 82.17 443.56C90.88 439.42 103.38 433.63 121.15 425.08L161.14 405.84L253.87 236.17C271.18 204.5 284.14 180.34 298.03 154.57ZM497.22 156.91C539.91 235.26 600.97 347.23 615.72 373.95L633.93 406.95L679.06 428.17C679.14 428.21 679.21 428.25 679.29 428.29C679.32 428.3 679.35 428.32 679.39 428.34C692.16 434.34 703.88 439.71 713.14 443.86C713.54 436.25 713.92 428.13 713.92 417.85L713.92 375.48L661.97 323.54C630.67 292.24 563 223.73 511.43 171.15C504.9 164.49 502.72 162.47 497.22 156.91L497.22 156.91ZM519.13 501.71L421.9 552.16L420.66 666.72C420.28 700.88 420.11 732.89 420.15 756.86C420.15 761.23 420.2 763.69 420.22 767.49C424.95 763.21 428.08 760.62 434.59 754.42C460.75 729.5 500.58 689.9 554.86 634.85C598.51 590.58 637.8 549.91 665.83 520.16C679.06 506.12 689.26 495.02 696.68 486.7C687.22 482.03 674.74 476.1 661.36 469.98L618.28 450.25L519.13 501.71ZM143.65 464.94C124.9 473.8 105.77 482.58 94.81 487.45L236.79 633.05C280.36 677.73 320.37 718.38 349.7 747.83C360.18 758.34 367.32 765.38 374.73 772.7C374.79 771.06 374.85 770.25 374.9 768.43C375.55 744.88 375.95 712.13 375.95 676.1L375.95 554.63L276.24 502.99L174.55 450.33L143.65 464.94Z" />
		<path id="path851" fill-rule="evenodd" class="shp0" d="M-2070.02 71.62C-2067.93 72.28 -2065.92 73.22 -2064.05 74.4C-2062.17 75.58 -2060.45 77.01 -2058.92 78.63C-2057.38 80.26 -2056.05 82.08 -2054.96 84.05L-1690.95 737.87C-1688.64 742.01 -1687.43 746.71 -1687.43 751.49C-1687.43 756.27 -1688.64 760.97 -1690.95 765.11C-1693.26 769.25 -1696.57 772.69 -1700.57 775.08C-1704.56 777.47 -1709.09 778.73 -1713.7 778.73L-2441.73 778.73C-2446.34 778.73 -2450.87 777.47 -2454.86 775.08C-2458.86 772.69 -2462.17 769.25 -2464.48 765.11C-2466.78 760.97 -2468 756.27 -2468 751.49C-2468 746.71 -2466.79 742.01 -2464.48 737.87L-2100.46 84.05C-2099.26 81.89 -2097.78 79.92 -2096.06 78.18C-2094.35 76.44 -2092.41 74.96 -2090.31 73.76C-2088.2 72.57 -2085.95 71.68 -2083.61 71.12C-2081.27 70.57 -2078.87 70.34 -2076.48 70.46C-2074.29 70.56 -2072.12 70.95 -2070.02 71.62ZM-2051.45 517.81L-1785.47 677.06L-2051.45 199.32L-2051.45 517.81ZM-2369.96 677.06L-2103.98 517.81L-2103.98 199.34L-2369.96 677.06ZM-2343.68 724.25L-1811.74 724.25L-2077.71 565.01L-2343.68 724.25Z" />
		<path id="path864" fill-rule="evenodd" class="shp0" d="M-1248.07 1.06C-1247.07 1.08 -1246.07 1.17 -1245.08 1.33C-1244.09 1.48 -1243.11 1.7 -1242.14 1.98C-1241.18 2.26 -1240.23 2.6 -1239.31 3C-1238.39 3.41 -1237.49 3.87 -1236.62 4.39L-903.88 203.7C-902.06 204.79 -900.39 206.12 -898.9 207.66C-897.42 209.2 -896.14 210.93 -895.09 212.82C-894.04 214.7 -893.23 216.72 -892.69 218.82C-892.14 220.93 -891.87 223.09 -891.87 225.27L-891.87 623.89C-891.87 626.06 -892.14 628.23 -892.69 630.33C-893.23 632.44 -894.04 634.46 -895.09 636.34C-896.14 638.23 -897.42 639.96 -898.9 641.5C-900.39 643.04 -902.06 644.37 -903.88 645.46L-1236.62 844.77C-1238.44 845.86 -1240.39 846.7 -1242.42 847.26C-1244.45 847.82 -1246.54 848.11 -1248.64 848.11C-1250.74 848.11 -1252.83 847.82 -1254.86 847.26C-1256.88 846.7 -1258.83 845.86 -1260.65 844.77L-1593.39 645.46C-1595.2 644.37 -1596.88 643.04 -1598.36 641.5C-1599.84 639.96 -1601.13 638.23 -1602.18 636.34C-1603.23 634.46 -1604.03 632.44 -1604.58 630.33C-1605.12 628.23 -1605.39 626.06 -1605.39 623.89L-1605.39 225.27C-1605.39 223.09 -1605.12 220.93 -1604.58 218.82C-1604.03 216.72 -1603.23 214.7 -1602.18 212.82C-1601.13 210.93 -1599.84 209.2 -1598.36 207.66C-1596.88 206.12 -1595.2 204.79 -1593.39 203.7L-1260.65 4.39C-1259.7 3.82 -1258.71 3.32 -1257.7 2.89C-1256.68 2.46 -1255.64 2.11 -1254.58 1.83C-1253.52 1.54 -1252.44 1.34 -1251.35 1.21C-1250.26 1.08 -1249.16 1.03 -1248.07 1.06ZM-1533.35 225.27L-1248.63 395.81L-963.94 225.27L-1248.63 54.73L-1533.35 225.27ZM-1557.35 609.51L-1272.66 780.03L-1272.66 438.96L-1557.35 268.43L-1557.35 609.51ZM-1224.61 438.96L-1224.61 780.03L-939.92 609.51L-939.92 268.43L-1224.61 438.96Z" />
		<path id="path875" fill-rule="evenodd" class="shp0" d="M-428.8 1.07C-424.77 1.17 -420.84 2.32 -417.35 4.4L-84.5 203.71C-74.72 209.8 -72.82 215.04 -72.49 225.87L-72.44 623.9C-72.44 632.8 -77.02 641.02 -84.46 645.47L-417.36 844.78C-417.77 845.03 -418.19 845.26 -418.62 845.48C-418.95 845.64 -419.29 845.8 -419.63 845.95C-420.04 846.15 -420.45 846.33 -420.87 846.49C-421.12 846.59 -421.38 846.68 -421.64 846.77C-422.14 846.95 -422.65 847.11 -423.16 847.26C-423.47 847.34 -423.79 847.41 -424.1 847.48C-424.54 847.58 -424.99 847.68 -425.44 847.76C-425.79 847.82 -426.15 847.87 -426.5 847.91C-426.95 847.97 -427.39 848.02 -427.84 848.06C-428.22 848.08 -428.59 848.09 -428.97 848.09C-429.4 848.1 -429.83 848.1 -430.25 848.09C-430.58 848.07 -430.91 848.04 -431.23 848.01C-431.71 847.98 -432.18 847.93 -432.65 847.87C-432.98 847.82 -433.29 847.76 -433.61 847.69C-434.09 847.61 -434.56 847.51 -435.03 847.4C-435.29 847.33 -435.55 847.26 -435.81 847.18C-436.34 847.03 -436.87 846.86 -437.39 846.67C-437.63 846.58 -437.87 846.49 -438.1 846.39C-438.58 846.2 -439.04 845.99 -439.5 845.78C-439.89 845.58 -440.27 845.38 -440.64 845.17C-440.89 845.04 -441.13 844.91 -441.37 844.78L-441.87 844.48L-774.27 645.47C-781.7 641.03 -786.29 632.8 -786.29 623.9L-786.29 225.28C-785.51 216.15 -782.01 208.34 -773.78 203.42L-441.38 4.4C-437.56 2.11 -433.21 0.96 -428.8 1.07L-428.8 1.07ZM-672.6 200.37L-186.15 200.37L-429.36 54.75L-672.6 200.37ZM-429.36 773.38L-138.12 250.2L-720.64 250.2L-429.36 773.38ZM-738.24 609.52L-495 755.14L-738.24 318.25L-738.24 609.52ZM-363.74 755.14L-120.49 609.51L-120.51 318.25L-363.74 755.14Z" />
		<path id="path886" fill-rule="evenodd" class="shp0" d="M1303.02 100.7C1307.81 100.7 1312.48 102.18 1316.45 104.95L1402.05 164.76C1402.4 165 1402.75 165.25 1403.09 165.51L1403.11 165.54C1403.75 166.03 1404.35 166.56 1404.94 167.12L1404.96 167.14C1405.54 167.69 1406.09 168.28 1406.61 168.89L1406.63 168.91C1407.16 169.53 1407.65 170.17 1408.11 170.84L1408.14 170.86C1408.6 171.53 1409.02 172.21 1409.42 172.92L1409.44 172.96L1509.34 352.33C1509.44 352.5 1509.53 352.68 1509.62 352.86C1509.89 353.38 1510.14 353.92 1510.37 354.46C1510.49 354.71 1510.61 354.97 1510.72 355.23C1510.87 355.64 1511.02 356.05 1511.16 356.47C1511.29 356.84 1511.42 357.22 1511.54 357.6C1511.68 358.12 1511.81 358.65 1511.92 359.18C1511.97 359.4 1512.03 359.62 1512.08 359.85C1512.08 359.87 1512.09 359.9 1512.09 359.92C1512.17 360.37 1512.24 360.83 1512.3 361.29C1512.36 361.7 1512.42 362.12 1512.46 362.54C1512.48 362.86 1512.49 363.17 1512.51 363.49C1512.54 363.92 1512.56 364.36 1512.57 364.79L1512.57 365.13L1512.52 484.39C1512.52 488.75 1511.41 493.04 1509.31 496.83L1409.44 676.21C1407.33 680 1404.3 683.14 1400.64 685.32L1300.79 745.12C1300.62 745.21 1300.46 745.31 1300.29 745.4C1300.26 745.42 1300.24 745.43 1300.21 745.45C1299.92 745.6 1299.64 745.74 1299.34 745.88C1298.92 746.11 1298.49 746.33 1298.05 746.53L1298.04 746.53C1297.97 746.55 1297.91 746.58 1297.84 746.6C1297.17 746.89 1296.48 747.14 1295.79 747.37C1295.02 747.61 1294.24 747.81 1293.46 747.98C1292.67 748.14 1291.88 748.26 1291.08 748.34C1290.31 748.41 1289.55 748.45 1288.78 748.46L1089.14 748.46C1088.95 748.46 1088.76 748.45 1088.57 748.44C1087.92 748.42 1087.28 748.37 1086.63 748.3C1086.46 748.29 1086.29 748.27 1086.11 748.25C1085.52 748.17 1084.93 748.06 1084.35 747.93C1084.14 747.89 1083.94 747.85 1083.73 747.81C1083.22 747.68 1082.71 747.53 1082.2 747.37C1081.93 747.29 1081.66 747.2 1081.39 747.12C1080.83 746.91 1080.27 746.69 1079.73 746.45C1079.55 746.38 1079.38 746.3 1079.21 746.23C1078.78 746.02 1078.35 745.79 1077.93 745.55C1077.66 745.41 1077.39 745.27 1077.13 745.13L1076.84 744.95L977.18 685.34C973.53 683.15 970.5 680 968.39 676.21L868.52 496.83C866.42 493.04 865.31 488.75 865.31 484.39L865.26 364.79C865.26 364.59 865.27 364.39 865.27 364.2C865.27 364.17 865.27 364.14 865.27 364.11C865.29 363.69 865.32 363.27 865.37 362.85C865.39 362.45 865.42 362.06 865.46 361.66C865.49 361.46 865.52 361.27 865.55 361.07C865.64 360.44 865.75 359.8 865.89 359.18C866.07 358.37 866.29 357.57 866.54 356.78C866.79 356.02 867.07 355.28 867.39 354.55L867.4 354.52C867.55 354.21 867.7 353.9 867.86 353.6C868.06 353.17 868.26 352.75 868.48 352.33L868.53 352.26L968.39 172.96C968.47 172.82 968.55 172.68 968.63 172.54C968.66 172.49 968.69 172.43 968.72 172.38C968.98 171.96 969.25 171.55 969.53 171.15C969.71 170.87 969.9 170.59 970.09 170.31C970.46 169.83 970.84 169.35 971.24 168.9C971.37 168.74 971.51 168.59 971.64 168.43C971.95 168.1 972.26 167.77 972.59 167.45C972.86 167.17 973.14 166.89 973.43 166.62C973.7 166.39 973.98 166.15 974.26 165.93C974.61 165.64 974.96 165.35 975.33 165.08C975.59 164.89 975.87 164.71 976.14 164.53C976.49 164.29 976.83 164.06 977.18 163.83L977.47 163.67L1077.04 104.04C1080.69 101.85 1084.84 100.7 1089.06 100.7L1303.02 100.7ZM1057 173.58L1191.65 200.47L1327.31 172.61L1295.7 150.53L1095.49 150.53L1057 173.58ZM918.65 361.89L1027.82 492.6L1039.12 486.07L1157.56 417.5L1165.01 413.19L1167.39 246.37L1001.44 213.23L918.65 361.89ZM1215.46 246.39L1213.11 410.29L1350.19 492.37L1417.93 411.27L1459.18 361.89L1376.43 213.32L1215.46 246.39ZM913.35 477.7L1006.77 645.52L1045.32 668.58L1001.29 536.94L913.34 431.64L913.35 477.7ZM1376.55 536.92L1376.55 536.94L1332.57 668.55L1371.05 645.52L1464.48 477.7L1464.49 431.64L1376.55 536.92ZM1051.77 535.81L1106.23 698.63L1271.67 698.63L1326.16 535.52L1191.61 454.95C1185.35 458.73 1058.34 532.22 1051.77 535.81Z" />
		<path id="path897" fill-rule="evenodd" class="shp0" d="M1975.16 1.06C1975.19 1.06 1975.21 1.06 1975.24 1.06C1975.27 1.06 1975.29 1.06 1975.32 1.06C1975.34 1.06 1975.37 1.07 1975.4 1.07C1975.42 1.07 1975.45 1.07 1975.47 1.07C1975.5 1.07 1975.53 1.07 1975.56 1.07C1975.59 1.07 1975.62 1.07 1975.65 1.08C1975.68 1.08 1975.7 1.08 1975.73 1.08C1975.76 1.08 1975.79 1.08 1975.82 1.08C1975.86 1.09 1975.9 1.09 1975.95 1.09C1975.99 1.09 1976.03 1.1 1976.07 1.1C1976.12 1.1 1976.16 1.11 1976.2 1.11C1976.24 1.11 1976.28 1.11 1976.33 1.12C1976.34 1.12 1976.36 1.12 1976.37 1.12C1976.39 1.12 1976.4 1.12 1976.42 1.12C1976.43 1.13 1976.45 1.13 1976.47 1.13C1976.48 1.13 1976.5 1.13 1976.51 1.13C1976.62 1.14 1976.73 1.14 1976.85 1.15C1976.96 1.16 1977.07 1.17 1977.18 1.17C1977.29 1.18 1977.4 1.19 1977.52 1.2C1977.63 1.21 1977.74 1.23 1977.85 1.24C1977.88 1.24 1977.91 1.25 1977.95 1.25C1977.98 1.25 1978.01 1.26 1978.04 1.26C1978.07 1.27 1978.1 1.27 1978.14 1.27C1978.17 1.28 1978.2 1.28 1978.23 1.29C1978.28 1.29 1978.32 1.3 1978.36 1.31C1978.41 1.32 1978.45 1.32 1978.5 1.33C1978.54 1.34 1978.59 1.35 1978.63 1.36C1978.67 1.36 1978.72 1.37 1978.76 1.38C1978.77 1.38 1978.78 1.39 1978.79 1.39C1978.8 1.39 1978.81 1.39 1978.82 1.39C1978.83 1.4 1978.84 1.4 1978.85 1.4C1978.86 1.4 1978.87 1.4 1978.88 1.41C1978.89 1.41 1978.9 1.41 1978.92 1.41C1978.93 1.41 1978.94 1.42 1978.95 1.42C1978.97 1.42 1978.98 1.42 1978.99 1.42C1979 1.43 1979.02 1.43 1979.03 1.43C1979.13 1.45 1979.22 1.46 1979.32 1.48C1979.42 1.49 1979.52 1.51 1979.62 1.53C1979.72 1.55 1979.81 1.57 1979.91 1.59C1980.01 1.6 1980.11 1.62 1980.21 1.65C1980.24 1.65 1980.28 1.66 1980.31 1.67C1980.35 1.68 1980.38 1.69 1980.42 1.7C1980.45 1.71 1980.49 1.72 1980.53 1.73C1980.56 1.73 1980.6 1.74 1980.63 1.75C1980.64 1.75 1980.64 1.75 1980.65 1.76C1980.66 1.76 1980.66 1.76 1980.67 1.76C1980.67 1.76 1980.68 1.76 1980.68 1.76C1980.69 1.76 1980.7 1.76 1980.7 1.76C1980.73 1.77 1980.76 1.78 1980.79 1.79C1980.83 1.8 1980.86 1.81 1980.89 1.82C1980.92 1.83 1980.95 1.84 1980.98 1.85C1981.01 1.85 1981.04 1.86 1981.07 1.87C1981.07 1.87 1981.08 1.87 1981.08 1.88C1981.08 1.88 1981.08 1.88 1981.08 1.88C1981.09 1.88 1981.09 1.88 1981.09 1.88C1981.09 1.88 1981.09 1.88 1981.1 1.88C1981.22 1.92 1981.34 1.95 1981.46 1.98C1981.58 2.01 1981.7 2.05 1981.82 2.08C1981.94 2.12 1982.06 2.15 1982.18 2.19C1982.3 2.23 1982.42 2.26 1982.54 2.3C1982.58 2.32 1982.61 2.33 1982.65 2.34C1982.69 2.35 1982.73 2.37 1982.76 2.38C1982.8 2.39 1982.84 2.41 1982.88 2.42C1982.91 2.43 1982.95 2.45 1982.99 2.46C1982.99 2.46 1982.99 2.46 1982.99 2.46C1983 2.46 1983 2.46 1983 2.47C1983 2.47 1983 2.47 1983.01 2.47C1983.01 2.47 1983.01 2.47 1983.01 2.47C1983.03 2.48 1983.05 2.49 1983.07 2.5C1983.09 2.5 1983.1 2.51 1983.12 2.52C1983.14 2.53 1983.16 2.54 1983.18 2.54C1983.2 2.55 1983.21 2.56 1983.23 2.57C1983.24 2.57 1983.25 2.58 1983.27 2.58C1983.28 2.58 1983.29 2.59 1983.3 2.59C1983.31 2.6 1983.32 2.6 1983.34 2.6C1983.35 2.61 1983.36 2.61 1983.37 2.62C1983.49 2.66 1983.61 2.71 1983.73 2.75C1983.85 2.8 1983.97 2.85 1984.09 2.9C1984.21 2.95 1984.33 3 1984.45 3.05C1984.57 3.1 1984.68 3.15 1984.8 3.2C1984.83 3.22 1984.86 3.23 1984.89 3.24C1984.92 3.26 1984.95 3.27 1984.98 3.28C1985 3.3 1985.03 3.31 1985.06 3.33C1985.09 3.34 1985.12 3.36 1985.15 3.37C1985.19 3.39 1985.23 3.41 1985.27 3.43C1985.31 3.46 1985.35 3.48 1985.39 3.5C1985.43 3.52 1985.47 3.54 1985.51 3.57C1985.55 3.59 1985.59 3.61 1985.63 3.63C1985.64 3.63 1985.64 3.64 1985.64 3.64C1985.65 3.64 1985.65 3.64 1985.66 3.64C1985.66 3.65 1985.66 3.65 1985.67 3.65C1985.67 3.65 1985.68 3.65 1985.68 3.66C1985.78 3.7 1985.88 3.75 1985.97 3.8C1986.07 3.85 1986.17 3.9 1986.27 3.95C1986.36 4 1986.46 4.06 1986.56 4.11C1986.65 4.16 1986.75 4.21 1986.85 4.27C1986.87 4.28 1986.89 4.29 1986.91 4.3C1986.93 4.31 1986.95 4.32 1986.97 4.33C1986.99 4.34 1987.01 4.35 1987.03 4.37C1987.05 4.38 1987.07 4.39 1987.09 4.4L2319.99 203.71C2320.03 203.74 2320.08 203.76 2320.12 203.79C2320.16 203.82 2320.2 203.85 2320.25 203.88C2320.29 203.91 2320.33 203.94 2320.37 203.97C2320.41 204 2320.46 204.03 2320.5 204.05C2320.57 204.1 2320.65 204.15 2320.72 204.2C2320.8 204.25 2320.87 204.29 2320.95 204.34C2321.02 204.39 2321.09 204.44 2321.17 204.49C2321.24 204.54 2321.31 204.59 2321.39 204.64C2321.48 204.7 2321.56 204.76 2321.65 204.83C2321.73 204.89 2321.82 204.95 2321.91 205.02C2321.99 205.08 2322.08 205.15 2322.16 205.21C2322.25 205.28 2322.33 205.34 2322.42 205.41C2322.48 205.46 2322.55 205.51 2322.62 205.57C2322.69 205.62 2322.76 205.68 2322.83 205.73C2322.9 205.79 2322.97 205.84 2323.03 205.9C2323.1 205.95 2323.17 206.01 2323.24 206.07C2323.32 206.14 2323.41 206.22 2323.5 206.3C2323.59 206.37 2323.67 206.45 2323.76 206.53C2323.85 206.61 2323.93 206.69 2324.02 206.77C2324.11 206.85 2324.19 206.93 2324.27 207.01C2324.35 207.08 2324.42 207.15 2324.49 207.22C2324.56 207.29 2324.64 207.37 2324.71 207.44C2324.78 207.51 2324.85 207.58 2324.92 207.65C2324.99 207.73 2325.06 207.8 2325.13 207.87C2325.19 207.94 2325.26 208.01 2325.32 208.08C2325.38 208.15 2325.45 208.22 2325.51 208.29C2325.57 208.36 2325.63 208.43 2325.69 208.5C2325.76 208.57 2325.82 208.64 2325.88 208.71C2325.95 208.79 2326.01 208.87 2326.08 208.95C2326.15 209.03 2326.21 209.11 2326.28 209.19C2326.34 209.27 2326.41 209.35 2326.47 209.44C2326.54 209.52 2326.6 209.6 2326.66 209.68C2326.73 209.77 2326.8 209.86 2326.87 209.95C2326.94 210.04 2327.01 210.13 2327.08 210.22C2327.14 210.31 2327.21 210.4 2327.28 210.49C2327.34 210.59 2327.41 210.68 2327.47 210.77C2327.52 210.84 2327.57 210.91 2327.62 210.98C2327.67 211.06 2327.71 211.13 2327.76 211.2C2327.81 211.27 2327.85 211.34 2327.9 211.42C2327.95 211.49 2327.99 211.56 2328.04 211.63C2328.1 211.73 2328.16 211.83 2328.22 211.93C2328.28 212.03 2328.34 212.13 2328.4 212.23C2328.46 212.33 2328.52 212.43 2328.58 212.53C2328.64 212.63 2328.7 212.73 2328.75 212.83C2328.8 212.92 2328.85 213 2328.9 213.09C2328.94 213.17 2328.99 213.26 2329.04 213.35C2329.08 213.43 2329.13 213.52 2329.17 213.61C2329.22 213.7 2329.26 213.78 2329.31 213.87C2329.35 213.96 2329.39 214.04 2329.43 214.13C2329.48 214.22 2329.52 214.3 2329.56 214.39C2329.6 214.48 2329.64 214.56 2329.68 214.65C2329.72 214.74 2329.75 214.83 2329.79 214.91C2329.84 215.02 2329.88 215.12 2329.93 215.23C2329.97 215.33 2330.02 215.44 2330.06 215.54C2330.1 215.65 2330.15 215.76 2330.19 215.86C2330.23 215.97 2330.27 216.08 2330.31 216.18C2330.35 216.28 2330.38 216.37 2330.42 216.47C2330.45 216.56 2330.49 216.65 2330.52 216.75C2330.55 216.84 2330.59 216.94 2330.62 217.03C2330.65 217.13 2330.69 217.22 2330.72 217.32C2330.75 217.41 2330.77 217.5 2330.8 217.59C2330.83 217.68 2330.86 217.77 2330.88 217.86C2330.91 217.95 2330.94 218.04 2330.96 218.14C2330.99 218.23 2331.02 218.32 2331.04 218.41C2331.07 218.53 2331.11 218.65 2331.14 218.76C2331.17 218.88 2331.2 219 2331.23 219.12C2331.26 219.24 2331.29 219.36 2331.32 219.48C2331.34 219.6 2331.37 219.71 2331.4 219.83C2331.42 219.91 2331.43 219.99 2331.45 220.07C2331.46 220.15 2331.48 220.23 2331.5 220.31C2331.51 220.39 2331.53 220.47 2331.54 220.55C2331.55 220.63 2331.57 220.71 2331.58 220.79C2331.6 220.9 2331.62 221.01 2331.64 221.13C2331.66 221.24 2331.68 221.35 2331.7 221.46C2331.71 221.57 2331.73 221.68 2331.75 221.8C2331.76 221.91 2331.78 222.02 2331.79 222.13C2331.8 222.24 2331.82 222.35 2331.83 222.46C2331.84 222.57 2331.85 222.68 2331.86 222.79C2331.87 222.9 2331.88 223.01 2331.89 223.12C2331.9 223.23 2331.91 223.34 2331.92 223.45C2331.92 223.54 2331.93 223.63 2331.93 223.72C2331.94 223.81 2331.94 223.9 2331.95 223.99C2331.95 224.09 2331.95 224.18 2331.96 224.27C2331.96 224.36 2331.96 224.45 2331.96 224.54C2331.97 224.6 2331.97 224.66 2331.98 224.73C2331.98 224.79 2331.98 224.85 2331.99 224.91C2331.99 224.97 2331.99 225.03 2331.99 225.1C2332 225.16 2332 225.22 2332 225.28L2332 623.9C2332 623.95 2332 623.99 2332 624.03C2332 624.07 2332 624.11 2332 624.16C2331.99 624.2 2331.99 624.24 2331.99 624.28C2331.99 624.32 2331.99 624.37 2331.99 624.41C2331.99 624.44 2331.99 624.47 2331.99 624.51C2331.98 624.54 2331.98 624.57 2331.98 624.6C2331.98 624.64 2331.98 624.67 2331.98 624.7C2331.98 624.74 2331.98 624.77 2331.98 624.8C2331.98 624.81 2331.97 624.82 2331.97 624.83C2331.97 624.84 2331.97 624.85 2331.97 624.86C2331.97 624.86 2331.97 624.87 2331.97 624.88C2331.97 624.89 2331.97 624.9 2331.96 624.91C2331.96 624.92 2331.96 624.94 2331.96 624.95C2331.96 624.96 2331.96 624.97 2331.96 624.99C2331.96 625 2331.96 625.01 2331.96 625.03C2331.96 625.04 2331.96 625.05 2331.96 625.06C2331.96 625.07 2331.96 625.07 2331.96 625.07C2331.96 625.07 2331.96 625.07 2331.96 625.08C2331.96 625.08 2331.96 625.08 2331.96 625.08C2331.96 625.08 2331.96 625.09 2331.96 625.09C2331.96 625.18 2331.95 625.27 2331.95 625.37C2331.94 625.46 2331.93 625.55 2331.92 625.65C2331.92 625.74 2331.91 625.83 2331.9 625.92C2331.89 626.02 2331.88 626.11 2331.87 626.2C2331.86 626.3 2331.85 626.4 2331.85 626.49C2331.84 626.59 2331.83 626.69 2331.82 626.78C2331.8 626.88 2331.79 626.98 2331.78 627.07C2331.77 627.17 2331.76 627.27 2331.75 627.36C2331.74 627.37 2331.74 627.38 2331.74 627.39C2331.74 627.4 2331.74 627.41 2331.74 627.42C2331.74 627.43 2331.74 627.44 2331.74 627.45C2331.74 627.46 2331.73 627.47 2331.73 627.48C2331.73 627.5 2331.73 627.51 2331.73 627.53C2331.73 627.54 2331.72 627.56 2331.72 627.57C2331.72 627.59 2331.72 627.6 2331.72 627.62C2331.71 627.63 2331.71 627.65 2331.71 627.66C2331.7 627.75 2331.68 627.84 2331.67 627.93C2331.65 628.03 2331.63 628.12 2331.62 628.21C2331.6 628.3 2331.58 628.39 2331.57 628.48C2331.55 628.57 2331.53 628.66 2331.51 628.75C2331.5 628.84 2331.48 628.93 2331.46 629.02C2331.45 629.11 2331.43 629.2 2331.41 629.29C2331.39 629.38 2331.37 629.47 2331.35 629.56C2331.33 629.65 2331.31 629.74 2331.29 629.83C2331.29 629.83 2331.29 629.83 2331.29 629.83C2331.29 629.84 2331.29 629.84 2331.29 629.84C2331.29 629.84 2331.29 629.84 2331.29 629.85C2331.28 629.85 2331.28 629.85 2331.28 629.85C2331.28 629.86 2331.28 629.87 2331.28 629.89C2331.27 629.9 2331.27 629.91 2331.27 629.92C2331.27 629.93 2331.27 629.94 2331.26 629.95C2331.26 629.96 2331.26 629.97 2331.26 629.98C2331.26 629.99 2331.26 629.99 2331.26 629.99C2331.25 630 2331.25 630 2331.25 630C2331.25 630 2331.25 630.01 2331.25 630.01C2331.25 630.01 2331.25 630.02 2331.25 630.02C2331.22 630.12 2331.2 630.21 2331.17 630.31C2331.14 630.41 2331.11 630.51 2331.09 630.6C2331.06 630.7 2331.03 630.8 2331 630.89C2330.97 630.99 2330.94 631.08 2330.91 631.18C2330.89 631.27 2330.86 631.36 2330.84 631.45C2330.81 631.53 2330.78 631.62 2330.76 631.71C2330.73 631.8 2330.7 631.88 2330.67 631.97C2330.65 632.06 2330.62 632.15 2330.59 632.23C2330.59 632.24 2330.58 632.25 2330.58 632.25C2330.58 632.26 2330.58 632.26 2330.58 632.27C2330.58 632.28 2330.57 632.28 2330.57 632.29C2330.57 632.29 2330.57 632.3 2330.57 632.31C2330.56 632.31 2330.56 632.32 2330.56 632.32C2330.56 632.33 2330.56 632.33 2330.56 632.34C2330.56 632.34 2330.56 632.35 2330.56 632.35C2330.56 632.36 2330.55 632.36 2330.55 632.37C2330.55 632.37 2330.55 632.38 2330.54 632.39C2330.54 632.39 2330.54 632.4 2330.54 632.4C2330.53 632.41 2330.53 632.41 2330.53 632.42C2330.52 632.43 2330.52 632.43 2330.52 632.44C2330.49 632.51 2330.46 632.59 2330.44 632.66C2330.41 632.74 2330.38 632.81 2330.35 632.88C2330.33 632.96 2330.3 633.03 2330.27 633.1C2330.24 633.18 2330.21 633.25 2330.18 633.32C2330.14 633.43 2330.11 633.53 2330.07 633.63C2330.02 633.73 2329.98 633.83 2329.94 633.93C2329.9 634.03 2329.86 634.13 2329.82 634.23C2329.77 634.32 2329.73 634.42 2329.69 634.52C2329.68 634.55 2329.67 634.57 2329.66 634.59C2329.65 634.61 2329.63 634.64 2329.62 634.66C2329.61 634.68 2329.6 634.71 2329.59 634.73C2329.58 634.75 2329.57 634.77 2329.56 634.8C2329.54 634.84 2329.52 634.88 2329.49 634.93C2329.47 634.97 2329.45 635.01 2329.43 635.06C2329.41 635.1 2329.38 635.14 2329.36 635.18C2329.34 635.23 2329.32 635.27 2329.29 635.31C2329.28 635.34 2329.27 635.36 2329.26 635.38C2329.25 635.4 2329.24 635.43 2329.23 635.45C2329.21 635.47 2329.2 635.5 2329.19 635.52C2329.18 635.54 2329.17 635.56 2329.16 635.59C2329.11 635.68 2329.07 635.77 2329.02 635.86C2328.97 635.95 2328.93 636.04 2328.88 636.13C2328.83 636.22 2328.79 636.31 2328.74 636.4C2328.69 636.49 2328.64 636.58 2328.59 636.66C2328.57 636.69 2328.56 636.72 2328.54 636.75C2328.52 636.78 2328.5 636.81 2328.49 636.84C2328.47 636.87 2328.45 636.9 2328.43 636.93C2328.42 636.95 2328.4 636.98 2328.38 637.01C2328.35 637.06 2328.33 637.1 2328.3 637.14C2328.27 637.18 2328.24 637.23 2328.22 637.27C2328.19 637.31 2328.16 637.36 2328.13 637.4C2328.1 637.44 2328.08 637.48 2328.05 637.53C2328.04 637.54 2328.03 637.55 2328.02 637.57C2328.01 637.58 2328 637.6 2328 637.61C2327.99 637.62 2327.98 637.64 2327.97 637.65C2327.96 637.67 2327.95 637.68 2327.94 637.69C2327.89 637.78 2327.83 637.87 2327.77 637.96C2327.71 638.05 2327.66 638.14 2327.6 638.23C2327.54 638.32 2327.48 638.41 2327.42 638.5C2327.36 638.58 2327.3 638.67 2327.24 638.76C2327.22 638.78 2327.2 638.81 2327.18 638.83C2327.17 638.86 2327.15 638.88 2327.13 638.91C2327.11 638.93 2327.09 638.96 2327.08 638.98C2327.06 639.01 2327.04 639.03 2327.02 639.06C2326.97 639.12 2326.93 639.17 2326.88 639.23C2326.84 639.29 2326.79 639.35 2326.75 639.4C2326.7 639.46 2326.65 639.52 2326.61 639.57C2326.56 639.63 2326.51 639.68 2326.47 639.74C2326.41 639.82 2326.35 639.89 2326.29 639.97C2326.23 640.04 2326.17 640.11 2326.11 640.19C2326.05 640.26 2325.99 640.34 2325.93 640.41C2325.87 640.48 2325.81 640.55 2325.75 640.63C2325.73 640.65 2325.7 640.68 2325.68 640.71C2325.65 640.74 2325.63 640.77 2325.61 640.79C2325.58 640.82 2325.56 640.85 2325.53 640.88C2325.51 640.91 2325.49 640.93 2325.46 640.96C2325.42 641.01 2325.37 641.06 2325.32 641.1C2325.28 641.15 2325.23 641.2 2325.19 641.25C2325.14 641.29 2325.09 641.34 2325.05 641.39C2325 641.43 2324.95 641.48 2324.91 641.52C2324.91 641.53 2324.91 641.53 2324.9 641.53C2324.9 641.53 2324.9 641.53 2324.9 641.53C2324.9 641.53 2324.9 641.53 2324.9 641.53C2324.9 641.53 2324.9 641.54 2324.9 641.54C2324.89 641.54 2324.89 641.54 2324.89 641.54C2324.89 641.54 2324.89 641.54 2324.89 641.54C2324.89 641.54 2324.89 641.54 2324.89 641.54C2324.89 641.55 2324.89 641.55 2324.88 641.55C2324.82 641.62 2324.75 641.69 2324.68 641.76C2324.61 641.84 2324.54 641.91 2324.47 641.98C2324.4 642.05 2324.33 642.12 2324.26 642.19C2324.18 642.26 2324.11 642.33 2324.04 642.4C2324.01 642.43 2323.98 642.46 2323.95 642.49C2323.91 642.51 2323.88 642.54 2323.85 642.57C2323.82 642.6 2323.79 642.63 2323.76 642.66C2323.72 642.69 2323.69 642.72 2323.66 642.74C2323.66 642.75 2323.65 642.75 2323.65 642.75C2323.65 642.76 2323.65 642.76 2323.64 642.76C2323.64 642.77 2323.64 642.77 2323.63 642.77C2323.63 642.77 2323.63 642.78 2323.62 642.78C2323.61 642.8 2323.59 642.81 2323.57 642.83C2323.55 642.84 2323.53 642.86 2323.51 642.87C2323.49 642.89 2323.47 642.9 2323.45 642.92C2323.43 642.93 2323.41 642.94 2323.39 642.96C2323.38 642.98 2323.36 642.99 2323.34 643.01C2323.32 643.02 2323.3 643.04 2323.28 643.06C2323.27 643.07 2323.25 643.09 2323.23 643.1C2323.21 643.12 2323.19 643.14 2323.17 643.15C2323.09 643.22 2323.01 643.3 2322.92 643.37C2322.84 643.44 2322.76 643.51 2322.67 643.58C2322.59 643.65 2322.5 643.72 2322.42 643.79C2322.33 643.85 2322.24 643.92 2322.16 643.99C2322.12 644.02 2322.09 644.04 2322.05 644.07C2322.02 644.09 2321.99 644.12 2321.95 644.15C2321.92 644.17 2321.88 644.2 2321.85 644.22C2321.81 644.25 2321.78 644.28 2321.74 644.3C2321.74 644.3 2321.74 644.3 2321.74 644.3C2321.74 644.3 2321.74 644.3 2321.74 644.3C2321.74 644.3 2321.74 644.3 2321.73 644.3C2321.73 644.3 2321.73 644.3 2321.73 644.3C2321.73 644.3 2321.73 644.3 2321.73 644.3C2321.73 644.3 2321.73 644.31 2321.72 644.31C2321.72 644.31 2321.72 644.31 2321.71 644.31C2321.71 644.31 2321.71 644.32 2321.7 644.32C2321.7 644.32 2321.7 644.32 2321.7 644.32C2321.67 644.34 2321.65 644.36 2321.62 644.37C2321.6 644.39 2321.58 644.41 2321.55 644.42C2321.53 644.44 2321.5 644.45 2321.48 644.47C2321.46 644.48 2321.43 644.5 2321.41 644.52C2321.39 644.53 2321.37 644.54 2321.35 644.55C2321.33 644.56 2321.32 644.58 2321.3 644.59C2321.28 644.6 2321.26 644.61 2321.24 644.62C2321.22 644.64 2321.21 644.65 2321.19 644.66C2321.11 644.72 2321.03 644.77 2320.95 644.83C2320.87 644.89 2320.79 644.94 2320.71 645C2320.63 645.05 2320.55 645.1 2320.46 645.16C2320.38 645.21 2320.3 645.27 2320.22 645.32C2320.2 645.33 2320.18 645.34 2320.16 645.36C2320.14 645.37 2320.12 645.38 2320.1 645.4C2320.08 645.41 2320.06 645.42 2320.05 645.44C2320.03 645.45 2320.01 645.46 2319.99 645.47L1987.1 844.79C1987.05 844.81 1987 844.84 1986.96 844.86C1986.91 844.89 1986.86 844.92 1986.81 844.94C1986.76 844.97 1986.72 844.99 1986.67 845.02C1986.62 845.05 1986.57 845.07 1986.52 845.1C1986.45 845.14 1986.38 845.18 1986.31 845.22C1986.24 845.26 1986.16 845.3 1986.09 845.33C1986.02 845.37 1985.95 845.41 1985.87 845.45C1985.8 845.49 1985.73 845.53 1985.66 845.56C1985.55 845.62 1985.45 845.67 1985.35 845.72C1985.24 845.77 1985.14 845.82 1985.04 845.87C1984.93 845.92 1984.83 845.96 1984.72 846.01C1984.62 846.06 1984.51 846.11 1984.41 846.15C1984.33 846.18 1984.26 846.22 1984.18 846.25C1984.11 846.28 1984.03 846.31 1983.96 846.34C1983.88 846.37 1983.8 846.4 1983.73 846.43C1983.65 846.46 1983.57 846.49 1983.5 846.52C1983.38 846.57 1983.26 846.61 1983.14 846.66C1983.02 846.7 1982.9 846.74 1982.78 846.79C1982.66 846.83 1982.54 846.87 1982.42 846.91C1982.3 846.95 1982.18 846.99 1982.05 847.02C1981.99 847.05 1981.92 847.07 1981.85 847.09C1981.79 847.11 1981.72 847.13 1981.65 847.15C1981.58 847.17 1981.52 847.19 1981.45 847.21C1981.38 847.23 1981.31 847.25 1981.25 847.26C1981.13 847.3 1981.02 847.33 1980.9 847.36C1980.79 847.39 1980.67 847.41 1980.56 847.44C1980.44 847.47 1980.32 847.5 1980.21 847.52C1980.09 847.55 1979.98 847.58 1979.86 847.6C1979.77 847.62 1979.68 847.64 1979.59 847.66C1979.5 847.67 1979.41 847.69 1979.32 847.71C1979.23 847.73 1979.14 847.74 1979.05 847.76C1978.96 847.77 1978.87 847.79 1978.78 847.8C1978.66 847.82 1978.55 847.84 1978.44 847.85C1978.33 847.87 1978.22 847.88 1978.11 847.9C1978 847.91 1977.88 847.92 1977.77 847.94C1977.66 847.95 1977.55 847.96 1977.44 847.97C1977.36 847.98 1977.28 847.99 1977.2 848C1977.12 848 1977.04 848.01 1976.96 848.02C1976.88 848.02 1976.81 848.03 1976.73 848.04C1976.65 848.04 1976.57 848.05 1976.49 848.05C1976.37 848.06 1976.26 848.07 1976.14 848.07C1976.02 848.08 1975.91 848.08 1975.79 848.09C1975.68 848.09 1975.56 848.1 1975.44 848.1C1975.33 848.1 1975.21 848.1 1975.09 848.1C1974.99 848.1 1974.89 848.1 1974.79 848.1C1974.69 848.1 1974.59 848.09 1974.49 848.09C1974.39 848.09 1974.28 848.09 1974.18 848.08C1974.08 848.08 1973.98 848.07 1973.88 848.07C1973.8 848.06 1973.72 848.06 1973.64 848.05C1973.56 848.05 1973.48 848.04 1973.4 848.04C1973.31 848.03 1973.23 848.02 1973.15 848.02C1973.07 848.01 1972.99 848 1972.91 848C1972.79 847.98 1972.66 847.97 1972.54 847.96C1972.42 847.94 1972.29 847.93 1972.17 847.91C1972.05 847.9 1971.92 847.88 1971.8 847.86C1971.68 847.84 1971.56 847.82 1971.43 847.8C1971.35 847.79 1971.28 847.78 1971.2 847.77C1971.12 847.75 1971.04 847.74 1970.96 847.72C1970.89 847.71 1970.81 847.7 1970.73 847.68C1970.65 847.67 1970.58 847.65 1970.5 847.64C1970.39 847.61 1970.28 847.59 1970.17 847.57C1970.06 847.55 1969.95 847.52 1969.84 847.5C1969.73 847.47 1969.62 847.45 1969.51 847.42C1969.4 847.39 1969.29 847.37 1969.18 847.34C1969.09 847.31 1969 847.29 1968.91 847.26C1968.83 847.24 1968.74 847.21 1968.65 847.19C1968.56 847.16 1968.47 847.14 1968.38 847.11C1968.3 847.08 1968.21 847.05 1968.12 847.03C1968.01 846.99 1967.9 846.96 1967.79 846.92C1967.68 846.88 1967.57 846.85 1967.46 846.81C1967.35 846.77 1967.24 846.73 1967.13 846.69C1967.02 846.65 1966.91 846.61 1966.8 846.57C1966.73 846.54 1966.66 846.52 1966.59 846.49C1966.52 846.46 1966.45 846.43 1966.38 846.41C1966.31 846.38 1966.24 846.35 1966.17 846.32C1966.1 846.29 1966.03 846.26 1965.96 846.24C1965.84 846.19 1965.73 846.13 1965.61 846.08C1965.49 846.03 1965.38 845.98 1965.26 845.92C1965.15 845.87 1965.03 845.81 1964.92 845.76C1964.8 845.7 1964.69 845.65 1964.57 845.59C1964.5 845.55 1964.44 845.52 1964.37 845.48C1964.3 845.44 1964.23 845.41 1964.16 845.37C1964.09 845.33 1964.02 845.3 1963.95 845.26C1963.88 845.22 1963.81 845.18 1963.74 845.15C1963.69 845.12 1963.63 845.09 1963.58 845.06C1963.52 845.03 1963.46 845 1963.41 844.97C1963.35 844.94 1963.3 844.91 1963.24 844.88C1963.18 844.85 1963.13 844.82 1963.07 844.79L1630.18 645.48C1630.14 645.46 1630.11 645.44 1630.08 645.42C1630.05 645.4 1630.02 645.38 1629.99 645.37C1629.96 645.35 1629.93 645.33 1629.9 645.31C1629.87 645.29 1629.84 645.27 1629.81 645.25C1629.77 645.23 1629.74 645.21 1629.7 645.19C1629.67 645.16 1629.64 645.14 1629.6 645.12C1629.57 645.1 1629.54 645.08 1629.5 645.05C1629.47 645.03 1629.44 645.01 1629.4 644.99C1629.39 644.98 1629.38 644.97 1629.36 644.96C1629.35 644.95 1629.34 644.94 1629.33 644.93C1629.31 644.92 1629.3 644.91 1629.29 644.91C1629.28 644.9 1629.26 644.89 1629.25 644.88C1629.25 644.88 1629.25 644.87 1629.24 644.87C1629.24 644.87 1629.24 644.87 1629.23 644.87C1629.23 644.86 1629.23 644.86 1629.23 644.86C1629.22 644.86 1629.22 644.86 1629.22 644.86C1629.14 644.8 1629.06 644.75 1628.99 644.69C1628.91 644.64 1628.83 644.59 1628.76 644.53C1628.68 644.48 1628.61 644.42 1628.53 644.37C1628.45 644.31 1628.38 644.25 1628.3 644.2C1628.23 644.14 1628.15 644.08 1628.07 644.03C1627.99 643.97 1627.91 643.91 1627.83 643.86C1627.76 643.8 1627.68 643.74 1627.6 643.68C1627.52 643.62 1627.45 643.56 1627.37 643.5C1627.36 643.5 1627.36 643.49 1627.35 643.49C1627.35 643.48 1627.34 643.48 1627.34 643.47C1627.34 643.47 1627.33 643.46 1627.33 643.46C1627.32 643.45 1627.32 643.45 1627.31 643.44C1627.31 643.44 1627.3 643.44 1627.3 643.43C1627.29 643.43 1627.29 643.43 1627.29 643.43C1627.28 643.43 1627.28 643.42 1627.28 643.42C1627.27 643.42 1627.27 643.42 1627.26 643.42C1627.26 643.41 1627.25 643.41 1627.25 643.4C1627.24 643.4 1627.23 643.39 1627.23 643.39C1627.22 643.38 1627.22 643.38 1627.21 643.37C1627.21 643.37 1627.2 643.36 1627.19 643.36C1627.13 643.3 1627.06 643.24 1626.99 643.18C1626.92 643.12 1626.85 643.06 1626.79 643C1626.72 642.94 1626.65 642.88 1626.59 642.82C1626.52 642.76 1626.45 642.7 1626.39 642.64C1626.32 642.58 1626.25 642.52 1626.18 642.46C1626.12 642.39 1626.05 642.33 1625.98 642.27C1625.92 642.21 1625.85 642.15 1625.79 642.08C1625.72 642.02 1625.65 641.96 1625.59 641.89C1625.58 641.89 1625.58 641.88 1625.57 641.88C1625.57 641.87 1625.56 641.87 1625.56 641.86C1625.56 641.86 1625.55 641.85 1625.55 641.85C1625.54 641.84 1625.54 641.84 1625.53 641.83C1625.52 641.83 1625.52 641.82 1625.51 641.82C1625.5 641.81 1625.5 641.8 1625.49 641.8C1625.48 641.79 1625.48 641.79 1625.47 641.78C1625.46 641.77 1625.46 641.77 1625.45 641.76C1625.44 641.76 1625.44 641.75 1625.43 641.74C1625.43 641.74 1625.42 641.73 1625.41 641.73C1625.41 641.72 1625.4 641.71 1625.4 641.71C1625.39 641.7 1625.39 641.7 1625.38 641.69C1625.32 641.63 1625.26 641.56 1625.2 641.5C1625.14 641.44 1625.08 641.37 1625.02 641.31C1624.97 641.25 1624.91 641.18 1624.85 641.12C1624.79 641.05 1624.73 640.99 1624.68 640.92C1624.61 640.86 1624.55 640.79 1624.49 640.72C1624.43 640.65 1624.36 640.58 1624.3 640.51C1624.24 640.44 1624.18 640.37 1624.12 640.3C1624.06 640.23 1624 640.16 1623.94 640.09C1623.92 640.07 1623.9 640.05 1623.89 640.03C1623.87 640.01 1623.85 639.99 1623.84 639.97C1623.82 639.95 1623.81 639.93 1623.79 639.91C1623.77 639.89 1623.76 639.87 1623.74 639.85C1623.7 639.79 1623.66 639.74 1623.62 639.69C1623.58 639.64 1623.55 639.59 1623.51 639.54C1623.47 639.48 1623.43 639.43 1623.39 639.38C1623.35 639.33 1623.32 639.28 1623.28 639.22C1623.27 639.21 1623.25 639.19 1623.24 639.17C1623.23 639.16 1623.22 639.14 1623.2 639.12C1623.19 639.1 1623.18 639.09 1623.17 639.07C1623.15 639.05 1623.14 639.04 1623.13 639.02C1623.08 638.95 1623.02 638.88 1622.97 638.81C1622.92 638.74 1622.87 638.67 1622.82 638.6C1622.77 638.53 1622.72 638.46 1622.67 638.39C1622.62 638.32 1622.57 638.25 1622.52 638.18C1622.49 638.15 1622.47 638.12 1622.45 638.08C1622.43 638.05 1622.41 638.02 1622.38 637.98C1622.36 637.95 1622.34 637.92 1622.32 637.89C1622.3 637.85 1622.27 637.82 1622.25 637.79C1622.22 637.74 1622.2 637.7 1622.17 637.65C1622.14 637.6 1622.11 637.56 1622.09 637.51C1622.06 637.47 1622.03 637.42 1622.01 637.37C1621.98 637.33 1621.95 637.28 1621.93 637.24C1621.92 637.23 1621.91 637.22 1621.91 637.21C1621.9 637.2 1621.89 637.19 1621.89 637.18C1621.88 637.17 1621.87 637.16 1621.87 637.15C1621.86 637.14 1621.85 637.13 1621.85 637.12C1621.79 637.02 1621.73 636.92 1621.67 636.82C1621.61 636.72 1621.55 636.62 1621.49 636.52C1621.43 636.42 1621.38 636.32 1621.32 636.22C1621.26 636.12 1621.21 636.02 1621.15 635.92C1621.15 635.91 1621.15 635.91 1621.14 635.9C1621.14 635.89 1621.13 635.88 1621.13 635.88C1621.13 635.87 1621.12 635.86 1621.12 635.86C1621.11 635.85 1621.11 635.84 1621.11 635.84C1621.1 635.82 1621.1 635.81 1621.09 635.8C1621.08 635.79 1621.08 635.78 1621.07 635.77C1621.07 635.76 1621.06 635.75 1621.05 635.74C1621.05 635.73 1621.04 635.72 1621.04 635.7C1621.01 635.66 1620.99 635.61 1620.97 635.56C1620.94 635.51 1620.92 635.46 1620.9 635.41C1620.87 635.36 1620.85 635.31 1620.83 635.26C1620.81 635.22 1620.78 635.17 1620.76 635.12C1620.7 635 1620.65 634.89 1620.59 634.78C1620.54 634.67 1620.49 634.55 1620.43 634.44C1620.38 634.33 1620.33 634.21 1620.28 634.1C1620.23 633.98 1620.17 633.87 1620.13 633.75C1620.12 633.73 1620.11 633.71 1620.1 633.68C1620.09 633.66 1620.08 633.64 1620.07 633.61C1620.06 633.59 1620.06 633.57 1620.05 633.55C1620.04 633.52 1620.03 633.5 1620.02 633.48C1620 633.43 1619.99 633.38 1619.97 633.33C1619.95 633.29 1619.93 633.24 1619.92 633.19C1619.9 633.14 1619.88 633.09 1619.86 633.05C1619.85 633 1619.83 632.95 1619.81 632.9C1619.81 632.89 1619.8 632.88 1619.8 632.87C1619.79 632.85 1619.79 632.84 1619.78 632.83C1619.78 632.82 1619.77 632.81 1619.77 632.79C1619.76 632.78 1619.76 632.77 1619.75 632.76C1619.71 632.65 1619.67 632.54 1619.63 632.43C1619.59 632.32 1619.55 632.21 1619.51 632.1C1619.48 631.99 1619.44 631.88 1619.4 631.77C1619.36 631.66 1619.33 631.55 1619.29 631.44C1619.28 631.41 1619.27 631.38 1619.27 631.35C1619.26 631.32 1619.25 631.29 1619.24 631.26C1619.23 631.23 1619.22 631.19 1619.21 631.16C1619.21 631.13 1619.2 631.1 1619.19 631.07C1619.17 631 1619.15 630.94 1619.14 630.87C1619.12 630.81 1619.1 630.74 1619.09 630.68C1619.07 630.61 1619.05 630.54 1619.04 630.48C1619.02 630.41 1619.01 630.35 1618.99 630.28C1618.99 630.26 1618.98 630.25 1618.98 630.23C1618.98 630.22 1618.97 630.2 1618.97 630.18C1618.96 630.17 1618.96 630.15 1618.96 630.14C1618.95 630.12 1618.95 630.1 1618.94 630.09C1618.92 630.01 1618.9 629.93 1618.88 629.85C1618.86 629.77 1618.84 629.69 1618.82 629.61C1618.8 629.53 1618.78 629.45 1618.76 629.37C1618.74 629.29 1618.72 629.21 1618.7 629.13C1618.69 629.09 1618.68 629.05 1618.68 629.01C1618.67 628.97 1618.66 628.93 1618.65 628.89C1618.64 628.84 1618.63 628.8 1618.62 628.76C1618.61 628.72 1618.61 628.68 1618.6 628.64C1618.59 628.58 1618.58 628.51 1618.57 628.45C1618.56 628.38 1618.55 628.32 1618.54 628.26C1618.53 628.19 1618.53 628.13 1618.52 628.07C1618.51 628 1618.5 627.94 1618.49 627.87C1618.49 627.87 1618.49 627.86 1618.49 627.86C1618.49 627.85 1618.49 627.84 1618.49 627.84C1618.49 627.83 1618.49 627.83 1618.49 627.82C1618.48 627.81 1618.48 627.81 1618.48 627.8C1618.46 627.7 1618.45 627.6 1618.43 627.49C1618.41 627.39 1618.4 627.29 1618.38 627.19C1618.37 627.08 1618.35 626.98 1618.34 626.88C1618.32 626.77 1618.31 626.67 1618.3 626.57C1618.3 626.53 1618.29 626.49 1618.29 626.46C1618.29 626.42 1618.28 626.38 1618.28 626.35C1618.28 626.31 1618.27 626.27 1618.27 626.24C1618.27 626.2 1618.27 626.16 1618.26 626.12C1618.26 626.08 1618.26 626.04 1618.26 626C1618.25 625.96 1618.25 625.92 1618.25 625.87C1618.25 625.83 1618.25 625.79 1618.24 625.75C1618.24 625.71 1618.24 625.66 1618.24 625.62C1618.24 625.61 1618.24 625.6 1618.24 625.59C1618.24 625.57 1618.23 625.56 1618.23 625.55C1618.23 625.54 1618.23 625.53 1618.23 625.51C1618.23 625.5 1618.23 625.49 1618.23 625.48C1618.23 625.47 1618.23 625.46 1618.22 625.44C1618.22 625.43 1618.22 625.42 1618.22 625.41C1618.22 625.4 1618.22 625.38 1618.22 625.37C1618.22 625.36 1618.22 625.35 1618.22 625.34C1618.21 625.24 1618.2 625.15 1618.2 625.06C1618.19 624.96 1618.19 624.87 1618.18 624.78C1618.18 624.69 1618.17 624.59 1618.17 624.5C1618.16 624.41 1618.16 624.31 1618.16 624.22C1618.16 624.2 1618.15 624.17 1618.15 624.14C1618.15 624.11 1618.15 624.09 1618.15 624.06C1618.15 624.03 1618.15 624.01 1618.15 623.98C1618.15 623.95 1618.15 623.93 1618.15 623.9L1618.15 225.28C1618.15 225.22 1618.15 225.17 1618.15 225.11C1618.16 225.05 1618.16 224.99 1618.16 224.93C1618.16 224.88 1618.17 224.82 1618.17 224.76C1618.17 224.7 1618.18 224.65 1618.18 224.59C1618.18 224.5 1618.19 224.42 1618.19 224.33C1618.19 224.25 1618.2 224.16 1618.2 224.08C1618.2 223.99 1618.21 223.91 1618.21 223.82C1618.22 223.74 1618.22 223.65 1618.23 223.57C1618.24 223.46 1618.24 223.36 1618.25 223.25C1618.26 223.15 1618.27 223.04 1618.28 222.93C1618.29 222.83 1618.31 222.72 1618.32 222.62C1618.33 222.51 1618.34 222.41 1618.35 222.3C1618.37 222.2 1618.38 222.11 1618.39 222.01C1618.4 221.91 1618.41 221.82 1618.42 221.72C1618.44 221.62 1618.45 221.53 1618.46 221.43C1618.48 221.33 1618.49 221.24 1618.5 221.14C1618.52 221.02 1618.55 220.9 1618.57 220.78C1618.59 220.66 1618.61 220.54 1618.63 220.43C1618.66 220.31 1618.68 220.19 1618.71 220.07C1618.73 219.95 1618.76 219.83 1618.78 219.71C1618.8 219.63 1618.82 219.54 1618.84 219.46C1618.86 219.37 1618.88 219.28 1618.9 219.2C1618.92 219.11 1618.95 219.03 1618.97 218.94C1618.99 218.86 1619.01 218.77 1619.04 218.69C1619.06 218.58 1619.09 218.47 1619.12 218.36C1619.16 218.25 1619.19 218.14 1619.22 218.04C1619.25 217.93 1619.28 217.82 1619.32 217.71C1619.35 217.61 1619.38 217.5 1619.42 217.39C1619.45 217.3 1619.47 217.21 1619.5 217.12C1619.53 217.03 1619.56 216.94 1619.6 216.85C1619.63 216.75 1619.66 216.66 1619.69 216.57C1619.72 216.48 1619.75 216.39 1619.79 216.3C1619.82 216.2 1619.86 216.1 1619.9 216C1619.94 215.9 1619.98 215.8 1620.02 215.7C1620.06 215.6 1620.1 215.5 1620.14 215.4C1620.19 215.3 1620.23 215.2 1620.27 215.11C1620.31 215.01 1620.35 214.92 1620.39 214.83C1620.43 214.74 1620.48 214.64 1620.52 214.55C1620.56 214.46 1620.6 214.37 1620.65 214.28C1620.69 214.19 1620.73 214.09 1620.78 214C1620.82 213.91 1620.87 213.82 1620.91 213.73C1620.96 213.63 1621.01 213.54 1621.05 213.45C1621.1 213.36 1621.15 213.27 1621.2 213.17C1621.25 213.08 1621.29 212.99 1621.34 212.9C1621.4 212.81 1621.45 212.71 1621.5 212.62C1621.56 212.53 1621.61 212.43 1621.67 212.34C1621.72 212.25 1621.78 212.16 1621.83 212.06C1621.89 211.97 1621.95 211.88 1622 211.79C1622.05 211.71 1622.1 211.64 1622.15 211.56C1622.2 211.48 1622.25 211.41 1622.3 211.33C1622.35 211.25 1622.4 211.18 1622.45 211.1C1622.5 211.03 1622.55 210.95 1622.6 210.88C1622.67 210.78 1622.73 210.69 1622.8 210.59C1622.86 210.5 1622.93 210.4 1623 210.31C1623.07 210.22 1623.13 210.12 1623.2 210.03C1623.27 209.94 1623.34 209.85 1623.41 209.75C1623.47 209.68 1623.53 209.61 1623.59 209.53C1623.64 209.46 1623.7 209.39 1623.76 209.31C1623.82 209.24 1623.88 209.17 1623.94 209.09C1624 209.02 1624.07 208.95 1624.13 208.88C1624.19 208.8 1624.26 208.72 1624.33 208.64C1624.4 208.56 1624.47 208.48 1624.54 208.4C1624.61 208.32 1624.68 208.24 1624.75 208.17C1624.83 208.09 1624.9 208.01 1624.97 207.93C1625.04 207.86 1625.1 207.8 1625.17 207.73C1625.23 207.66 1625.3 207.59 1625.37 207.52C1625.44 207.45 1625.5 207.39 1625.57 207.32C1625.64 207.25 1625.71 207.19 1625.78 207.12C1625.86 207.04 1625.94 206.96 1626.02 206.89C1626.1 206.81 1626.18 206.73 1626.26 206.66C1626.34 206.58 1626.42 206.51 1626.5 206.43C1626.58 206.36 1626.66 206.28 1626.75 206.21C1626.82 206.15 1626.89 206.09 1626.96 206.03C1627.03 205.97 1627.1 205.91 1627.17 205.85C1627.24 205.79 1627.31 205.73 1627.39 205.68C1627.46 205.62 1627.53 205.56 1627.6 205.5C1627.69 205.43 1627.78 205.37 1627.87 205.3C1627.95 205.23 1628.04 205.17 1628.13 205.1C1628.22 205.03 1628.31 204.97 1628.4 204.9C1628.49 204.84 1628.58 204.78 1628.68 204.71C1628.75 204.66 1628.82 204.61 1628.9 204.56C1628.97 204.5 1629.05 204.45 1629.12 204.4C1629.2 204.35 1629.27 204.3 1629.35 204.25C1629.42 204.2 1629.5 204.15 1629.58 204.1C1629.62 204.07 1629.67 204.04 1629.72 204C1629.77 203.97 1629.82 203.94 1629.87 203.9C1629.92 203.87 1629.97 203.84 1630.02 203.8C1630.07 203.77 1630.12 203.74 1630.16 203.71L1963.06 4.4C1963.09 4.38 1963.12 4.37 1963.15 4.35C1963.17 4.33 1963.2 4.32 1963.23 4.3C1963.26 4.29 1963.28 4.27 1963.31 4.25C1963.34 4.24 1963.37 4.22 1963.4 4.21C1963.43 4.19 1963.47 4.16 1963.51 4.14C1963.55 4.12 1963.58 4.1 1963.62 4.08C1963.66 4.06 1963.7 4.04 1963.73 4.02C1963.77 4 1963.81 3.98 1963.85 3.96C1963.95 3.9 1964.05 3.85 1964.15 3.8C1964.25 3.74 1964.35 3.69 1964.45 3.64C1964.55 3.59 1964.65 3.54 1964.75 3.49C1964.85 3.44 1964.96 3.39 1965.06 3.35C1965.15 3.3 1965.25 3.26 1965.34 3.21C1965.43 3.17 1965.53 3.13 1965.62 3.09C1965.72 3.04 1965.81 3 1965.91 2.96C1966 2.92 1966.1 2.88 1966.19 2.84C1966.19 2.84 1966.19 2.84 1966.2 2.84C1966.2 2.84 1966.2 2.84 1966.2 2.84C1966.2 2.84 1966.21 2.83 1966.21 2.83C1966.21 2.83 1966.21 2.83 1966.21 2.83C1966.22 2.83 1966.22 2.83 1966.22 2.83C1966.22 2.83 1966.22 2.83 1966.23 2.82C1966.23 2.82 1966.23 2.82 1966.23 2.82C1966.23 2.82 1966.24 2.82 1966.24 2.82C1966.24 2.82 1966.24 2.82 1966.25 2.82C1966.25 2.81 1966.25 2.81 1966.26 2.81C1966.26 2.81 1966.26 2.81 1966.26 2.81C1966.27 2.81 1966.27 2.81 1966.27 2.81C1966.36 2.77 1966.44 2.74 1966.52 2.71C1966.6 2.68 1966.68 2.65 1966.77 2.62C1966.85 2.59 1966.93 2.56 1967.02 2.53C1967.1 2.5 1967.18 2.48 1967.27 2.45C1967.36 2.41 1967.45 2.38 1967.54 2.35C1967.63 2.31 1967.72 2.28 1967.81 2.25C1967.9 2.22 1968 2.19 1968.09 2.16C1968.18 2.12 1968.27 2.09 1968.36 2.06C1968.37 2.06 1968.38 2.06 1968.39 2.06C1968.39 2.06 1968.4 2.05 1968.41 2.05C1968.42 2.05 1968.42 2.05 1968.43 2.05C1968.44 2.04 1968.45 2.04 1968.46 2.04C1968.47 2.04 1968.48 2.03 1968.49 2.03C1968.51 2.02 1968.52 2.02 1968.53 2.02C1968.54 2.01 1968.56 2.01 1968.57 2C1968.58 2 1968.59 2 1968.61 1.99C1968.68 1.97 1968.76 1.95 1968.84 1.93C1968.91 1.91 1968.99 1.89 1969.07 1.87C1969.14 1.86 1969.22 1.84 1969.3 1.82C1969.37 1.8 1969.45 1.78 1969.53 1.77C1969.63 1.74 1969.73 1.71 1969.82 1.69C1969.92 1.67 1970.02 1.64 1970.12 1.62C1970.22 1.6 1970.32 1.57 1970.42 1.55C1970.52 1.53 1970.62 1.51 1970.72 1.49C1970.73 1.49 1970.74 1.49 1970.75 1.48C1970.76 1.48 1970.77 1.48 1970.78 1.48C1970.79 1.48 1970.79 1.47 1970.8 1.47C1970.81 1.47 1970.82 1.47 1970.83 1.47C1970.84 1.46 1970.85 1.46 1970.86 1.46C1970.88 1.46 1970.89 1.46 1970.9 1.45C1970.91 1.45 1970.92 1.45 1970.93 1.45C1970.94 1.45 1970.95 1.44 1970.96 1.44C1971.04 1.43 1971.11 1.42 1971.19 1.41C1971.26 1.39 1971.34 1.38 1971.42 1.37C1971.49 1.36 1971.57 1.35 1971.64 1.34C1971.72 1.33 1971.8 1.32 1971.87 1.31C1971.97 1.3 1972.07 1.28 1972.17 1.27C1972.28 1.25 1972.38 1.24 1972.48 1.23C1972.58 1.22 1972.68 1.21 1972.78 1.2C1972.88 1.19 1972.98 1.18 1973.08 1.17C1973.11 1.16 1973.14 1.16 1973.16 1.16C1973.19 1.16 1973.21 1.16 1973.24 1.15C1973.27 1.15 1973.29 1.15 1973.32 1.15C1973.34 1.15 1973.37 1.14 1973.4 1.14C1973.43 1.14 1973.47 1.14 1973.51 1.14C1973.55 1.13 1973.59 1.13 1973.63 1.13C1973.67 1.13 1973.7 1.13 1973.74 1.12C1973.78 1.12 1973.82 1.12 1973.86 1.12C1973.88 1.12 1973.9 1.12 1973.93 1.12C1973.95 1.11 1973.97 1.11 1974 1.11C1974.02 1.11 1974.04 1.11 1974.07 1.11C1974.09 1.11 1974.11 1.11 1974.14 1.11C1974.22 1.1 1974.31 1.1 1974.39 1.09C1974.48 1.09 1974.56 1.08 1974.65 1.08C1974.73 1.07 1974.82 1.07 1974.91 1.07C1974.99 1.06 1975.08 1.06 1975.16 1.06L1975.16 1.06ZM1816.51 275.11L2133.63 275.11L1975.07 66.25L1816.51 275.11ZM1690.24 225.28L1761.02 267.65L1878.98 112.27L1690.24 225.28ZM2189.13 267.65L2259.92 225.28L2071.16 112.27L2189.13 267.65ZM1666.2 494.46L1736.99 310.81L1666.2 268.43L1666.2 494.46ZM2213.16 310.81L2283.94 494.45L2283.94 268.43L2213.16 310.81ZM1975.07 623.9L2141.51 324.93L1808.63 324.93L1975.07 623.9ZM1675.8 603.76L1929.52 641.74L1770.96 356.92L1675.8 603.76ZM2020.62 641.74L2274.34 603.76L2179.18 356.93L2020.62 641.74ZM1951.04 780.06L1951.04 695.29L1762.29 667.05L1951.04 780.06ZM1999.1 695.3L1999.1 780.06L2187.86 667.05L1999.1 695.3Z" />
	</g>
</svg>