<svg xmlns="http://www.w3.org/2000/svg" viewBox="0 0 791 848" width="791" height="848">
	<g id="g6676">
		<path id="path817" fill-rule="evenodd" class="shp0" d="M-395.92 1.55C-393.56 0.87 -390.82 0.76 -388.07 1.58C-385.71 2.14 -382.82 3.9 -382.15 4.32C-381.48 4.79 -380.91 5.24 -380.4 5.65C-379.21 6.61 -377.96 7.68 -376.5 9C-373.56 11.64 -369.71 15.26 -364.94 19.84C-355.39 29.01 -342.17 42.01 -326.16 57.97C-294.14 89.9 -251 133.64 -204.36 181.56L-34.96 355.64C-32.04 358.64 -30.33 362.87 -30.32 367.14L-30.32 483.36C-30.32 487.65 -32.04 491.91 -34.98 494.91L-204.58 668.29C-251.27 716.01 -294.51 759.58 -326.62 791.4C-342.68 807.31 -355.95 820.27 -365.55 829.42C-370.35 833.98 -374.22 837.58 -377.2 840.23C-378.67 841.54 -379.93 842.64 -381.15 843.61C-381.7 844.05 -382.31 844.51 -382.98 844.97C-383.5 845.29 -386.34 847.03 -388.73 847.61C-391.14 848.19 -393.58 848.28 -395.65 847.82C-397.41 847.28 -399.55 846.54 -401.98 845.01C-403.6 843.99 -405.03 842.89 -406.54 841.68C-409.65 839.2 -413.42 835.89 -418.08 831.64C-427.4 823.12 -440.2 810.85 -456.01 795.31C-487.62 764.22 -531.14 720.13 -581.33 668.21L-752.25 491.4C-755.15 488.4 -756.85 484.19 -756.85 479.94L-756.85 368.62C-756.85 364.35 -755.15 360.12 -752.23 357.12L-752.23 357.11L-580.8 180.68C-533.59 132.09 -489.9 88.11 -457.46 56.29C-441.24 40.38 -427.85 27.53 -418.11 18.56C-413.24 14.08 -409.32 10.57 -406.16 7.96C-404.59 6.67 -403.17 5.56 -401.67 4.55C-399.6 3.04 -398.49 2.6 -395.92 1.55ZM-383.21 845.12C-383.13 845.07 -383.06 845.02 -382.98 844.97C-382.84 844.88 -382.89 844.91 -383.21 845.12ZM-382.41 4.14C-381.95 4.45 -381.91 4.47 -382.15 4.32C-382.24 4.26 -382.32 4.2 -382.41 4.14ZM-393.85 69.21C-407.63 93.14 -449.43 169.21 -493.25 250.15C-516.8 293.64 -539.75 336.25 -556.9 368.4C-565.47 384.48 -572.61 397.95 -577.62 407.55C-579 410.21 -579.79 411.77 -580.83 413.8C-578.41 415.61 -576.62 417.09 -571.8 420.05C-557.17 429.03 -531.65 442.87 -491.81 463.61C-463.55 478.33 -437.71 491.74 -418.87 501.48C-409.45 506.36 -401.77 510.32 -396.43 513.05C-395.61 513.47 -395.23 513.67 -394.56 514.01C-393.89 513.68 -393.51 513.5 -392.69 513.09C-387.25 510.38 -379.35 506.37 -369.66 501.43C-350.29 491.54 -323.69 477.85 -294.59 462.75L-203.26 415.36L-218.82 386.2C-231.55 362.35 -279.1 275.11 -324.19 192.88C-354.02 138.48 -373.04 103.89 -385.3 82.91C-389.16 76.29 -391.27 73.23 -393.85 69.21ZM-491.97 154.57C-491.97 154.57 -491.97 154.57 -491.97 154.57C-491.97 154.57 -491.97 154.57 -491.97 154.57L-491.97 154.57ZM-491.97 154.57C-515.14 178.27 -538.13 201.76 -567.39 232.06L-711.1 380.87L-711.1 420.96C-711.1 432.29 -711.16 439.22 -711.02 444.92C-709.96 444.52 -709.1 444.12 -707.83 443.56C-699.12 439.42 -686.62 433.63 -668.85 425.08L-628.86 405.84L-536.13 236.17C-518.82 204.5 -505.86 180.34 -491.97 154.57ZM-292.78 156.91C-250.09 235.26 -189.03 347.23 -174.28 373.95L-156.07 406.95L-110.94 428.17C-110.86 428.21 -110.79 428.25 -110.71 428.29C-110.68 428.3 -110.65 428.32 -110.61 428.34C-97.84 434.34 -86.12 439.71 -76.86 443.86C-76.46 436.25 -76.08 428.13 -76.08 417.85L-76.08 375.48L-128.03 323.54C-159.33 292.24 -227 223.73 -278.57 171.15C-285.1 164.49 -287.28 162.47 -292.78 156.91L-292.78 156.91ZM-270.87 501.71L-368.1 552.16L-369.34 666.72C-369.72 700.88 -369.89 732.89 -369.85 756.86C-369.85 761.23 -369.8 763.69 -369.78 767.49C-365.05 763.21 -361.92 760.62 -355.41 754.42C-329.25 729.5 -289.42 689.9 -235.14 634.85C-191.49 590.58 -152.2 549.91 -124.17 520.16C-110.94 506.12 -100.74 495.02 -93.32 486.7C-102.78 482.03 -115.26 476.1 -128.64 469.98L-171.72 450.25L-270.87 501.71ZM-646.35 464.94C-665.1 473.8 -684.23 482.58 -695.19 487.45L-553.21 633.05C-509.64 677.73 -469.63 718.38 -440.3 747.83C-429.82 758.34 -422.68 765.38 -415.27 772.7C-415.21 771.06 -415.15 770.25 -415.1 768.43C-414.45 744.88 -414.05 712.13 -414.05 676.1L-414.05 554.63L-513.76 502.99L-615.45 450.33L-646.35 464.94Z" />
		<path id="path851" fill-rule="evenodd" class="shp0" d="M-2860.02 71.62C-2857.93 72.28 -2855.92 73.22 -2854.05 74.4C-2852.17 75.58 -2850.45 77.01 -2848.92 78.63C-2847.38 80.26 -2846.05 82.08 -2844.96 84.05L-2480.95 737.87C-2478.64 742.01 -2477.43 746.71 -2477.43 751.49C-2477.43 756.27 -2478.64 760.97 -2480.95 765.11C-2483.26 769.25 -2486.57 772.69 -2490.57 775.08C-2494.56 777.47 -2499.09 778.73 -2503.7 778.73L-3231.73 778.73C-3236.34 778.73 -3240.87 777.47 -3244.86 775.08C-3248.86 772.69 -3252.17 769.25 -3254.48 765.11C-3256.78 760.97 -3258 756.27 -3258 751.49C-3258 746.71 -3256.79 742.01 -3254.48 737.87L-2890.46 84.05C-2889.26 81.89 -2887.78 79.92 -2886.06 78.18C-2884.35 76.44 -2882.41 74.96 -2880.31 73.76C-2878.2 72.57 -2875.95 71.68 -2873.61 71.12C-2871.27 70.57 -2868.87 70.34 -2866.48 70.46C-2864.29 70.56 -2862.12 70.95 -2860.02 71.62ZM-2841.45 517.81L-2575.47 677.06L-2841.45 199.32L-2841.45 517.81ZM-3159.96 677.06L-2893.98 517.81L-2893.98 199.34L-3159.96 677.06ZM-3133.68 724.25L-2601.74 724.25L-2867.71 565.01L-3133.68 724.25Z" />
		<path id="path864" fill-rule="evenodd" class="shp0" d="M-2038.07 1.06C-2037.07 1.08 -2036.07 1.17 -2035.08 1.33C-2034.09 1.48 -2033.11 1.7 -2032.14 1.98C-2031.18 2.26 -2030.23 2.6 -2029.31 3C-2028.39 3.41 -2027.49 3.87 -2026.62 4.39L-1693.88 203.7C-1692.06 204.79 -1690.39 206.12 -1688.9 207.66C-1687.42 209.2 -1686.14 210.93 -1685.09 212.82C-1684.04 214.7 -1683.23 216.72 -1682.69 218.82C-1682.14 220.93 -1681.87 223.09 -1681.87 225.27L-1681.87 623.89C-1681.87 626.06 -1682.14 628.23 -1682.69 630.33C-1683.23 632.44 -1684.04 634.46 -1685.09 636.34C-1686.14 638.23 -1687.42 639.96 -1688.9 641.5C-1690.39 643.04 -1692.06 644.37 -1693.88 645.46L-2026.62 844.77C-2028.44 845.86 -2030.39 846.7 -2032.42 847.26C-2034.45 847.82 -2036.54 848.11 -2038.64 848.11C-2040.74 848.11 -2042.83 847.82 -2044.86 847.26C-2046.88 846.7 -2048.83 845.86 -2050.65 844.77L-2383.39 645.46C-2385.2 644.37 -2386.88 643.04 -2388.36 641.5C-2389.84 639.96 -2391.13 638.23 -2392.18 636.34C-2393.23 634.46 -2394.03 632.44 -2394.58 630.33C-2395.12 628.23 -2395.39 626.06 -2395.39 623.89L-2395.39 225.27C-2395.39 223.09 -2395.12 220.93 -2394.58 218.82C-2394.03 216.72 -2393.23 214.7 -2392.18 212.82C-2391.13 210.93 -2389.84 209.2 -2388.36 207.66C-2386.88 206.12 -2385.2 204.79 -2383.39 203.7L-2050.65 4.39C-2049.7 3.82 -2048.71 3.32 -2047.7 2.89C-2046.68 2.46 -2045.64 2.11 -2044.58 1.83C-2043.52 1.54 -2042.44 1.34 -2041.35 1.21C-2040.26 1.08 -2039.16 1.03 -2038.07 1.06ZM-2323.35 225.27L-2038.63 395.81L-1753.94 225.27L-2038.63 54.73L-2323.35 225.27ZM-2347.35 609.51L-2062.66 780.03L-2062.66 438.96L-2347.35 268.43L-2347.35 609.51ZM-2014.61 438.96L-2014.61 780.03L-1729.92 609.51L-1729.92 268.43L-2014.61 438.96Z" />
		<path id="path875" fill-rule="evenodd" class="shp0" d="M-1218.8 1.07C-1214.77 1.17 -1210.84 2.32 -1207.35 4.4L-874.5 203.71C-864.72 209.8 -862.82 215.04 -862.49 225.87L-862.44 623.9C-862.44 632.8 -867.02 641.02 -874.46 645.47L-1207.36 844.78C-1207.77 845.03 -1208.19 845.26 -1208.62 845.48C-1208.95 845.64 -1209.29 845.8 -1209.63 845.95C-1210.04 846.15 -1210.45 846.33 -1210.87 846.49C-1211.12 846.59 -1211.38 846.68 -1211.64 846.77C-1212.14 846.95 -1212.65 847.11 -1213.16 847.26C-1213.47 847.34 -1213.79 847.41 -1214.1 847.48C-1214.54 847.58 -1214.99 847.68 -1215.44 847.76C-1215.79 847.82 -1216.15 847.87 -1216.5 847.91C-1216.95 847.97 -1217.39 848.02 -1217.84 848.06C-1218.22 848.08 -1218.59 848.09 -1218.97 848.09C-1219.4 848.1 -1219.83 848.1 -1220.25 848.09C-1220.58 848.07 -1220.91 848.04 -1221.23 848.01C-1221.71 847.98 -1222.18 847.93 -1222.65 847.87C-1222.98 847.82 -1223.29 847.76 -1223.61 847.69C-1224.09 847.61 -1224.56 847.51 -1225.03 847.4C-1225.29 847.33 -1225.55 847.26 -1225.81 847.18C-1226.34 847.03 -1226.87 846.86 -1227.39 846.67C-1227.63 846.58 -1227.87 846.49 -1228.1 846.39C-1228.58 846.2 -1229.04 845.99 -1229.5 845.78C-1229.89 845.58 -1230.27 845.38 -1230.64 845.17C-1230.89 845.04 -1231.13 844.91 -1231.37 844.78L-1231.87 844.48L-1564.27 645.47C-1571.7 641.03 -1576.29 632.8 -1576.29 623.9L-1576.29 225.28C-1575.51 216.15 -1572.01 208.34 -1563.78 203.42L-1231.38 4.4C-1227.56 2.11 -1223.21 0.96 -1218.8 1.07L-1218.8 1.07ZM-1462.6 200.37L-976.15 200.37L-1219.36 54.75L-1462.6 200.37ZM-1219.36 773.38L-928.12 250.2L-1510.64 250.2L-1219.36 773.38ZM-1528.24 609.52L-1285 755.14L-1528.24 318.25L-1528.24 609.52ZM-1153.74 755.14L-910.49 609.51L-910.51 318.25L-1153.74 755.14Z" />
		<path id="path886" fill-rule="evenodd" class="shp0" d="M513.02 100.7C517.81 100.7 522.48 102.18 526.45 104.95L612.05 164.76C612.4 165 612.75 165.25 613.09 165.51L613.11 165.54C613.75 166.03 614.35 166.56 614.94 167.12L614.96 167.14C615.54 167.69 616.09 168.28 616.61 168.89L616.63 168.91C617.16 169.53 617.65 170.17 618.11 170.84L618.14 170.86C618.6 171.53 619.02 172.21 619.42 172.92L619.44 172.96L719.34 352.33C719.44 352.5 719.53 352.68 719.62 352.86C719.89 353.38 720.14 353.92 720.37 354.46C720.49 354.71 720.61 354.97 720.72 355.23C720.87 355.64 721.02 356.05 721.16 356.47C721.29 356.84 721.42 357.22 721.54 357.6C721.68 358.12 721.81 358.65 721.92 359.18C721.97 359.4 722.03 359.62 722.08 359.85C722.08 359.87 722.09 359.9 722.09 359.92C722.17 360.37 722.24 360.83 722.3 361.29C722.36 361.7 722.42 362.12 722.46 362.54C722.48 362.86 722.49 363.17 722.51 363.49C722.54 363.92 722.56 364.36 722.57 364.79L722.57 365.13L722.52 484.39C722.52 488.75 721.41 493.04 719.31 496.83L619.44 676.21C617.33 680 614.3 683.14 610.64 685.32L510.79 745.12C510.62 745.21 510.46 745.31 510.29 745.4C510.26 745.42 510.24 745.43 510.21 745.45C509.92 745.6 509.64 745.74 509.34 745.88C508.92 746.11 508.49 746.33 508.05 746.53L508.04 746.53C507.97 746.55 507.91 746.58 507.84 746.6C507.17 746.89 506.48 747.14 505.79 747.37C505.02 747.61 504.24 747.81 503.46 747.98C502.67 748.14 501.88 748.26 501.08 748.34C500.31 748.41 499.55 748.45 498.78 748.46L299.14 748.46C298.95 748.46 298.76 748.45 298.57 748.44C297.92 748.42 297.28 748.37 296.63 748.3C296.46 748.29 296.29 748.27 296.11 748.25C295.52 748.17 294.93 748.06 294.35 747.93C294.14 747.89 293.94 747.85 293.73 747.81C293.22 747.68 292.71 747.53 292.2 747.37C291.93 747.29 291.66 747.2 291.39 747.12C290.83 746.91 290.27 746.69 289.73 746.45C289.55 746.38 289.38 746.3 289.21 746.23C288.78 746.02 288.35 745.79 287.93 745.55C287.66 745.41 287.39 745.27 287.13 745.13L286.84 744.95L187.18 685.34C183.53 683.15 180.5 680 178.39 676.21L78.52 496.83C76.42 493.04 75.31 488.75 75.31 484.39L75.26 364.79C75.26 364.59 75.27 364.39 75.27 364.2C75.27 364.17 75.27 364.14 75.27 364.11C75.29 363.69 75.32 363.27 75.37 362.85C75.39 362.45 75.42 362.06 75.46 361.66C75.49 361.46 75.52 361.27 75.55 361.07C75.64 360.44 75.75 359.8 75.89 359.18C76.07 358.37 76.29 357.57 76.54 356.78C76.79 356.02 77.07 355.28 77.39 354.55L77.4 354.52C77.55 354.21 77.7 353.9 77.86 353.6C78.06 353.17 78.26 352.75 78.48 352.33L78.53 352.26L178.39 172.96C178.47 172.82 178.55 172.68 178.63 172.54C178.66 172.49 178.69 172.43 178.72 172.38C178.98 171.96 179.25 171.55 179.53 171.15C179.71 170.87 179.9 170.59 180.09 170.31C180.46 169.83 180.84 169.35 181.24 168.9C181.37 168.74 181.51 168.59 181.64 168.43C181.95 168.1 182.26 167.77 182.59 167.45C182.86 167.17 183.14 166.89 183.43 166.62C183.7 166.39 183.98 166.15 184.26 165.93C184.61 165.64 184.96 165.35 185.33 165.08C185.59 164.89 185.87 164.71 186.14 164.53C186.49 164.29 186.83 164.06 187.18 163.83L187.47 163.67L287.04 104.04C290.69 101.85 294.84 100.7 299.06 100.7L513.02 100.7ZM267 173.58L401.65 200.47L537.31 172.61L505.7 150.53L305.49 150.53L267 173.58ZM128.65 361.89L237.82 492.6L249.12 486.07L367.56 417.5L375.01 413.19L377.39 246.37L211.44 213.23L128.65 361.89ZM425.46 246.39L423.11 410.29L560.19 492.37L627.93 411.27L669.18 361.89L586.43 213.32L425.46 246.39ZM123.35 477.7L216.77 645.52L255.32 668.58L211.29 536.94L123.34 431.64L123.35 477.7ZM586.55 536.92L586.55 536.94L542.57 668.55L581.05 645.52L674.48 477.7L674.49 431.64L586.55 536.92ZM261.77 535.81L316.23 698.63L481.67 698.63L536.16 535.52L401.61 454.95C395.35 458.73 268.34 532.22 261.77 535.81Z" />
		<path id="path897" fill-rule="evenodd" class="shp0" d="M1185.16 1.06C1185.19 1.06 1185.21 1.06 1185.24 1.06C1185.27 1.06 1185.29 1.06 1185.32 1.06C1185.34 1.06 1185.37 1.07 1185.4 1.07C1185.42 1.07 1185.45 1.07 1185.47 1.07C1185.5 1.07 1185.53 1.07 1185.56 1.07C1185.59 1.07 1185.62 1.07 1185.65 1.08C1185.68 1.08 1185.7 1.08 1185.73 1.08C1185.76 1.08 1185.79 1.08 1185.82 1.08C1185.86 1.09 1185.9 1.09 1185.95 1.09C1185.99 1.09 1186.03 1.1 1186.07 1.1C1186.12 1.1 1186.16 1.11 1186.2 1.11C1186.24 1.11 1186.28 1.11 1186.33 1.12C1186.34 1.12 1186.36 1.12 1186.37 1.12C1186.39 1.12 1186.4 1.12 1186.42 1.12C1186.43 1.13 1186.45 1.13 1186.47 1.13C1186.48 1.13 1186.5 1.13 1186.51 1.13C1186.62 1.14 1186.73 1.14 1186.85 1.15C1186.96 1.16 1187.07 1.17 1187.18 1.17C1187.29 1.18 1187.4 1.19 1187.52 1.2C1187.63 1.21 1187.74 1.23 1187.85 1.24C1187.88 1.24 1187.91 1.25 1187.95 1.25C1187.98 1.25 1188.01 1.26 1188.04 1.26C1188.07 1.27 1188.1 1.27 1188.14 1.27C1188.17 1.28 1188.2 1.28 1188.23 1.29C1188.28 1.29 1188.32 1.3 1188.36 1.31C1188.41 1.32 1188.45 1.32 1188.5 1.33C1188.54 1.34 1188.59 1.35 1188.63 1.36C1188.67 1.36 1188.72 1.37 1188.76 1.38C1188.77 1.38 1188.78 1.39 1188.79 1.39C1188.8 1.39 1188.81 1.39 1188.82 1.39C1188.83 1.4 1188.84 1.4 1188.85 1.4C1188.86 1.4 1188.87 1.4 1188.88 1.41C1188.89 1.41 1188.9 1.41 1188.92 1.41C1188.93 1.41 1188.94 1.42 1188.95 1.42C1188.97 1.42 1188.98 1.42 1188.99 1.42C1189 1.43 1189.02 1.43 1189.03 1.43C1189.13 1.45 1189.22 1.46 1189.32 1.48C1189.42 1.49 1189.52 1.51 1189.62 1.53C1189.72 1.55 1189.81 1.57 1189.91 1.59C1190.01 1.6 1190.11 1.62 1190.21 1.65C1190.24 1.65 1190.28 1.66 1190.31 1.67C1190.35 1.68 1190.38 1.69 1190.42 1.7C1190.45 1.71 1190.49 1.72 1190.53 1.73C1190.56 1.73 1190.6 1.74 1190.63 1.75C1190.64 1.75 1190.64 1.75 1190.65 1.76C1190.66 1.76 1190.66 1.76 1190.67 1.76C1190.67 1.76 1190.68 1.76 1190.68 1.76C1190.69 1.76 1190.7 1.76 1190.7 1.76C1190.73 1.77 1190.76 1.78 1190.79 1.79C1190.83 1.8 1190.86 1.81 1190.89 1.82C1190.92 1.83 1190.95 1.84 1190.98 1.85C1191.01 1.85 1191.04 1.86 1191.07 1.87C1191.07 1.87 1191.08 1.87 1191.08 1.88C1191.08 1.88 1191.08 1.88 1191.08 1.88C1191.09 1.88 1191.09 1.88 1191.09 1.88C1191.09 1.88 1191.09 1.88 1191.1 1.88C1191.22 1.92 1191.34 1.95 1191.46 1.98C1191.58 2.01 1191.7 2.05 1191.82 2.08C1191.94 2.12 1192.06 2.15 1192.18 2.19C1192.3 2.23 1192.42 2.26 1192.54 2.3C1192.58 2.32 1192.61 2.33 1192.65 2.34C1192.69 2.35 1192.73 2.37 1192.76 2.38C1192.8 2.39 1192.84 2.41 1192.88 2.42C1192.91 2.43 1192.95 2.45 1192.99 2.46C1192.99 2.46 1192.99 2.46 1192.99 2.46C1193 2.46 1193 2.46 1193 2.47C1193 2.47 1193 2.47 1193.01 2.47C1193.01 2.47 1193.01 2.47 1193.01 2.47C1193.03 2.48 1193.05 2.49 1193.07 2.5C1193.09 2.5 1193.1 2.51 1193.12 2.52C1193.14 2.53 1193.16 2.54 1193.18 2.54C1193.2 2.55 1193.21 2.56 1193.23 2.57C1193.24 2.57 1193.25 2.58 1193.27 2.58C1193.28 2.58 1193.29 2.59 1193.3 2.59C1193.31 2.6 1193.32 2.6 1193.34 2.6C1193.35 2.61 1193.36 2.61 1193.37 2.62C1193.49 2.66 1193.61 2.71 1193.73 2.75C1193.85 2.8 1193.97 2.85 1194.09 2.9C1194.21 2.95 1194.33 3 1194.45 3.05C1194.57 3.1 1194.68 3.15 1194.8 3.2C1194.83 3.22 1194.86 3.23 1194.89 3.24C1194.92 3.26 1194.95 3.27 1194.98 3.28C1195 3.3 1195.03 3.31 1195.06 3.33C1195.09 3.34 1195.12 3.36 1195.15 3.37C1195.19 3.39 1195.23 3.41 1195.27 3.43C1195.31 3.46 1195.35 3.48 1195.39 3.5C1195.43 3.52 1195.47 3.54 1195.51 3.57C1195.55 3.59 1195.59 3.61 1195.63 3.63C1195.64 3.63 1195.64 3.64 1195.64 3.64C1195.65 3.64 1195.65 3.64 1195.66 3.64C1195.66 3.65 1195.66 3.65 1195.67 3.65C1195.67 3.65 1195.68 3.65 1195.68 3.66C1195.78 3.7 1195.88 3.75 1195.97 3.8C1196.07 3.85 1196.17 3.9 1196.27 3.95C1196.36 4 1196.46 4.06 1196.56 4.11C1196.65 4.16 1196.75 4.21 1196.85 4.27C1196.87 4.28 1196.89 4.29 1196.91 4.3C1196.93 4.31 1196.95 4.32 1196.97 4.33C1196.99 4.34 1197.01 4.35 1197.03 4.37C1197.05 4.38 1197.07 4.39 1197.09 4.4L1529.99 203.71C1530.03 203.74 1530.08 203.76 1530.12 203.79C1530.16 203.82 1530.2 203.85 1530.25 203.88C1530.29 203.91 1530.33 203.94 1530.37 203.97C1530.41 204 1530.46 204.03 1530.5 204.05C1530.57 204.1 1530.65 204.15 1530.72 204.2C1530.8 204.25 1530.87 204.29 1530.95 204.34C1531.02 204.39 1531.09 204.44 1531.17 204.49C1531.24 204.54 1531.31 204.59 1531.39 204.64C1531.48 204.7 1531.56 204.76 1531.65 204.83C1531.73 204.89 1531.82 204.95 1531.91 205.02C1531.99 205.08 1532.08 205.15 1532.16 205.21C1532.25 205.28 1532.33 205.34 1532.42 205.41C1532.48 205.46 1532.55 205.51 1532.62 205.57C1532.69 205.62 1532.76 205.68 1532.83 205.73C1532.9 205.79 1532.97 205.84 1533.03 205.9C1533.1 205.95 1533.17 206.01 1533.24 206.07C1533.32 206.14 1533.41 206.22 1533.5 206.3C1533.59 206.37 1533.67 206.45 1533.76 206.53C1533.85 206.61 1533.93 206.69 1534.02 206.77C1534.11 206.85 1534.19 206.93 1534.27 207.01C1534.35 207.08 1534.42 207.15 1534.49 207.22C1534.56 207.29 1534.64 207.37 1534.71 207.44C1534.78 207.51 1534.85 207.58 1534.92 207.65C1534.99 207.73 1535.06 207.8 1535.13 207.87C1535.19 207.94 1535.26 208.01 1535.32 208.08C1535.38 208.15 1535.45 208.22 1535.51 208.29C1535.57 208.36 1535.63 208.43 1535.69 208.5C1535.76 208.57 1535.82 208.64 1535.88 208.71C1535.95 208.79 1536.01 208.87 1536.08 208.95C1536.15 209.03 1536.21 209.11 1536.28 209.19C1536.34 209.27 1536.41 209.35 1536.47 209.44C1536.54 209.52 1536.6 209.6 1536.66 209.68C1536.73 209.77 1536.8 209.86 1536.87 209.95C1536.94 210.04 1537.01 210.13 1537.08 210.22C1537.14 210.31 1537.21 210.4 1537.28 210.49C1537.34 210.59 1537.41 210.68 1537.47 210.77C1537.52 210.84 1537.57 210.91 1537.62 210.98C1537.67 211.06 1537.71 211.13 1537.76 211.2C1537.81 211.27 1537.85 211.34 1537.9 211.42C1537.95 211.49 1537.99 211.56 1538.04 211.63C1538.1 211.73 1538.16 211.83 1538.22 211.93C1538.28 212.03 1538.34 212.13 1538.4 212.23C1538.46 212.33 1538.52 212.43 1538.58 212.53C1538.64 212.63 1538.7 212.73 1538.75 212.83C1538.8 212.92 1538.85 213 1538.9 213.09C1538.94 213.17 1538.99 213.26 1539.04 213.35C1539.08 213.43 1539.13 213.52 1539.17 213.61C1539.22 213.7 1539.26 213.78 1539.31 213.87C1539.35 213.96 1539.39 214.04 1539.43 214.13C1539.48 214.22 1539.52 214.3 1539.56 214.39C1539.6 214.48 1539.64 214.56 1539.68 214.65C1539.72 214.74 1539.75 214.83 1539.79 214.91C1539.84 215.02 1539.88 215.12 1539.93 215.23C1539.97 215.33 1540.02 215.44 1540.06 215.54C1540.1 215.65 1540.15 215.76 1540.19 215.86C1540.23 215.97 1540.27 216.08 1540.31 216.18C1540.35 216.28 1540.38 216.37 1540.42 216.47C1540.45 216.56 1540.49 216.65 1540.52 216.75C1540.55 216.84 1540.59 216.94 1540.62 217.03C1540.65 217.13 1540.69 217.22 1540.72 217.32C1540.75 217.41 1540.77 217.5 1540.8 217.59C1540.83 217.68 1540.86 217.77 1540.88 217.86C1540.91 217.95 1540.94 218.04 1540.96 218.14C1540.99 218.23 1541.02 218.32 1541.04 218.41C1541.07 218.53 1541.11 218.65 1541.14 218.76C1541.17 218.88 1541.2 219 1541.23 219.12C1541.26 219.24 1541.29 219.36 1541.32 219.48C1541.34 219.6 1541.37 219.71 1541.4 219.83C1541.42 219.91 1541.43 219.99 1541.45 220.07C1541.46 220.15 1541.48 220.23 1541.5 220.31C1541.51 220.39 1541.53 220.47 1541.54 220.55C1541.55 220.63 1541.57 220.71 1541.58 220.79C1541.6 220.9 1541.62 221.01 1541.64 221.13C1541.66 221.24 1541.68 221.35 1541.7 221.46C1541.71 221.57 1541.73 221.68 1541.75 221.8C1541.76 221.91 1541.78 222.02 1541.79 222.13C1541.8 222.24 1541.82 222.35 1541.83 222.46C1541.84 222.57 1541.85 222.68 1541.86 222.79C1541.87 222.9 1541.88 223.01 1541.89 223.12C1541.9 223.23 1541.91 223.34 1541.92 223.45C1541.92 223.54 1541.93 223.63 1541.93 223.72C1541.94 223.81 1541.94 223.9 1541.95 223.99C1541.95 224.09 1541.95 224.18 1541.96 224.27C1541.96 224.36 1541.96 224.45 1541.96 224.54C1541.97 224.6 1541.97 224.66 1541.98 224.73C1541.98 224.79 1541.98 224.85 1541.99 224.91C1541.99 224.97 1541.99 225.03 1541.99 225.1C1542 225.16 1542 225.22 1542 225.28L1542 623.9C1542 623.95 1542 623.99 1542 624.03C1542 624.07 1542 624.11 1542 624.16C1541.99 624.2 1541.99 624.24 1541.99 624.28C1541.99 624.32 1541.99 624.37 1541.99 624.41C1541.99 624.44 1541.99 624.47 1541.99 624.51C1541.98 624.54 1541.98 624.57 1541.98 624.6C1541.98 624.64 1541.98 624.67 1541.98 624.7C1541.98 624.74 1541.98 624.77 1541.98 624.8C1541.98 624.81 1541.97 624.82 1541.97 624.83C1541.97 624.84 1541.97 624.85 1541.97 624.86C1541.97 624.86 1541.97 624.87 1541.97 624.88C1541.97 624.89 1541.97 624.9 1541.96 624.91C1541.96 624.92 1541.96 624.94 1541.96 624.95C1541.96 624.96 1541.96 624.97 1541.96 624.99C1541.96 625 1541.96 625.01 1541.96 625.03C1541.96 625.04 1541.96 625.05 1541.96 625.06C1541.96 625.07 1541.96 625.07 1541.96 625.07C1541.96 625.07 1541.96 625.07 1541.96 625.08C1541.96 625.08 1541.96 625.08 1541.96 625.08C1541.96 625.08 1541.96 625.09 1541.96 625.09C1541.96 625.18 1541.95 625.27 1541.95 625.37C1541.94 625.46 1541.93 625.55 1541.92 625.65C1541.92 625.74 1541.91 625.83 1541.9 625.92C1541.89 626.02 1541.88 626.11 1541.87 626.2C1541.86 626.3 1541.85 626.4 1541.85 626.49C1541.84 626.59 1541.83 626.69 1541.82 626.78C1541.8 626.88 1541.79 626.98 1541.78 627.07C1541.77 627.17 1541.76 627.27 1541.75 627.36C1541.74 627.37 1541.74 627.38 1541.74 627.39C1541.74 627.4 1541.74 627.41 1541.74 627.42C1541.74 627.43 1541.74 627.44 1541.74 627.45C1541.74 627.46 1541.73 627.47 1541.73 627.48C1541.73 627.5 1541.73 627.51 1541.73 627.53C1541.73 627.54 1541.72 627.56 1541.72 627.57C1541.72 627.59 1541.72 627.6 1541.72 627.62C1541.71 627.63 1541.71 627.65 1541.71 627.66C1541.7 627.75 1541.68 627.84 1541.67 627.93C1541.65 628.03 1541.63 628.12 1541.62 628.21C1541.6 628.3 1541.58 628.39 1541.57 628.48C1541.55 628.57 1541.53 628.66 1541.51 628.75C1541.5 628.84 1541.48 628.93 1541.46 629.02C1541.45 629.11 1541.43 629.2 1541.41 629.29C1541.39 629.38 1541.37 629.47 1541.35 629.56C1541.33 629.65 1541.31 629.74 1541.29 629.83C1541.29 629.83 1541.29 629.83 1541.29 629.83C1541.29 629.84 1541.29 629.84 1541.29 629.84C1541.29 629.84 1541.29 629.84 1541.29 629.85C1541.28 629.85 1541.28 629.85 1541.28 629.85C1541.28 629.86 1541.28 629.87 1541.28 629.89C1541.27 629.9 1541.27 629.91 1541.27 629.92C1541.27 629.93 1541.27 629.94 1541.26 629.95C1541.26 629.96 1541.26 629.97 1541.26 629.98C1541.26 629.99 1541.26 629.99 1541.26 629.99C1541.25 630 1541.25 630 1541.25 630C1541.25 630 1541.25 630.01 1541.25 630.01C1541.25 630.01 1541.25 630.02 1541.25 630.02C1541.22 630.12 1541.2 630.21 1541.17 630.31C1541.14 630.41 1541.11 630.51 1541.09 630.6C1541.06 630.7 1541.03 630.8 1541 630.89C1540.97 630.99 1540.94 631.08 1540.91 631.18C1540.89 631.27 1540.86 631.36 1540.84 631.45C1540.81 631.53 1540.78 631.62 1540.76 631.71C1540.73 631.8 1540.7 631.88 1540.67 631.97C1540.65 632.06 1540.62 632.15 1540.59 632.23C1540.59 632.24 1540.58 632.25 1540.58 632.25C1540.58 632.26 1540.58 632.26 1540.58 632.27C1540.58 632.28 1540.57 632.28 1540.57 632.29C1540.57 632.29 1540.57 632.3 1540.57 632.31C1540.56 632.31 1540.56 632.32 1540.56 632.32C1540.56 632.33 1540.56 632.33 1540.56 632.34C1540.56 632.34 1540.56 632.35 1540.56 632.35C1540.56 632.36 1540.55 632.36 1540.55 632.37C1540.55 632.37 1540.55 632.38 1540.54 632.39C1540.54 632.39 1540.54 632.4 1540.54 632.4C1540.53 632.41 1540.53 632.41 1540.53 632.42C1540.52 632.43 1540.52 632.43 1540.52 632.44C1540.49 632.51 1540.46 632.59 1540.44 632.66C1540.41 632.74 1540.38 632.81 1540.35 632.88C1540.33 632.96 1540.3 633.03 1540.27 633.1C1540.24 633.18 1540.21 633.25 1540.18 633.32C1540.14 633.43 1540.11 633.53 1540.07 633.63C1540.02 633.73 1539.98 633.83 1539.94 633.93C1539.9 634.03 1539.86 634.13 1539.82 634.23C1539.77 634.32 1539.73 634.42 1539.69 634.52C1539.68 634.55 1539.67 634.57 1539.66 634.59C1539.65 634.61 1539.63 634.64 1539.62 634.66C1539.61 634.68 1539.6 634.71 1539.59 634.73C1539.58 634.75 1539.57 634.77 1539.56 634.8C1539.54 634.84 1539.52 634.88 1539.49 634.93C1539.47 634.97 1539.45 635.01 1539.43 635.06C1539.41 635.1 1539.38 635.14 1539.36 635.18C1539.34 635.23 1539.32 635.27 1539.29 635.31C1539.28 635.34 1539.27 635.36 1539.26 635.38C1539.25 635.4 1539.24 635.43 1539.23 635.45C1539.21 635.47 1539.2 635.5 1539.19 635.52C1539.18 635.54 1539.17 635.56 1539.16 635.59C1539.11 635.68 1539.07 635.77 1539.02 635.86C1538.97 635.95 1538.93 636.04 1538.88 636.13C1538.83 636.22 1538.79 636.31 1538.74 636.4C1538.69 636.49 1538.64 636.58 1538.59 636.66C1538.57 636.69 1538.56 636.72 1538.54 636.75C1538.52 636.78 1538.5 636.81 1538.49 636.84C1538.47 636.87 1538.45 636.9 1538.43 636.93C1538.42 636.95 1538.4 636.98 1538.38 637.01C1538.35 637.06 1538.33 637.1 1538.3 637.14C1538.27 637.18 1538.24 637.23 1538.22 637.27C1538.19 637.31 1538.16 637.36 1538.13 637.4C1538.1 637.44 1538.08 637.48 1538.05 637.53C1538.04 637.54 1538.03 637.55 1538.02 637.57C1538.01 637.58 1538 637.6 1538 637.61C1537.99 637.62 1537.98 637.64 1537.97 637.65C1537.96 637.67 1537.95 637.68 1537.94 637.69C1537.89 637.78 1537.83 637.87 1537.77 637.96C1537.71 638.05 1537.66 638.14 1537.6 638.23C1537.54 638.32 1537.48 638.41 1537.42 638.5C1537.36 638.58 1537.3 638.67 1537.24 638.76C1537.22 638.78 1537.2 638.81 1537.18 638.83C1537.17 638.86 1537.15 638.88 1537.13 638.91C1537.11 638.93 1537.09 638.96 1537.08 638.98C1537.06 639.01 1537.04 639.03 1537.02 639.06C1536.97 639.12 1536.93 639.17 1536.88 639.23C1536.84 639.29 1536.79 639.35 1536.75 639.4C1536.7 639.46 1536.65 639.52 1536.61 639.57C1536.56 639.63 1536.51 639.68 1536.47 639.74C1536.41 639.82 1536.35 639.89 1536.29 639.97C1536.23 640.04 1536.17 640.11 1536.11 640.19C1536.05 640.26 1535.99 640.34 1535.93 640.41C1535.87 640.48 1535.81 640.55 1535.75 640.63C1535.73 640.65 1535.7 640.68 1535.68 640.71C1535.65 640.74 1535.63 640.77 1535.61 640.79C1535.58 640.82 1535.56 640.85 1535.53 640.88C1535.51 640.91 1535.49 640.93 1535.46 640.96C1535.42 641.01 1535.37 641.06 1535.32 641.1C1535.28 641.15 1535.23 641.2 1535.19 641.25C1535.14 641.29 1535.09 641.34 1535.05 641.39C1535 641.43 1534.95 641.48 1534.91 641.52C1534.91 641.53 1534.91 641.53 1534.9 641.53C1534.9 641.53 1534.9 641.53 1534.9 641.53C1534.9 641.53 1534.9 641.53 1534.9 641.53C1534.9 641.53 1534.9 641.54 1534.9 641.54C1534.89 641.54 1534.89 641.54 1534.89 641.54C1534.89 641.54 1534.89 641.54 1534.89 641.54C1534.89 641.54 1534.89 641.54 1534.89 641.54C1534.89 641.55 1534.89 641.55 1534.88 641.55C1534.82 641.62 1534.75 641.69 1534.68 641.76C1534.61 641.84 1534.54 641.91 1534.47 641.98C1534.4 642.05 1534.33 642.12 1534.26 642.19C1534.18 642.26 1534.11 642.33 1534.04 642.4C1534.01 642.43 1533.98 642.46 1533.95 642.49C1533.91 642.51 1533.88 642.54 1533.85 642.57C1533.82 642.6 1533.79 642.63 1533.76 642.66C1533.72 642.69 1533.69 642.72 1533.66 642.74C1533.66 642.75 1533.65 642.75 1533.65 642.75C1533.65 642.76 1533.65 642.76 1533.64 642.76C1533.64 642.77 1533.64 642.77 1533.63 642.77C1533.63 642.77 1533.63 642.78 1533.62 642.78C1533.61 642.8 1533.59 642.81 1533.57 642.83C1533.55 642.84 1533.53 642.86 1533.51 642.87C1533.49 642.89 1533.47 642.9 1533.45 642.92C1533.43 642.93 1533.41 642.94 1533.39 642.96C1533.38 642.98 1533.36 642.99 1533.34 643.01C1533.32 643.02 1533.3 643.04 1533.28 643.06C1533.27 643.07 1533.25 643.09 1533.23 643.1C1533.21 643.12 1533.19 643.14 1533.17 643.15C1533.09 643.22 1533.01 643.3 1532.92 643.37C1532.84 643.44 1532.76 643.51 1532.67 643.58C1532.59 643.65 1532.5 643.72 1532.42 643.79C1532.33 643.85 1532.24 643.92 1532.16 643.99C1532.12 644.02 1532.09 644.04 1532.05 644.07C1532.02 644.09 1531.99 644.12 1531.95 644.15C1531.92 644.17 1531.88 644.2 1531.85 644.22C1531.81 644.25 1531.78 644.28 1531.74 644.3C1531.74 644.3 1531.74 644.3 1531.74 644.3C1531.74 644.3 1531.74 644.3 1531.74 644.3C1531.74 644.3 1531.74 644.3 1531.73 644.3C1531.73 644.3 1531.73 644.3 1531.73 644.3C1531.73 644.3 1531.73 644.31 1531.72 644.31C1531.72 644.31 1531.72 644.31 1531.71 644.31C1531.71 644.31 1531.71 644.32 1531.7 644.32C1531.7 644.32 1531.7 644.32 1531.7 644.32C1531.67 644.34 1531.65 644.36 1531.62 644.37C1531.6 644.39 1531.58 644.41 1531.55 644.42C1531.53 644.44 1531.5 644.45 1531.48 644.47C1531.46 644.48 1531.43 644.5 1531.41 644.52C1531.39 644.53 1531.37 644.54 1531.35 644.55C1531.33 644.56 1531.32 644.58 1531.3 644.59C1531.28 644.6 1531.26 644.61 1531.24 644.62C1531.22 644.64 1531.21 644.65 1531.19 644.66C1531.11 644.72 1531.03 644.77 1530.95 644.83C1530.87 644.89 1530.79 644.94 1530.71 645C1530.63 645.05 1530.55 645.1 1530.46 645.16C1530.38 645.21 1530.3 645.27 1530.22 645.32C1530.2 645.33 1530.18 645.34 1530.16 645.36C1530.14 645.37 1530.12 645.38 1530.1 645.4C1530.08 645.41 1530.06 645.42 1530.05 645.44C1530.03 645.45 1530.01 645.46 1529.99 645.47L1197.1 844.79C1197.05 844.81 1197 844.84 1196.96 844.86C1196.91 844.89 1196.86 844.92 1196.81 844.94C1196.76 844.97 1196.72 844.99 1196.67 845.02C1196.62 845.05 1196.57 845.07 1196.52 845.1C1196.45 845.14 1196.38 845.18 1196.31 845.22C1196.24 845.26 1196.16 845.3 1196.09 845.33C1196.02 845.37 1195.95 845.41 1195.87 845.45C1195.8 845.49 1195.73 845.53 1195.66 845.56C1195.55 845.62 1195.45 845.67 1195.35 845.72C1195.24 845.77 1195.14 845.82 1195.04 845.87C1194.93 845.92 1194.83 845.96 1194.72 846.01C1194.62 846.06 1194.51 846.11 1194.41 846.15C1194.33 846.18 1194.26 846.22 1194.18 846.25C1194.11 846.28 1194.03 846.31 1193.96 846.34C1193.88 846.37 1193.8 846.4 1193.73 846.43C1193.65 846.46 1193.57 846.49 1193.5 846.52C1193.38 846.57 1193.26 846.61 1193.14 846.66C1193.02 846.7 1192.9 846.74 1192.78 846.79C1192.66 846.83 1192.54 846.87 1192.42 846.91C1192.3 846.95 1192.18 846.99 1192.05 847.02C1191.99 847.05 1191.92 847.07 1191.85 847.09C1191.79 847.11 1191.72 847.13 1191.65 847.15C1191.58 847.17 1191.52 847.19 1191.45 847.21C1191.38 847.23 1191.31 847.25 1191.25 847.26C1191.13 847.3 1191.02 847.33 1190.9 847.36C1190.79 847.39 1190.67 847.41 1190.56 847.44C1190.44 847.47 1190.32 847.5 1190.21 847.52C1190.09 847.55 1189.98 847.58 1189.86 847.6C1189.77 847.62 1189.68 847.64 1189.59 847.66C1189.5 847.67 1189.41 847.69 1189.32 847.71C1189.23 847.73 1189.14 847.74 1189.05 847.76C1188.96 847.77 1188.87 847.79 1188.78 847.8C1188.66 847.82 1188.55 847.84 1188.44 847.85C1188.33 847.87 1188.22 847.88 1188.11 847.9C1188 847.91 1187.88 847.92 1187.77 847.94C1187.66 847.95 1187.55 847.96 1187.44 847.97C1187.36 847.98 1187.28 847.99 1187.2 848C1187.12 848 1187.04 848.01 1186.96 848.02C1186.88 848.02 1186.81 848.03 1186.73 848.04C1186.65 848.04 1186.57 848.05 1186.49 848.05C1186.37 848.06 1186.26 848.07 1186.14 848.07C1186.02 848.08 1185.91 848.08 1185.79 848.09C1185.68 848.09 1185.56 848.1 1185.44 848.1C1185.33 848.1 1185.21 848.1 1185.09 848.1C1184.99 848.1 1184.89 848.1 1184.79 848.1C1184.69 848.1 1184.59 848.09 1184.49 848.09C1184.39 848.09 1184.28 848.09 1184.18 848.08C1184.08 848.08 1183.98 848.07 1183.88 848.07C1183.8 848.06 1183.72 848.06 1183.64 848.05C1183.56 848.05 1183.48 848.04 1183.4 848.04C1183.31 848.03 1183.23 848.02 1183.15 848.02C1183.07 848.01 1182.99 848 1182.91 848C1182.79 847.98 1182.66 847.97 1182.54 847.96C1182.42 847.94 1182.29 847.93 1182.17 847.91C1182.05 847.9 1181.92 847.88 1181.8 847.86C1181.68 847.84 1181.56 847.82 1181.43 847.8C1181.35 847.79 1181.28 847.78 1181.2 847.77C1181.12 847.75 1181.04 847.74 1180.96 847.72C1180.89 847.71 1180.81 847.7 1180.73 847.68C1180.65 847.67 1180.58 847.65 1180.5 847.64C1180.39 847.61 1180.28 847.59 1180.17 847.57C1180.06 847.55 1179.95 847.52 1179.84 847.5C1179.73 847.47 1179.62 847.45 1179.51 847.42C1179.4 847.39 1179.29 847.37 1179.18 847.34C1179.09 847.31 1179 847.29 1178.91 847.26C1178.83 847.24 1178.74 847.21 1178.65 847.19C1178.56 847.16 1178.47 847.14 1178.38 847.11C1178.3 847.08 1178.21 847.05 1178.12 847.03C1178.01 846.99 1177.9 846.96 1177.79 846.92C1177.68 846.88 1177.57 846.85 1177.46 846.81C1177.35 846.77 1177.24 846.73 1177.13 846.69C1177.02 846.65 1176.91 846.61 1176.8 846.57C1176.73 846.54 1176.66 846.52 1176.59 846.49C1176.52 846.46 1176.45 846.43 1176.38 846.41C1176.31 846.38 1176.24 846.35 1176.17 846.32C1176.1 846.29 1176.03 846.26 1175.96 846.24C1175.84 846.19 1175.73 846.13 1175.61 846.08C1175.49 846.03 1175.38 845.98 1175.26 845.92C1175.15 845.87 1175.03 845.81 1174.92 845.76C1174.8 845.7 1174.69 845.65 1174.57 845.59C1174.5 845.55 1174.44 845.52 1174.37 845.48C1174.3 845.44 1174.23 845.41 1174.16 845.37C1174.09 845.33 1174.02 845.3 1173.95 845.26C1173.88 845.22 1173.81 845.18 1173.74 845.15C1173.69 845.12 1173.63 845.09 1173.58 845.06C1173.52 845.03 1173.46 845 1173.41 844.97C1173.35 844.94 1173.3 844.91 1173.24 844.88C1173.18 844.85 1173.13 844.82 1173.07 844.79L840.18 645.48C840.14 645.46 840.11 645.44 840.08 645.42C840.05 645.4 840.02 645.38 839.99 645.37C839.96 645.35 839.93 645.33 839.9 645.31C839.87 645.29 839.84 645.27 839.81 645.25C839.77 645.23 839.74 645.21 839.7 645.19C839.67 645.16 839.64 645.14 839.6 645.12C839.57 645.1 839.54 645.08 839.5 645.05C839.47 645.03 839.44 645.01 839.4 644.99C839.39 644.98 839.38 644.97 839.36 644.96C839.35 644.95 839.34 644.94 839.33 644.93C839.31 644.92 839.3 644.91 839.29 644.91C839.28 644.9 839.26 644.89 839.25 644.88C839.25 644.88 839.25 644.87 839.24 644.87C839.24 644.87 839.24 644.87 839.23 644.87C839.23 644.86 839.23 644.86 839.23 644.86C839.22 644.86 839.22 644.86 839.22 644.86C839.14 644.8 839.06 644.75 838.99 644.69C838.91 644.64 838.83 644.59 838.76 644.53C838.68 644.48 838.61 644.42 838.53 644.37C838.45 644.31 838.38 644.25 838.3 644.2C838.23 644.14 838.15 644.08 838.07 644.03C837.99 643.97 837.91 643.91 837.83 643.86C837.76 643.8 837.68 643.74 837.6 643.68C837.52 643.62 837.45 643.56 837.37 643.5C837.36 643.5 837.36 643.49 837.35 643.49C837.35 643.48 837.34 643.48 837.34 643.47C837.34 643.47 837.33 643.46 837.33 643.46C837.32 643.45 837.32 643.45 837.31 643.44C837.31 643.44 837.3 643.44 837.3 643.43C837.29 643.43 837.29 643.43 837.29 643.43C837.28 643.43 837.28 643.42 837.28 643.42C837.27 643.42 837.27 643.42 837.26 643.42C837.26 643.41 837.25 643.41 837.25 643.4C837.24 643.4 837.23 643.39 837.23 643.39C837.22 643.38 837.22 643.38 837.21 643.37C837.21 643.37 837.2 643.36 837.19 643.36C837.13 643.3 837.06 643.24 836.99 643.18C836.92 643.12 836.85 643.06 836.79 643C836.72 642.94 836.65 642.88 836.59 642.82C836.52 642.76 836.45 642.7 836.39 642.64C836.32 642.58 836.25 642.52 836.18 642.46C836.12 642.39 836.05 642.33 835.98 642.27C835.92 642.21 835.85 642.15 835.79 642.08C835.72 642.02 835.65 641.96 835.59 641.89C835.58 641.89 835.58 641.88 835.57 641.88C835.57 641.87 835.56 641.87 835.56 641.86C835.56 641.86 835.55 641.85 835.55 641.85C835.54 641.84 835.54 641.84 835.53 641.83C835.52 641.83 835.52 641.82 835.51 641.82C835.5 641.81 835.5 641.8 835.49 641.8C835.48 641.79 835.48 641.79 835.47 641.78C835.46 641.77 835.46 641.77 835.45 641.76C835.44 641.76 835.44 641.75 835.43 641.74C835.43 641.74 835.42 641.73 835.41 641.73C835.41 641.72 835.4 641.71 835.4 641.71C835.39 641.7 835.39 641.7 835.38 641.69C835.32 641.63 835.26 641.56 835.2 641.5C835.14 641.44 835.08 641.37 835.02 641.31C834.97 641.25 834.91 641.18 834.85 641.12C834.79 641.05 834.73 640.99 834.68 640.92C834.61 640.86 834.55 640.79 834.49 640.72C834.43 640.65 834.36 640.58 834.3 640.51C834.24 640.44 834.18 640.37 834.12 640.3C834.06 640.23 834 640.16 833.94 640.09C833.92 640.07 833.9 640.05 833.89 640.03C833.87 640.01 833.85 639.99 833.84 639.97C833.82 639.95 833.81 639.93 833.79 639.91C833.77 639.89 833.76 639.87 833.74 639.85C833.7 639.79 833.66 639.74 833.62 639.69C833.58 639.64 833.55 639.59 833.51 639.54C833.47 639.48 833.43 639.43 833.39 639.38C833.35 639.33 833.32 639.28 833.28 639.22C833.27 639.21 833.25 639.19 833.24 639.17C833.23 639.16 833.22 639.14 833.2 639.12C833.19 639.1 833.18 639.09 833.17 639.07C833.15 639.05 833.14 639.04 833.13 639.02C833.08 638.95 833.02 638.88 832.97 638.81C832.92 638.74 832.87 638.67 832.82 638.6C832.77 638.53 832.72 638.46 832.67 638.39C832.62 638.32 832.57 638.25 832.52 638.18C832.49 638.15 832.47 638.12 832.45 638.08C832.43 638.05 832.41 638.02 832.38 637.98C832.36 637.95 832.34 637.92 832.32 637.89C832.3 637.85 832.27 637.82 832.25 637.79C832.22 637.74 832.2 637.7 832.17 637.65C832.14 637.6 832.11 637.56 832.09 637.51C832.06 637.47 832.03 637.42 832.01 637.37C831.98 637.33 831.95 637.28 831.93 637.24C831.92 637.23 831.91 637.22 831.91 637.21C831.9 637.2 831.89 637.19 831.89 637.18C831.88 637.17 831.87 637.16 831.87 637.15C831.86 637.14 831.85 637.13 831.85 637.12C831.79 637.02 831.73 636.92 831.67 636.82C831.61 636.72 831.55 636.62 831.49 636.52C831.43 636.42 831.38 636.32 831.32 636.22C831.26 636.12 831.21 636.02 831.15 635.92C831.15 635.91 831.15 635.91 831.14 635.9C831.14 635.89 831.13 635.88 831.13 635.88C831.13 635.87 831.12 635.86 831.12 635.86C831.11 635.85 831.11 635.84 831.11 635.84C831.1 635.82 831.1 635.81 831.09 635.8C831.08 635.79 831.08 635.78 831.07 635.77C831.07 635.76 831.06 635.75 831.05 635.74C831.05 635.73 831.04 635.72 831.04 635.7C831.01 635.66 830.99 635.61 830.97 635.56C830.94 635.51 830.92 635.46 830.9 635.41C830.87 635.36 830.85 635.31 830.83 635.26C830.81 635.22 830.78 635.17 830.76 635.12C830.7 635 830.65 634.89 830.59 634.78C830.54 634.67 830.49 634.55 830.43 634.44C830.38 634.33 830.33 634.21 830.28 634.1C830.23 633.98 830.17 633.87 830.13 633.75C830.12 633.73 830.11 633.71 830.1 633.68C830.09 633.66 830.08 633.64 830.07 633.61C830.06 633.59 830.06 633.57 830.05 633.55C830.04 633.52 830.03 633.5 830.02 633.48C830 633.43 829.99 633.38 829.97 633.33C829.95 633.29 829.93 633.24 829.92 633.19C829.9 633.14 829.88 633.09 829.86 633.05C829.85 633 829.83 632.95 829.81 632.9C829.81 632.89 829.8 632.88 829.8 632.87C829.79 632.85 829.79 632.84 829.78 632.83C829.78 632.82 829.77 632.81 829.77 632.79C829.76 632.78 829.76 632.77 829.75 632.76C829.71 632.65 829.67 632.54 829.63 632.43C829.59 632.32 829.55 632.21 829.51 632.1C829.48 631.99 829.44 631.88 829.4 631.77C829.36 631.66 829.33 631.55 829.29 631.44C829.28 631.41 829.27 631.38 829.27 631.35C829.26 631.32 829.25 631.29 829.24 631.26C829.23 631.23 829.22 631.19 829.21 631.16C829.21 631.13 829.2 631.1 829.19 631.07C829.17 631 829.15 630.94 829.14 630.87C829.12 630.81 829.1 630.74 829.09 630.68C829.07 630.61 829.05 630.54 829.04 630.48C829.02 630.41 829.01 630.35 828.99 630.28C828.99 630.26 828.98 630.25 828.98 630.23C828.98 630.22 828.97 630.2 828.97 630.18C828.96 630.17 828.96 630.15 828.96 630.14C828.95 630.12 828.95 630.1 828.94 630.09C828.92 630.01 828.9 629.93 828.88 629.85C828.86 629.77 828.84 629.69 828.82 629.61C828.8 629.53 828.78 629.45 828.76 629.37C828.74 629.29 828.72 629.21 828.7 629.13C828.69 629.09 828.68 629.05 828.68 629.01C828.67 628.97 828.66 628.93 828.65 628.89C828.64 628.84 828.63 628.8 828.62 628.76C828.61 628.72 828.61 628.68 828.6 628.64C828.59 628.58 828.58 628.51 828.57 628.45C828.56 628.38 828.55 628.32 828.54 628.26C828.53 628.19 828.53 628.13 828.52 628.07C828.51 628 828.5 627.94 828.49 627.87C828.49 627.87 828.49 627.86 828.49 627.86C828.49 627.85 828.49 627.84 828.49 627.84C828.49 627.83 828.49 627.83 828.49 627.82C828.48 627.81 828.48 627.81 828.48 627.8C828.46 627.7 828.45 627.6 828.43 627.49C828.41 627.39 828.4 627.29 828.38 627.19C828.37 627.08 828.35 626.98 828.34 626.88C828.32 626.77 828.31 626.67 828.3 626.57C828.3 626.53 828.29 626.49 828.29 626.46C828.29 626.42 828.28 626.38 828.28 626.35C828.28 626.31 828.27 626.27 828.27 626.24C828.27 626.2 828.27 626.16 828.26 626.12C828.26 626.08 828.26 626.04 828.26 626C828.25 625.96 828.25 625.92 828.25 625.87C828.25 625.83 828.25 625.79 828.24 625.75C828.24 625.71 828.24 625.66 828.24 625.62C828.24 625.61 828.24 625.6 828.24 625.59C828.24 625.57 828.23 625.56 828.23 625.55C828.23 625.54 828.23 625.53 828.23 625.51C828.23 625.5 828.23 625.49 828.23 625.48C828.23 625.47 828.23 625.46 828.22 625.44C828.22 625.43 828.22 625.42 828.22 625.41C828.22 625.4 828.22 625.38 828.22 625.37C828.22 625.36 828.22 625.35 828.22 625.34C828.21 625.24 828.2 625.15 828.2 625.06C828.19 624.96 828.19 624.87 828.18 624.78C828.18 624.69 828.17 624.59 828.17 624.5C828.16 624.41 828.16 624.31 828.16 624.22C828.16 624.2 828.15 624.17 828.15 624.14C828.15 624.11 828.15 624.09 828.15 624.06C828.15 624.03 828.15 624.01 828.15 623.98C828.15 623.95 828.15 623.93 828.15 623.9L828.15 225.28C828.15 225.22 828.15 225.17 828.15 225.11C828.16 225.05 828.16 224.99 828.16 224.93C828.16 224.88 828.17 224.82 828.17 224.76C828.17 224.7 828.18 224.65 828.18 224.59C828.18 224.5 828.19 224.42 828.19 224.33C828.19 224.25 828.2 224.16 828.2 224.08C828.2 223.99 828.21 223.91 828.21 223.82C828.22 223.74 828.22 223.65 828.23 223.57C828.24 223.46 828.24 223.36 828.25 223.25C828.26 223.15 828.27 223.04 828.28 222.93C828.29 222.83 828.31 222.72 828.32 222.62C828.33 222.51 828.34 222.41 828.35 222.3C828.37 222.2 828.38 222.11 828.39 222.01C828.4 221.91 828.41 221.82 828.42 221.72C828.44 221.62 828.45 221.53 828.46 221.43C828.48 221.33 828.49 221.24 828.5 221.14C828.52 221.02 828.55 220.9 828.57 220.78C828.59 220.66 828.61 220.54 828.63 220.43C828.66 220.31 828.68 220.19 828.71 220.07C828.73 219.95 828.76 219.83 828.78 219.71C828.8 219.63 828.82 219.54 828.84 219.46C828.86 219.37 828.88 219.28 828.9 219.2C828.92 219.11 828.95 219.03 828.97 218.94C828.99 218.86 829.01 218.77 829.04 218.69C829.06 218.58 829.09 218.47 829.12 218.36C829.16 218.25 829.19 218.14 829.22 218.04C829.25 217.93 829.28 217.82 829.32 217.71C829.35 217.61 829.38 217.5 829.42 217.39C829.45 217.3 829.47 217.21 829.5 217.12C829.53 217.03 829.56 216.94 829.6 216.85C829.63 216.75 829.66 216.66 829.69 216.57C829.72 216.48 829.75 216.39 829.79 216.3C829.82 216.2 829.86 216.1 829.9 216C829.94 215.9 829.98 215.8 830.02 215.7C830.06 215.6 830.1 215.5 830.14 215.4C830.19 215.3 830.23 215.2 830.27 215.11C830.31 215.01 830.35 214.92 830.39 214.83C830.43 214.74 830.48 214.64 830.52 214.55C830.56 214.46 830.6 214.37 830.65 214.28C830.69 214.19 830.73 214.09 830.78 214C830.82 213.91 830.87 213.82 830.91 213.73C830.96 213.63 831.01 213.54 831.05 213.45C831.1 213.36 831.15 213.27 831.2 213.17C831.25 213.08 831.29 212.99 831.34 212.9C831.4 212.81 831.45 212.71 831.5 212.62C831.56 212.53 831.61 212.43 831.67 212.34C831.72 212.25 831.78 212.16 831.83 212.06C831.89 211.97 831.95 211.88 832 211.79C832.05 211.71 832.1 211.64 832.15 211.56C832.2 211.48 832.25 211.41 832.3 211.33C832.35 211.25 832.4 211.18 832.45 211.1C832.5 211.03 832.55 210.95 832.6 210.88C832.67 210.78 832.73 210.69 832.8 210.59C832.86 210.5 832.93 210.4 833 210.31C833.07 210.22 833.13 210.12 833.2 210.03C833.27 209.94 833.34 209.85 833.41 209.75C833.47 209.68 833.53 209.61 833.59 209.53C833.64 209.46 833.7 209.39 833.76 209.31C833.82 209.24 833.88 209.17 833.94 209.09C834 209.02 834.07 208.95 834.13 208.88C834.19 208.8 834.26 208.72 834.33 208.64C834.4 208.56 834.47 208.48 834.54 208.4C834.61 208.32 834.68 208.24 834.75 208.17C834.83 208.09 834.9 208.01 834.97 207.93C835.04 207.86 835.1 207.8 835.17 207.73C835.23 207.66 835.3 207.59 835.37 207.52C835.44 207.45 835.5 207.39 835.57 207.32C835.64 207.25 835.71 207.19 835.78 207.12C835.86 207.04 835.94 206.96 836.02 206.89C836.1 206.81 836.18 206.73 836.26 206.66C836.34 206.58 836.42 206.51 836.5 206.43C836.58 206.36 836.66 206.28 836.75 206.21C836.82 206.15 836.89 206.09 836.96 206.03C837.03 205.97 837.1 205.91 837.17 205.85C837.24 205.79 837.31 205.73 837.39 205.68C837.46 205.62 837.53 205.56 837.6 205.5C837.69 205.43 837.78 205.37 837.87 205.3C837.95 205.23 838.04 205.17 838.13 205.1C838.22 205.03 838.31 204.97 838.4 204.9C838.49 204.84 838.58 204.78 838.68 204.71C838.75 204.66 838.82 204.61 838.9 204.56C838.97 204.5 839.05 204.45 839.12 204.4C839.2 204.35 839.27 204.3 839.35 204.25C839.42 204.2 839.5 204.15 839.58 204.1C839.62 204.07 839.67 204.04 839.72 204C839.77 203.97 839.82 203.94 839.87 203.9C839.92 203.87 839.97 203.84 840.02 203.8C840.07 203.77 840.12 203.74 840.16 203.71L1173.06 4.4C1173.09 4.38 1173.12 4.37 1173.15 4.35C1173.17 4.33 1173.2 4.32 1173.23 4.3C1173.26 4.29 1173.28 4.27 1173.31 4.25C1173.34 4.24 1173.37 4.22 1173.4 4.21C1173.43 4.19 1173.47 4.16 1173.51 4.14C1173.55 4.12 1173.58 4.1 1173.62 4.08C1173.66 4.06 1173.7 4.04 1173.73 4.02C1173.77 4 1173.81 3.98 1173.85 3.96C1173.95 3.9 1174.05 3.85 1174.15 3.8C1174.25 3.74 1174.35 3.69 1174.45 3.64C1174.55 3.59 1174.65 3.54 1174.75 3.49C1174.85 3.44 1174.96 3.39 1175.06 3.35C1175.15 3.3 1175.25 3.26 1175.34 3.21C1175.43 3.17 1175.53 3.13 1175.62 3.09C1175.72 3.04 1175.81 3 1175.91 2.96C1176 2.92 1176.1 2.88 1176.19 2.84C1176.19 2.84 1176.19 2.84 1176.2 2.84C1176.2 2.84 1176.2 2.84 1176.2 2.84C1176.2 2.84 1176.21 2.83 1176.21 2.83C1176.21 2.83 1176.21 2.83 1176.21 2.83C1176.22 2.83 1176.22 2.83 1176.22 2.83C1176.22 2.83 1176.22 2.83 1176.23 2.82C1176.23 2.82 1176.23 2.82 1176.23 2.82C1176.23 2.82 1176.24 2.82 1176.24 2.82C1176.24 2.82 1176.24 2.82 1176.25 2.82C1176.25 2.81 1176.25 2.81 1176.26 2.81C1176.26 2.81 1176.26 2.81 1176.26 2.81C1176.27 2.81 1176.27 2.81 1176.27 2.81C1176.36 2.77 1176.44 2.74 1176.52 2.71C1176.6 2.68 1176.68 2.65 1176.77 2.62C1176.85 2.59 1176.93 2.56 1177.02 2.53C1177.1 2.5 1177.18 2.48 1177.27 2.45C1177.36 2.41 1177.45 2.38 1177.54 2.35C1177.63 2.31 1177.72 2.28 1177.81 2.25C1177.9 2.22 1178 2.19 1178.09 2.16C1178.18 2.12 1178.27 2.09 1178.36 2.06C1178.37 2.06 1178.38 2.06 1178.39 2.06C1178.39 2.06 1178.4 2.05 1178.41 2.05C1178.42 2.05 1178.42 2.05 1178.43 2.05C1178.44 2.04 1178.45 2.04 1178.46 2.04C1178.47 2.04 1178.48 2.03 1178.49 2.03C1178.51 2.02 1178.52 2.02 1178.53 2.02C1178.54 2.01 1178.56 2.01 1178.57 2C1178.58 2 1178.59 2 1178.61 1.99C1178.68 1.97 1178.76 1.95 1178.84 1.93C1178.91 1.91 1178.99 1.89 1179.07 1.87C1179.14 1.86 1179.22 1.84 1179.3 1.82C1179.37 1.8 1179.45 1.78 1179.53 1.77C1179.63 1.74 1179.73 1.71 1179.82 1.69C1179.92 1.67 1180.02 1.64 1180.12 1.62C1180.22 1.6 1180.32 1.57 1180.42 1.55C1180.52 1.53 1180.62 1.51 1180.72 1.49C1180.73 1.49 1180.74 1.49 1180.75 1.48C1180.76 1.48 1180.77 1.48 1180.78 1.48C1180.79 1.48 1180.79 1.47 1180.8 1.47C1180.81 1.47 1180.82 1.47 1180.83 1.47C1180.84 1.46 1180.85 1.46 1180.86 1.46C1180.88 1.46 1180.89 1.46 1180.9 1.45C1180.91 1.45 1180.92 1.45 1180.93 1.45C1180.94 1.45 1180.95 1.44 1180.96 1.44C1181.04 1.43 1181.11 1.42 1181.19 1.41C1181.26 1.39 1181.34 1.38 1181.42 1.37C1181.49 1.36 1181.57 1.35 1181.64 1.34C1181.72 1.33 1181.8 1.32 1181.87 1.31C1181.97 1.3 1182.07 1.28 1182.17 1.27C1182.28 1.25 1182.38 1.24 1182.48 1.23C1182.58 1.22 1182.68 1.21 1182.78 1.2C1182.88 1.19 1182.98 1.18 1183.08 1.17C1183.11 1.16 1183.14 1.16 1183.16 1.16C1183.19 1.16 1183.21 1.16 1183.24 1.15C1183.27 1.15 1183.29 1.15 1183.32 1.15C1183.34 1.15 1183.37 1.14 1183.4 1.14C1183.43 1.14 1183.47 1.14 1183.51 1.14C1183.55 1.13 1183.59 1.13 1183.63 1.13C1183.67 1.13 1183.7 1.13 1183.74 1.12C1183.78 1.12 1183.82 1.12 1183.86 1.12C1183.88 1.12 1183.9 1.12 1183.93 1.12C1183.95 1.11 1183.97 1.11 1184 1.11C1184.02 1.11 1184.04 1.11 1184.07 1.11C1184.09 1.11 1184.11 1.11 1184.14 1.11C1184.22 1.1 1184.31 1.1 1184.39 1.09C1184.48 1.09 1184.56 1.08 1184.65 1.08C1184.73 1.07 1184.82 1.07 1184.91 1.07C1184.99 1.06 1185.08 1.06 1185.16 1.06L1185.16 1.06ZM1026.51 275.11L1343.63 275.11L1185.07 66.25L1026.51 275.11ZM900.24 225.28L971.02 267.65L1088.98 112.27L900.24 225.28ZM1399.13 267.65L1469.92 225.28L1281.16 112.27L1399.13 267.65ZM876.2 494.46L946.99 310.81L876.2 268.43L876.2 494.46ZM1423.16 310.81L1493.94 494.45L1493.94 268.43L1423.16 310.81ZM1185.07 623.9L1351.51 324.93L1018.63 324.93L1185.07 623.9ZM885.8 603.76L1139.52 641.74L980.96 356.92L885.8 603.76ZM1230.62 641.74L1484.34 603.76L1389.18 356.93L1230.62 641.74ZM1161.04 780.06L1161.04 695.29L972.29 667.05L1161.04 780.06ZM1209.1 695.3L1209.1 780.06L1397.86 667.05L1209.1 695.3Z" />
	</g>
</svg>