<svg xmlns="http://www.w3.org/2000/svg" viewBox="0 0 791 848" width="791" height="848">
	<g id="g6676">
		<path id="path817" fill-rule="evenodd" class="shp0" d="M2870.08 1.55C2872.44 0.87 2875.18 0.76 2877.93 1.58C2880.29 2.14 2883.18 3.9 2883.85 4.32C2884.52 4.79 2885.09 5.24 2885.6 5.65C2886.79 6.61 2888.04 7.68 2889.5 9C2892.44 11.64 2896.29 15.26 2901.06 19.84C2910.61 29.01 2923.83 42.01 2939.84 57.97C2971.86 89.9 3015 133.64 3061.64 181.56L3231.04 355.64C3233.96 358.64 3235.67 362.87 3235.68 367.14L3235.68 483.36C3235.68 487.65 3233.96 491.91 3231.02 494.91L3061.42 668.29C3014.73 716.01 2971.49 759.58 2939.38 791.4C2923.32 807.31 2910.05 820.27 2900.45 829.42C2895.65 833.98 2891.78 837.58 2888.8 840.23C2887.33 841.54 2886.07 842.64 2884.85 843.61C2884.3 844.05 2883.69 844.51 2883.02 844.97C2882.5 845.29 2879.66 847.03 2877.27 847.61C2874.86 848.19 2872.42 848.28 2870.35 847.82C2868.59 847.28 2866.45 846.54 2864.02 845.01C2862.4 843.99 2860.97 842.89 2859.46 841.68C2856.35 839.2 2852.58 835.89 2847.92 831.64C2838.6 823.12 2825.8 810.85 2809.99 795.31C2778.38 764.22 2734.86 720.13 2684.67 668.21L2513.75 491.4C2510.85 488.4 2509.15 484.19 2509.15 479.94L2509.15 368.62C2509.15 364.35 2510.85 360.12 2513.77 357.12L2513.77 357.11L2685.2 180.68C2732.41 132.09 2776.1 88.11 2808.54 56.29C2824.76 40.38 2838.15 27.53 2847.89 18.56C2852.76 14.08 2856.68 10.57 2859.84 7.96C2861.41 6.67 2862.83 5.56 2864.33 4.55C2866.4 3.04 2867.51 2.6 2870.08 1.55ZM2882.79 845.12C2882.87 845.07 2882.94 845.02 2883.02 844.97C2883.16 844.88 2883.11 844.91 2882.79 845.12ZM2883.59 4.14C2884.05 4.45 2884.09 4.47 2883.85 4.32C2883.76 4.26 2883.68 4.2 2883.59 4.14ZM2872.15 69.21C2858.37 93.14 2816.57 169.21 2772.75 250.15C2749.2 293.64 2726.25 336.25 2709.1 368.4C2700.53 384.48 2693.39 397.95 2688.38 407.55C2687 410.21 2686.21 411.77 2685.17 413.8C2687.59 415.61 2689.38 417.09 2694.2 420.05C2708.83 429.03 2734.35 442.87 2774.19 463.61C2802.45 478.33 2828.29 491.74 2847.13 501.48C2856.55 506.36 2864.23 510.32 2869.57 513.05C2870.39 513.47 2870.77 513.67 2871.44 514.01C2872.11 513.68 2872.49 513.5 2873.31 513.09C2878.75 510.38 2886.65 506.37 2896.34 501.43C2915.71 491.54 2942.31 477.85 2971.41 462.75L3062.74 415.36L3047.18 386.2C3034.45 362.35 2986.9 275.11 2941.81 192.88C2911.98 138.48 2892.96 103.89 2880.7 82.91C2876.84 76.29 2874.73 73.23 2872.15 69.21ZM2774.03 154.57C2774.03 154.57 2774.03 154.57 2774.03 154.57C2774.03 154.57 2774.03 154.57 2774.03 154.57L2774.03 154.57ZM2774.03 154.57C2750.86 178.27 2727.87 201.76 2698.61 232.06L2554.9 380.87L2554.9 420.96C2554.9 432.29 2554.84 439.22 2554.98 444.92C2556.04 444.52 2556.9 444.12 2558.17 443.56C2566.88 439.42 2579.38 433.63 2597.15 425.08L2637.14 405.84L2729.87 236.17C2747.18 204.5 2760.14 180.34 2774.03 154.57ZM2973.22 156.91C3015.91 235.26 3076.97 347.23 3091.72 373.95L3109.93 406.95L3155.06 428.17C3155.14 428.21 3155.21 428.25 3155.29 428.29C3155.32 428.3 3155.35 428.32 3155.39 428.34C3168.16 434.34 3179.88 439.71 3189.14 443.86C3189.54 436.25 3189.92 428.13 3189.92 417.85L3189.92 375.48L3137.97 323.54C3106.67 292.24 3039 223.73 2987.43 171.15C2980.9 164.49 2978.72 162.47 2973.22 156.91L2973.22 156.91ZM2995.13 501.71L2897.9 552.16L2896.66 666.72C2896.28 700.88 2896.11 732.89 2896.15 756.86C2896.15 761.23 2896.2 763.69 2896.22 767.49C2900.95 763.21 2904.08 760.62 2910.59 754.42C2936.75 729.5 2976.58 689.9 3030.86 634.85C3074.51 590.58 3113.8 549.91 3141.83 520.16C3155.06 506.12 3165.26 495.02 3172.68 486.7C3163.22 482.03 3150.74 476.1 3137.36 469.98L3094.28 450.25L2995.13 501.71ZM2619.65 464.94C2600.9 473.8 2581.77 482.58 2570.81 487.45L2712.79 633.05C2756.36 677.73 2796.37 718.38 2825.7 747.83C2836.18 758.34 2843.32 765.38 2850.73 772.7C2850.79 771.06 2850.85 770.25 2850.9 768.43C2851.55 744.88 2851.95 712.13 2851.95 676.1L2851.95 554.63L2752.24 502.99L2650.55 450.33L2619.65 464.94Z" />
		<path id="path851" fill-rule="evenodd" class="shp0" d="M405.98 71.62C408.07 72.28 410.08 73.22 411.95 74.4C413.83 75.58 415.55 77.01 417.08 78.63C418.62 80.26 419.95 82.08 421.04 84.05L785.05 737.87C787.36 742.01 788.57 746.71 788.57 751.49C788.57 756.27 787.36 760.97 785.05 765.11C782.74 769.25 779.43 772.69 775.43 775.08C771.44 777.47 766.91 778.73 762.3 778.73L34.27 778.73C29.66 778.73 25.13 777.47 21.14 775.08C17.14 772.69 13.83 769.25 11.52 765.11C9.22 760.97 8 756.27 8 751.49C8 746.71 9.21 742.01 11.52 737.87L375.54 84.05C376.74 81.89 378.22 79.92 379.94 78.18C381.65 76.44 383.59 74.96 385.69 73.76C387.8 72.57 390.05 71.68 392.39 71.12C394.73 70.57 397.13 70.34 399.52 70.46C401.71 70.56 403.88 70.95 405.98 71.62ZM424.55 517.81L690.53 677.06L424.55 199.32L424.55 517.81ZM106.04 677.06L372.02 517.81L372.02 199.34L106.04 677.06ZM132.32 724.25L664.26 724.25L398.29 565.01L132.32 724.25Z" />
		<path id="path864" fill-rule="evenodd" class="shp0" d="M1227.93 1.06C1228.93 1.08 1229.93 1.17 1230.92 1.33C1231.91 1.48 1232.89 1.7 1233.86 1.98C1234.82 2.26 1235.77 2.6 1236.69 3C1237.61 3.41 1238.51 3.87 1239.38 4.39L1572.12 203.7C1573.94 204.79 1575.61 206.12 1577.1 207.66C1578.58 209.2 1579.86 210.93 1580.91 212.82C1581.96 214.7 1582.77 216.72 1583.31 218.82C1583.86 220.93 1584.13 223.09 1584.13 225.27L1584.13 623.89C1584.13 626.06 1583.86 628.23 1583.31 630.33C1582.77 632.44 1581.96 634.46 1580.91 636.34C1579.86 638.23 1578.58 639.96 1577.1 641.5C1575.61 643.04 1573.94 644.37 1572.12 645.46L1239.38 844.77C1237.56 845.86 1235.61 846.7 1233.58 847.26C1231.55 847.82 1229.46 848.11 1227.36 848.11C1225.26 848.11 1223.17 847.82 1221.14 847.26C1219.12 846.7 1217.17 845.86 1215.35 844.77L882.61 645.46C880.8 644.37 879.12 643.04 877.64 641.5C876.16 639.96 874.87 638.23 873.82 636.34C872.77 634.46 871.97 632.44 871.42 630.33C870.88 628.23 870.61 626.06 870.61 623.89L870.61 225.27C870.61 223.09 870.88 220.93 871.42 218.82C871.97 216.72 872.77 214.7 873.82 212.82C874.87 210.93 876.16 209.2 877.64 207.66C879.12 206.12 880.8 204.79 882.61 203.7L1215.35 4.39C1216.3 3.82 1217.29 3.32 1218.3 2.89C1219.32 2.46 1220.36 2.11 1221.42 1.83C1222.48 1.54 1223.56 1.34 1224.65 1.21C1225.74 1.08 1226.84 1.03 1227.93 1.06ZM942.65 225.27L1227.37 395.81L1512.06 225.27L1227.37 54.73L942.65 225.27ZM918.65 609.51L1203.34 780.03L1203.34 438.96L918.65 268.43L918.65 609.51ZM1251.39 438.96L1251.39 780.03L1536.08 609.51L1536.08 268.43L1251.39 438.96Z" />
		<path id="path875" fill-rule="evenodd" class="shp0" d="M2047.2 1.07C2051.23 1.17 2055.16 2.32 2058.65 4.4L2391.5 203.71C2401.28 209.8 2403.18 215.04 2403.51 225.87L2403.56 623.9C2403.56 632.8 2398.98 641.02 2391.54 645.47L2058.64 844.78C2058.23 845.03 2057.81 845.26 2057.38 845.48C2057.05 845.64 2056.71 845.8 2056.37 845.95C2055.96 846.15 2055.55 846.33 2055.13 846.49C2054.88 846.59 2054.62 846.68 2054.36 846.77C2053.86 846.95 2053.35 847.11 2052.84 847.26C2052.53 847.34 2052.21 847.41 2051.9 847.48C2051.46 847.58 2051.01 847.68 2050.56 847.76C2050.21 847.82 2049.85 847.87 2049.5 847.91C2049.05 847.97 2048.61 848.02 2048.16 848.06C2047.78 848.08 2047.41 848.09 2047.03 848.09C2046.6 848.1 2046.17 848.1 2045.75 848.09C2045.42 848.07 2045.09 848.04 2044.77 848.01C2044.29 847.98 2043.82 847.93 2043.35 847.87C2043.02 847.82 2042.71 847.76 2042.39 847.69C2041.91 847.61 2041.44 847.51 2040.97 847.4C2040.71 847.33 2040.45 847.26 2040.19 847.18C2039.66 847.03 2039.13 846.86 2038.61 846.67C2038.37 846.58 2038.13 846.49 2037.9 846.39C2037.42 846.2 2036.96 845.99 2036.5 845.78C2036.11 845.58 2035.73 845.38 2035.36 845.17C2035.11 845.04 2034.87 844.91 2034.63 844.78L2034.13 844.48L1701.73 645.47C1694.3 641.03 1689.71 632.8 1689.71 623.9L1689.71 225.28C1690.49 216.15 1693.99 208.34 1702.22 203.42L2034.62 4.4C2038.44 2.11 2042.79 0.96 2047.2 1.07L2047.2 1.07ZM1803.4 200.37L2289.85 200.37L2046.64 54.75L1803.4 200.37ZM2046.64 773.38L2337.88 250.2L1755.36 250.2L2046.64 773.38ZM1737.76 609.52L1981 755.14L1737.76 318.25L1737.76 609.52ZM2112.26 755.14L2355.51 609.51L2355.49 318.25L2112.26 755.14Z" />
		<path id="path886" fill-rule="evenodd" class="shp0" d="M3779.02 100.7C3783.81 100.7 3788.48 102.18 3792.45 104.95L3878.05 164.76C3878.4 165 3878.75 165.25 3879.09 165.51L3879.11 165.54C3879.75 166.03 3880.35 166.56 3880.94 167.12L3880.96 167.14C3881.54 167.69 3882.09 168.28 3882.61 168.89L3882.63 168.91C3883.16 169.53 3883.65 170.17 3884.11 170.84L3884.14 170.86C3884.6 171.53 3885.02 172.21 3885.42 172.92L3885.44 172.96L3985.34 352.33C3985.44 352.5 3985.53 352.68 3985.62 352.86C3985.89 353.38 3986.14 353.92 3986.37 354.46C3986.49 354.71 3986.61 354.97 3986.72 355.23C3986.87 355.64 3987.02 356.05 3987.16 356.47C3987.29 356.84 3987.42 357.22 3987.54 357.6C3987.68 358.12 3987.81 358.65 3987.92 359.18C3987.97 359.4 3988.03 359.62 3988.08 359.85C3988.08 359.87 3988.09 359.9 3988.09 359.92C3988.17 360.37 3988.24 360.83 3988.3 361.29C3988.36 361.7 3988.42 362.12 3988.46 362.54C3988.48 362.86 3988.49 363.17 3988.51 363.49C3988.54 363.92 3988.56 364.36 3988.57 364.79L3988.57 365.13L3988.52 484.39C3988.52 488.75 3987.41 493.04 3985.31 496.83L3885.44 676.21C3883.33 680 3880.3 683.14 3876.64 685.32L3776.79 745.12C3776.62 745.21 3776.46 745.31 3776.29 745.4C3776.26 745.42 3776.24 745.43 3776.21 745.45C3775.92 745.6 3775.64 745.74 3775.34 745.88C3774.92 746.11 3774.49 746.33 3774.05 746.53L3774.04 746.53C3773.97 746.55 3773.91 746.58 3773.84 746.6C3773.17 746.89 3772.48 747.14 3771.79 747.37C3771.02 747.61 3770.24 747.81 3769.46 747.98C3768.67 748.14 3767.88 748.26 3767.08 748.34C3766.31 748.41 3765.55 748.45 3764.78 748.46L3565.14 748.46C3564.95 748.46 3564.76 748.45 3564.57 748.44C3563.92 748.42 3563.28 748.37 3562.63 748.3C3562.46 748.29 3562.29 748.27 3562.11 748.25C3561.52 748.17 3560.93 748.06 3560.35 747.93C3560.14 747.89 3559.94 747.85 3559.73 747.81C3559.22 747.68 3558.71 747.53 3558.2 747.37C3557.93 747.29 3557.66 747.2 3557.39 747.12C3556.83 746.91 3556.27 746.69 3555.73 746.45C3555.55 746.38 3555.38 746.3 3555.21 746.23C3554.78 746.02 3554.35 745.79 3553.93 745.55C3553.66 745.41 3553.39 745.27 3553.13 745.13L3552.84 744.95L3453.18 685.34C3449.53 683.15 3446.5 680 3444.39 676.21L3344.52 496.83C3342.42 493.04 3341.31 488.75 3341.31 484.39L3341.26 364.79C3341.26 364.59 3341.27 364.39 3341.27 364.2C3341.27 364.17 3341.27 364.14 3341.27 364.11C3341.29 363.69 3341.32 363.27 3341.37 362.85C3341.39 362.45 3341.42 362.06 3341.46 361.66C3341.49 361.46 3341.52 361.27 3341.55 361.07C3341.64 360.44 3341.75 359.8 3341.89 359.18C3342.07 358.37 3342.29 357.57 3342.54 356.78C3342.79 356.02 3343.07 355.28 3343.39 354.55L3343.4 354.52C3343.55 354.21 3343.7 353.9 3343.86 353.6C3344.06 353.17 3344.26 352.75 3344.48 352.33L3344.53 352.26L3444.39 172.96C3444.47 172.82 3444.55 172.68 3444.63 172.54C3444.66 172.49 3444.69 172.43 3444.72 172.38C3444.98 171.96 3445.25 171.55 3445.53 171.15C3445.71 170.87 3445.9 170.59 3446.09 170.31C3446.46 169.83 3446.84 169.35 3447.24 168.9C3447.37 168.74 3447.51 168.59 3447.64 168.43C3447.95 168.1 3448.26 167.77 3448.59 167.45C3448.86 167.17 3449.14 166.89 3449.43 166.62C3449.7 166.39 3449.98 166.15 3450.26 165.93C3450.61 165.64 3450.96 165.35 3451.33 165.08C3451.59 164.89 3451.87 164.71 3452.14 164.53C3452.49 164.29 3452.83 164.06 3453.18 163.83L3453.47 163.67L3553.04 104.04C3556.69 101.85 3560.84 100.7 3565.06 100.7L3779.02 100.7ZM3533 173.58L3667.65 200.47L3803.31 172.61L3771.7 150.53L3571.49 150.53L3533 173.58ZM3394.65 361.89L3503.82 492.6L3515.12 486.07L3633.56 417.5L3641.01 413.19L3643.39 246.37L3477.44 213.23L3394.65 361.89ZM3691.46 246.39L3689.11 410.29L3826.19 492.37L3893.93 411.27L3935.18 361.89L3852.43 213.32L3691.46 246.39ZM3389.35 477.7L3482.77 645.52L3521.32 668.58L3477.29 536.94L3389.34 431.64L3389.35 477.7ZM3852.55 536.92L3852.55 536.94L3808.57 668.55L3847.05 645.52L3940.48 477.7L3940.49 431.64L3852.55 536.92ZM3527.77 535.81L3582.23 698.63L3747.67 698.63L3802.16 535.52L3667.61 454.95C3661.35 458.73 3534.34 532.22 3527.77 535.81Z" />
		<path id="path897" fill-rule="evenodd" class="shp0" d="M4451.16 1.06C4451.19 1.06 4451.21 1.06 4451.24 1.06C4451.27 1.06 4451.29 1.06 4451.32 1.06C4451.34 1.06 4451.37 1.07 4451.4 1.07C4451.42 1.07 4451.45 1.07 4451.47 1.07C4451.5 1.07 4451.53 1.07 4451.56 1.07C4451.59 1.07 4451.62 1.07 4451.65 1.08C4451.68 1.08 4451.7 1.08 4451.73 1.08C4451.76 1.08 4451.79 1.08 4451.82 1.08C4451.86 1.09 4451.9 1.09 4451.95 1.09C4451.99 1.09 4452.03 1.1 4452.07 1.1C4452.12 1.1 4452.16 1.11 4452.2 1.11C4452.24 1.11 4452.28 1.11 4452.33 1.12C4452.34 1.12 4452.36 1.12 4452.37 1.12C4452.39 1.12 4452.4 1.12 4452.42 1.12C4452.43 1.13 4452.45 1.13 4452.47 1.13C4452.48 1.13 4452.5 1.13 4452.51 1.13C4452.62 1.14 4452.73 1.14 4452.85 1.15C4452.96 1.16 4453.07 1.17 4453.18 1.17C4453.29 1.18 4453.4 1.19 4453.52 1.2C4453.63 1.21 4453.74 1.23 4453.85 1.24C4453.88 1.24 4453.91 1.25 4453.95 1.25C4453.98 1.25 4454.01 1.26 4454.04 1.26C4454.07 1.27 4454.1 1.27 4454.14 1.27C4454.17 1.28 4454.2 1.28 4454.23 1.29C4454.28 1.29 4454.32 1.3 4454.36 1.31C4454.41 1.32 4454.45 1.32 4454.5 1.33C4454.54 1.34 4454.59 1.35 4454.63 1.36C4454.67 1.36 4454.72 1.37 4454.76 1.38C4454.77 1.38 4454.78 1.39 4454.79 1.39C4454.8 1.39 4454.81 1.39 4454.82 1.39C4454.83 1.4 4454.84 1.4 4454.85 1.4C4454.86 1.4 4454.87 1.4 4454.88 1.41C4454.89 1.41 4454.9 1.41 4454.92 1.41C4454.93 1.41 4454.94 1.42 4454.95 1.42C4454.97 1.42 4454.98 1.42 4454.99 1.42C4455 1.43 4455.02 1.43 4455.03 1.43C4455.13 1.45 4455.22 1.46 4455.32 1.48C4455.42 1.49 4455.52 1.51 4455.62 1.53C4455.72 1.55 4455.81 1.57 4455.91 1.59C4456.01 1.6 4456.11 1.62 4456.21 1.65C4456.24 1.65 4456.28 1.66 4456.31 1.67C4456.35 1.68 4456.38 1.69 4456.42 1.7C4456.45 1.71 4456.49 1.72 4456.53 1.73C4456.56 1.73 4456.6 1.74 4456.63 1.75C4456.64 1.75 4456.64 1.75 4456.65 1.76C4456.66 1.76 4456.66 1.76 4456.67 1.76C4456.67 1.76 4456.68 1.76 4456.68 1.76C4456.69 1.76 4456.7 1.76 4456.7 1.76C4456.73 1.77 4456.76 1.78 4456.79 1.79C4456.83 1.8 4456.86 1.81 4456.89 1.82C4456.92 1.83 4456.95 1.84 4456.98 1.85C4457.01 1.85 4457.04 1.86 4457.07 1.87C4457.07 1.87 4457.08 1.87 4457.08 1.88C4457.08 1.88 4457.08 1.88 4457.08 1.88C4457.09 1.88 4457.09 1.88 4457.09 1.88C4457.09 1.88 4457.09 1.88 4457.1 1.88C4457.22 1.92 4457.34 1.95 4457.46 1.98C4457.58 2.01 4457.7 2.05 4457.82 2.08C4457.94 2.12 4458.06 2.15 4458.18 2.19C4458.3 2.23 4458.42 2.26 4458.54 2.3C4458.58 2.32 4458.61 2.33 4458.65 2.34C4458.69 2.35 4458.73 2.37 4458.76 2.38C4458.8 2.39 4458.84 2.41 4458.88 2.42C4458.91 2.43 4458.95 2.45 4458.99 2.46C4458.99 2.46 4458.99 2.46 4458.99 2.46C4459 2.46 4459 2.46 4459 2.47C4459 2.47 4459 2.47 4459.01 2.47C4459.01 2.47 4459.01 2.47 4459.01 2.47C4459.03 2.48 4459.05 2.49 4459.07 2.5C4459.09 2.5 4459.1 2.51 4459.12 2.52C4459.14 2.53 4459.16 2.54 4459.18 2.54C4459.2 2.55 4459.21 2.56 4459.23 2.57C4459.24 2.57 4459.25 2.58 4459.27 2.58C4459.28 2.58 4459.29 2.59 4459.3 2.59C4459.31 2.6 4459.32 2.6 4459.34 2.6C4459.35 2.61 4459.36 2.61 4459.37 2.62C4459.49 2.66 4459.61 2.71 4459.73 2.75C4459.85 2.8 4459.97 2.85 4460.09 2.9C4460.21 2.95 4460.33 3 4460.45 3.05C4460.57 3.1 4460.68 3.15 4460.8 3.2C4460.83 3.22 4460.86 3.23 4460.89 3.24C4460.92 3.26 4460.95 3.27 4460.98 3.28C4461 3.3 4461.03 3.31 4461.06 3.33C4461.09 3.34 4461.12 3.36 4461.15 3.37C4461.19 3.39 4461.23 3.41 4461.27 3.43C4461.31 3.46 4461.35 3.48 4461.39 3.5C4461.43 3.52 4461.47 3.54 4461.51 3.57C4461.55 3.59 4461.59 3.61 4461.63 3.63C4461.64 3.63 4461.64 3.64 4461.64 3.64C4461.65 3.64 4461.65 3.64 4461.66 3.64C4461.66 3.65 4461.66 3.65 4461.67 3.65C4461.67 3.65 4461.68 3.65 4461.68 3.66C4461.78 3.7 4461.88 3.75 4461.97 3.8C4462.07 3.85 4462.17 3.9 4462.27 3.95C4462.36 4 4462.46 4.06 4462.56 4.11C4462.65 4.16 4462.75 4.21 4462.85 4.27C4462.87 4.28 4462.89 4.29 4462.91 4.3C4462.93 4.31 4462.95 4.32 4462.97 4.33C4462.99 4.34 4463.01 4.35 4463.03 4.37C4463.05 4.38 4463.07 4.39 4463.09 4.4L4795.99 203.71C4796.03 203.74 4796.08 203.76 4796.12 203.79C4796.16 203.82 4796.2 203.85 4796.25 203.88C4796.29 203.91 4796.33 203.94 4796.37 203.97C4796.41 204 4796.46 204.03 4796.5 204.05C4796.57 204.1 4796.65 204.15 4796.72 204.2C4796.8 204.25 4796.87 204.29 4796.95 204.34C4797.02 204.39 4797.09 204.44 4797.17 204.49C4797.24 204.54 4797.31 204.59 4797.39 204.64C4797.48 204.7 4797.56 204.76 4797.65 204.83C4797.73 204.89 4797.82 204.95 4797.91 205.02C4797.99 205.08 4798.08 205.15 4798.16 205.21C4798.25 205.28 4798.33 205.34 4798.42 205.41C4798.48 205.46 4798.55 205.51 4798.62 205.57C4798.69 205.62 4798.76 205.68 4798.83 205.73C4798.9 205.79 4798.97 205.84 4799.03 205.9C4799.1 205.95 4799.17 206.01 4799.24 206.07C4799.32 206.14 4799.41 206.22 4799.5 206.3C4799.59 206.37 4799.67 206.45 4799.76 206.53C4799.85 206.61 4799.93 206.69 4800.02 206.77C4800.11 206.85 4800.19 206.93 4800.27 207.01C4800.35 207.08 4800.42 207.15 4800.49 207.22C4800.56 207.29 4800.64 207.37 4800.71 207.44C4800.78 207.51 4800.85 207.58 4800.92 207.65C4800.99 207.73 4801.06 207.8 4801.13 207.87C4801.19 207.94 4801.26 208.01 4801.32 208.08C4801.38 208.15 4801.45 208.22 4801.51 208.29C4801.57 208.36 4801.63 208.43 4801.69 208.5C4801.76 208.57 4801.82 208.64 4801.88 208.71C4801.95 208.79 4802.01 208.87 4802.08 208.95C4802.15 209.03 4802.21 209.11 4802.28 209.19C4802.34 209.27 4802.41 209.35 4802.47 209.44C4802.54 209.52 4802.6 209.6 4802.66 209.68C4802.73 209.77 4802.8 209.86 4802.87 209.95C4802.94 210.04 4803.01 210.13 4803.08 210.22C4803.14 210.31 4803.21 210.4 4803.28 210.49C4803.34 210.59 4803.41 210.68 4803.47 210.77C4803.52 210.84 4803.57 210.91 4803.62 210.98C4803.67 211.06 4803.71 211.13 4803.76 211.2C4803.81 211.27 4803.85 211.34 4803.9 211.42C4803.95 211.49 4803.99 211.56 4804.04 211.63C4804.1 211.73 4804.16 211.83 4804.22 211.93C4804.28 212.03 4804.34 212.13 4804.4 212.23C4804.46 212.33 4804.52 212.43 4804.58 212.53C4804.64 212.63 4804.7 212.73 4804.75 212.83C4804.8 212.92 4804.85 213 4804.9 213.09C4804.94 213.17 4804.99 213.26 4805.04 213.35C4805.08 213.43 4805.13 213.52 4805.17 213.61C4805.22 213.7 4805.26 213.78 4805.31 213.87C4805.35 213.96 4805.39 214.04 4805.43 214.13C4805.48 214.22 4805.52 214.3 4805.56 214.39C4805.6 214.48 4805.64 214.56 4805.68 214.65C4805.72 214.74 4805.75 214.83 4805.79 214.91C4805.84 215.02 4805.88 215.12 4805.93 215.23C4805.97 215.33 4806.02 215.44 4806.06 215.54C4806.1 215.65 4806.15 215.76 4806.19 215.86C4806.23 215.97 4806.27 216.08 4806.31 216.18C4806.35 216.28 4806.38 216.37 4806.42 216.47C4806.45 216.56 4806.49 216.65 4806.52 216.75C4806.55 216.84 4806.59 216.94 4806.62 217.03C4806.65 217.13 4806.69 217.22 4806.72 217.32C4806.75 217.41 4806.77 217.5 4806.8 217.59C4806.83 217.68 4806.86 217.77 4806.88 217.86C4806.91 217.95 4806.94 218.04 4806.96 218.14C4806.99 218.23 4807.02 218.32 4807.04 218.41C4807.07 218.53 4807.11 218.65 4807.14 218.76C4807.17 218.88 4807.2 219 4807.23 219.12C4807.26 219.24 4807.29 219.36 4807.32 219.48C4807.34 219.6 4807.37 219.71 4807.4 219.83C4807.42 219.91 4807.43 219.99 4807.45 220.07C4807.46 220.15 4807.48 220.23 4807.5 220.31C4807.51 220.39 4807.53 220.47 4807.54 220.55C4807.55 220.63 4807.57 220.71 4807.58 220.79C4807.6 220.9 4807.62 221.01 4807.64 221.13C4807.66 221.24 4807.68 221.35 4807.7 221.46C4807.71 221.57 4807.73 221.68 4807.75 221.8C4807.76 221.91 4807.78 222.02 4807.79 222.13C4807.8 222.24 4807.82 222.35 4807.83 222.46C4807.84 222.57 4807.85 222.68 4807.86 222.79C4807.87 222.9 4807.88 223.01 4807.89 223.12C4807.9 223.23 4807.91 223.34 4807.92 223.45C4807.92 223.54 4807.93 223.63 4807.93 223.72C4807.94 223.81 4807.94 223.9 4807.95 223.99C4807.95 224.09 4807.95 224.18 4807.96 224.27C4807.96 224.36 4807.96 224.45 4807.96 224.54C4807.97 224.6 4807.97 224.66 4807.98 224.73C4807.98 224.79 4807.98 224.85 4807.99 224.91C4807.99 224.97 4807.99 225.03 4807.99 225.1C4808 225.16 4808 225.22 4808 225.28L4808 623.9C4808 623.95 4808 623.99 4808 624.03C4808 624.07 4808 624.11 4808 624.16C4807.99 624.2 4807.99 624.24 4807.99 624.28C4807.99 624.32 4807.99 624.37 4807.99 624.41C4807.99 624.44 4807.99 624.47 4807.99 624.51C4807.98 624.54 4807.98 624.57 4807.98 624.6C4807.98 624.64 4807.98 624.67 4807.98 624.7C4807.98 624.74 4807.98 624.77 4807.98 624.8C4807.98 624.81 4807.97 624.82 4807.97 624.83C4807.97 624.84 4807.97 624.85 4807.97 624.86C4807.97 624.86 4807.97 624.87 4807.97 624.88C4807.97 624.89 4807.97 624.9 4807.96 624.91C4807.96 624.92 4807.96 624.94 4807.96 624.95C4807.96 624.96 4807.96 624.97 4807.96 624.99C4807.96 625 4807.96 625.01 4807.96 625.03C4807.96 625.04 4807.96 625.05 4807.96 625.06C4807.96 625.07 4807.96 625.07 4807.96 625.07C4807.96 625.07 4807.96 625.07 4807.96 625.08C4807.96 625.08 4807.96 625.08 4807.96 625.08C4807.96 625.08 4807.96 625.09 4807.96 625.09C4807.96 625.18 4807.95 625.27 4807.95 625.37C4807.94 625.46 4807.93 625.55 4807.92 625.65C4807.92 625.74 4807.91 625.83 4807.9 625.92C4807.89 626.02 4807.88 626.11 4807.87 626.2C4807.86 626.3 4807.85 626.4 4807.85 626.49C4807.84 626.59 4807.83 626.69 4807.82 626.78C4807.8 626.88 4807.79 626.98 4807.78 627.07C4807.77 627.17 4807.76 627.27 4807.75 627.36C4807.74 627.37 4807.74 627.38 4807.74 627.39C4807.74 627.4 4807.74 627.41 4807.74 627.42C4807.74 627.43 4807.74 627.44 4807.74 627.45C4807.74 627.46 4807.73 627.47 4807.73 627.48C4807.73 627.5 4807.73 627.51 4807.73 627.53C4807.73 627.54 4807.72 627.56 4807.72 627.57C4807.72 627.59 4807.72 627.6 4807.72 627.62C4807.71 627.63 4807.71 627.65 4807.71 627.66C4807.7 627.75 4807.68 627.84 4807.67 627.93C4807.65 628.03 4807.63 628.12 4807.62 628.21C4807.6 628.3 4807.58 628.39 4807.57 628.48C4807.55 628.57 4807.53 628.66 4807.51 628.75C4807.5 628.84 4807.48 628.93 4807.46 629.02C4807.45 629.11 4807.43 629.2 4807.41 629.29C4807.39 629.38 4807.37 629.47 4807.35 629.56C4807.33 629.65 4807.31 629.74 4807.29 629.83C4807.29 629.83 4807.29 629.83 4807.29 629.83C4807.29 629.84 4807.29 629.84 4807.29 629.84C4807.29 629.84 4807.29 629.84 4807.29 629.85C4807.28 629.85 4807.28 629.85 4807.28 629.85C4807.28 629.86 4807.28 629.87 4807.28 629.89C4807.27 629.9 4807.27 629.91 4807.27 629.92C4807.27 629.93 4807.27 629.94 4807.26 629.95C4807.26 629.96 4807.26 629.97 4807.26 629.98C4807.26 629.99 4807.26 629.99 4807.26 629.99C4807.25 630 4807.25 630 4807.25 630C4807.25 630 4807.25 630.01 4807.25 630.01C4807.25 630.01 4807.25 630.02 4807.25 630.02C4807.22 630.12 4807.2 630.21 4807.17 630.31C4807.14 630.41 4807.11 630.51 4807.09 630.6C4807.06 630.7 4807.03 630.8 4807 630.89C4806.97 630.99 4806.94 631.08 4806.91 631.18C4806.89 631.27 4806.86 631.36 4806.84 631.45C4806.81 631.53 4806.78 631.62 4806.76 631.71C4806.73 631.8 4806.7 631.88 4806.67 631.97C4806.65 632.06 4806.62 632.15 4806.59 632.23C4806.59 632.24 4806.58 632.25 4806.58 632.25C4806.58 632.26 4806.58 632.26 4806.58 632.27C4806.58 632.28 4806.57 632.28 4806.57 632.29C4806.57 632.29 4806.57 632.3 4806.57 632.31C4806.56 632.31 4806.56 632.32 4806.56 632.32C4806.56 632.33 4806.56 632.33 4806.56 632.34C4806.56 632.34 4806.56 632.35 4806.56 632.35C4806.56 632.36 4806.55 632.36 4806.55 632.37C4806.55 632.37 4806.55 632.38 4806.54 632.39C4806.54 632.39 4806.54 632.4 4806.54 632.4C4806.53 632.41 4806.53 632.41 4806.53 632.42C4806.52 632.43 4806.52 632.43 4806.52 632.44C4806.49 632.51 4806.46 632.59 4806.44 632.66C4806.41 632.74 4806.38 632.81 4806.35 632.88C4806.33 632.96 4806.3 633.03 4806.27 633.1C4806.24 633.18 4806.21 633.25 4806.18 633.32C4806.14 633.43 4806.11 633.53 4806.07 633.63C4806.02 633.73 4805.98 633.83 4805.94 633.93C4805.9 634.03 4805.86 634.13 4805.82 634.23C4805.77 634.32 4805.73 634.42 4805.69 634.52C4805.68 634.55 4805.67 634.57 4805.66 634.59C4805.65 634.61 4805.63 634.64 4805.62 634.66C4805.61 634.68 4805.6 634.71 4805.59 634.73C4805.58 634.75 4805.57 634.77 4805.56 634.8C4805.54 634.84 4805.52 634.88 4805.49 634.93C4805.47 634.97 4805.45 635.01 4805.43 635.06C4805.41 635.1 4805.38 635.14 4805.36 635.18C4805.34 635.23 4805.32 635.27 4805.29 635.31C4805.28 635.34 4805.27 635.36 4805.26 635.38C4805.25 635.4 4805.24 635.43 4805.23 635.45C4805.21 635.47 4805.2 635.5 4805.19 635.52C4805.18 635.54 4805.17 635.56 4805.16 635.59C4805.11 635.68 4805.07 635.77 4805.02 635.86C4804.97 635.95 4804.93 636.04 4804.88 636.13C4804.83 636.22 4804.79 636.31 4804.74 636.4C4804.69 636.49 4804.64 636.58 4804.59 636.66C4804.57 636.69 4804.56 636.72 4804.54 636.75C4804.52 636.78 4804.5 636.81 4804.49 636.84C4804.47 636.87 4804.45 636.9 4804.43 636.93C4804.42 636.95 4804.4 636.98 4804.38 637.01C4804.35 637.06 4804.33 637.1 4804.3 637.14C4804.27 637.18 4804.24 637.23 4804.22 637.27C4804.19 637.31 4804.16 637.36 4804.13 637.4C4804.1 637.44 4804.08 637.48 4804.05 637.53C4804.04 637.54 4804.03 637.55 4804.02 637.57C4804.01 637.58 4804 637.6 4804 637.61C4803.99 637.62 4803.98 637.64 4803.97 637.65C4803.96 637.67 4803.95 637.68 4803.94 637.69C4803.89 637.78 4803.83 637.87 4803.77 637.96C4803.71 638.05 4803.66 638.14 4803.6 638.23C4803.54 638.32 4803.48 638.41 4803.42 638.5C4803.36 638.58 4803.3 638.67 4803.24 638.76C4803.22 638.78 4803.2 638.81 4803.18 638.83C4803.17 638.86 4803.15 638.88 4803.13 638.91C4803.11 638.93 4803.09 638.96 4803.08 638.98C4803.06 639.01 4803.04 639.03 4803.02 639.06C4802.97 639.12 4802.93 639.17 4802.88 639.23C4802.84 639.29 4802.79 639.35 4802.75 639.4C4802.7 639.46 4802.65 639.52 4802.61 639.57C4802.56 639.63 4802.51 639.68 4802.47 639.74C4802.41 639.82 4802.35 639.89 4802.29 639.97C4802.23 640.04 4802.17 640.11 4802.11 640.19C4802.05 640.26 4801.99 640.34 4801.93 640.41C4801.87 640.48 4801.81 640.55 4801.75 640.63C4801.73 640.65 4801.7 640.68 4801.68 640.71C4801.65 640.74 4801.63 640.77 4801.61 640.79C4801.58 640.82 4801.56 640.85 4801.53 640.88C4801.51 640.91 4801.49 640.93 4801.46 640.96C4801.42 641.01 4801.37 641.06 4801.32 641.1C4801.28 641.15 4801.23 641.2 4801.19 641.25C4801.14 641.29 4801.09 641.34 4801.05 641.39C4801 641.43 4800.95 641.48 4800.91 641.52C4800.91 641.53 4800.91 641.53 4800.9 641.53C4800.9 641.53 4800.9 641.53 4800.9 641.53C4800.9 641.53 4800.9 641.53 4800.9 641.53C4800.9 641.53 4800.9 641.54 4800.9 641.54C4800.89 641.54 4800.89 641.54 4800.89 641.54C4800.89 641.54 4800.89 641.54 4800.89 641.54C4800.89 641.54 4800.89 641.54 4800.89 641.54C4800.89 641.55 4800.89 641.55 4800.88 641.55C4800.82 641.62 4800.75 641.69 4800.68 641.76C4800.61 641.84 4800.54 641.91 4800.47 641.98C4800.4 642.05 4800.33 642.12 4800.26 642.19C4800.18 642.26 4800.11 642.33 4800.04 642.4C4800.01 642.43 4799.98 642.46 4799.95 642.49C4799.91 642.51 4799.88 642.54 4799.85 642.57C4799.82 642.6 4799.79 642.63 4799.76 642.66C4799.72 642.69 4799.69 642.72 4799.66 642.74C4799.66 642.75 4799.65 642.75 4799.65 642.75C4799.65 642.76 4799.65 642.76 4799.64 642.76C4799.64 642.77 4799.64 642.77 4799.63 642.77C4799.63 642.77 4799.63 642.78 4799.62 642.78C4799.61 642.8 4799.59 642.81 4799.57 642.83C4799.55 642.84 4799.53 642.86 4799.51 642.87C4799.49 642.89 4799.47 642.9 4799.45 642.92C4799.43 642.93 4799.41 642.94 4799.39 642.96C4799.38 642.98 4799.36 642.99 4799.34 643.01C4799.32 643.02 4799.3 643.04 4799.28 643.06C4799.27 643.07 4799.25 643.09 4799.23 643.1C4799.21 643.12 4799.19 643.14 4799.17 643.15C4799.09 643.22 4799.01 643.3 4798.92 643.37C4798.84 643.44 4798.76 643.51 4798.67 643.58C4798.59 643.65 4798.5 643.72 4798.42 643.79C4798.33 643.85 4798.24 643.92 4798.16 643.99C4798.12 644.02 4798.09 644.04 4798.05 644.07C4798.02 644.09 4797.99 644.12 4797.95 644.15C4797.92 644.17 4797.88 644.2 4797.85 644.22C4797.81 644.25 4797.78 644.28 4797.74 644.3C4797.74 644.3 4797.74 644.3 4797.74 644.3C4797.74 644.3 4797.74 644.3 4797.74 644.3C4797.74 644.3 4797.74 644.3 4797.73 644.3C4797.73 644.3 4797.73 644.3 4797.73 644.3C4797.73 644.3 4797.73 644.3 4797.73 644.3C4797.73 644.3 4797.73 644.31 4797.72 644.31C4797.72 644.31 4797.72 644.31 4797.71 644.31C4797.71 644.31 4797.71 644.32 4797.7 644.32C4797.7 644.32 4797.7 644.32 4797.7 644.32C4797.67 644.34 4797.65 644.36 4797.62 644.37C4797.6 644.39 4797.58 644.41 4797.55 644.42C4797.53 644.44 4797.5 644.45 4797.48 644.47C4797.46 644.48 4797.43 644.5 4797.41 644.52C4797.39 644.53 4797.37 644.54 4797.35 644.55C4797.33 644.56 4797.32 644.58 4797.3 644.59C4797.28 644.6 4797.26 644.61 4797.24 644.62C4797.22 644.64 4797.21 644.65 4797.19 644.66C4797.11 644.72 4797.03 644.77 4796.95 644.83C4796.87 644.89 4796.79 644.94 4796.71 645C4796.63 645.05 4796.55 645.1 4796.46 645.16C4796.38 645.21 4796.3 645.27 4796.22 645.32C4796.2 645.33 4796.18 645.34 4796.16 645.36C4796.14 645.37 4796.12 645.38 4796.1 645.4C4796.08 645.41 4796.06 645.42 4796.05 645.44C4796.03 645.45 4796.01 645.46 4795.99 645.47L4463.1 844.79C4463.05 844.81 4463 844.84 4462.96 844.86C4462.91 844.89 4462.86 844.92 4462.81 844.94C4462.76 844.97 4462.72 844.99 4462.67 845.02C4462.62 845.05 4462.57 845.07 4462.52 845.1C4462.45 845.14 4462.38 845.18 4462.31 845.22C4462.24 845.26 4462.16 845.3 4462.09 845.33C4462.02 845.37 4461.95 845.41 4461.87 845.45C4461.8 845.49 4461.73 845.53 4461.66 845.56C4461.55 845.62 4461.45 845.67 4461.35 845.72C4461.24 845.77 4461.14 845.82 4461.04 845.87C4460.93 845.92 4460.83 845.96 4460.72 846.01C4460.62 846.06 4460.51 846.11 4460.41 846.15C4460.33 846.18 4460.26 846.22 4460.18 846.25C4460.11 846.28 4460.03 846.31 4459.96 846.34C4459.88 846.37 4459.8 846.4 4459.73 846.43C4459.65 846.46 4459.57 846.49 4459.5 846.52C4459.38 846.57 4459.26 846.61 4459.14 846.66C4459.02 846.7 4458.9 846.74 4458.78 846.79C4458.66 846.83 4458.54 846.87 4458.42 846.91C4458.3 846.95 4458.18 846.99 4458.05 847.02C4457.99 847.05 4457.92 847.07 4457.85 847.09C4457.79 847.11 4457.72 847.13 4457.65 847.15C4457.58 847.17 4457.52 847.19 4457.45 847.21C4457.38 847.23 4457.31 847.25 4457.25 847.26C4457.13 847.3 4457.02 847.33 4456.9 847.36C4456.79 847.39 4456.67 847.41 4456.56 847.44C4456.44 847.47 4456.32 847.5 4456.21 847.52C4456.09 847.55 4455.98 847.58 4455.86 847.6C4455.77 847.62 4455.68 847.64 4455.59 847.66C4455.5 847.67 4455.41 847.69 4455.32 847.71C4455.23 847.73 4455.14 847.74 4455.05 847.76C4454.96 847.77 4454.87 847.79 4454.78 847.8C4454.66 847.82 4454.55 847.84 4454.44 847.85C4454.33 847.87 4454.22 847.88 4454.11 847.9C4454 847.91 4453.88 847.92 4453.77 847.94C4453.66 847.95 4453.55 847.96 4453.44 847.97C4453.36 847.98 4453.28 847.99 4453.2 848C4453.12 848 4453.04 848.01 4452.96 848.02C4452.88 848.02 4452.81 848.03 4452.73 848.04C4452.65 848.04 4452.57 848.05 4452.49 848.05C4452.37 848.06 4452.26 848.07 4452.14 848.07C4452.02 848.08 4451.91 848.08 4451.79 848.09C4451.68 848.09 4451.56 848.1 4451.44 848.1C4451.33 848.1 4451.21 848.1 4451.09 848.1C4450.99 848.1 4450.89 848.1 4450.79 848.1C4450.69 848.1 4450.59 848.09 4450.49 848.09C4450.39 848.09 4450.28 848.09 4450.18 848.08C4450.08 848.08 4449.98 848.07 4449.88 848.07C4449.8 848.06 4449.72 848.06 4449.64 848.05C4449.56 848.05 4449.48 848.04 4449.4 848.04C4449.31 848.03 4449.23 848.02 4449.15 848.02C4449.07 848.01 4448.99 848 4448.91 848C4448.79 847.98 4448.66 847.97 4448.54 847.96C4448.42 847.94 4448.29 847.93 4448.17 847.91C4448.05 847.9 4447.92 847.88 4447.8 847.86C4447.68 847.84 4447.56 847.82 4447.43 847.8C4447.35 847.79 4447.28 847.78 4447.2 847.77C4447.12 847.75 4447.04 847.74 4446.96 847.72C4446.89 847.71 4446.81 847.7 4446.73 847.68C4446.65 847.67 4446.58 847.65 4446.5 847.64C4446.39 847.61 4446.28 847.59 4446.17 847.57C4446.06 847.55 4445.95 847.52 4445.84 847.5C4445.73 847.47 4445.62 847.45 4445.51 847.42C4445.4 847.39 4445.29 847.37 4445.18 847.34C4445.09 847.31 4445 847.29 4444.91 847.26C4444.83 847.24 4444.74 847.21 4444.65 847.19C4444.56 847.16 4444.47 847.14 4444.38 847.11C4444.3 847.08 4444.21 847.05 4444.12 847.03C4444.01 846.99 4443.9 846.96 4443.79 846.92C4443.68 846.88 4443.57 846.85 4443.46 846.81C4443.35 846.77 4443.24 846.73 4443.13 846.69C4443.02 846.65 4442.91 846.61 4442.8 846.57C4442.73 846.54 4442.66 846.52 4442.59 846.49C4442.52 846.46 4442.45 846.43 4442.38 846.41C4442.31 846.38 4442.24 846.35 4442.17 846.32C4442.1 846.29 4442.03 846.26 4441.96 846.24C4441.84 846.19 4441.73 846.13 4441.61 846.08C4441.49 846.03 4441.38 845.98 4441.26 845.92C4441.15 845.87 4441.03 845.81 4440.92 845.76C4440.8 845.7 4440.69 845.65 4440.57 845.59C4440.5 845.55 4440.44 845.52 4440.37 845.48C4440.3 845.44 4440.23 845.41 4440.16 845.37C4440.09 845.33 4440.02 845.3 4439.95 845.26C4439.88 845.22 4439.81 845.18 4439.74 845.15C4439.69 845.12 4439.63 845.09 4439.58 845.06C4439.52 845.03 4439.46 845 4439.41 844.97C4439.35 844.94 4439.3 844.91 4439.24 844.88C4439.18 844.85 4439.13 844.82 4439.07 844.79L4106.18 645.48C4106.14 645.46 4106.11 645.44 4106.08 645.42C4106.05 645.4 4106.02 645.38 4105.99 645.37C4105.96 645.35 4105.93 645.33 4105.9 645.31C4105.87 645.29 4105.84 645.27 4105.81 645.25C4105.77 645.23 4105.74 645.21 4105.7 645.19C4105.67 645.16 4105.64 645.14 4105.6 645.12C4105.57 645.1 4105.54 645.08 4105.5 645.05C4105.47 645.03 4105.44 645.01 4105.4 644.99C4105.39 644.98 4105.38 644.97 4105.36 644.96C4105.35 644.95 4105.34 644.94 4105.33 644.93C4105.31 644.92 4105.3 644.91 4105.29 644.91C4105.28 644.9 4105.26 644.89 4105.25 644.88C4105.25 644.88 4105.25 644.87 4105.24 644.87C4105.24 644.87 4105.24 644.87 4105.23 644.87C4105.23 644.86 4105.23 644.86 4105.23 644.86C4105.22 644.86 4105.22 644.86 4105.22 644.86C4105.14 644.8 4105.06 644.75 4104.99 644.69C4104.91 644.64 4104.83 644.59 4104.76 644.53C4104.68 644.48 4104.61 644.42 4104.53 644.37C4104.45 644.31 4104.38 644.25 4104.3 644.2C4104.23 644.14 4104.15 644.08 4104.07 644.03C4103.99 643.97 4103.91 643.91 4103.83 643.86C4103.76 643.8 4103.68 643.74 4103.6 643.68C4103.52 643.62 4103.45 643.56 4103.37 643.5C4103.36 643.5 4103.36 643.49 4103.35 643.49C4103.35 643.48 4103.34 643.48 4103.34 643.47C4103.34 643.47 4103.33 643.46 4103.33 643.46C4103.32 643.45 4103.32 643.45 4103.31 643.44C4103.31 643.44 4103.3 643.44 4103.3 643.43C4103.29 643.43 4103.29 643.43 4103.29 643.43C4103.28 643.43 4103.28 643.42 4103.28 643.42C4103.27 643.42 4103.27 643.42 4103.26 643.42C4103.26 643.41 4103.25 643.41 4103.25 643.4C4103.24 643.4 4103.23 643.39 4103.23 643.39C4103.22 643.38 4103.22 643.38 4103.21 643.37C4103.21 643.37 4103.2 643.36 4103.19 643.36C4103.13 643.3 4103.06 643.24 4102.99 643.18C4102.92 643.12 4102.85 643.06 4102.79 643C4102.72 642.94 4102.65 642.88 4102.59 642.82C4102.52 642.76 4102.45 642.7 4102.39 642.64C4102.32 642.58 4102.25 642.52 4102.18 642.46C4102.12 642.39 4102.05 642.33 4101.98 642.27C4101.92 642.21 4101.85 642.15 4101.79 642.08C4101.72 642.02 4101.65 641.96 4101.59 641.89C4101.58 641.89 4101.58 641.88 4101.57 641.88C4101.57 641.87 4101.56 641.87 4101.56 641.86C4101.56 641.86 4101.55 641.85 4101.55 641.85C4101.54 641.84 4101.54 641.84 4101.53 641.83C4101.52 641.83 4101.52 641.82 4101.51 641.82C4101.5 641.81 4101.5 641.8 4101.49 641.8C4101.48 641.79 4101.48 641.79 4101.47 641.78C4101.46 641.77 4101.46 641.77 4101.45 641.76C4101.44 641.76 4101.44 641.75 4101.43 641.74C4101.43 641.74 4101.42 641.73 4101.41 641.73C4101.41 641.72 4101.4 641.71 4101.4 641.71C4101.39 641.7 4101.39 641.7 4101.38 641.69C4101.32 641.63 4101.26 641.56 4101.2 641.5C4101.14 641.44 4101.08 641.37 4101.02 641.31C4100.97 641.25 4100.91 641.18 4100.85 641.12C4100.79 641.05 4100.73 640.99 4100.68 640.92C4100.61 640.86 4100.55 640.79 4100.49 640.72C4100.43 640.65 4100.36 640.58 4100.3 640.51C4100.24 640.44 4100.18 640.37 4100.12 640.3C4100.06 640.23 4100 640.16 4099.94 640.09C4099.92 640.07 4099.9 640.05 4099.89 640.03C4099.87 640.01 4099.85 639.99 4099.84 639.97C4099.82 639.95 4099.81 639.93 4099.79 639.91C4099.77 639.89 4099.76 639.87 4099.74 639.85C4099.7 639.79 4099.66 639.74 4099.62 639.69C4099.58 639.64 4099.55 639.59 4099.51 639.54C4099.47 639.48 4099.43 639.43 4099.39 639.38C4099.35 639.33 4099.32 639.28 4099.28 639.22C4099.27 639.21 4099.25 639.19 4099.24 639.17C4099.23 639.16 4099.22 639.14 4099.2 639.12C4099.19 639.1 4099.18 639.09 4099.17 639.07C4099.15 639.05 4099.14 639.04 4099.13 639.02C4099.08 638.95 4099.02 638.88 4098.97 638.81C4098.92 638.74 4098.87 638.67 4098.82 638.6C4098.77 638.53 4098.72 638.46 4098.67 638.39C4098.62 638.32 4098.57 638.25 4098.52 638.18C4098.49 638.15 4098.47 638.12 4098.45 638.08C4098.43 638.05 4098.41 638.02 4098.38 637.98C4098.36 637.95 4098.34 637.92 4098.32 637.89C4098.3 637.85 4098.27 637.82 4098.25 637.79C4098.22 637.74 4098.2 637.7 4098.17 637.65C4098.14 637.6 4098.11 637.56 4098.09 637.51C4098.06 637.47 4098.03 637.42 4098.01 637.37C4097.98 637.33 4097.95 637.28 4097.93 637.24C4097.92 637.23 4097.91 637.22 4097.91 637.21C4097.9 637.2 4097.89 637.19 4097.89 637.18C4097.88 637.17 4097.87 637.16 4097.87 637.15C4097.86 637.14 4097.85 637.13 4097.85 637.12C4097.79 637.02 4097.73 636.92 4097.67 636.82C4097.61 636.72 4097.55 636.62 4097.49 636.52C4097.43 636.42 4097.38 636.32 4097.32 636.22C4097.26 636.12 4097.21 636.02 4097.15 635.92C4097.15 635.91 4097.15 635.91 4097.14 635.9C4097.14 635.89 4097.13 635.88 4097.13 635.88C4097.13 635.87 4097.12 635.86 4097.12 635.86C4097.11 635.85 4097.11 635.84 4097.11 635.84C4097.1 635.82 4097.1 635.81 4097.09 635.8C4097.08 635.79 4097.08 635.78 4097.07 635.77C4097.07 635.76 4097.06 635.75 4097.05 635.74C4097.05 635.73 4097.04 635.72 4097.04 635.7C4097.01 635.66 4096.99 635.61 4096.97 635.56C4096.94 635.51 4096.92 635.46 4096.9 635.41C4096.87 635.36 4096.85 635.31 4096.83 635.26C4096.81 635.22 4096.78 635.17 4096.76 635.12C4096.7 635 4096.65 634.89 4096.59 634.78C4096.54 634.67 4096.49 634.55 4096.43 634.44C4096.38 634.33 4096.33 634.21 4096.28 634.1C4096.23 633.98 4096.17 633.87 4096.13 633.75C4096.12 633.73 4096.11 633.71 4096.1 633.68C4096.09 633.66 4096.08 633.64 4096.07 633.61C4096.06 633.59 4096.06 633.57 4096.05 633.55C4096.04 633.52 4096.03 633.5 4096.02 633.48C4096 633.43 4095.99 633.38 4095.97 633.33C4095.95 633.29 4095.93 633.24 4095.92 633.19C4095.9 633.14 4095.88 633.09 4095.86 633.05C4095.85 633 4095.83 632.95 4095.81 632.9C4095.81 632.89 4095.8 632.88 4095.8 632.87C4095.79 632.85 4095.79 632.84 4095.78 632.83C4095.78 632.82 4095.77 632.81 4095.77 632.79C4095.76 632.78 4095.76 632.77 4095.75 632.76C4095.71 632.65 4095.67 632.54 4095.63 632.43C4095.59 632.32 4095.55 632.21 4095.51 632.1C4095.48 631.99 4095.44 631.88 4095.4 631.77C4095.36 631.66 4095.33 631.55 4095.29 631.44C4095.28 631.41 4095.27 631.38 4095.27 631.35C4095.26 631.32 4095.25 631.29 4095.24 631.26C4095.23 631.23 4095.22 631.19 4095.21 631.16C4095.21 631.13 4095.2 631.1 4095.19 631.07C4095.17 631 4095.15 630.94 4095.14 630.87C4095.12 630.81 4095.1 630.74 4095.09 630.68C4095.07 630.61 4095.05 630.54 4095.04 630.48C4095.02 630.41 4095.01 630.35 4094.99 630.28C4094.99 630.26 4094.98 630.25 4094.98 630.23C4094.98 630.22 4094.97 630.2 4094.97 630.18C4094.96 630.17 4094.96 630.15 4094.96 630.14C4094.95 630.12 4094.95 630.1 4094.94 630.09C4094.92 630.01 4094.9 629.93 4094.88 629.85C4094.86 629.77 4094.84 629.69 4094.82 629.61C4094.8 629.53 4094.78 629.45 4094.76 629.37C4094.74 629.29 4094.72 629.21 4094.7 629.13C4094.69 629.09 4094.68 629.05 4094.68 629.01C4094.67 628.97 4094.66 628.93 4094.65 628.89C4094.64 628.84 4094.63 628.8 4094.62 628.76C4094.61 628.72 4094.61 628.68 4094.6 628.64C4094.59 628.58 4094.58 628.51 4094.57 628.45C4094.56 628.38 4094.55 628.32 4094.54 628.26C4094.53 628.19 4094.53 628.13 4094.52 628.07C4094.51 628 4094.5 627.94 4094.49 627.87C4094.49 627.87 4094.49 627.86 4094.49 627.86C4094.49 627.85 4094.49 627.84 4094.49 627.84C4094.49 627.83 4094.49 627.83 4094.49 627.82C4094.48 627.81 4094.48 627.81 4094.48 627.8C4094.46 627.7 4094.45 627.6 4094.43 627.49C4094.41 627.39 4094.4 627.29 4094.38 627.19C4094.37 627.08 4094.35 626.98 4094.34 626.88C4094.32 626.77 4094.31 626.67 4094.3 626.57C4094.3 626.53 4094.29 626.49 4094.29 626.46C4094.29 626.42 4094.28 626.38 4094.28 626.35C4094.28 626.31 4094.27 626.27 4094.27 626.24C4094.27 626.2 4094.27 626.16 4094.26 626.12C4094.26 626.08 4094.26 626.04 4094.26 626C4094.25 625.96 4094.25 625.92 4094.25 625.87C4094.25 625.83 4094.25 625.79 4094.24 625.75C4094.24 625.71 4094.24 625.66 4094.24 625.62C4094.24 625.61 4094.24 625.6 4094.24 625.59C4094.24 625.57 4094.23 625.56 4094.23 625.55C4094.23 625.54 4094.23 625.53 4094.23 625.51C4094.23 625.5 4094.23 625.49 4094.23 625.48C4094.23 625.47 4094.23 625.46 4094.22 625.44C4094.22 625.43 4094.22 625.42 4094.22 625.41C4094.22 625.4 4094.22 625.38 4094.22 625.37C4094.22 625.36 4094.22 625.35 4094.22 625.34C4094.21 625.24 4094.2 625.15 4094.2 625.06C4094.19 624.96 4094.19 624.87 4094.18 624.78C4094.18 624.69 4094.17 624.59 4094.17 624.5C4094.16 624.41 4094.16 624.31 4094.16 624.22C4094.16 624.2 4094.15 624.17 4094.15 624.14C4094.15 624.11 4094.15 624.09 4094.15 624.06C4094.15 624.03 4094.15 624.01 4094.15 623.98C4094.15 623.95 4094.15 623.93 4094.15 623.9L4094.15 225.28C4094.15 225.22 4094.15 225.17 4094.15 225.11C4094.16 225.05 4094.16 224.99 4094.16 224.93C4094.16 224.88 4094.17 224.82 4094.17 224.76C4094.17 224.7 4094.18 224.65 4094.18 224.59C4094.18 224.5 4094.19 224.42 4094.19 224.33C4094.19 224.25 4094.2 224.16 4094.2 224.08C4094.2 223.99 4094.21 223.91 4094.21 223.82C4094.22 223.74 4094.22 223.65 4094.23 223.57C4094.24 223.46 4094.24 223.36 4094.25 223.25C4094.26 223.15 4094.27 223.04 4094.28 222.93C4094.29 222.83 4094.31 222.72 4094.32 222.62C4094.33 222.51 4094.34 222.41 4094.35 222.3C4094.37 222.2 4094.38 222.11 4094.39 222.01C4094.4 221.91 4094.41 221.82 4094.42 221.72C4094.44 221.62 4094.45 221.53 4094.46 221.43C4094.48 221.33 4094.49 221.24 4094.5 221.14C4094.52 221.02 4094.55 220.9 4094.57 220.78C4094.59 220.66 4094.61 220.54 4094.63 220.43C4094.66 220.31 4094.68 220.19 4094.71 220.07C4094.73 219.95 4094.76 219.83 4094.78 219.71C4094.8 219.63 4094.82 219.54 4094.84 219.46C4094.86 219.37 4094.88 219.28 4094.9 219.2C4094.92 219.11 4094.95 219.03 4094.97 218.94C4094.99 218.86 4095.01 218.77 4095.04 218.69C4095.06 218.58 4095.09 218.47 4095.12 218.36C4095.16 218.25 4095.19 218.14 4095.22 218.04C4095.25 217.93 4095.28 217.82 4095.32 217.71C4095.35 217.61 4095.38 217.5 4095.42 217.39C4095.45 217.3 4095.47 217.21 4095.5 217.12C4095.53 217.03 4095.56 216.94 4095.6 216.85C4095.63 216.75 4095.66 216.66 4095.69 216.57C4095.72 216.48 4095.75 216.39 4095.79 216.3C4095.82 216.2 4095.86 216.1 4095.9 216C4095.94 215.9 4095.98 215.8 4096.02 215.7C4096.06 215.6 4096.1 215.5 4096.14 215.4C4096.19 215.3 4096.23 215.2 4096.27 215.11C4096.31 215.01 4096.35 214.92 4096.39 214.83C4096.43 214.74 4096.48 214.64 4096.52 214.55C4096.56 214.46 4096.6 214.37 4096.65 214.28C4096.69 214.19 4096.73 214.09 4096.78 214C4096.82 213.91 4096.87 213.82 4096.91 213.73C4096.96 213.63 4097.01 213.54 4097.05 213.45C4097.1 213.36 4097.15 213.27 4097.2 213.17C4097.25 213.08 4097.29 212.99 4097.34 212.9C4097.4 212.81 4097.45 212.71 4097.5 212.62C4097.56 212.53 4097.61 212.43 4097.67 212.34C4097.72 212.25 4097.78 212.16 4097.83 212.06C4097.89 211.97 4097.95 211.88 4098 211.79C4098.05 211.71 4098.1 211.64 4098.15 211.56C4098.2 211.48 4098.25 211.41 4098.3 211.33C4098.35 211.25 4098.4 211.18 4098.45 211.1C4098.5 211.03 4098.55 210.95 4098.6 210.88C4098.67 210.78 4098.73 210.69 4098.8 210.59C4098.86 210.5 4098.93 210.4 4099 210.31C4099.07 210.22 4099.13 210.12 4099.2 210.03C4099.27 209.94 4099.34 209.85 4099.41 209.75C4099.47 209.68 4099.53 209.61 4099.59 209.53C4099.64 209.46 4099.7 209.39 4099.76 209.31C4099.82 209.24 4099.88 209.17 4099.94 209.09C4100 209.02 4100.07 208.95 4100.13 208.88C4100.19 208.8 4100.26 208.72 4100.33 208.64C4100.4 208.56 4100.47 208.48 4100.54 208.4C4100.61 208.32 4100.68 208.24 4100.75 208.17C4100.83 208.09 4100.9 208.01 4100.97 207.93C4101.04 207.86 4101.1 207.8 4101.17 207.73C4101.23 207.66 4101.3 207.59 4101.37 207.52C4101.44 207.45 4101.5 207.39 4101.57 207.32C4101.64 207.25 4101.71 207.19 4101.78 207.12C4101.86 207.04 4101.94 206.96 4102.02 206.89C4102.1 206.81 4102.18 206.73 4102.26 206.66C4102.34 206.58 4102.42 206.51 4102.5 206.43C4102.58 206.36 4102.66 206.28 4102.75 206.21C4102.82 206.15 4102.89 206.09 4102.96 206.03C4103.03 205.97 4103.1 205.91 4103.17 205.85C4103.24 205.79 4103.31 205.73 4103.39 205.68C4103.46 205.62 4103.53 205.56 4103.6 205.5C4103.69 205.43 4103.78 205.37 4103.87 205.3C4103.95 205.23 4104.04 205.17 4104.13 205.1C4104.22 205.03 4104.31 204.97 4104.4 204.9C4104.49 204.84 4104.58 204.78 4104.68 204.71C4104.75 204.66 4104.82 204.61 4104.9 204.56C4104.97 204.5 4105.05 204.45 4105.12 204.4C4105.2 204.35 4105.27 204.3 4105.35 204.25C4105.42 204.2 4105.5 204.15 4105.58 204.1C4105.62 204.07 4105.67 204.04 4105.72 204C4105.77 203.97 4105.82 203.94 4105.87 203.9C4105.92 203.87 4105.97 203.84 4106.02 203.8C4106.07 203.77 4106.12 203.74 4106.16 203.71L4439.06 4.4C4439.09 4.38 4439.12 4.37 4439.15 4.35C4439.17 4.33 4439.2 4.32 4439.23 4.3C4439.26 4.29 4439.28 4.27 4439.31 4.25C4439.34 4.24 4439.37 4.22 4439.4 4.21C4439.43 4.19 4439.47 4.16 4439.51 4.14C4439.55 4.12 4439.58 4.1 4439.62 4.08C4439.66 4.06 4439.7 4.04 4439.73 4.02C4439.77 4 4439.81 3.98 4439.85 3.96C4439.95 3.9 4440.05 3.85 4440.15 3.8C4440.25 3.74 4440.35 3.69 4440.45 3.64C4440.55 3.59 4440.65 3.54 4440.75 3.49C4440.85 3.44 4440.96 3.39 4441.06 3.35C4441.15 3.3 4441.25 3.26 4441.34 3.21C4441.43 3.17 4441.53 3.13 4441.62 3.09C4441.72 3.04 4441.81 3 4441.91 2.96C4442 2.92 4442.1 2.88 4442.19 2.84C4442.19 2.84 4442.19 2.84 4442.2 2.84C4442.2 2.84 4442.2 2.84 4442.2 2.84C4442.2 2.84 4442.21 2.83 4442.21 2.83C4442.21 2.83 4442.21 2.83 4442.21 2.83C4442.22 2.83 4442.22 2.83 4442.22 2.83C4442.22 2.83 4442.22 2.83 4442.23 2.82C4442.23 2.82 4442.23 2.82 4442.23 2.82C4442.23 2.82 4442.24 2.82 4442.24 2.82C4442.24 2.82 4442.24 2.82 4442.25 2.82C4442.25 2.81 4442.25 2.81 4442.26 2.81C4442.26 2.81 4442.26 2.81 4442.26 2.81C4442.27 2.81 4442.27 2.81 4442.27 2.81C4442.36 2.77 4442.44 2.74 4442.52 2.71C4442.6 2.68 4442.68 2.65 4442.77 2.62C4442.85 2.59 4442.93 2.56 4443.02 2.53C4443.1 2.5 4443.18 2.48 4443.27 2.45C4443.36 2.41 4443.45 2.38 4443.54 2.35C4443.63 2.31 4443.72 2.28 4443.81 2.25C4443.9 2.22 4444 2.19 4444.09 2.16C4444.18 2.12 4444.27 2.09 4444.36 2.06C4444.37 2.06 4444.38 2.06 4444.39 2.06C4444.39 2.06 4444.4 2.05 4444.41 2.05C4444.42 2.05 4444.42 2.05 4444.43 2.05C4444.44 2.04 4444.45 2.04 4444.46 2.04C4444.47 2.04 4444.48 2.03 4444.49 2.03C4444.51 2.02 4444.52 2.02 4444.53 2.02C4444.54 2.01 4444.56 2.01 4444.57 2C4444.58 2 4444.59 2 4444.61 1.99C4444.68 1.97 4444.76 1.95 4444.84 1.93C4444.91 1.91 4444.99 1.89 4445.07 1.87C4445.14 1.86 4445.22 1.84 4445.3 1.82C4445.37 1.8 4445.45 1.78 4445.53 1.77C4445.63 1.74 4445.73 1.71 4445.82 1.69C4445.92 1.67 4446.02 1.64 4446.12 1.62C4446.22 1.6 4446.32 1.57 4446.42 1.55C4446.52 1.53 4446.62 1.51 4446.72 1.49C4446.73 1.49 4446.74 1.49 4446.75 1.48C4446.76 1.48 4446.77 1.48 4446.78 1.48C4446.79 1.48 4446.79 1.47 4446.8 1.47C4446.81 1.47 4446.82 1.47 4446.83 1.47C4446.84 1.46 4446.85 1.46 4446.86 1.46C4446.88 1.46 4446.89 1.46 4446.9 1.45C4446.91 1.45 4446.92 1.45 4446.93 1.45C4446.94 1.45 4446.95 1.44 4446.96 1.44C4447.04 1.43 4447.11 1.42 4447.19 1.41C4447.26 1.39 4447.34 1.38 4447.42 1.37C4447.49 1.36 4447.57 1.35 4447.64 1.34C4447.72 1.33 4447.8 1.32 4447.87 1.31C4447.97 1.3 4448.07 1.28 4448.17 1.27C4448.28 1.25 4448.38 1.24 4448.48 1.23C4448.58 1.22 4448.68 1.21 4448.78 1.2C4448.88 1.19 4448.98 1.18 4449.08 1.17C4449.11 1.16 4449.14 1.16 4449.16 1.16C4449.19 1.16 4449.21 1.16 4449.24 1.15C4449.27 1.15 4449.29 1.15 4449.32 1.15C4449.34 1.15 4449.37 1.14 4449.4 1.14C4449.43 1.14 4449.47 1.14 4449.51 1.14C4449.55 1.13 4449.59 1.13 4449.63 1.13C4449.67 1.13 4449.7 1.13 4449.74 1.12C4449.78 1.12 4449.82 1.12 4449.86 1.12C4449.88 1.12 4449.9 1.12 4449.93 1.12C4449.95 1.11 4449.97 1.11 4450 1.11C4450.02 1.11 4450.04 1.11 4450.07 1.11C4450.09 1.11 4450.11 1.11 4450.14 1.11C4450.22 1.1 4450.31 1.1 4450.39 1.09C4450.48 1.09 4450.56 1.08 4450.65 1.08C4450.73 1.07 4450.82 1.07 4450.91 1.07C4450.99 1.06 4451.08 1.06 4451.16 1.06L4451.16 1.06ZM4292.51 275.11L4609.63 275.11L4451.07 66.25L4292.51 275.11ZM4166.24 225.28L4237.02 267.65L4354.98 112.27L4166.24 225.28ZM4665.13 267.65L4735.92 225.28L4547.16 112.27L4665.13 267.65ZM4142.2 494.46L4212.99 310.81L4142.2 268.43L4142.2 494.46ZM4689.16 310.81L4759.94 494.45L4759.94 268.43L4689.16 310.81ZM4451.07 623.9L4617.51 324.93L4284.63 324.93L4451.07 623.9ZM4151.8 603.76L4405.52 641.74L4246.96 356.92L4151.8 603.76ZM4496.62 641.74L4750.34 603.76L4655.18 356.93L4496.62 641.74ZM4427.04 780.06L4427.04 695.29L4238.29 667.05L4427.04 780.06ZM4475.1 695.3L4475.1 780.06L4663.86 667.05L4475.1 695.3Z" />
	</g>
</svg>