<svg xmlns="http://www.w3.org/2000/svg" viewBox="0 0 791 848" width="791" height="848">
	<g id="g6676">
		<path id="path817" fill-rule="evenodd" class="shp0" d="M2041.08 1.55C2043.44 0.87 2046.18 0.76 2048.93 1.58C2051.29 2.14 2054.18 3.9 2054.85 4.32C2055.52 4.79 2056.09 5.24 2056.6 5.65C2057.79 6.61 2059.04 7.68 2060.5 9C2063.44 11.64 2067.29 15.26 2072.06 19.84C2081.61 29.01 2094.83 42.01 2110.84 57.97C2142.86 89.9 2186 133.64 2232.64 181.56L2402.04 355.64C2404.96 358.64 2406.67 362.87 2406.68 367.14L2406.68 483.36C2406.68 487.65 2404.96 491.91 2402.02 494.91L2232.42 668.29C2185.73 716.01 2142.49 759.58 2110.38 791.4C2094.32 807.31 2081.05 820.27 2071.45 829.42C2066.65 833.98 2062.78 837.58 2059.8 840.23C2058.33 841.54 2057.07 842.64 2055.85 843.61C2055.3 844.05 2054.69 844.51 2054.02 844.97C2053.5 845.29 2050.66 847.03 2048.27 847.61C2045.86 848.19 2043.42 848.28 2041.35 847.82C2039.59 847.28 2037.45 846.54 2035.02 845.01C2033.4 843.99 2031.97 842.89 2030.46 841.68C2027.35 839.2 2023.58 835.89 2018.92 831.64C2009.6 823.12 1996.8 810.85 1980.99 795.31C1949.38 764.22 1905.86 720.13 1855.67 668.21L1684.75 491.4C1681.85 488.4 1680.15 484.19 1680.15 479.94L1680.15 368.62C1680.15 364.35 1681.85 360.12 1684.77 357.12L1684.77 357.11L1856.2 180.68C1903.41 132.09 1947.1 88.11 1979.54 56.29C1995.76 40.38 2009.15 27.53 2018.89 18.56C2023.76 14.08 2027.68 10.57 2030.84 7.96C2032.41 6.67 2033.83 5.56 2035.33 4.55C2037.4 3.04 2038.51 2.6 2041.08 1.55ZM2053.79 845.12C2053.87 845.07 2053.94 845.02 2054.02 844.97C2054.16 844.88 2054.11 844.91 2053.79 845.12ZM2054.59 4.14C2055.05 4.45 2055.09 4.47 2054.85 4.32C2054.76 4.26 2054.68 4.2 2054.59 4.14ZM2043.15 69.21C2029.37 93.14 1987.57 169.21 1943.75 250.15C1920.2 293.64 1897.25 336.25 1880.1 368.4C1871.53 384.48 1864.39 397.95 1859.38 407.55C1858 410.21 1857.21 411.77 1856.17 413.8C1858.59 415.61 1860.38 417.09 1865.2 420.05C1879.83 429.03 1905.35 442.87 1945.19 463.61C1973.45 478.33 1999.29 491.74 2018.13 501.48C2027.55 506.36 2035.23 510.32 2040.57 513.05C2041.39 513.47 2041.77 513.67 2042.44 514.01C2043.11 513.68 2043.49 513.5 2044.31 513.09C2049.75 510.38 2057.65 506.37 2067.34 501.43C2086.71 491.54 2113.31 477.85 2142.41 462.75L2233.74 415.36L2218.18 386.2C2205.45 362.35 2157.9 275.11 2112.81 192.88C2082.98 138.48 2063.96 103.89 2051.7 82.91C2047.84 76.29 2045.73 73.23 2043.15 69.21ZM1945.03 154.57C1945.03 154.57 1945.03 154.57 1945.03 154.57C1945.03 154.57 1945.03 154.57 1945.03 154.57L1945.03 154.57ZM1945.03 154.57C1921.86 178.27 1898.87 201.76 1869.61 232.06L1725.9 380.87L1725.9 420.96C1725.9 432.29 1725.84 439.22 1725.98 444.92C1727.04 444.52 1727.9 444.12 1729.17 443.56C1737.88 439.42 1750.38 433.63 1768.15 425.08L1808.14 405.84L1900.87 236.17C1918.18 204.5 1931.14 180.34 1945.03 154.57ZM2144.22 156.91C2186.91 235.26 2247.97 347.23 2262.72 373.95L2280.93 406.95L2326.06 428.17C2326.14 428.21 2326.21 428.25 2326.29 428.29C2326.32 428.3 2326.35 428.32 2326.39 428.34C2339.16 434.34 2350.88 439.71 2360.14 443.86C2360.54 436.25 2360.92 428.13 2360.92 417.85L2360.92 375.48L2308.97 323.54C2277.67 292.24 2210 223.73 2158.43 171.15C2151.9 164.49 2149.72 162.47 2144.22 156.91L2144.22 156.91ZM2166.13 501.71L2068.9 552.16L2067.66 666.72C2067.28 700.88 2067.11 732.89 2067.15 756.86C2067.15 761.23 2067.2 763.69 2067.22 767.49C2071.95 763.21 2075.08 760.62 2081.59 754.42C2107.75 729.5 2147.58 689.9 2201.86 634.85C2245.51 590.58 2284.8 549.91 2312.83 520.16C2326.06 506.12 2336.26 495.02 2343.68 486.7C2334.22 482.03 2321.74 476.1 2308.36 469.98L2265.28 450.25L2166.13 501.71ZM1790.65 464.94C1771.9 473.8 1752.77 482.58 1741.81 487.45L1883.79 633.05C1927.36 677.73 1967.37 718.38 1996.7 747.83C2007.18 758.34 2014.32 765.38 2021.73 772.7C2021.79 771.06 2021.85 770.25 2021.9 768.43C2022.55 744.88 2022.95 712.13 2022.95 676.1L2022.95 554.63L1923.24 502.99L1821.55 450.33L1790.65 464.94Z" />
		<path id="path851" fill-rule="evenodd" class="shp0" d="M-423.02 71.62C-420.93 72.28 -418.92 73.22 -417.05 74.4C-415.17 75.58 -413.45 77.01 -411.92 78.63C-410.38 80.26 -409.05 82.08 -407.96 84.05L-43.95 737.87C-41.64 742.01 -40.43 746.71 -40.43 751.49C-40.43 756.27 -41.64 760.97 -43.95 765.11C-46.26 769.25 -49.57 772.69 -53.57 775.08C-57.56 777.47 -62.09 778.73 -66.7 778.73L-794.73 778.73C-799.34 778.73 -803.87 777.47 -807.86 775.08C-811.86 772.69 -815.17 769.25 -817.48 765.11C-819.78 760.97 -821 756.27 -821 751.49C-821 746.71 -819.79 742.01 -817.48 737.87L-453.46 84.05C-452.26 81.89 -450.78 79.92 -449.06 78.18C-447.35 76.44 -445.41 74.96 -443.31 73.76C-441.2 72.57 -438.95 71.68 -436.61 71.12C-434.27 70.57 -431.87 70.34 -429.48 70.46C-427.29 70.56 -425.12 70.95 -423.02 71.62ZM-404.45 517.81L-138.47 677.06L-404.45 199.32L-404.45 517.81ZM-722.96 677.06L-456.98 517.81L-456.98 199.34L-722.96 677.06ZM-696.68 724.25L-164.74 724.25L-430.71 565.01L-696.68 724.25Z" />
		<path id="path864" fill-rule="evenodd" class="shp0" d="M398.93 1.06C399.93 1.08 400.93 1.17 401.92 1.33C402.91 1.48 403.89 1.7 404.86 1.98C405.82 2.26 406.77 2.6 407.69 3C408.61 3.41 409.51 3.87 410.38 4.39L743.12 203.7C744.94 204.79 746.61 206.12 748.1 207.66C749.58 209.2 750.86 210.93 751.91 212.82C752.96 214.7 753.77 216.72 754.31 218.82C754.86 220.93 755.13 223.09 755.13 225.27L755.13 623.89C755.13 626.06 754.86 628.23 754.31 630.33C753.77 632.44 752.96 634.46 751.91 636.34C750.86 638.23 749.58 639.96 748.1 641.5C746.61 643.04 744.94 644.37 743.12 645.46L410.38 844.77C408.56 845.86 406.61 846.7 404.58 847.26C402.55 847.82 400.46 848.11 398.36 848.11C396.26 848.11 394.17 847.82 392.14 847.26C390.12 846.7 388.17 845.86 386.35 844.77L53.61 645.46C51.8 644.37 50.12 643.04 48.64 641.5C47.16 639.96 45.87 638.23 44.82 636.34C43.77 634.46 42.97 632.44 42.42 630.33C41.88 628.23 41.61 626.06 41.61 623.89L41.61 225.27C41.61 223.09 41.88 220.93 42.42 218.82C42.97 216.72 43.77 214.7 44.82 212.82C45.87 210.93 47.16 209.2 48.64 207.66C50.12 206.12 51.8 204.79 53.61 203.7L386.35 4.39C387.3 3.82 388.29 3.32 389.3 2.89C390.32 2.46 391.36 2.11 392.42 1.83C393.48 1.54 394.56 1.34 395.65 1.21C396.74 1.08 397.84 1.03 398.93 1.06ZM113.65 225.27L398.37 395.81L683.06 225.27L398.37 54.73L113.65 225.27ZM89.65 609.51L374.34 780.03L374.34 438.96L89.65 268.43L89.65 609.51ZM422.39 438.96L422.39 780.03L707.08 609.51L707.08 268.43L422.39 438.96Z" />
		<path id="path875" fill-rule="evenodd" class="shp0" d="M1218.2 1.07C1222.23 1.17 1226.16 2.32 1229.65 4.4L1562.5 203.71C1572.28 209.8 1574.18 215.04 1574.51 225.87L1574.56 623.9C1574.56 632.8 1569.98 641.02 1562.54 645.47L1229.64 844.78C1229.23 845.03 1228.81 845.26 1228.38 845.48C1228.05 845.64 1227.71 845.8 1227.37 845.95C1226.96 846.15 1226.55 846.33 1226.13 846.49C1225.88 846.59 1225.62 846.68 1225.36 846.77C1224.86 846.95 1224.35 847.11 1223.84 847.26C1223.53 847.34 1223.21 847.41 1222.9 847.48C1222.46 847.58 1222.01 847.68 1221.56 847.76C1221.21 847.82 1220.85 847.87 1220.5 847.91C1220.05 847.97 1219.61 848.02 1219.16 848.06C1218.78 848.08 1218.41 848.09 1218.03 848.09C1217.6 848.1 1217.17 848.1 1216.75 848.09C1216.42 848.07 1216.09 848.04 1215.77 848.01C1215.29 847.98 1214.82 847.93 1214.35 847.87C1214.02 847.82 1213.71 847.76 1213.39 847.69C1212.91 847.61 1212.44 847.51 1211.97 847.4C1211.71 847.33 1211.45 847.26 1211.19 847.18C1210.66 847.03 1210.13 846.86 1209.61 846.67C1209.37 846.58 1209.13 846.49 1208.9 846.39C1208.42 846.2 1207.96 845.99 1207.5 845.78C1207.11 845.58 1206.73 845.38 1206.36 845.17C1206.11 845.04 1205.87 844.91 1205.63 844.78L1205.13 844.48L872.73 645.47C865.3 641.03 860.71 632.8 860.71 623.9L860.71 225.28C861.49 216.15 864.99 208.34 873.22 203.42L1205.62 4.4C1209.44 2.11 1213.79 0.96 1218.2 1.07L1218.2 1.07ZM974.4 200.37L1460.85 200.37L1217.64 54.75L974.4 200.37ZM1217.64 773.38L1508.88 250.2L926.36 250.2L1217.64 773.38ZM908.76 609.52L1152 755.14L908.76 318.25L908.76 609.52ZM1283.26 755.14L1526.51 609.51L1526.49 318.25L1283.26 755.14Z" />
		<path id="path886" fill-rule="evenodd" class="shp0" d="M2950.02 100.7C2954.81 100.7 2959.48 102.18 2963.45 104.95L3049.05 164.76C3049.4 165 3049.75 165.25 3050.09 165.51L3050.11 165.54C3050.75 166.03 3051.35 166.56 3051.94 167.12L3051.96 167.14C3052.54 167.69 3053.09 168.28 3053.61 168.89L3053.63 168.91C3054.16 169.53 3054.65 170.17 3055.11 170.84L3055.14 170.86C3055.6 171.53 3056.02 172.21 3056.42 172.92L3056.44 172.96L3156.34 352.33C3156.44 352.5 3156.53 352.68 3156.62 352.86C3156.89 353.38 3157.14 353.92 3157.37 354.46C3157.49 354.71 3157.61 354.97 3157.72 355.23C3157.87 355.64 3158.02 356.05 3158.16 356.47C3158.29 356.84 3158.42 357.22 3158.54 357.6C3158.68 358.12 3158.81 358.65 3158.92 359.18C3158.97 359.4 3159.03 359.62 3159.08 359.85C3159.08 359.87 3159.09 359.9 3159.09 359.92C3159.17 360.37 3159.24 360.83 3159.3 361.29C3159.36 361.7 3159.42 362.12 3159.46 362.54C3159.48 362.86 3159.49 363.17 3159.51 363.49C3159.54 363.92 3159.56 364.36 3159.57 364.79L3159.57 365.13L3159.52 484.39C3159.52 488.75 3158.41 493.04 3156.31 496.83L3056.44 676.21C3054.33 680 3051.3 683.14 3047.64 685.32L2947.79 745.12C2947.62 745.21 2947.46 745.31 2947.29 745.4C2947.26 745.42 2947.24 745.43 2947.21 745.45C2946.92 745.6 2946.64 745.74 2946.34 745.88C2945.92 746.11 2945.49 746.33 2945.05 746.53L2945.04 746.53C2944.97 746.55 2944.91 746.58 2944.84 746.6C2944.17 746.89 2943.48 747.14 2942.79 747.37C2942.02 747.61 2941.24 747.81 2940.46 747.98C2939.67 748.14 2938.88 748.26 2938.08 748.34C2937.31 748.41 2936.55 748.45 2935.78 748.46L2736.14 748.46C2735.95 748.46 2735.76 748.45 2735.57 748.44C2734.92 748.42 2734.28 748.37 2733.63 748.3C2733.46 748.29 2733.29 748.27 2733.11 748.25C2732.52 748.17 2731.93 748.06 2731.35 747.93C2731.14 747.89 2730.94 747.85 2730.73 747.81C2730.22 747.68 2729.71 747.53 2729.2 747.37C2728.93 747.29 2728.66 747.2 2728.39 747.12C2727.83 746.91 2727.27 746.69 2726.73 746.45C2726.55 746.38 2726.38 746.3 2726.21 746.23C2725.78 746.02 2725.35 745.79 2724.93 745.55C2724.66 745.41 2724.39 745.27 2724.13 745.13L2723.84 744.95L2624.18 685.34C2620.53 683.15 2617.5 680 2615.39 676.21L2515.52 496.83C2513.42 493.04 2512.31 488.75 2512.31 484.39L2512.26 364.79C2512.26 364.59 2512.27 364.39 2512.27 364.2C2512.27 364.17 2512.27 364.14 2512.27 364.11C2512.29 363.69 2512.32 363.27 2512.37 362.85C2512.39 362.45 2512.42 362.06 2512.46 361.66C2512.49 361.46 2512.52 361.27 2512.55 361.07C2512.64 360.44 2512.75 359.8 2512.89 359.18C2513.07 358.37 2513.29 357.57 2513.54 356.78C2513.79 356.02 2514.07 355.28 2514.39 354.55L2514.4 354.52C2514.55 354.21 2514.7 353.9 2514.86 353.6C2515.06 353.17 2515.26 352.75 2515.48 352.33L2515.53 352.26L2615.39 172.96C2615.47 172.82 2615.55 172.68 2615.63 172.54C2615.66 172.49 2615.69 172.43 2615.72 172.38C2615.98 171.96 2616.25 171.55 2616.53 171.15C2616.71 170.87 2616.9 170.59 2617.09 170.31C2617.46 169.83 2617.84 169.35 2618.24 168.9C2618.37 168.74 2618.51 168.59 2618.64 168.43C2618.95 168.1 2619.26 167.77 2619.59 167.45C2619.86 167.17 2620.14 166.89 2620.43 166.62C2620.7 166.39 2620.98 166.15 2621.26 165.93C2621.61 165.64 2621.96 165.35 2622.33 165.08C2622.59 164.89 2622.87 164.71 2623.14 164.53C2623.49 164.29 2623.83 164.06 2624.18 163.83L2624.47 163.67L2724.04 104.04C2727.69 101.85 2731.84 100.7 2736.06 100.7L2950.02 100.7ZM2704 173.58L2838.65 200.47L2974.31 172.61L2942.7 150.53L2742.49 150.53L2704 173.58ZM2565.65 361.89L2674.82 492.6L2686.12 486.07L2804.56 417.5L2812.01 413.19L2814.39 246.37L2648.44 213.23L2565.65 361.89ZM2862.46 246.39L2860.11 410.29L2997.19 492.37L3064.93 411.27L3106.18 361.89L3023.43 213.32L2862.46 246.39ZM2560.35 477.7L2653.77 645.52L2692.32 668.58L2648.29 536.94L2560.34 431.64L2560.35 477.7ZM3023.55 536.92L3023.55 536.94L2979.57 668.55L3018.05 645.52L3111.48 477.7L3111.49 431.64L3023.55 536.92ZM2698.77 535.81L2753.23 698.63L2918.67 698.63L2973.16 535.52L2838.61 454.95C2832.35 458.73 2705.34 532.22 2698.77 535.81Z" />
		<path id="path897" fill-rule="evenodd" class="shp0" d="M3622.16 1.06C3622.19 1.06 3622.21 1.06 3622.24 1.06C3622.27 1.06 3622.29 1.06 3622.32 1.06C3622.34 1.06 3622.37 1.07 3622.4 1.07C3622.42 1.07 3622.45 1.07 3622.47 1.07C3622.5 1.07 3622.53 1.07 3622.56 1.07C3622.59 1.07 3622.62 1.07 3622.65 1.08C3622.68 1.08 3622.7 1.08 3622.73 1.08C3622.76 1.08 3622.79 1.08 3622.82 1.08C3622.86 1.09 3622.9 1.09 3622.95 1.09C3622.99 1.09 3623.03 1.1 3623.07 1.1C3623.12 1.1 3623.16 1.11 3623.2 1.11C3623.24 1.11 3623.28 1.11 3623.33 1.12C3623.34 1.12 3623.36 1.12 3623.37 1.12C3623.39 1.12 3623.4 1.12 3623.42 1.12C3623.43 1.13 3623.45 1.13 3623.47 1.13C3623.48 1.13 3623.5 1.13 3623.51 1.13C3623.62 1.14 3623.73 1.14 3623.85 1.15C3623.96 1.16 3624.07 1.17 3624.18 1.17C3624.29 1.18 3624.4 1.19 3624.52 1.2C3624.63 1.21 3624.74 1.23 3624.85 1.24C3624.88 1.24 3624.91 1.25 3624.95 1.25C3624.98 1.25 3625.01 1.26 3625.04 1.26C3625.07 1.27 3625.1 1.27 3625.14 1.27C3625.17 1.28 3625.2 1.28 3625.23 1.29C3625.28 1.29 3625.32 1.3 3625.36 1.31C3625.41 1.32 3625.45 1.32 3625.5 1.33C3625.54 1.34 3625.59 1.35 3625.63 1.36C3625.67 1.36 3625.72 1.37 3625.76 1.38C3625.77 1.38 3625.78 1.39 3625.79 1.39C3625.8 1.39 3625.81 1.39 3625.82 1.39C3625.83 1.4 3625.84 1.4 3625.85 1.4C3625.86 1.4 3625.87 1.4 3625.88 1.41C3625.89 1.41 3625.9 1.41 3625.92 1.41C3625.93 1.41 3625.94 1.42 3625.95 1.42C3625.97 1.42 3625.98 1.42 3625.99 1.42C3626 1.43 3626.02 1.43 3626.03 1.43C3626.13 1.45 3626.22 1.46 3626.32 1.48C3626.42 1.49 3626.52 1.51 3626.62 1.53C3626.72 1.55 3626.81 1.57 3626.91 1.59C3627.01 1.6 3627.11 1.62 3627.21 1.65C3627.24 1.65 3627.28 1.66 3627.31 1.67C3627.35 1.68 3627.38 1.69 3627.42 1.7C3627.45 1.71 3627.49 1.72 3627.53 1.73C3627.56 1.73 3627.6 1.74 3627.63 1.75C3627.64 1.75 3627.64 1.75 3627.65 1.76C3627.66 1.76 3627.66 1.76 3627.67 1.76C3627.67 1.76 3627.68 1.76 3627.68 1.76C3627.69 1.76 3627.7 1.76 3627.7 1.76C3627.73 1.77 3627.76 1.78 3627.79 1.79C3627.83 1.8 3627.86 1.81 3627.89 1.82C3627.92 1.83 3627.95 1.84 3627.98 1.85C3628.01 1.85 3628.04 1.86 3628.07 1.87C3628.07 1.87 3628.08 1.87 3628.08 1.88C3628.08 1.88 3628.08 1.88 3628.08 1.88C3628.09 1.88 3628.09 1.88 3628.09 1.88C3628.09 1.88 3628.09 1.88 3628.1 1.88C3628.22 1.92 3628.34 1.95 3628.46 1.98C3628.58 2.01 3628.7 2.05 3628.82 2.08C3628.94 2.12 3629.06 2.15 3629.18 2.19C3629.3 2.23 3629.42 2.26 3629.54 2.3C3629.58 2.32 3629.61 2.33 3629.65 2.34C3629.69 2.35 3629.73 2.37 3629.76 2.38C3629.8 2.39 3629.84 2.41 3629.88 2.42C3629.91 2.43 3629.95 2.45 3629.99 2.46C3629.99 2.46 3629.99 2.46 3629.99 2.46C3630 2.46 3630 2.46 3630 2.47C3630 2.47 3630 2.47 3630.01 2.47C3630.01 2.47 3630.01 2.47 3630.01 2.47C3630.03 2.48 3630.05 2.49 3630.07 2.5C3630.09 2.5 3630.1 2.51 3630.12 2.52C3630.14 2.53 3630.16 2.54 3630.18 2.54C3630.2 2.55 3630.21 2.56 3630.23 2.57C3630.24 2.57 3630.25 2.58 3630.27 2.58C3630.28 2.58 3630.29 2.59 3630.3 2.59C3630.31 2.6 3630.32 2.6 3630.34 2.6C3630.35 2.61 3630.36 2.61 3630.37 2.62C3630.49 2.66 3630.61 2.71 3630.73 2.75C3630.85 2.8 3630.97 2.85 3631.09 2.9C3631.21 2.95 3631.33 3 3631.45 3.05C3631.57 3.1 3631.68 3.15 3631.8 3.2C3631.83 3.22 3631.86 3.23 3631.89 3.24C3631.92 3.26 3631.95 3.27 3631.98 3.28C3632 3.3 3632.03 3.31 3632.06 3.33C3632.09 3.34 3632.12 3.36 3632.15 3.37C3632.19 3.39 3632.23 3.41 3632.27 3.43C3632.31 3.46 3632.35 3.48 3632.39 3.5C3632.43 3.52 3632.47 3.54 3632.51 3.57C3632.55 3.59 3632.59 3.61 3632.63 3.63C3632.64 3.63 3632.64 3.64 3632.64 3.64C3632.65 3.64 3632.65 3.64 3632.66 3.64C3632.66 3.65 3632.66 3.65 3632.67 3.65C3632.67 3.65 3632.68 3.65 3632.68 3.66C3632.78 3.7 3632.88 3.75 3632.97 3.8C3633.07 3.85 3633.17 3.9 3633.27 3.95C3633.36 4 3633.46 4.06 3633.56 4.11C3633.65 4.16 3633.75 4.21 3633.85 4.27C3633.87 4.28 3633.89 4.29 3633.91 4.3C3633.93 4.31 3633.95 4.32 3633.97 4.33C3633.99 4.34 3634.01 4.35 3634.03 4.37C3634.05 4.38 3634.07 4.39 3634.09 4.4L3966.99 203.71C3967.03 203.74 3967.08 203.76 3967.12 203.79C3967.16 203.82 3967.2 203.85 3967.25 203.88C3967.29 203.91 3967.33 203.94 3967.37 203.97C3967.41 204 3967.46 204.03 3967.5 204.05C3967.57 204.1 3967.65 204.15 3967.72 204.2C3967.8 204.25 3967.87 204.29 3967.95 204.34C3968.02 204.39 3968.09 204.44 3968.17 204.49C3968.24 204.54 3968.31 204.59 3968.39 204.64C3968.48 204.7 3968.56 204.76 3968.65 204.83C3968.73 204.89 3968.82 204.95 3968.91 205.02C3968.99 205.08 3969.08 205.15 3969.16 205.21C3969.25 205.28 3969.33 205.34 3969.42 205.41C3969.48 205.46 3969.55 205.51 3969.62 205.57C3969.69 205.62 3969.76 205.68 3969.83 205.73C3969.9 205.79 3969.97 205.84 3970.03 205.9C3970.1 205.95 3970.17 206.01 3970.24 206.07C3970.32 206.14 3970.41 206.22 3970.5 206.3C3970.59 206.37 3970.67 206.45 3970.76 206.53C3970.85 206.61 3970.93 206.69 3971.02 206.77C3971.11 206.85 3971.19 206.93 3971.27 207.01C3971.35 207.08 3971.42 207.15 3971.49 207.22C3971.56 207.29 3971.64 207.37 3971.71 207.44C3971.78 207.51 3971.85 207.58 3971.92 207.65C3971.99 207.73 3972.06 207.8 3972.13 207.87C3972.19 207.94 3972.26 208.01 3972.32 208.08C3972.38 208.15 3972.45 208.22 3972.51 208.29C3972.57 208.36 3972.63 208.43 3972.69 208.5C3972.76 208.57 3972.82 208.64 3972.88 208.71C3972.95 208.79 3973.01 208.87 3973.08 208.95C3973.15 209.03 3973.21 209.11 3973.28 209.19C3973.34 209.27 3973.41 209.35 3973.47 209.44C3973.54 209.52 3973.6 209.6 3973.66 209.68C3973.73 209.77 3973.8 209.86 3973.87 209.95C3973.94 210.04 3974.01 210.13 3974.08 210.22C3974.14 210.31 3974.21 210.4 3974.28 210.49C3974.34 210.59 3974.41 210.68 3974.47 210.77C3974.52 210.84 3974.57 210.91 3974.62 210.98C3974.67 211.06 3974.71 211.13 3974.76 211.2C3974.81 211.27 3974.85 211.34 3974.9 211.42C3974.95 211.49 3974.99 211.56 3975.04 211.63C3975.1 211.73 3975.16 211.83 3975.22 211.93C3975.28 212.03 3975.34 212.13 3975.4 212.23C3975.46 212.33 3975.52 212.43 3975.58 212.53C3975.64 212.63 3975.7 212.73 3975.75 212.83C3975.8 212.92 3975.85 213 3975.9 213.09C3975.94 213.17 3975.99 213.26 3976.04 213.35C3976.08 213.43 3976.13 213.52 3976.17 213.61C3976.22 213.7 3976.26 213.78 3976.31 213.87C3976.35 213.96 3976.39 214.04 3976.43 214.13C3976.48 214.22 3976.52 214.3 3976.56 214.39C3976.6 214.48 3976.64 214.56 3976.68 214.65C3976.72 214.74 3976.75 214.83 3976.79 214.91C3976.84 215.02 3976.88 215.12 3976.93 215.23C3976.97 215.33 3977.02 215.44 3977.06 215.54C3977.1 215.65 3977.15 215.76 3977.19 215.86C3977.23 215.97 3977.27 216.08 3977.31 216.18C3977.35 216.28 3977.38 216.37 3977.42 216.47C3977.45 216.56 3977.49 216.65 3977.52 216.75C3977.55 216.84 3977.59 216.94 3977.62 217.03C3977.65 217.13 3977.69 217.22 3977.72 217.32C3977.75 217.41 3977.77 217.5 3977.8 217.59C3977.83 217.68 3977.86 217.77 3977.88 217.86C3977.91 217.95 3977.94 218.04 3977.96 218.14C3977.99 218.23 3978.02 218.32 3978.04 218.41C3978.07 218.53 3978.11 218.65 3978.14 218.76C3978.17 218.88 3978.2 219 3978.23 219.12C3978.26 219.24 3978.29 219.36 3978.32 219.48C3978.34 219.6 3978.37 219.71 3978.4 219.83C3978.42 219.91 3978.43 219.99 3978.45 220.07C3978.46 220.15 3978.48 220.23 3978.5 220.31C3978.51 220.39 3978.53 220.47 3978.54 220.55C3978.55 220.63 3978.57 220.71 3978.58 220.79C3978.6 220.9 3978.62 221.01 3978.64 221.13C3978.66 221.24 3978.68 221.35 3978.7 221.46C3978.71 221.57 3978.73 221.68 3978.75 221.8C3978.76 221.91 3978.78 222.02 3978.79 222.13C3978.8 222.24 3978.82 222.35 3978.83 222.46C3978.84 222.57 3978.85 222.68 3978.86 222.79C3978.87 222.9 3978.88 223.01 3978.89 223.12C3978.9 223.23 3978.91 223.34 3978.92 223.45C3978.92 223.54 3978.93 223.63 3978.93 223.72C3978.94 223.81 3978.94 223.9 3978.95 223.99C3978.95 224.09 3978.95 224.18 3978.96 224.27C3978.96 224.36 3978.96 224.45 3978.96 224.54C3978.97 224.6 3978.97 224.66 3978.98 224.73C3978.98 224.79 3978.98 224.85 3978.99 224.91C3978.99 224.97 3978.99 225.03 3978.99 225.1C3979 225.16 3979 225.22 3979 225.28L3979 623.9C3979 623.95 3979 623.99 3979 624.03C3979 624.07 3979 624.11 3979 624.16C3978.99 624.2 3978.99 624.24 3978.99 624.28C3978.99 624.32 3978.99 624.37 3978.99 624.41C3978.99 624.44 3978.99 624.47 3978.99 624.51C3978.98 624.54 3978.98 624.57 3978.98 624.6C3978.98 624.64 3978.98 624.67 3978.98 624.7C3978.98 624.74 3978.98 624.77 3978.98 624.8C3978.98 624.81 3978.97 624.82 3978.97 624.83C3978.97 624.84 3978.97 624.85 3978.97 624.86C3978.97 624.86 3978.97 624.87 3978.97 624.88C3978.97 624.89 3978.97 624.9 3978.96 624.91C3978.96 624.92 3978.96 624.94 3978.96 624.95C3978.96 624.96 3978.96 624.97 3978.96 624.99C3978.96 625 3978.96 625.01 3978.96 625.03C3978.96 625.04 3978.96 625.05 3978.96 625.06C3978.96 625.07 3978.96 625.07 3978.96 625.07C3978.96 625.07 3978.96 625.07 3978.96 625.08C3978.96 625.08 3978.96 625.08 3978.96 625.08C3978.96 625.08 3978.96 625.09 3978.96 625.09C3978.96 625.18 3978.95 625.27 3978.95 625.37C3978.94 625.46 3978.93 625.55 3978.92 625.65C3978.92 625.74 3978.91 625.83 3978.9 625.92C3978.89 626.02 3978.88 626.11 3978.87 626.2C3978.86 626.3 3978.85 626.4 3978.85 626.49C3978.84 626.59 3978.83 626.69 3978.82 626.78C3978.8 626.88 3978.79 626.98 3978.78 627.07C3978.77 627.17 3978.76 627.27 3978.75 627.36C3978.74 627.37 3978.74 627.38 3978.74 627.39C3978.74 627.4 3978.74 627.41 3978.74 627.42C3978.74 627.43 3978.74 627.44 3978.74 627.45C3978.74 627.46 3978.73 627.47 3978.73 627.48C3978.73 627.5 3978.73 627.51 3978.73 627.53C3978.73 627.54 3978.72 627.56 3978.72 627.57C3978.72 627.59 3978.72 627.6 3978.72 627.62C3978.71 627.63 3978.71 627.65 3978.71 627.66C3978.7 627.75 3978.68 627.84 3978.67 627.93C3978.65 628.03 3978.63 628.12 3978.62 628.21C3978.6 628.3 3978.58 628.39 3978.57 628.48C3978.55 628.57 3978.53 628.66 3978.51 628.75C3978.5 628.84 3978.48 628.93 3978.46 629.02C3978.45 629.11 3978.43 629.2 3978.41 629.29C3978.39 629.38 3978.37 629.47 3978.35 629.56C3978.33 629.65 3978.31 629.74 3978.29 629.83C3978.29 629.83 3978.29 629.83 3978.29 629.83C3978.29 629.84 3978.29 629.84 3978.29 629.84C3978.29 629.84 3978.29 629.84 3978.29 629.85C3978.28 629.85 3978.28 629.85 3978.28 629.85C3978.28 629.86 3978.28 629.87 3978.28 629.89C3978.27 629.9 3978.27 629.91 3978.27 629.92C3978.27 629.93 3978.27 629.94 3978.26 629.95C3978.26 629.96 3978.26 629.97 3978.26 629.98C3978.26 629.99 3978.26 629.99 3978.26 629.99C3978.25 630 3978.25 630 3978.25 630C3978.25 630 3978.25 630.01 3978.25 630.01C3978.25 630.01 3978.25 630.02 3978.25 630.02C3978.22 630.12 3978.2 630.21 3978.17 630.31C3978.14 630.41 3978.11 630.51 3978.09 630.6C3978.06 630.7 3978.03 630.8 3978 630.89C3977.97 630.99 3977.94 631.08 3977.91 631.18C3977.89 631.27 3977.86 631.36 3977.84 631.45C3977.81 631.53 3977.78 631.62 3977.76 631.71C3977.73 631.8 3977.7 631.88 3977.67 631.97C3977.65 632.06 3977.62 632.15 3977.59 632.23C3977.59 632.24 3977.58 632.25 3977.58 632.25C3977.58 632.26 3977.58 632.26 3977.58 632.27C3977.58 632.28 3977.57 632.28 3977.57 632.29C3977.57 632.29 3977.57 632.3 3977.57 632.31C3977.56 632.31 3977.56 632.32 3977.56 632.32C3977.56 632.33 3977.56 632.33 3977.56 632.34C3977.56 632.34 3977.56 632.35 3977.56 632.35C3977.56 632.36 3977.55 632.36 3977.55 632.37C3977.55 632.37 3977.55 632.38 3977.54 632.39C3977.54 632.39 3977.54 632.4 3977.54 632.4C3977.53 632.41 3977.53 632.41 3977.53 632.42C3977.52 632.43 3977.52 632.43 3977.52 632.44C3977.49 632.51 3977.46 632.59 3977.44 632.66C3977.41 632.74 3977.38 632.81 3977.35 632.88C3977.33 632.96 3977.3 633.03 3977.27 633.1C3977.24 633.18 3977.21 633.25 3977.18 633.32C3977.14 633.43 3977.11 633.53 3977.07 633.63C3977.02 633.73 3976.98 633.83 3976.94 633.93C3976.9 634.03 3976.86 634.13 3976.82 634.23C3976.77 634.32 3976.73 634.42 3976.69 634.52C3976.68 634.55 3976.67 634.57 3976.66 634.59C3976.65 634.61 3976.63 634.64 3976.62 634.66C3976.61 634.68 3976.6 634.71 3976.59 634.73C3976.58 634.75 3976.57 634.77 3976.56 634.8C3976.54 634.84 3976.52 634.88 3976.49 634.93C3976.47 634.97 3976.45 635.01 3976.43 635.06C3976.41 635.1 3976.38 635.14 3976.36 635.18C3976.34 635.23 3976.32 635.27 3976.29 635.31C3976.28 635.34 3976.27 635.36 3976.26 635.38C3976.25 635.4 3976.24 635.43 3976.23 635.45C3976.21 635.47 3976.2 635.5 3976.19 635.52C3976.18 635.54 3976.17 635.56 3976.16 635.59C3976.11 635.68 3976.07 635.77 3976.02 635.86C3975.97 635.95 3975.93 636.04 3975.88 636.13C3975.83 636.22 3975.79 636.31 3975.74 636.4C3975.69 636.49 3975.64 636.58 3975.59 636.66C3975.57 636.69 3975.56 636.72 3975.54 636.75C3975.52 636.78 3975.5 636.81 3975.49 636.84C3975.47 636.87 3975.45 636.9 3975.43 636.93C3975.42 636.95 3975.4 636.98 3975.38 637.01C3975.35 637.06 3975.33 637.1 3975.3 637.14C3975.27 637.18 3975.24 637.23 3975.22 637.27C3975.19 637.31 3975.16 637.36 3975.13 637.4C3975.1 637.44 3975.08 637.48 3975.05 637.53C3975.04 637.54 3975.03 637.55 3975.02 637.57C3975.01 637.58 3975 637.6 3975 637.61C3974.99 637.62 3974.98 637.64 3974.97 637.65C3974.96 637.67 3974.95 637.68 3974.94 637.69C3974.89 637.78 3974.83 637.87 3974.77 637.96C3974.71 638.05 3974.66 638.14 3974.6 638.23C3974.54 638.32 3974.48 638.41 3974.42 638.5C3974.36 638.58 3974.3 638.67 3974.24 638.76C3974.22 638.78 3974.2 638.81 3974.18 638.83C3974.17 638.86 3974.15 638.88 3974.13 638.91C3974.11 638.93 3974.09 638.96 3974.08 638.98C3974.06 639.01 3974.04 639.03 3974.02 639.06C3973.97 639.12 3973.93 639.17 3973.88 639.23C3973.84 639.29 3973.79 639.35 3973.75 639.4C3973.7 639.46 3973.65 639.52 3973.61 639.57C3973.56 639.63 3973.51 639.68 3973.47 639.74C3973.41 639.82 3973.35 639.89 3973.29 639.97C3973.23 640.04 3973.17 640.11 3973.11 640.19C3973.05 640.26 3972.99 640.34 3972.93 640.41C3972.87 640.48 3972.81 640.55 3972.75 640.63C3972.73 640.65 3972.7 640.68 3972.68 640.71C3972.65 640.74 3972.63 640.77 3972.61 640.79C3972.58 640.82 3972.56 640.85 3972.53 640.88C3972.51 640.91 3972.49 640.93 3972.46 640.96C3972.42 641.01 3972.37 641.06 3972.32 641.1C3972.28 641.15 3972.23 641.2 3972.19 641.25C3972.14 641.29 3972.09 641.34 3972.05 641.39C3972 641.43 3971.95 641.48 3971.91 641.52C3971.91 641.53 3971.91 641.53 3971.9 641.53C3971.9 641.53 3971.9 641.53 3971.9 641.53C3971.9 641.53 3971.9 641.53 3971.9 641.53C3971.9 641.53 3971.9 641.54 3971.9 641.54C3971.89 641.54 3971.89 641.54 3971.89 641.54C3971.89 641.54 3971.89 641.54 3971.89 641.54C3971.89 641.54 3971.89 641.54 3971.89 641.54C3971.89 641.55 3971.89 641.55 3971.88 641.55C3971.82 641.62 3971.75 641.69 3971.68 641.76C3971.61 641.84 3971.54 641.91 3971.47 641.98C3971.4 642.05 3971.33 642.12 3971.26 642.19C3971.18 642.26 3971.11 642.33 3971.04 642.4C3971.01 642.43 3970.98 642.46 3970.95 642.49C3970.91 642.51 3970.88 642.54 3970.85 642.57C3970.82 642.6 3970.79 642.63 3970.76 642.66C3970.72 642.69 3970.69 642.72 3970.66 642.74C3970.66 642.75 3970.65 642.75 3970.65 642.75C3970.65 642.76 3970.65 642.76 3970.64 642.76C3970.64 642.77 3970.64 642.77 3970.63 642.77C3970.63 642.77 3970.63 642.78 3970.62 642.78C3970.61 642.8 3970.59 642.81 3970.57 642.83C3970.55 642.84 3970.53 642.86 3970.51 642.87C3970.49 642.89 3970.47 642.9 3970.45 642.92C3970.43 642.93 3970.41 642.94 3970.39 642.96C3970.38 642.98 3970.36 642.99 3970.34 643.01C3970.32 643.02 3970.3 643.04 3970.28 643.06C3970.27 643.07 3970.25 643.09 3970.23 643.1C3970.21 643.12 3970.19 643.14 3970.17 643.15C3970.09 643.22 3970.01 643.3 3969.92 643.37C3969.84 643.44 3969.76 643.51 3969.67 643.58C3969.59 643.65 3969.5 643.72 3969.42 643.79C3969.33 643.85 3969.24 643.92 3969.16 643.99C3969.12 644.02 3969.09 644.04 3969.05 644.07C3969.02 644.09 3968.99 644.12 3968.95 644.15C3968.92 644.17 3968.88 644.2 3968.85 644.22C3968.81 644.25 3968.78 644.28 3968.74 644.3C3968.74 644.3 3968.74 644.3 3968.74 644.3C3968.74 644.3 3968.74 644.3 3968.74 644.3C3968.74 644.3 3968.74 644.3 3968.73 644.3C3968.73 644.3 3968.73 644.3 3968.73 644.3C3968.73 644.3 3968.73 644.31 3968.72 644.31C3968.72 644.31 3968.72 644.31 3968.71 644.31C3968.71 644.31 3968.71 644.32 3968.7 644.32C3968.7 644.32 3968.7 644.32 3968.7 644.32C3968.67 644.34 3968.65 644.36 3968.62 644.37C3968.6 644.39 3968.58 644.41 3968.55 644.42C3968.53 644.44 3968.5 644.45 3968.48 644.47C3968.46 644.48 3968.43 644.5 3968.41 644.52C3968.39 644.53 3968.37 644.54 3968.35 644.55C3968.33 644.56 3968.32 644.58 3968.3 644.59C3968.28 644.6 3968.26 644.61 3968.24 644.62C3968.22 644.64 3968.21 644.65 3968.19 644.66C3968.11 644.72 3968.03 644.77 3967.95 644.83C3967.87 644.89 3967.79 644.94 3967.71 645C3967.63 645.05 3967.55 645.1 3967.46 645.16C3967.38 645.21 3967.3 645.27 3967.22 645.32C3967.2 645.33 3967.18 645.34 3967.16 645.36C3967.14 645.37 3967.12 645.38 3967.1 645.4C3967.08 645.41 3967.06 645.42 3967.05 645.44C3967.03 645.45 3967.01 645.46 3966.99 645.47L3634.1 844.79C3634.05 844.81 3634 844.84 3633.96 844.86C3633.91 844.89 3633.86 844.92 3633.81 844.94C3633.76 844.97 3633.72 844.99 3633.67 845.02C3633.62 845.05 3633.57 845.07 3633.52 845.1C3633.45 845.14 3633.38 845.18 3633.31 845.22C3633.24 845.26 3633.16 845.3 3633.09 845.33C3633.02 845.37 3632.95 845.41 3632.87 845.45C3632.8 845.49 3632.73 845.53 3632.66 845.56C3632.55 845.62 3632.45 845.67 3632.35 845.72C3632.24 845.77 3632.14 845.82 3632.04 845.87C3631.93 845.92 3631.83 845.96 3631.72 846.01C3631.62 846.06 3631.51 846.11 3631.41 846.15C3631.33 846.18 3631.26 846.22 3631.18 846.25C3631.11 846.28 3631.03 846.31 3630.96 846.34C3630.88 846.37 3630.8 846.4 3630.73 846.43C3630.65 846.46 3630.57 846.49 3630.5 846.52C3630.38 846.57 3630.26 846.61 3630.14 846.66C3630.02 846.7 3629.9 846.74 3629.78 846.79C3629.66 846.83 3629.54 846.87 3629.42 846.91C3629.3 846.95 3629.18 846.99 3629.05 847.02C3628.99 847.05 3628.92 847.07 3628.85 847.09C3628.79 847.11 3628.72 847.13 3628.65 847.15C3628.58 847.17 3628.52 847.19 3628.45 847.21C3628.38 847.23 3628.31 847.25 3628.25 847.26C3628.13 847.3 3628.02 847.33 3627.9 847.36C3627.79 847.39 3627.67 847.41 3627.56 847.44C3627.44 847.47 3627.32 847.5 3627.21 847.52C3627.09 847.55 3626.98 847.58 3626.86 847.6C3626.77 847.62 3626.68 847.64 3626.59 847.66C3626.5 847.67 3626.41 847.69 3626.32 847.71C3626.23 847.73 3626.14 847.74 3626.05 847.76C3625.96 847.77 3625.87 847.79 3625.78 847.8C3625.66 847.82 3625.55 847.84 3625.44 847.85C3625.33 847.87 3625.22 847.88 3625.11 847.9C3625 847.91 3624.88 847.92 3624.77 847.94C3624.66 847.95 3624.55 847.96 3624.44 847.97C3624.36 847.98 3624.28 847.99 3624.2 848C3624.12 848 3624.04 848.01 3623.96 848.02C3623.88 848.02 3623.81 848.03 3623.73 848.04C3623.65 848.04 3623.57 848.05 3623.49 848.05C3623.37 848.06 3623.26 848.07 3623.14 848.07C3623.02 848.08 3622.91 848.08 3622.79 848.09C3622.68 848.09 3622.56 848.1 3622.44 848.1C3622.33 848.1 3622.21 848.1 3622.09 848.1C3621.99 848.1 3621.89 848.1 3621.79 848.1C3621.69 848.1 3621.59 848.09 3621.49 848.09C3621.39 848.09 3621.28 848.09 3621.18 848.08C3621.08 848.08 3620.98 848.07 3620.88 848.07C3620.8 848.06 3620.72 848.06 3620.64 848.05C3620.56 848.05 3620.48 848.04 3620.4 848.04C3620.31 848.03 3620.23 848.02 3620.15 848.02C3620.07 848.01 3619.99 848 3619.91 848C3619.79 847.98 3619.66 847.97 3619.54 847.96C3619.42 847.94 3619.29 847.93 3619.17 847.91C3619.05 847.9 3618.92 847.88 3618.8 847.86C3618.68 847.84 3618.56 847.82 3618.43 847.8C3618.35 847.79 3618.28 847.78 3618.2 847.77C3618.12 847.75 3618.04 847.74 3617.96 847.72C3617.89 847.71 3617.81 847.7 3617.73 847.68C3617.65 847.67 3617.58 847.65 3617.5 847.64C3617.39 847.61 3617.28 847.59 3617.17 847.57C3617.06 847.55 3616.95 847.52 3616.84 847.5C3616.73 847.47 3616.62 847.45 3616.51 847.42C3616.4 847.39 3616.29 847.37 3616.18 847.34C3616.09 847.31 3616 847.29 3615.91 847.26C3615.83 847.24 3615.74 847.21 3615.65 847.19C3615.56 847.16 3615.47 847.14 3615.38 847.11C3615.3 847.08 3615.21 847.05 3615.12 847.03C3615.01 846.99 3614.9 846.96 3614.79 846.92C3614.68 846.88 3614.57 846.85 3614.46 846.81C3614.35 846.77 3614.24 846.73 3614.13 846.69C3614.02 846.65 3613.91 846.61 3613.8 846.57C3613.73 846.54 3613.66 846.52 3613.59 846.49C3613.52 846.46 3613.45 846.43 3613.38 846.41C3613.31 846.38 3613.24 846.35 3613.17 846.32C3613.1 846.29 3613.03 846.26 3612.96 846.24C3612.84 846.19 3612.73 846.13 3612.61 846.08C3612.49 846.03 3612.38 845.98 3612.26 845.92C3612.15 845.87 3612.03 845.81 3611.92 845.76C3611.8 845.7 3611.69 845.65 3611.57 845.59C3611.5 845.55 3611.44 845.52 3611.37 845.48C3611.3 845.44 3611.23 845.41 3611.16 845.37C3611.09 845.33 3611.02 845.3 3610.95 845.26C3610.88 845.22 3610.81 845.18 3610.74 845.15C3610.69 845.12 3610.63 845.09 3610.58 845.06C3610.52 845.03 3610.46 845 3610.41 844.97C3610.35 844.94 3610.3 844.91 3610.24 844.88C3610.18 844.85 3610.13 844.82 3610.07 844.79L3277.18 645.48C3277.14 645.46 3277.11 645.44 3277.08 645.42C3277.05 645.4 3277.02 645.38 3276.99 645.37C3276.96 645.35 3276.93 645.33 3276.9 645.31C3276.87 645.29 3276.84 645.27 3276.81 645.25C3276.77 645.23 3276.74 645.21 3276.7 645.19C3276.67 645.16 3276.64 645.14 3276.6 645.12C3276.57 645.1 3276.54 645.08 3276.5 645.05C3276.47 645.03 3276.44 645.01 3276.4 644.99C3276.39 644.98 3276.38 644.97 3276.36 644.96C3276.35 644.95 3276.34 644.94 3276.33 644.93C3276.31 644.92 3276.3 644.91 3276.29 644.91C3276.28 644.9 3276.26 644.89 3276.25 644.88C3276.25 644.88 3276.25 644.87 3276.24 644.87C3276.24 644.87 3276.24 644.87 3276.23 644.87C3276.23 644.86 3276.23 644.86 3276.23 644.86C3276.22 644.86 3276.22 644.86 3276.22 644.86C3276.14 644.8 3276.06 644.75 3275.99 644.69C3275.91 644.64 3275.83 644.59 3275.76 644.53C3275.68 644.48 3275.61 644.42 3275.53 644.37C3275.45 644.31 3275.38 644.25 3275.3 644.2C3275.23 644.14 3275.15 644.08 3275.07 644.03C3274.99 643.97 3274.91 643.91 3274.83 643.86C3274.76 643.8 3274.68 643.74 3274.6 643.68C3274.52 643.62 3274.45 643.56 3274.37 643.5C3274.36 643.5 3274.36 643.49 3274.35 643.49C3274.35 643.48 3274.34 643.48 3274.34 643.47C3274.34 643.47 3274.33 643.46 3274.33 643.46C3274.32 643.45 3274.32 643.45 3274.31 643.44C3274.31 643.44 3274.3 643.44 3274.3 643.43C3274.29 643.43 3274.29 643.43 3274.29 643.43C3274.28 643.43 3274.28 643.42 3274.28 643.42C3274.27 643.42 3274.27 643.42 3274.26 643.42C3274.26 643.41 3274.25 643.41 3274.25 643.4C3274.24 643.4 3274.23 643.39 3274.23 643.39C3274.22 643.38 3274.22 643.38 3274.21 643.37C3274.21 643.37 3274.2 643.36 3274.19 643.36C3274.13 643.3 3274.06 643.24 3273.99 643.18C3273.92 643.12 3273.85 643.06 3273.79 643C3273.72 642.94 3273.65 642.88 3273.59 642.82C3273.52 642.76 3273.45 642.7 3273.39 642.64C3273.32 642.58 3273.25 642.52 3273.18 642.46C3273.12 642.39 3273.05 642.33 3272.98 642.27C3272.92 642.21 3272.85 642.15 3272.79 642.08C3272.72 642.02 3272.65 641.96 3272.59 641.89C3272.58 641.89 3272.58 641.88 3272.57 641.88C3272.57 641.87 3272.56 641.87 3272.56 641.86C3272.56 641.86 3272.55 641.85 3272.55 641.85C3272.54 641.84 3272.54 641.84 3272.53 641.83C3272.52 641.83 3272.52 641.82 3272.51 641.82C3272.5 641.81 3272.5 641.8 3272.49 641.8C3272.48 641.79 3272.48 641.79 3272.47 641.78C3272.46 641.77 3272.46 641.77 3272.45 641.76C3272.44 641.76 3272.44 641.75 3272.43 641.74C3272.43 641.74 3272.42 641.73 3272.41 641.73C3272.41 641.72 3272.4 641.71 3272.4 641.71C3272.39 641.7 3272.39 641.7 3272.38 641.69C3272.32 641.63 3272.26 641.56 3272.2 641.5C3272.14 641.44 3272.08 641.37 3272.02 641.31C3271.97 641.25 3271.91 641.18 3271.85 641.12C3271.79 641.05 3271.73 640.99 3271.68 640.92C3271.61 640.86 3271.55 640.79 3271.49 640.72C3271.43 640.65 3271.36 640.58 3271.3 640.51C3271.24 640.44 3271.18 640.37 3271.12 640.3C3271.06 640.23 3271 640.16 3270.94 640.09C3270.92 640.07 3270.9 640.05 3270.89 640.03C3270.87 640.01 3270.85 639.99 3270.84 639.97C3270.82 639.95 3270.81 639.93 3270.79 639.91C3270.77 639.89 3270.76 639.87 3270.74 639.85C3270.7 639.79 3270.66 639.74 3270.62 639.69C3270.58 639.64 3270.55 639.59 3270.51 639.54C3270.47 639.48 3270.43 639.43 3270.39 639.38C3270.35 639.33 3270.32 639.28 3270.28 639.22C3270.27 639.21 3270.25 639.19 3270.24 639.17C3270.23 639.16 3270.22 639.14 3270.2 639.12C3270.19 639.1 3270.18 639.09 3270.17 639.07C3270.15 639.05 3270.14 639.04 3270.13 639.02C3270.08 638.95 3270.02 638.88 3269.97 638.81C3269.92 638.74 3269.87 638.67 3269.82 638.6C3269.77 638.53 3269.72 638.46 3269.67 638.39C3269.62 638.32 3269.57 638.25 3269.52 638.18C3269.49 638.15 3269.47 638.12 3269.45 638.08C3269.43 638.05 3269.41 638.02 3269.38 637.98C3269.36 637.95 3269.34 637.92 3269.32 637.89C3269.3 637.85 3269.27 637.82 3269.25 637.79C3269.22 637.74 3269.2 637.7 3269.17 637.65C3269.14 637.6 3269.11 637.56 3269.09 637.51C3269.06 637.47 3269.03 637.42 3269.01 637.37C3268.98 637.33 3268.95 637.28 3268.93 637.24C3268.92 637.23 3268.91 637.22 3268.91 637.21C3268.9 637.2 3268.89 637.19 3268.89 637.18C3268.88 637.17 3268.87 637.16 3268.87 637.15C3268.86 637.14 3268.85 637.13 3268.85 637.12C3268.79 637.02 3268.73 636.92 3268.67 636.82C3268.61 636.72 3268.55 636.62 3268.49 636.52C3268.43 636.42 3268.38 636.32 3268.32 636.22C3268.26 636.12 3268.21 636.02 3268.15 635.92C3268.15 635.91 3268.15 635.91 3268.14 635.9C3268.14 635.89 3268.13 635.88 3268.13 635.88C3268.13 635.87 3268.12 635.86 3268.12 635.86C3268.11 635.85 3268.11 635.84 3268.11 635.84C3268.1 635.82 3268.1 635.81 3268.09 635.8C3268.08 635.79 3268.08 635.78 3268.07 635.77C3268.07 635.76 3268.06 635.75 3268.05 635.74C3268.05 635.73 3268.04 635.72 3268.04 635.7C3268.01 635.66 3267.99 635.61 3267.97 635.56C3267.94 635.51 3267.92 635.46 3267.9 635.41C3267.87 635.36 3267.85 635.31 3267.83 635.26C3267.81 635.22 3267.78 635.17 3267.76 635.12C3267.7 635 3267.65 634.89 3267.59 634.78C3267.54 634.67 3267.49 634.55 3267.43 634.44C3267.38 634.33 3267.33 634.21 3267.28 634.1C3267.23 633.98 3267.17 633.87 3267.13 633.75C3267.12 633.73 3267.11 633.71 3267.1 633.68C3267.09 633.66 3267.08 633.64 3267.07 633.61C3267.06 633.59 3267.06 633.57 3267.05 633.55C3267.04 633.52 3267.03 633.5 3267.02 633.48C3267 633.43 3266.99 633.38 3266.97 633.33C3266.95 633.29 3266.93 633.24 3266.92 633.19C3266.9 633.14 3266.88 633.09 3266.86 633.05C3266.85 633 3266.83 632.95 3266.81 632.9C3266.81 632.89 3266.8 632.88 3266.8 632.87C3266.79 632.85 3266.79 632.84 3266.78 632.83C3266.78 632.82 3266.77 632.81 3266.77 632.79C3266.76 632.78 3266.76 632.77 3266.75 632.76C3266.71 632.65 3266.67 632.54 3266.63 632.43C3266.59 632.32 3266.55 632.21 3266.51 632.1C3266.48 631.99 3266.44 631.88 3266.4 631.77C3266.36 631.66 3266.33 631.55 3266.29 631.44C3266.28 631.41 3266.27 631.38 3266.27 631.35C3266.26 631.32 3266.25 631.29 3266.24 631.26C3266.23 631.23 3266.22 631.19 3266.21 631.16C3266.21 631.13 3266.2 631.1 3266.19 631.07C3266.17 631 3266.15 630.94 3266.14 630.87C3266.12 630.81 3266.1 630.74 3266.09 630.68C3266.07 630.61 3266.05 630.54 3266.04 630.48C3266.02 630.41 3266.01 630.35 3265.99 630.28C3265.99 630.26 3265.98 630.25 3265.98 630.23C3265.98 630.22 3265.97 630.2 3265.97 630.18C3265.96 630.17 3265.96 630.15 3265.96 630.14C3265.95 630.12 3265.95 630.1 3265.94 630.09C3265.92 630.01 3265.9 629.93 3265.88 629.85C3265.86 629.77 3265.84 629.69 3265.82 629.61C3265.8 629.53 3265.78 629.45 3265.76 629.37C3265.74 629.29 3265.72 629.21 3265.7 629.13C3265.69 629.09 3265.68 629.05 3265.68 629.01C3265.67 628.97 3265.66 628.93 3265.65 628.89C3265.64 628.84 3265.63 628.8 3265.62 628.76C3265.61 628.72 3265.61 628.68 3265.6 628.64C3265.59 628.58 3265.58 628.51 3265.57 628.45C3265.56 628.38 3265.55 628.32 3265.54 628.26C3265.53 628.19 3265.53 628.13 3265.52 628.07C3265.51 628 3265.5 627.94 3265.49 627.87C3265.49 627.87 3265.49 627.86 3265.49 627.86C3265.49 627.85 3265.49 627.84 3265.49 627.84C3265.49 627.83 3265.49 627.83 3265.49 627.82C3265.48 627.81 3265.48 627.81 3265.48 627.8C3265.46 627.7 3265.45 627.6 3265.43 627.49C3265.41 627.39 3265.4 627.29 3265.38 627.19C3265.37 627.08 3265.35 626.98 3265.34 626.88C3265.32 626.77 3265.31 626.67 3265.3 626.57C3265.3 626.53 3265.29 626.49 3265.29 626.46C3265.29 626.42 3265.28 626.38 3265.28 626.35C3265.28 626.31 3265.27 626.27 3265.27 626.24C3265.27 626.2 3265.27 626.16 3265.26 626.12C3265.26 626.08 3265.26 626.04 3265.26 626C3265.25 625.96 3265.25 625.92 3265.25 625.87C3265.25 625.83 3265.25 625.79 3265.24 625.75C3265.24 625.71 3265.24 625.66 3265.24 625.62C3265.24 625.61 3265.24 625.6 3265.24 625.59C3265.24 625.57 3265.23 625.56 3265.23 625.55C3265.23 625.54 3265.23 625.53 3265.23 625.51C3265.23 625.5 3265.23 625.49 3265.23 625.48C3265.23 625.47 3265.23 625.46 3265.22 625.44C3265.22 625.43 3265.22 625.42 3265.22 625.41C3265.22 625.4 3265.22 625.38 3265.22 625.37C3265.22 625.36 3265.22 625.35 3265.22 625.34C3265.21 625.24 3265.2 625.15 3265.2 625.06C3265.19 624.96 3265.19 624.87 3265.18 624.78C3265.18 624.69 3265.17 624.59 3265.17 624.5C3265.16 624.41 3265.16 624.31 3265.16 624.22C3265.16 624.2 3265.15 624.17 3265.15 624.14C3265.15 624.11 3265.15 624.09 3265.15 624.06C3265.15 624.03 3265.15 624.01 3265.15 623.98C3265.15 623.95 3265.15 623.93 3265.15 623.9L3265.15 225.28C3265.15 225.22 3265.15 225.17 3265.15 225.11C3265.16 225.05 3265.16 224.99 3265.16 224.93C3265.16 224.88 3265.17 224.82 3265.17 224.76C3265.17 224.7 3265.18 224.65 3265.18 224.59C3265.18 224.5 3265.19 224.42 3265.19 224.33C3265.19 224.25 3265.2 224.16 3265.2 224.08C3265.2 223.99 3265.21 223.91 3265.21 223.82C3265.22 223.74 3265.22 223.65 3265.23 223.57C3265.24 223.46 3265.24 223.36 3265.25 223.25C3265.26 223.15 3265.27 223.04 3265.28 222.93C3265.29 222.83 3265.31 222.72 3265.32 222.62C3265.33 222.51 3265.34 222.41 3265.35 222.3C3265.37 222.2 3265.38 222.11 3265.39 222.01C3265.4 221.91 3265.41 221.82 3265.42 221.72C3265.44 221.62 3265.45 221.53 3265.46 221.43C3265.48 221.33 3265.49 221.24 3265.5 221.14C3265.52 221.02 3265.55 220.9 3265.57 220.78C3265.59 220.66 3265.61 220.54 3265.63 220.43C3265.66 220.31 3265.68 220.19 3265.71 220.07C3265.73 219.95 3265.76 219.83 3265.78 219.71C3265.8 219.63 3265.82 219.54 3265.84 219.46C3265.86 219.37 3265.88 219.28 3265.9 219.2C3265.92 219.11 3265.95 219.03 3265.97 218.94C3265.99 218.86 3266.01 218.77 3266.04 218.69C3266.06 218.58 3266.09 218.47 3266.12 218.36C3266.16 218.25 3266.19 218.14 3266.22 218.04C3266.25 217.93 3266.28 217.82 3266.32 217.71C3266.35 217.61 3266.38 217.5 3266.42 217.39C3266.45 217.3 3266.47 217.21 3266.5 217.12C3266.53 217.03 3266.56 216.94 3266.6 216.85C3266.63 216.75 3266.66 216.66 3266.69 216.57C3266.72 216.48 3266.75 216.39 3266.79 216.3C3266.82 216.2 3266.86 216.1 3266.9 216C3266.94 215.9 3266.98 215.8 3267.02 215.7C3267.06 215.6 3267.1 215.5 3267.14 215.4C3267.19 215.3 3267.23 215.2 3267.27 215.11C3267.31 215.01 3267.35 214.92 3267.39 214.83C3267.43 214.74 3267.48 214.64 3267.52 214.55C3267.56 214.46 3267.6 214.37 3267.65 214.28C3267.69 214.19 3267.73 214.09 3267.78 214C3267.82 213.91 3267.87 213.82 3267.91 213.73C3267.96 213.63 3268.01 213.54 3268.05 213.45C3268.1 213.36 3268.15 213.27 3268.2 213.17C3268.25 213.08 3268.29 212.99 3268.34 212.9C3268.4 212.81 3268.45 212.71 3268.5 212.62C3268.56 212.53 3268.61 212.43 3268.67 212.34C3268.72 212.25 3268.78 212.16 3268.83 212.06C3268.89 211.97 3268.95 211.88 3269 211.79C3269.05 211.71 3269.1 211.64 3269.15 211.56C3269.2 211.48 3269.25 211.41 3269.3 211.33C3269.35 211.25 3269.4 211.18 3269.45 211.1C3269.5 211.03 3269.55 210.95 3269.6 210.88C3269.67 210.78 3269.73 210.69 3269.8 210.59C3269.86 210.5 3269.93 210.4 3270 210.31C3270.07 210.22 3270.13 210.12 3270.2 210.03C3270.27 209.94 3270.34 209.85 3270.41 209.75C3270.47 209.68 3270.53 209.61 3270.59 209.53C3270.64 209.46 3270.7 209.39 3270.76 209.31C3270.82 209.24 3270.88 209.17 3270.94 209.09C3271 209.02 3271.07 208.95 3271.13 208.88C3271.19 208.8 3271.26 208.72 3271.33 208.64C3271.4 208.56 3271.47 208.48 3271.54 208.4C3271.61 208.32 3271.68 208.24 3271.75 208.17C3271.83 208.09 3271.9 208.01 3271.97 207.93C3272.04 207.86 3272.1 207.8 3272.17 207.73C3272.23 207.66 3272.3 207.59 3272.37 207.52C3272.44 207.45 3272.5 207.39 3272.57 207.32C3272.64 207.25 3272.71 207.19 3272.78 207.12C3272.86 207.04 3272.94 206.96 3273.02 206.89C3273.1 206.81 3273.18 206.73 3273.26 206.66C3273.34 206.58 3273.42 206.51 3273.5 206.43C3273.58 206.36 3273.66 206.28 3273.75 206.21C3273.82 206.15 3273.89 206.09 3273.96 206.03C3274.03 205.97 3274.1 205.91 3274.17 205.85C3274.24 205.79 3274.31 205.73 3274.39 205.68C3274.46 205.62 3274.53 205.56 3274.6 205.5C3274.69 205.43 3274.78 205.37 3274.87 205.3C3274.95 205.23 3275.04 205.17 3275.13 205.1C3275.22 205.03 3275.31 204.97 3275.4 204.9C3275.49 204.84 3275.58 204.78 3275.68 204.71C3275.75 204.66 3275.82 204.61 3275.9 204.56C3275.97 204.5 3276.05 204.45 3276.12 204.4C3276.2 204.35 3276.27 204.3 3276.35 204.25C3276.42 204.2 3276.5 204.15 3276.58 204.1C3276.62 204.07 3276.67 204.04 3276.72 204C3276.77 203.97 3276.82 203.94 3276.87 203.9C3276.92 203.87 3276.97 203.84 3277.02 203.8C3277.07 203.77 3277.12 203.74 3277.16 203.71L3610.06 4.4C3610.09 4.38 3610.12 4.37 3610.15 4.35C3610.17 4.33 3610.2 4.32 3610.23 4.3C3610.26 4.29 3610.28 4.27 3610.31 4.25C3610.34 4.24 3610.37 4.22 3610.4 4.21C3610.43 4.19 3610.47 4.16 3610.51 4.14C3610.55 4.12 3610.58 4.1 3610.62 4.08C3610.66 4.06 3610.7 4.04 3610.73 4.02C3610.77 4 3610.81 3.98 3610.85 3.96C3610.95 3.9 3611.05 3.85 3611.15 3.8C3611.25 3.74 3611.35 3.69 3611.45 3.64C3611.55 3.59 3611.65 3.54 3611.75 3.49C3611.85 3.44 3611.96 3.39 3612.06 3.35C3612.15 3.3 3612.25 3.26 3612.34 3.21C3612.43 3.17 3612.53 3.13 3612.62 3.09C3612.72 3.04 3612.81 3 3612.91 2.96C3613 2.92 3613.1 2.88 3613.19 2.84C3613.19 2.84 3613.19 2.84 3613.2 2.84C3613.2 2.84 3613.2 2.84 3613.2 2.84C3613.2 2.84 3613.21 2.83 3613.21 2.83C3613.21 2.83 3613.21 2.83 3613.21 2.83C3613.22 2.83 3613.22 2.83 3613.22 2.83C3613.22 2.83 3613.22 2.83 3613.23 2.82C3613.23 2.82 3613.23 2.82 3613.23 2.82C3613.23 2.82 3613.24 2.82 3613.24 2.82C3613.24 2.82 3613.24 2.82 3613.25 2.82C3613.25 2.81 3613.25 2.81 3613.26 2.81C3613.26 2.81 3613.26 2.81 3613.26 2.81C3613.27 2.81 3613.27 2.81 3613.27 2.81C3613.36 2.77 3613.44 2.74 3613.52 2.71C3613.6 2.68 3613.68 2.65 3613.77 2.62C3613.85 2.59 3613.93 2.56 3614.02 2.53C3614.1 2.5 3614.18 2.48 3614.27 2.45C3614.36 2.41 3614.45 2.38 3614.54 2.35C3614.63 2.31 3614.72 2.28 3614.81 2.25C3614.9 2.22 3615 2.19 3615.09 2.16C3615.18 2.12 3615.27 2.09 3615.36 2.06C3615.37 2.06 3615.38 2.06 3615.39 2.06C3615.39 2.06 3615.4 2.05 3615.41 2.05C3615.42 2.05 3615.42 2.05 3615.43 2.05C3615.44 2.04 3615.45 2.04 3615.46 2.04C3615.47 2.04 3615.48 2.03 3615.49 2.03C3615.51 2.02 3615.52 2.02 3615.53 2.02C3615.54 2.01 3615.56 2.01 3615.57 2C3615.58 2 3615.59 2 3615.61 1.99C3615.68 1.97 3615.76 1.95 3615.84 1.93C3615.91 1.91 3615.99 1.89 3616.07 1.87C3616.14 1.86 3616.22 1.84 3616.3 1.82C3616.37 1.8 3616.45 1.78 3616.53 1.77C3616.63 1.74 3616.73 1.71 3616.82 1.69C3616.92 1.67 3617.02 1.64 3617.12 1.62C3617.22 1.6 3617.32 1.57 3617.42 1.55C3617.52 1.53 3617.62 1.51 3617.72 1.49C3617.73 1.49 3617.74 1.49 3617.75 1.48C3617.76 1.48 3617.77 1.48 3617.78 1.48C3617.79 1.48 3617.79 1.47 3617.8 1.47C3617.81 1.47 3617.82 1.47 3617.83 1.47C3617.84 1.46 3617.85 1.46 3617.86 1.46C3617.88 1.46 3617.89 1.46 3617.9 1.45C3617.91 1.45 3617.92 1.45 3617.93 1.45C3617.94 1.45 3617.95 1.44 3617.96 1.44C3618.04 1.43 3618.11 1.42 3618.19 1.41C3618.26 1.39 3618.34 1.38 3618.42 1.37C3618.49 1.36 3618.57 1.35 3618.64 1.34C3618.72 1.33 3618.8 1.32 3618.87 1.31C3618.97 1.3 3619.07 1.28 3619.17 1.27C3619.28 1.25 3619.38 1.24 3619.48 1.23C3619.58 1.22 3619.68 1.21 3619.78 1.2C3619.88 1.19 3619.98 1.18 3620.08 1.17C3620.11 1.16 3620.14 1.16 3620.16 1.16C3620.19 1.16 3620.21 1.16 3620.24 1.15C3620.27 1.15 3620.29 1.15 3620.32 1.15C3620.34 1.15 3620.37 1.14 3620.4 1.14C3620.43 1.14 3620.47 1.14 3620.51 1.14C3620.55 1.13 3620.59 1.13 3620.63 1.13C3620.67 1.13 3620.7 1.13 3620.74 1.12C3620.78 1.12 3620.82 1.12 3620.86 1.12C3620.88 1.12 3620.9 1.12 3620.93 1.12C3620.95 1.11 3620.97 1.11 3621 1.11C3621.02 1.11 3621.04 1.11 3621.07 1.11C3621.09 1.11 3621.11 1.11 3621.14 1.11C3621.22 1.1 3621.31 1.1 3621.39 1.09C3621.48 1.09 3621.56 1.08 3621.65 1.08C3621.73 1.07 3621.82 1.07 3621.91 1.07C3621.99 1.06 3622.08 1.06 3622.16 1.06L3622.16 1.06ZM3463.51 275.11L3780.63 275.11L3622.07 66.25L3463.51 275.11ZM3337.24 225.28L3408.02 267.65L3525.98 112.27L3337.24 225.28ZM3836.13 267.65L3906.92 225.28L3718.16 112.27L3836.13 267.65ZM3313.2 494.46L3383.99 310.81L3313.2 268.43L3313.2 494.46ZM3860.16 310.81L3930.94 494.45L3930.94 268.43L3860.16 310.81ZM3622.07 623.9L3788.51 324.93L3455.63 324.93L3622.07 623.9ZM3322.8 603.76L3576.52 641.74L3417.96 356.92L3322.8 603.76ZM3667.62 641.74L3921.34 603.76L3826.18 356.93L3667.62 641.74ZM3598.04 780.06L3598.04 695.29L3409.29 667.05L3598.04 780.06ZM3646.1 695.3L3646.1 780.06L3834.86 667.05L3646.1 695.3Z" />
	</g>
</svg>