<svg xmlns="http://www.w3.org/2000/svg" viewBox="0 0 791 848" width="791" height="848">
	<g id="g6676">
		<path id="path817" fill-rule="evenodd" class="shp0" d="M1216.08 1.55C1218.44 0.87 1221.18 0.76 1223.93 1.58C1226.29 2.14 1229.18 3.9 1229.85 4.32C1230.52 4.79 1231.09 5.24 1231.6 5.65C1232.79 6.61 1234.04 7.68 1235.5 9C1238.44 11.64 1242.29 15.26 1247.06 19.84C1256.61 29.01 1269.83 42.01 1285.84 57.97C1317.86 89.9 1361 133.64 1407.64 181.56L1577.04 355.64C1579.96 358.64 1581.67 362.87 1581.68 367.14L1581.68 483.36C1581.68 487.65 1579.96 491.91 1577.02 494.91L1407.42 668.29C1360.73 716.01 1317.49 759.58 1285.38 791.4C1269.32 807.31 1256.05 820.27 1246.45 829.42C1241.65 833.98 1237.78 837.58 1234.8 840.23C1233.33 841.54 1232.07 842.64 1230.85 843.61C1230.3 844.05 1229.69 844.51 1229.02 844.97C1228.5 845.29 1225.66 847.03 1223.27 847.61C1220.86 848.19 1218.42 848.28 1216.35 847.82C1214.59 847.28 1212.45 846.54 1210.02 845.01C1208.4 843.99 1206.97 842.89 1205.46 841.68C1202.35 839.2 1198.58 835.89 1193.92 831.64C1184.6 823.12 1171.8 810.85 1155.99 795.31C1124.38 764.22 1080.86 720.13 1030.67 668.21L859.75 491.4C856.85 488.4 855.15 484.19 855.15 479.94L855.15 368.62C855.15 364.35 856.85 360.12 859.77 357.12L859.77 357.11L1031.2 180.68C1078.41 132.09 1122.1 88.11 1154.54 56.29C1170.76 40.38 1184.15 27.53 1193.89 18.56C1198.76 14.08 1202.68 10.57 1205.84 7.96C1207.41 6.67 1208.83 5.56 1210.33 4.55C1212.4 3.04 1213.51 2.6 1216.08 1.55ZM1228.79 845.12C1228.87 845.07 1228.94 845.02 1229.02 844.97C1229.16 844.88 1229.11 844.91 1228.79 845.12ZM1229.59 4.14C1230.05 4.45 1230.09 4.47 1229.85 4.32C1229.76 4.26 1229.68 4.2 1229.59 4.14ZM1218.15 69.21C1204.37 93.14 1162.57 169.21 1118.75 250.15C1095.2 293.64 1072.25 336.25 1055.1 368.4C1046.53 384.48 1039.39 397.95 1034.38 407.55C1033 410.21 1032.21 411.77 1031.17 413.8C1033.59 415.61 1035.38 417.09 1040.2 420.05C1054.83 429.03 1080.35 442.87 1120.19 463.61C1148.45 478.33 1174.29 491.74 1193.13 501.48C1202.55 506.36 1210.23 510.32 1215.57 513.05C1216.39 513.47 1216.77 513.67 1217.44 514.01C1218.11 513.68 1218.49 513.5 1219.31 513.09C1224.75 510.38 1232.65 506.37 1242.34 501.43C1261.71 491.54 1288.31 477.85 1317.41 462.75L1408.74 415.36L1393.18 386.2C1380.45 362.35 1332.9 275.11 1287.81 192.88C1257.98 138.48 1238.96 103.89 1226.7 82.91C1222.84 76.29 1220.73 73.23 1218.15 69.21ZM1120.03 154.57C1120.03 154.57 1120.03 154.57 1120.03 154.57C1120.03 154.57 1120.03 154.57 1120.03 154.57L1120.03 154.57ZM1120.03 154.57C1096.86 178.27 1073.87 201.76 1044.61 232.06L900.9 380.87L900.9 420.96C900.9 432.29 900.84 439.22 900.98 444.92C902.04 444.52 902.9 444.12 904.17 443.56C912.88 439.42 925.38 433.63 943.15 425.08L983.14 405.84L1075.87 236.17C1093.18 204.5 1106.14 180.34 1120.03 154.57ZM1319.22 156.91C1361.91 235.26 1422.97 347.23 1437.72 373.95L1455.93 406.95L1501.06 428.17C1501.14 428.21 1501.21 428.25 1501.29 428.29C1501.32 428.3 1501.35 428.32 1501.39 428.34C1514.16 434.34 1525.88 439.71 1535.14 443.86C1535.54 436.25 1535.92 428.13 1535.92 417.85L1535.92 375.48L1483.97 323.54C1452.67 292.24 1385 223.73 1333.43 171.15C1326.9 164.49 1324.72 162.47 1319.22 156.91L1319.22 156.91ZM1341.13 501.71L1243.9 552.16L1242.66 666.72C1242.28 700.88 1242.11 732.89 1242.15 756.86C1242.15 761.23 1242.2 763.69 1242.22 767.49C1246.95 763.21 1250.08 760.62 1256.59 754.42C1282.75 729.5 1322.58 689.9 1376.86 634.85C1420.51 590.58 1459.8 549.91 1487.83 520.16C1501.06 506.12 1511.26 495.02 1518.68 486.7C1509.22 482.03 1496.74 476.1 1483.36 469.98L1440.28 450.25L1341.13 501.71ZM965.65 464.94C946.9 473.8 927.77 482.58 916.81 487.45L1058.79 633.05C1102.36 677.73 1142.37 718.38 1171.7 747.83C1182.18 758.34 1189.32 765.38 1196.73 772.7C1196.79 771.06 1196.85 770.25 1196.9 768.43C1197.55 744.88 1197.95 712.13 1197.95 676.1L1197.95 554.63L1098.24 502.99L996.55 450.33L965.65 464.94Z" />
		<path id="path851" fill-rule="evenodd" class="shp0" d="M-1248.02 71.62C-1245.93 72.28 -1243.92 73.22 -1242.05 74.4C-1240.17 75.58 -1238.45 77.01 -1236.92 78.63C-1235.38 80.26 -1234.05 82.08 -1232.96 84.05L-868.95 737.87C-866.64 742.01 -865.43 746.71 -865.43 751.49C-865.43 756.27 -866.64 760.97 -868.95 765.11C-871.26 769.25 -874.57 772.69 -878.57 775.08C-882.56 777.47 -887.09 778.73 -891.7 778.73L-1619.73 778.73C-1624.34 778.73 -1628.87 777.47 -1632.86 775.08C-1636.86 772.69 -1640.17 769.25 -1642.48 765.11C-1644.78 760.97 -1646 756.27 -1646 751.49C-1646 746.71 -1644.79 742.01 -1642.48 737.87L-1278.46 84.05C-1277.26 81.89 -1275.78 79.92 -1274.06 78.18C-1272.35 76.44 -1270.41 74.96 -1268.31 73.76C-1266.2 72.57 -1263.95 71.68 -1261.61 71.12C-1259.27 70.57 -1256.87 70.34 -1254.48 70.46C-1252.29 70.56 -1250.12 70.95 -1248.02 71.62ZM-1229.45 517.81L-963.47 677.06L-1229.45 199.32L-1229.45 517.81ZM-1547.96 677.06L-1281.98 517.81L-1281.98 199.34L-1547.96 677.06ZM-1521.68 724.25L-989.74 724.25L-1255.71 565.01L-1521.68 724.25Z" />
		<path id="path864" fill-rule="evenodd" class="shp0" d="M-426.07 1.06C-425.07 1.08 -424.07 1.17 -423.08 1.33C-422.09 1.48 -421.11 1.7 -420.14 1.98C-419.18 2.26 -418.23 2.6 -417.31 3C-416.39 3.41 -415.49 3.87 -414.62 4.39L-81.88 203.7C-80.06 204.79 -78.39 206.12 -76.9 207.66C-75.42 209.2 -74.14 210.93 -73.09 212.82C-72.04 214.7 -71.23 216.72 -70.69 218.82C-70.14 220.93 -69.87 223.09 -69.87 225.27L-69.87 623.89C-69.87 626.06 -70.14 628.23 -70.69 630.33C-71.23 632.44 -72.04 634.46 -73.09 636.34C-74.14 638.23 -75.42 639.96 -76.9 641.5C-78.39 643.04 -80.06 644.37 -81.88 645.46L-414.62 844.77C-416.44 845.86 -418.39 846.7 -420.42 847.26C-422.45 847.82 -424.54 848.11 -426.64 848.11C-428.74 848.11 -430.83 847.82 -432.86 847.26C-434.88 846.7 -436.83 845.86 -438.65 844.77L-771.39 645.46C-773.2 644.37 -774.88 643.04 -776.36 641.5C-777.84 639.96 -779.13 638.23 -780.18 636.34C-781.23 634.46 -782.03 632.44 -782.58 630.33C-783.12 628.23 -783.39 626.06 -783.39 623.89L-783.39 225.27C-783.39 223.09 -783.12 220.93 -782.58 218.82C-782.03 216.72 -781.23 214.7 -780.18 212.82C-779.13 210.93 -777.84 209.2 -776.36 207.66C-774.88 206.12 -773.2 204.79 -771.39 203.7L-438.65 4.39C-437.7 3.82 -436.71 3.32 -435.7 2.89C-434.68 2.46 -433.64 2.11 -432.58 1.83C-431.52 1.54 -430.44 1.34 -429.35 1.21C-428.26 1.08 -427.16 1.03 -426.07 1.06ZM-711.35 225.27L-426.63 395.81L-141.94 225.27L-426.63 54.73L-711.35 225.27ZM-735.35 609.51L-450.66 780.03L-450.66 438.96L-735.35 268.43L-735.35 609.51ZM-402.61 438.96L-402.61 780.03L-117.92 609.51L-117.92 268.43L-402.61 438.96Z" />
		<path id="path875" fill-rule="evenodd" class="shp0" d="M393.2 1.07C397.23 1.17 401.16 2.32 404.65 4.4L737.5 203.71C747.28 209.8 749.18 215.04 749.51 225.87L749.56 623.9C749.56 632.8 744.98 641.02 737.54 645.47L404.64 844.78C404.23 845.03 403.81 845.26 403.38 845.48C403.05 845.64 402.71 845.8 402.37 845.95C401.96 846.15 401.55 846.33 401.13 846.49C400.88 846.59 400.62 846.68 400.36 846.77C399.86 846.95 399.35 847.11 398.84 847.26C398.53 847.34 398.21 847.41 397.9 847.48C397.46 847.58 397.01 847.68 396.56 847.76C396.21 847.82 395.85 847.87 395.5 847.91C395.05 847.97 394.61 848.02 394.16 848.06C393.78 848.08 393.41 848.09 393.03 848.09C392.6 848.1 392.17 848.1 391.75 848.09C391.42 848.07 391.09 848.04 390.77 848.01C390.29 847.98 389.82 847.93 389.35 847.87C389.02 847.82 388.71 847.76 388.39 847.69C387.91 847.61 387.44 847.51 386.97 847.4C386.71 847.33 386.45 847.26 386.19 847.18C385.66 847.03 385.13 846.86 384.61 846.67C384.37 846.58 384.13 846.49 383.9 846.39C383.42 846.2 382.96 845.99 382.5 845.78C382.11 845.58 381.73 845.38 381.36 845.17C381.11 845.04 380.87 844.91 380.63 844.78L380.13 844.48L47.73 645.47C40.3 641.03 35.71 632.8 35.71 623.9L35.71 225.28C36.49 216.15 39.99 208.34 48.22 203.42L380.62 4.4C384.44 2.11 388.79 0.96 393.2 1.07L393.2 1.07ZM149.4 200.37L635.85 200.37L392.64 54.75L149.4 200.37ZM392.64 773.38L683.88 250.2L101.36 250.2L392.64 773.38ZM83.76 609.52L327 755.14L83.76 318.25L83.76 609.52ZM458.26 755.14L701.51 609.51L701.49 318.25L458.26 755.14Z" />
		<path id="path886" fill-rule="evenodd" class="shp0" d="M2125.02 100.7C2129.81 100.7 2134.48 102.18 2138.45 104.95L2224.05 164.76C2224.4 165 2224.75 165.25 2225.09 165.51L2225.11 165.54C2225.75 166.03 2226.35 166.56 2226.94 167.12L2226.96 167.14C2227.54 167.69 2228.09 168.28 2228.61 168.89L2228.63 168.91C2229.16 169.53 2229.65 170.17 2230.11 170.84L2230.14 170.86C2230.6 171.53 2231.02 172.21 2231.42 172.92L2231.44 172.96L2331.34 352.33C2331.44 352.5 2331.53 352.68 2331.62 352.86C2331.89 353.38 2332.14 353.92 2332.37 354.46C2332.49 354.71 2332.61 354.97 2332.72 355.23C2332.87 355.64 2333.02 356.05 2333.16 356.47C2333.29 356.84 2333.42 357.22 2333.54 357.6C2333.68 358.12 2333.81 358.65 2333.92 359.18C2333.97 359.4 2334.03 359.62 2334.08 359.85C2334.08 359.87 2334.09 359.9 2334.09 359.92C2334.17 360.37 2334.24 360.83 2334.3 361.29C2334.36 361.7 2334.42 362.12 2334.46 362.54C2334.48 362.86 2334.49 363.17 2334.51 363.49C2334.54 363.92 2334.56 364.36 2334.57 364.79L2334.57 365.13L2334.52 484.39C2334.52 488.75 2333.41 493.04 2331.31 496.83L2231.44 676.21C2229.33 680 2226.3 683.14 2222.64 685.32L2122.79 745.12C2122.62 745.21 2122.46 745.31 2122.29 745.4C2122.26 745.42 2122.24 745.43 2122.21 745.45C2121.92 745.6 2121.64 745.74 2121.34 745.88C2120.92 746.11 2120.49 746.33 2120.05 746.53L2120.04 746.53C2119.97 746.55 2119.91 746.58 2119.84 746.6C2119.17 746.89 2118.48 747.14 2117.79 747.37C2117.02 747.61 2116.24 747.81 2115.46 747.98C2114.67 748.14 2113.88 748.26 2113.08 748.34C2112.31 748.41 2111.55 748.45 2110.78 748.46L1911.14 748.46C1910.95 748.46 1910.76 748.45 1910.57 748.44C1909.92 748.42 1909.28 748.37 1908.63 748.3C1908.46 748.29 1908.29 748.27 1908.11 748.25C1907.52 748.17 1906.93 748.06 1906.35 747.93C1906.14 747.89 1905.94 747.85 1905.73 747.81C1905.22 747.68 1904.71 747.53 1904.2 747.37C1903.93 747.29 1903.66 747.2 1903.39 747.12C1902.83 746.91 1902.27 746.69 1901.73 746.45C1901.55 746.38 1901.38 746.3 1901.21 746.23C1900.78 746.02 1900.35 745.79 1899.93 745.55C1899.66 745.41 1899.39 745.27 1899.13 745.13L1898.84 744.95L1799.18 685.34C1795.53 683.15 1792.5 680 1790.39 676.21L1690.52 496.83C1688.42 493.04 1687.31 488.75 1687.31 484.39L1687.26 364.79C1687.26 364.59 1687.27 364.39 1687.27 364.2C1687.27 364.17 1687.27 364.14 1687.27 364.11C1687.29 363.69 1687.32 363.27 1687.37 362.85C1687.39 362.45 1687.42 362.06 1687.46 361.66C1687.49 361.46 1687.52 361.27 1687.55 361.07C1687.64 360.44 1687.75 359.8 1687.89 359.18C1688.07 358.37 1688.29 357.57 1688.54 356.78C1688.79 356.02 1689.07 355.28 1689.39 354.55L1689.4 354.52C1689.55 354.21 1689.7 353.9 1689.86 353.6C1690.06 353.17 1690.26 352.75 1690.48 352.33L1690.53 352.26L1790.39 172.96C1790.47 172.82 1790.55 172.68 1790.63 172.54C1790.66 172.49 1790.69 172.43 1790.72 172.38C1790.98 171.96 1791.25 171.55 1791.53 171.15C1791.71 170.87 1791.9 170.59 1792.09 170.31C1792.46 169.83 1792.84 169.35 1793.24 168.9C1793.37 168.74 1793.51 168.59 1793.64 168.43C1793.95 168.1 1794.26 167.77 1794.59 167.45C1794.86 167.17 1795.14 166.89 1795.43 166.62C1795.7 166.39 1795.98 166.15 1796.26 165.93C1796.61 165.64 1796.96 165.35 1797.33 165.08C1797.59 164.89 1797.87 164.71 1798.14 164.53C1798.49 164.29 1798.83 164.06 1799.18 163.83L1799.47 163.67L1899.04 104.04C1902.69 101.85 1906.84 100.7 1911.06 100.7L2125.02 100.7ZM1879 173.58L2013.65 200.47L2149.31 172.61L2117.7 150.53L1917.49 150.53L1879 173.58ZM1740.65 361.89L1849.82 492.6L1861.12 486.07L1979.56 417.5L1987.01 413.19L1989.39 246.37L1823.44 213.23L1740.65 361.89ZM2037.46 246.39L2035.11 410.29L2172.19 492.37L2239.93 411.27L2281.18 361.89L2198.43 213.32L2037.46 246.39ZM1735.35 477.7L1828.77 645.52L1867.32 668.58L1823.29 536.94L1735.34 431.64L1735.35 477.7ZM2198.55 536.92L2198.55 536.94L2154.57 668.55L2193.05 645.52L2286.48 477.7L2286.49 431.64L2198.55 536.92ZM1873.77 535.81L1928.23 698.63L2093.67 698.63L2148.16 535.52L2013.61 454.95C2007.35 458.73 1880.34 532.22 1873.77 535.81Z" />
		<path id="path897" fill-rule="evenodd" class="shp0" d="M2797.16 1.06C2797.19 1.06 2797.21 1.06 2797.24 1.06C2797.27 1.06 2797.29 1.06 2797.32 1.06C2797.34 1.06 2797.37 1.07 2797.4 1.07C2797.42 1.07 2797.45 1.07 2797.47 1.07C2797.5 1.07 2797.53 1.07 2797.56 1.07C2797.59 1.07 2797.62 1.07 2797.65 1.08C2797.68 1.08 2797.7 1.08 2797.73 1.08C2797.76 1.08 2797.79 1.08 2797.82 1.08C2797.86 1.09 2797.9 1.09 2797.95 1.09C2797.99 1.09 2798.03 1.1 2798.07 1.1C2798.12 1.1 2798.16 1.11 2798.2 1.11C2798.24 1.11 2798.28 1.11 2798.33 1.12C2798.34 1.12 2798.36 1.12 2798.37 1.12C2798.39 1.12 2798.4 1.12 2798.42 1.12C2798.43 1.13 2798.45 1.13 2798.47 1.13C2798.48 1.13 2798.5 1.13 2798.51 1.13C2798.62 1.14 2798.73 1.14 2798.85 1.15C2798.96 1.16 2799.07 1.17 2799.18 1.17C2799.29 1.18 2799.4 1.19 2799.52 1.2C2799.63 1.21 2799.74 1.23 2799.85 1.24C2799.88 1.24 2799.91 1.25 2799.95 1.25C2799.98 1.25 2800.01 1.26 2800.04 1.26C2800.07 1.27 2800.1 1.27 2800.14 1.27C2800.17 1.28 2800.2 1.28 2800.23 1.29C2800.28 1.29 2800.32 1.3 2800.36 1.31C2800.41 1.32 2800.45 1.32 2800.5 1.33C2800.54 1.34 2800.59 1.35 2800.63 1.36C2800.67 1.36 2800.72 1.37 2800.76 1.38C2800.77 1.38 2800.78 1.39 2800.79 1.39C2800.8 1.39 2800.81 1.39 2800.82 1.39C2800.83 1.4 2800.84 1.4 2800.85 1.4C2800.86 1.4 2800.87 1.4 2800.88 1.41C2800.89 1.41 2800.9 1.41 2800.92 1.41C2800.93 1.41 2800.94 1.42 2800.95 1.42C2800.97 1.42 2800.98 1.42 2800.99 1.42C2801 1.43 2801.02 1.43 2801.03 1.43C2801.13 1.45 2801.22 1.46 2801.32 1.48C2801.42 1.49 2801.52 1.51 2801.62 1.53C2801.72 1.55 2801.81 1.57 2801.91 1.59C2802.01 1.6 2802.11 1.62 2802.21 1.65C2802.24 1.65 2802.28 1.66 2802.31 1.67C2802.35 1.68 2802.38 1.69 2802.42 1.7C2802.45 1.71 2802.49 1.72 2802.53 1.73C2802.56 1.73 2802.6 1.74 2802.63 1.75C2802.64 1.75 2802.64 1.75 2802.65 1.76C2802.66 1.76 2802.66 1.76 2802.67 1.76C2802.67 1.76 2802.68 1.76 2802.68 1.76C2802.69 1.76 2802.7 1.76 2802.7 1.76C2802.73 1.77 2802.76 1.78 2802.79 1.79C2802.83 1.8 2802.86 1.81 2802.89 1.82C2802.92 1.83 2802.95 1.84 2802.98 1.85C2803.01 1.85 2803.04 1.86 2803.07 1.87C2803.07 1.87 2803.08 1.87 2803.08 1.88C2803.08 1.88 2803.08 1.88 2803.08 1.88C2803.09 1.88 2803.09 1.88 2803.09 1.88C2803.09 1.88 2803.09 1.88 2803.1 1.88C2803.22 1.92 2803.34 1.95 2803.46 1.98C2803.58 2.01 2803.7 2.05 2803.82 2.08C2803.94 2.12 2804.06 2.15 2804.18 2.19C2804.3 2.23 2804.42 2.26 2804.54 2.3C2804.58 2.32 2804.61 2.33 2804.65 2.34C2804.69 2.35 2804.73 2.37 2804.76 2.38C2804.8 2.39 2804.84 2.41 2804.88 2.42C2804.91 2.43 2804.95 2.45 2804.99 2.46C2804.99 2.46 2804.99 2.46 2804.99 2.46C2805 2.46 2805 2.46 2805 2.47C2805 2.47 2805 2.47 2805.01 2.47C2805.01 2.47 2805.01 2.47 2805.01 2.47C2805.03 2.48 2805.05 2.49 2805.07 2.5C2805.09 2.5 2805.1 2.51 2805.12 2.52C2805.14 2.53 2805.16 2.54 2805.18 2.54C2805.2 2.55 2805.21 2.56 2805.23 2.57C2805.24 2.57 2805.25 2.58 2805.27 2.58C2805.28 2.58 2805.29 2.59 2805.3 2.59C2805.31 2.6 2805.32 2.6 2805.34 2.6C2805.35 2.61 2805.36 2.61 2805.37 2.62C2805.49 2.66 2805.61 2.71 2805.73 2.75C2805.85 2.8 2805.97 2.85 2806.09 2.9C2806.21 2.95 2806.33 3 2806.45 3.05C2806.57 3.1 2806.68 3.15 2806.8 3.2C2806.83 3.22 2806.86 3.23 2806.89 3.24C2806.92 3.26 2806.95 3.27 2806.98 3.28C2807 3.3 2807.03 3.31 2807.06 3.33C2807.09 3.34 2807.12 3.36 2807.15 3.37C2807.19 3.39 2807.23 3.41 2807.27 3.43C2807.31 3.46 2807.35 3.48 2807.39 3.5C2807.43 3.52 2807.47 3.54 2807.51 3.57C2807.55 3.59 2807.59 3.61 2807.63 3.63C2807.64 3.63 2807.64 3.64 2807.64 3.64C2807.65 3.64 2807.65 3.64 2807.66 3.64C2807.66 3.65 2807.66 3.65 2807.67 3.65C2807.67 3.65 2807.68 3.65 2807.68 3.66C2807.78 3.7 2807.88 3.75 2807.97 3.8C2808.07 3.85 2808.17 3.9 2808.27 3.95C2808.36 4 2808.46 4.06 2808.56 4.11C2808.65 4.16 2808.75 4.21 2808.85 4.27C2808.87 4.28 2808.89 4.29 2808.91 4.3C2808.93 4.31 2808.95 4.32 2808.97 4.33C2808.99 4.34 2809.01 4.35 2809.03 4.37C2809.05 4.38 2809.07 4.39 2809.09 4.4L3141.99 203.71C3142.03 203.74 3142.08 203.76 3142.12 203.79C3142.16 203.82 3142.2 203.85 3142.25 203.88C3142.29 203.91 3142.33 203.94 3142.37 203.97C3142.41 204 3142.46 204.03 3142.5 204.05C3142.57 204.1 3142.65 204.15 3142.72 204.2C3142.8 204.25 3142.87 204.29 3142.95 204.34C3143.02 204.39 3143.09 204.44 3143.17 204.49C3143.24 204.54 3143.31 204.59 3143.39 204.64C3143.48 204.7 3143.56 204.76 3143.65 204.83C3143.73 204.89 3143.82 204.95 3143.91 205.02C3143.99 205.08 3144.08 205.15 3144.16 205.21C3144.25 205.28 3144.33 205.34 3144.42 205.41C3144.48 205.46 3144.55 205.51 3144.62 205.57C3144.69 205.62 3144.76 205.68 3144.83 205.73C3144.9 205.79 3144.97 205.84 3145.03 205.9C3145.1 205.95 3145.17 206.01 3145.24 206.07C3145.32 206.14 3145.41 206.22 3145.5 206.3C3145.59 206.37 3145.67 206.45 3145.76 206.53C3145.85 206.61 3145.93 206.69 3146.02 206.77C3146.11 206.85 3146.19 206.93 3146.27 207.01C3146.35 207.08 3146.42 207.15 3146.49 207.22C3146.56 207.29 3146.64 207.37 3146.71 207.44C3146.78 207.51 3146.85 207.58 3146.92 207.65C3146.99 207.73 3147.06 207.8 3147.13 207.87C3147.19 207.94 3147.26 208.01 3147.32 208.08C3147.38 208.15 3147.45 208.22 3147.51 208.29C3147.57 208.36 3147.63 208.43 3147.69 208.5C3147.76 208.57 3147.82 208.64 3147.88 208.71C3147.95 208.79 3148.01 208.87 3148.08 208.95C3148.15 209.03 3148.21 209.11 3148.28 209.19C3148.34 209.27 3148.41 209.35 3148.47 209.44C3148.54 209.52 3148.6 209.6 3148.66 209.68C3148.73 209.77 3148.8 209.86 3148.87 209.95C3148.94 210.04 3149.01 210.13 3149.08 210.22C3149.14 210.31 3149.21 210.4 3149.28 210.49C3149.34 210.59 3149.41 210.68 3149.47 210.77C3149.52 210.84 3149.57 210.91 3149.62 210.98C3149.67 211.06 3149.71 211.13 3149.76 211.2C3149.81 211.27 3149.85 211.34 3149.9 211.42C3149.95 211.49 3149.99 211.56 3150.04 211.63C3150.1 211.73 3150.16 211.83 3150.22 211.93C3150.28 212.03 3150.34 212.13 3150.4 212.23C3150.46 212.33 3150.52 212.43 3150.58 212.53C3150.64 212.63 3150.7 212.73 3150.75 212.83C3150.8 212.92 3150.85 213 3150.9 213.09C3150.94 213.17 3150.99 213.26 3151.04 213.35C3151.08 213.43 3151.13 213.52 3151.17 213.61C3151.22 213.7 3151.26 213.78 3151.31 213.87C3151.35 213.96 3151.39 214.04 3151.43 214.13C3151.48 214.22 3151.52 214.3 3151.56 214.39C3151.6 214.48 3151.64 214.56 3151.68 214.65C3151.72 214.74 3151.75 214.83 3151.79 214.91C3151.84 215.02 3151.88 215.12 3151.93 215.23C3151.97 215.33 3152.02 215.44 3152.06 215.54C3152.1 215.65 3152.15 215.76 3152.19 215.86C3152.23 215.97 3152.27 216.08 3152.31 216.18C3152.35 216.28 3152.38 216.37 3152.42 216.47C3152.45 216.56 3152.49 216.65 3152.52 216.75C3152.55 216.84 3152.59 216.94 3152.62 217.03C3152.65 217.13 3152.69 217.22 3152.72 217.32C3152.75 217.41 3152.77 217.5 3152.8 217.59C3152.83 217.68 3152.86 217.77 3152.88 217.86C3152.91 217.95 3152.94 218.04 3152.96 218.14C3152.99 218.23 3153.02 218.32 3153.04 218.41C3153.07 218.53 3153.11 218.65 3153.14 218.76C3153.17 218.88 3153.2 219 3153.23 219.12C3153.26 219.24 3153.29 219.36 3153.32 219.48C3153.34 219.6 3153.37 219.71 3153.4 219.83C3153.42 219.91 3153.43 219.99 3153.45 220.07C3153.46 220.15 3153.48 220.23 3153.5 220.31C3153.51 220.39 3153.53 220.47 3153.54 220.55C3153.55 220.63 3153.57 220.71 3153.58 220.79C3153.6 220.9 3153.62 221.01 3153.64 221.13C3153.66 221.24 3153.68 221.35 3153.7 221.46C3153.71 221.57 3153.73 221.68 3153.75 221.8C3153.76 221.91 3153.78 222.02 3153.79 222.13C3153.8 222.24 3153.82 222.35 3153.83 222.46C3153.84 222.57 3153.85 222.68 3153.86 222.79C3153.87 222.9 3153.88 223.01 3153.89 223.12C3153.9 223.23 3153.91 223.34 3153.92 223.45C3153.92 223.54 3153.93 223.63 3153.93 223.72C3153.94 223.81 3153.94 223.9 3153.95 223.99C3153.95 224.09 3153.95 224.18 3153.96 224.27C3153.96 224.36 3153.96 224.45 3153.96 224.54C3153.97 224.6 3153.97 224.66 3153.98 224.73C3153.98 224.79 3153.98 224.85 3153.99 224.91C3153.99 224.97 3153.99 225.03 3153.99 225.1C3154 225.16 3154 225.22 3154 225.28L3154 623.9C3154 623.95 3154 623.99 3154 624.03C3154 624.07 3154 624.11 3154 624.16C3153.99 624.2 3153.99 624.24 3153.99 624.28C3153.99 624.32 3153.99 624.37 3153.99 624.41C3153.99 624.44 3153.99 624.47 3153.99 624.51C3153.98 624.54 3153.98 624.57 3153.98 624.6C3153.98 624.64 3153.98 624.67 3153.98 624.7C3153.98 624.74 3153.98 624.77 3153.98 624.8C3153.98 624.81 3153.97 624.82 3153.97 624.83C3153.97 624.84 3153.97 624.85 3153.97 624.86C3153.97 624.86 3153.97 624.87 3153.97 624.88C3153.97 624.89 3153.97 624.9 3153.96 624.91C3153.96 624.92 3153.96 624.94 3153.96 624.95C3153.96 624.96 3153.96 624.97 3153.96 624.99C3153.96 625 3153.96 625.01 3153.96 625.03C3153.96 625.04 3153.96 625.05 3153.96 625.06C3153.96 625.07 3153.96 625.07 3153.96 625.07C3153.96 625.07 3153.96 625.07 3153.96 625.08C3153.96 625.08 3153.96 625.08 3153.96 625.08C3153.96 625.08 3153.96 625.09 3153.96 625.09C3153.96 625.18 3153.95 625.27 3153.95 625.37C3153.94 625.46 3153.93 625.55 3153.92 625.65C3153.92 625.74 3153.91 625.83 3153.9 625.92C3153.89 626.02 3153.88 626.11 3153.87 626.2C3153.86 626.3 3153.85 626.4 3153.85 626.49C3153.84 626.59 3153.83 626.69 3153.82 626.78C3153.8 626.88 3153.79 626.98 3153.78 627.07C3153.77 627.17 3153.76 627.27 3153.75 627.36C3153.74 627.37 3153.74 627.38 3153.74 627.39C3153.74 627.4 3153.74 627.41 3153.74 627.42C3153.74 627.43 3153.74 627.44 3153.74 627.45C3153.74 627.46 3153.73 627.47 3153.73 627.48C3153.73 627.5 3153.73 627.51 3153.73 627.53C3153.73 627.54 3153.72 627.56 3153.72 627.57C3153.72 627.59 3153.72 627.6 3153.72 627.62C3153.71 627.63 3153.71 627.65 3153.71 627.66C3153.7 627.75 3153.68 627.84 3153.67 627.93C3153.65 628.03 3153.63 628.12 3153.62 628.21C3153.6 628.3 3153.58 628.39 3153.57 628.48C3153.55 628.57 3153.53 628.66 3153.51 628.75C3153.5 628.84 3153.48 628.93 3153.46 629.02C3153.45 629.11 3153.43 629.2 3153.41 629.29C3153.39 629.38 3153.37 629.47 3153.35 629.56C3153.33 629.65 3153.31 629.74 3153.29 629.83C3153.29 629.83 3153.29 629.83 3153.29 629.83C3153.29 629.84 3153.29 629.84 3153.29 629.84C3153.29 629.84 3153.29 629.84 3153.29 629.85C3153.28 629.85 3153.28 629.85 3153.28 629.85C3153.28 629.86 3153.28 629.87 3153.28 629.89C3153.27 629.9 3153.27 629.91 3153.27 629.92C3153.27 629.93 3153.27 629.94 3153.26 629.95C3153.26 629.96 3153.26 629.97 3153.26 629.98C3153.26 629.99 3153.26 629.99 3153.26 629.99C3153.25 630 3153.25 630 3153.25 630C3153.25 630 3153.25 630.01 3153.25 630.01C3153.25 630.01 3153.25 630.02 3153.25 630.02C3153.22 630.12 3153.2 630.21 3153.17 630.31C3153.14 630.41 3153.11 630.51 3153.09 630.6C3153.06 630.7 3153.03 630.8 3153 630.89C3152.97 630.99 3152.94 631.08 3152.91 631.18C3152.89 631.27 3152.86 631.36 3152.84 631.45C3152.81 631.53 3152.78 631.62 3152.76 631.71C3152.73 631.8 3152.7 631.88 3152.67 631.97C3152.65 632.06 3152.62 632.15 3152.59 632.23C3152.59 632.24 3152.58 632.25 3152.58 632.25C3152.58 632.26 3152.58 632.26 3152.58 632.27C3152.58 632.28 3152.57 632.28 3152.57 632.29C3152.57 632.29 3152.57 632.3 3152.57 632.31C3152.56 632.31 3152.56 632.32 3152.56 632.32C3152.56 632.33 3152.56 632.33 3152.56 632.34C3152.56 632.34 3152.56 632.35 3152.56 632.35C3152.56 632.36 3152.55 632.36 3152.55 632.37C3152.55 632.37 3152.55 632.38 3152.54 632.39C3152.54 632.39 3152.54 632.4 3152.54 632.4C3152.53 632.41 3152.53 632.41 3152.53 632.42C3152.52 632.43 3152.52 632.43 3152.52 632.44C3152.49 632.51 3152.46 632.59 3152.44 632.66C3152.41 632.74 3152.38 632.81 3152.35 632.88C3152.33 632.96 3152.3 633.03 3152.27 633.1C3152.24 633.18 3152.21 633.25 3152.18 633.32C3152.14 633.43 3152.11 633.53 3152.07 633.63C3152.02 633.73 3151.98 633.83 3151.94 633.93C3151.9 634.03 3151.86 634.13 3151.82 634.23C3151.77 634.32 3151.73 634.42 3151.69 634.52C3151.68 634.55 3151.67 634.57 3151.66 634.59C3151.65 634.61 3151.63 634.64 3151.62 634.66C3151.61 634.68 3151.6 634.71 3151.59 634.73C3151.58 634.75 3151.57 634.77 3151.56 634.8C3151.54 634.84 3151.52 634.88 3151.49 634.93C3151.47 634.97 3151.45 635.01 3151.43 635.06C3151.41 635.1 3151.38 635.14 3151.36 635.18C3151.34 635.23 3151.32 635.27 3151.29 635.31C3151.28 635.34 3151.27 635.36 3151.26 635.38C3151.25 635.4 3151.24 635.43 3151.23 635.45C3151.21 635.47 3151.2 635.5 3151.19 635.52C3151.18 635.54 3151.17 635.56 3151.16 635.59C3151.11 635.68 3151.07 635.77 3151.02 635.86C3150.97 635.95 3150.93 636.04 3150.88 636.13C3150.83 636.22 3150.79 636.31 3150.74 636.4C3150.69 636.49 3150.64 636.58 3150.59 636.66C3150.57 636.69 3150.56 636.72 3150.54 636.75C3150.52 636.78 3150.5 636.81 3150.49 636.84C3150.47 636.87 3150.45 636.9 3150.43 636.93C3150.42 636.95 3150.4 636.98 3150.38 637.01C3150.35 637.06 3150.33 637.1 3150.3 637.14C3150.27 637.18 3150.24 637.23 3150.22 637.27C3150.19 637.31 3150.16 637.36 3150.13 637.4C3150.1 637.44 3150.08 637.48 3150.05 637.53C3150.04 637.54 3150.03 637.55 3150.02 637.57C3150.01 637.58 3150 637.6 3150 637.61C3149.99 637.62 3149.98 637.64 3149.97 637.65C3149.96 637.67 3149.95 637.68 3149.94 637.69C3149.89 637.78 3149.83 637.87 3149.77 637.96C3149.71 638.05 3149.66 638.14 3149.6 638.23C3149.54 638.32 3149.48 638.41 3149.42 638.5C3149.36 638.58 3149.3 638.67 3149.24 638.76C3149.22 638.78 3149.2 638.81 3149.18 638.83C3149.17 638.86 3149.15 638.88 3149.13 638.91C3149.11 638.93 3149.09 638.96 3149.08 638.98C3149.06 639.01 3149.04 639.03 3149.02 639.06C3148.97 639.12 3148.93 639.17 3148.88 639.23C3148.84 639.29 3148.79 639.35 3148.75 639.4C3148.7 639.46 3148.65 639.52 3148.61 639.57C3148.56 639.63 3148.51 639.68 3148.47 639.74C3148.41 639.82 3148.35 639.89 3148.29 639.97C3148.23 640.04 3148.17 640.11 3148.11 640.19C3148.05 640.26 3147.99 640.34 3147.93 640.41C3147.87 640.48 3147.81 640.55 3147.75 640.63C3147.73 640.65 3147.7 640.68 3147.68 640.71C3147.65 640.74 3147.63 640.77 3147.61 640.79C3147.58 640.82 3147.56 640.85 3147.53 640.88C3147.51 640.91 3147.49 640.93 3147.46 640.96C3147.42 641.01 3147.37 641.06 3147.32 641.1C3147.28 641.15 3147.23 641.2 3147.19 641.25C3147.14 641.29 3147.09 641.34 3147.05 641.39C3147 641.43 3146.95 641.48 3146.91 641.52C3146.91 641.53 3146.91 641.53 3146.9 641.53C3146.9 641.53 3146.9 641.53 3146.9 641.53C3146.9 641.53 3146.9 641.53 3146.9 641.53C3146.9 641.53 3146.9 641.54 3146.9 641.54C3146.89 641.54 3146.89 641.54 3146.89 641.54C3146.89 641.54 3146.89 641.54 3146.89 641.54C3146.89 641.54 3146.89 641.54 3146.89 641.54C3146.89 641.55 3146.89 641.55 3146.88 641.55C3146.82 641.62 3146.75 641.69 3146.68 641.76C3146.61 641.84 3146.54 641.91 3146.47 641.98C3146.4 642.05 3146.33 642.12 3146.26 642.19C3146.18 642.26 3146.11 642.33 3146.04 642.4C3146.01 642.43 3145.98 642.46 3145.95 642.49C3145.91 642.51 3145.88 642.54 3145.85 642.57C3145.82 642.6 3145.79 642.63 3145.76 642.66C3145.72 642.69 3145.69 642.72 3145.66 642.74C3145.66 642.75 3145.65 642.75 3145.65 642.75C3145.65 642.76 3145.65 642.76 3145.64 642.76C3145.64 642.77 3145.64 642.77 3145.63 642.77C3145.63 642.77 3145.63 642.78 3145.62 642.78C3145.61 642.8 3145.59 642.81 3145.57 642.83C3145.55 642.84 3145.53 642.86 3145.51 642.87C3145.49 642.89 3145.47 642.9 3145.45 642.92C3145.43 642.93 3145.41 642.94 3145.39 642.96C3145.38 642.98 3145.36 642.99 3145.34 643.01C3145.32 643.02 3145.3 643.04 3145.28 643.06C3145.27 643.07 3145.25 643.09 3145.23 643.1C3145.21 643.12 3145.19 643.14 3145.17 643.15C3145.09 643.22 3145.01 643.3 3144.92 643.37C3144.84 643.44 3144.76 643.51 3144.67 643.58C3144.59 643.65 3144.5 643.72 3144.42 643.79C3144.33 643.85 3144.24 643.92 3144.16 643.99C3144.12 644.02 3144.09 644.04 3144.05 644.07C3144.02 644.09 3143.99 644.12 3143.95 644.15C3143.92 644.17 3143.88 644.2 3143.85 644.22C3143.81 644.25 3143.78 644.28 3143.74 644.3C3143.74 644.3 3143.74 644.3 3143.74 644.3C3143.74 644.3 3143.74 644.3 3143.74 644.3C3143.74 644.3 3143.74 644.3 3143.73 644.3C3143.73 644.3 3143.73 644.3 3143.73 644.3C3143.73 644.3 3143.73 644.31 3143.72 644.31C3143.72 644.31 3143.72 644.31 3143.71 644.31C3143.71 644.31 3143.71 644.32 3143.7 644.32C3143.7 644.32 3143.7 644.32 3143.7 644.32C3143.67 644.34 3143.65 644.36 3143.62 644.37C3143.6 644.39 3143.58 644.41 3143.55 644.42C3143.53 644.44 3143.5 644.45 3143.48 644.47C3143.46 644.48 3143.43 644.5 3143.41 644.52C3143.39 644.53 3143.37 644.54 3143.35 644.55C3143.33 644.56 3143.32 644.58 3143.3 644.59C3143.28 644.6 3143.26 644.61 3143.24 644.62C3143.22 644.64 3143.21 644.65 3143.19 644.66C3143.11 644.72 3143.03 644.77 3142.95 644.83C3142.87 644.89 3142.79 644.94 3142.71 645C3142.63 645.05 3142.55 645.1 3142.46 645.16C3142.38 645.21 3142.3 645.27 3142.22 645.32C3142.2 645.33 3142.18 645.34 3142.16 645.36C3142.14 645.37 3142.12 645.38 3142.1 645.4C3142.08 645.41 3142.06 645.42 3142.05 645.44C3142.03 645.45 3142.01 645.46 3141.99 645.47L2809.1 844.79C2809.05 844.81 2809 844.84 2808.96 844.86C2808.91 844.89 2808.86 844.92 2808.81 844.94C2808.76 844.97 2808.72 844.99 2808.67 845.02C2808.62 845.05 2808.57 845.07 2808.52 845.1C2808.45 845.14 2808.38 845.18 2808.31 845.22C2808.24 845.26 2808.16 845.3 2808.09 845.33C2808.02 845.37 2807.95 845.41 2807.87 845.45C2807.8 845.49 2807.73 845.53 2807.66 845.56C2807.55 845.62 2807.45 845.67 2807.35 845.72C2807.24 845.77 2807.14 845.82 2807.04 845.87C2806.93 845.92 2806.83 845.96 2806.72 846.01C2806.62 846.06 2806.51 846.11 2806.41 846.15C2806.33 846.18 2806.26 846.22 2806.18 846.25C2806.11 846.28 2806.03 846.31 2805.96 846.34C2805.88 846.37 2805.8 846.4 2805.73 846.43C2805.65 846.46 2805.57 846.49 2805.5 846.52C2805.38 846.57 2805.26 846.61 2805.14 846.66C2805.02 846.7 2804.9 846.74 2804.78 846.79C2804.66 846.83 2804.54 846.87 2804.42 846.91C2804.3 846.95 2804.18 846.99 2804.05 847.02C2803.99 847.05 2803.92 847.07 2803.85 847.09C2803.79 847.11 2803.72 847.13 2803.65 847.15C2803.58 847.17 2803.52 847.19 2803.45 847.21C2803.38 847.23 2803.31 847.25 2803.25 847.26C2803.13 847.3 2803.02 847.33 2802.9 847.36C2802.79 847.39 2802.67 847.41 2802.56 847.44C2802.44 847.47 2802.32 847.5 2802.21 847.52C2802.09 847.55 2801.98 847.58 2801.86 847.6C2801.77 847.62 2801.68 847.64 2801.59 847.66C2801.5 847.67 2801.41 847.69 2801.32 847.71C2801.23 847.73 2801.14 847.74 2801.05 847.76C2800.96 847.77 2800.87 847.79 2800.78 847.8C2800.66 847.82 2800.55 847.84 2800.44 847.85C2800.33 847.87 2800.22 847.88 2800.11 847.9C2800 847.91 2799.88 847.92 2799.77 847.94C2799.66 847.95 2799.55 847.96 2799.44 847.97C2799.36 847.98 2799.28 847.99 2799.2 848C2799.12 848 2799.04 848.01 2798.96 848.02C2798.88 848.02 2798.81 848.03 2798.73 848.04C2798.65 848.04 2798.57 848.05 2798.49 848.05C2798.37 848.06 2798.26 848.07 2798.14 848.07C2798.02 848.08 2797.91 848.08 2797.79 848.09C2797.68 848.09 2797.56 848.1 2797.44 848.1C2797.33 848.1 2797.21 848.1 2797.09 848.1C2796.99 848.1 2796.89 848.1 2796.79 848.1C2796.69 848.1 2796.59 848.09 2796.49 848.09C2796.39 848.09 2796.28 848.09 2796.18 848.08C2796.08 848.08 2795.98 848.07 2795.88 848.07C2795.8 848.06 2795.72 848.06 2795.64 848.05C2795.56 848.05 2795.48 848.04 2795.4 848.04C2795.31 848.03 2795.23 848.02 2795.15 848.02C2795.07 848.01 2794.99 848 2794.91 848C2794.79 847.98 2794.66 847.97 2794.54 847.96C2794.42 847.94 2794.29 847.93 2794.17 847.91C2794.05 847.9 2793.92 847.88 2793.8 847.86C2793.68 847.84 2793.56 847.82 2793.43 847.8C2793.35 847.79 2793.28 847.78 2793.2 847.77C2793.12 847.75 2793.04 847.74 2792.96 847.72C2792.89 847.71 2792.81 847.7 2792.73 847.68C2792.65 847.67 2792.58 847.65 2792.5 847.64C2792.39 847.61 2792.28 847.59 2792.17 847.57C2792.06 847.55 2791.95 847.52 2791.84 847.5C2791.73 847.47 2791.62 847.45 2791.51 847.42C2791.4 847.39 2791.29 847.37 2791.18 847.34C2791.09 847.31 2791 847.29 2790.91 847.26C2790.83 847.24 2790.74 847.21 2790.65 847.19C2790.56 847.16 2790.47 847.14 2790.38 847.11C2790.3 847.08 2790.21 847.05 2790.12 847.03C2790.01 846.99 2789.9 846.96 2789.79 846.92C2789.68 846.88 2789.57 846.85 2789.46 846.81C2789.35 846.77 2789.24 846.73 2789.13 846.69C2789.02 846.65 2788.91 846.61 2788.8 846.57C2788.73 846.54 2788.66 846.52 2788.59 846.49C2788.52 846.46 2788.45 846.43 2788.38 846.41C2788.31 846.38 2788.24 846.35 2788.17 846.32C2788.1 846.29 2788.03 846.26 2787.96 846.24C2787.84 846.19 2787.73 846.13 2787.61 846.08C2787.49 846.03 2787.38 845.98 2787.26 845.92C2787.15 845.87 2787.03 845.81 2786.92 845.76C2786.8 845.7 2786.69 845.65 2786.57 845.59C2786.5 845.55 2786.44 845.52 2786.37 845.48C2786.3 845.44 2786.23 845.41 2786.16 845.37C2786.09 845.33 2786.02 845.3 2785.95 845.26C2785.88 845.22 2785.81 845.18 2785.74 845.15C2785.69 845.12 2785.63 845.09 2785.58 845.06C2785.52 845.03 2785.46 845 2785.41 844.97C2785.35 844.94 2785.3 844.91 2785.24 844.88C2785.18 844.85 2785.13 844.82 2785.07 844.79L2452.18 645.48C2452.14 645.46 2452.11 645.44 2452.08 645.42C2452.05 645.4 2452.02 645.38 2451.99 645.37C2451.96 645.35 2451.93 645.33 2451.9 645.31C2451.87 645.29 2451.84 645.27 2451.81 645.25C2451.77 645.23 2451.74 645.21 2451.7 645.19C2451.67 645.16 2451.64 645.14 2451.6 645.12C2451.57 645.1 2451.54 645.08 2451.5 645.05C2451.47 645.03 2451.44 645.01 2451.4 644.99C2451.39 644.98 2451.38 644.97 2451.36 644.96C2451.35 644.95 2451.34 644.94 2451.33 644.93C2451.31 644.92 2451.3 644.91 2451.29 644.91C2451.28 644.9 2451.26 644.89 2451.25 644.88C2451.25 644.88 2451.25 644.87 2451.24 644.87C2451.24 644.87 2451.24 644.87 2451.23 644.87C2451.23 644.86 2451.23 644.86 2451.23 644.86C2451.22 644.86 2451.22 644.86 2451.22 644.86C2451.14 644.8 2451.06 644.75 2450.99 644.69C2450.91 644.64 2450.83 644.59 2450.76 644.53C2450.68 644.48 2450.61 644.42 2450.53 644.37C2450.45 644.31 2450.38 644.25 2450.3 644.2C2450.23 644.14 2450.15 644.08 2450.07 644.03C2449.99 643.97 2449.91 643.91 2449.83 643.86C2449.76 643.8 2449.68 643.74 2449.6 643.68C2449.52 643.62 2449.45 643.56 2449.37 643.5C2449.36 643.5 2449.36 643.49 2449.35 643.49C2449.35 643.48 2449.34 643.48 2449.34 643.47C2449.34 643.47 2449.33 643.46 2449.33 643.46C2449.32 643.45 2449.32 643.45 2449.31 643.44C2449.31 643.44 2449.3 643.44 2449.3 643.43C2449.29 643.43 2449.29 643.43 2449.29 643.43C2449.28 643.43 2449.28 643.42 2449.28 643.42C2449.27 643.42 2449.27 643.42 2449.26 643.42C2449.26 643.41 2449.25 643.41 2449.25 643.4C2449.24 643.4 2449.23 643.39 2449.23 643.39C2449.22 643.38 2449.22 643.38 2449.21 643.37C2449.21 643.37 2449.2 643.36 2449.19 643.36C2449.13 643.3 2449.06 643.24 2448.99 643.18C2448.92 643.12 2448.85 643.06 2448.79 643C2448.72 642.94 2448.65 642.88 2448.59 642.82C2448.52 642.76 2448.45 642.7 2448.39 642.64C2448.32 642.58 2448.25 642.52 2448.18 642.46C2448.12 642.39 2448.05 642.33 2447.98 642.27C2447.92 642.21 2447.85 642.15 2447.79 642.08C2447.72 642.02 2447.65 641.96 2447.59 641.89C2447.58 641.89 2447.58 641.88 2447.57 641.88C2447.57 641.87 2447.56 641.87 2447.56 641.86C2447.56 641.86 2447.55 641.85 2447.55 641.85C2447.54 641.84 2447.54 641.84 2447.53 641.83C2447.52 641.83 2447.52 641.82 2447.51 641.82C2447.5 641.81 2447.5 641.8 2447.49 641.8C2447.48 641.79 2447.48 641.79 2447.47 641.78C2447.46 641.77 2447.46 641.77 2447.45 641.76C2447.44 641.76 2447.44 641.75 2447.43 641.74C2447.43 641.74 2447.42 641.73 2447.41 641.73C2447.41 641.72 2447.4 641.71 2447.4 641.71C2447.39 641.7 2447.39 641.7 2447.38 641.69C2447.32 641.63 2447.26 641.56 2447.2 641.5C2447.14 641.44 2447.08 641.37 2447.02 641.31C2446.97 641.25 2446.91 641.18 2446.85 641.12C2446.79 641.05 2446.73 640.99 2446.68 640.92C2446.61 640.86 2446.55 640.79 2446.49 640.72C2446.43 640.65 2446.36 640.58 2446.3 640.51C2446.24 640.44 2446.18 640.37 2446.12 640.3C2446.06 640.23 2446 640.16 2445.94 640.09C2445.92 640.07 2445.9 640.05 2445.89 640.03C2445.87 640.01 2445.85 639.99 2445.84 639.97C2445.82 639.95 2445.81 639.93 2445.79 639.91C2445.77 639.89 2445.76 639.87 2445.74 639.85C2445.7 639.79 2445.66 639.74 2445.62 639.69C2445.58 639.64 2445.55 639.59 2445.51 639.54C2445.47 639.48 2445.43 639.43 2445.39 639.38C2445.35 639.33 2445.32 639.28 2445.28 639.22C2445.27 639.21 2445.25 639.19 2445.24 639.17C2445.23 639.16 2445.22 639.14 2445.2 639.12C2445.19 639.1 2445.18 639.09 2445.17 639.07C2445.15 639.05 2445.14 639.04 2445.13 639.02C2445.08 638.95 2445.02 638.88 2444.97 638.81C2444.92 638.74 2444.87 638.67 2444.82 638.6C2444.77 638.53 2444.72 638.46 2444.67 638.39C2444.62 638.32 2444.57 638.25 2444.52 638.18C2444.49 638.15 2444.47 638.12 2444.45 638.08C2444.43 638.05 2444.41 638.02 2444.38 637.98C2444.36 637.95 2444.34 637.92 2444.32 637.89C2444.3 637.85 2444.27 637.82 2444.25 637.79C2444.22 637.74 2444.2 637.7 2444.17 637.65C2444.14 637.6 2444.11 637.56 2444.09 637.51C2444.06 637.47 2444.03 637.42 2444.01 637.37C2443.98 637.33 2443.95 637.28 2443.93 637.24C2443.92 637.23 2443.91 637.22 2443.91 637.21C2443.9 637.2 2443.89 637.19 2443.89 637.18C2443.88 637.17 2443.87 637.16 2443.87 637.15C2443.86 637.14 2443.85 637.13 2443.85 637.12C2443.79 637.02 2443.73 636.92 2443.67 636.82C2443.61 636.72 2443.55 636.62 2443.49 636.52C2443.43 636.42 2443.38 636.32 2443.32 636.22C2443.26 636.12 2443.21 636.02 2443.15 635.92C2443.15 635.91 2443.15 635.91 2443.14 635.9C2443.14 635.89 2443.13 635.88 2443.13 635.88C2443.13 635.87 2443.12 635.86 2443.12 635.86C2443.11 635.85 2443.11 635.84 2443.11 635.84C2443.1 635.82 2443.1 635.81 2443.09 635.8C2443.08 635.79 2443.08 635.78 2443.07 635.77C2443.07 635.76 2443.06 635.75 2443.05 635.74C2443.05 635.73 2443.04 635.72 2443.04 635.7C2443.01 635.66 2442.99 635.61 2442.97 635.56C2442.94 635.51 2442.92 635.46 2442.9 635.41C2442.87 635.36 2442.85 635.31 2442.83 635.26C2442.81 635.22 2442.78 635.17 2442.76 635.12C2442.7 635 2442.65 634.89 2442.59 634.78C2442.54 634.67 2442.49 634.55 2442.43 634.44C2442.38 634.33 2442.33 634.21 2442.28 634.1C2442.23 633.98 2442.17 633.87 2442.13 633.75C2442.12 633.73 2442.11 633.71 2442.1 633.68C2442.09 633.66 2442.08 633.64 2442.07 633.61C2442.06 633.59 2442.06 633.57 2442.05 633.55C2442.04 633.52 2442.03 633.5 2442.02 633.48C2442 633.43 2441.99 633.38 2441.97 633.33C2441.95 633.29 2441.93 633.24 2441.92 633.19C2441.9 633.14 2441.88 633.09 2441.86 633.05C2441.85 633 2441.83 632.95 2441.81 632.9C2441.81 632.89 2441.8 632.88 2441.8 632.87C2441.79 632.85 2441.79 632.84 2441.78 632.83C2441.78 632.82 2441.77 632.81 2441.77 632.79C2441.76 632.78 2441.76 632.77 2441.75 632.76C2441.71 632.65 2441.67 632.54 2441.63 632.43C2441.59 632.32 2441.55 632.21 2441.51 632.1C2441.48 631.99 2441.44 631.88 2441.4 631.77C2441.36 631.66 2441.33 631.55 2441.29 631.44C2441.28 631.41 2441.27 631.38 2441.27 631.35C2441.26 631.32 2441.25 631.29 2441.24 631.26C2441.23 631.23 2441.22 631.19 2441.21 631.16C2441.21 631.13 2441.2 631.1 2441.19 631.07C2441.17 631 2441.15 630.94 2441.14 630.87C2441.12 630.81 2441.1 630.74 2441.09 630.68C2441.07 630.61 2441.05 630.54 2441.04 630.48C2441.02 630.41 2441.01 630.35 2440.99 630.28C2440.99 630.26 2440.98 630.25 2440.98 630.23C2440.98 630.22 2440.97 630.2 2440.97 630.18C2440.96 630.17 2440.96 630.15 2440.96 630.14C2440.95 630.12 2440.95 630.1 2440.94 630.09C2440.92 630.01 2440.9 629.93 2440.88 629.85C2440.86 629.77 2440.84 629.69 2440.82 629.61C2440.8 629.53 2440.78 629.45 2440.76 629.37C2440.74 629.29 2440.72 629.21 2440.7 629.13C2440.69 629.09 2440.68 629.05 2440.68 629.01C2440.67 628.97 2440.66 628.93 2440.65 628.89C2440.64 628.84 2440.63 628.8 2440.62 628.76C2440.61 628.72 2440.61 628.68 2440.6 628.64C2440.59 628.58 2440.58 628.51 2440.57 628.45C2440.56 628.38 2440.55 628.32 2440.54 628.26C2440.53 628.19 2440.53 628.13 2440.52 628.07C2440.51 628 2440.5 627.94 2440.49 627.87C2440.49 627.87 2440.49 627.86 2440.49 627.86C2440.49 627.85 2440.49 627.84 2440.49 627.84C2440.49 627.83 2440.49 627.83 2440.49 627.82C2440.48 627.81 2440.48 627.81 2440.48 627.8C2440.46 627.7 2440.45 627.6 2440.43 627.49C2440.41 627.39 2440.4 627.29 2440.38 627.19C2440.37 627.08 2440.35 626.98 2440.34 626.88C2440.32 626.77 2440.31 626.67 2440.3 626.57C2440.3 626.53 2440.29 626.49 2440.29 626.46C2440.29 626.42 2440.28 626.38 2440.28 626.35C2440.28 626.31 2440.27 626.27 2440.27 626.24C2440.27 626.2 2440.27 626.16 2440.26 626.12C2440.26 626.08 2440.26 626.04 2440.26 626C2440.25 625.96 2440.25 625.92 2440.25 625.87C2440.25 625.83 2440.25 625.79 2440.24 625.75C2440.24 625.71 2440.24 625.66 2440.24 625.62C2440.24 625.61 2440.24 625.6 2440.24 625.59C2440.24 625.57 2440.23 625.56 2440.23 625.55C2440.23 625.54 2440.23 625.53 2440.23 625.51C2440.23 625.5 2440.23 625.49 2440.23 625.48C2440.23 625.47 2440.23 625.46 2440.22 625.44C2440.22 625.43 2440.22 625.42 2440.22 625.41C2440.22 625.4 2440.22 625.38 2440.22 625.37C2440.22 625.36 2440.22 625.35 2440.22 625.34C2440.21 625.24 2440.2 625.15 2440.2 625.06C2440.19 624.96 2440.19 624.87 2440.18 624.78C2440.18 624.69 2440.17 624.59 2440.17 624.5C2440.16 624.41 2440.16 624.31 2440.16 624.22C2440.16 624.2 2440.15 624.17 2440.15 624.14C2440.15 624.11 2440.15 624.09 2440.15 624.06C2440.15 624.03 2440.15 624.01 2440.15 623.98C2440.15 623.95 2440.15 623.93 2440.15 623.9L2440.15 225.28C2440.15 225.22 2440.15 225.17 2440.15 225.11C2440.16 225.05 2440.16 224.99 2440.16 224.93C2440.16 224.88 2440.17 224.82 2440.17 224.76C2440.17 224.7 2440.18 224.65 2440.18 224.59C2440.18 224.5 2440.19 224.42 2440.19 224.33C2440.19 224.25 2440.2 224.16 2440.2 224.08C2440.2 223.99 2440.21 223.91 2440.21 223.82C2440.22 223.74 2440.22 223.65 2440.23 223.57C2440.24 223.46 2440.24 223.36 2440.25 223.25C2440.26 223.15 2440.27 223.04 2440.28 222.93C2440.29 222.83 2440.31 222.72 2440.32 222.62C2440.33 222.51 2440.34 222.41 2440.35 222.3C2440.37 222.2 2440.38 222.11 2440.39 222.01C2440.4 221.91 2440.41 221.82 2440.42 221.72C2440.44 221.62 2440.45 221.53 2440.46 221.43C2440.48 221.33 2440.49 221.24 2440.5 221.14C2440.52 221.02 2440.55 220.9 2440.57 220.78C2440.59 220.66 2440.61 220.54 2440.63 220.43C2440.66 220.31 2440.68 220.19 2440.71 220.07C2440.73 219.95 2440.76 219.83 2440.78 219.71C2440.8 219.63 2440.82 219.54 2440.84 219.46C2440.86 219.37 2440.88 219.28 2440.9 219.2C2440.92 219.11 2440.95 219.03 2440.97 218.94C2440.99 218.86 2441.01 218.77 2441.04 218.69C2441.06 218.58 2441.09 218.47 2441.12 218.36C2441.16 218.25 2441.19 218.14 2441.22 218.04C2441.25 217.93 2441.28 217.82 2441.32 217.71C2441.35 217.61 2441.38 217.5 2441.42 217.39C2441.45 217.3 2441.47 217.21 2441.5 217.12C2441.53 217.03 2441.56 216.94 2441.6 216.85C2441.63 216.75 2441.66 216.66 2441.69 216.57C2441.72 216.48 2441.75 216.39 2441.79 216.3C2441.82 216.2 2441.86 216.1 2441.9 216C2441.94 215.9 2441.98 215.8 2442.02 215.7C2442.06 215.6 2442.1 215.5 2442.14 215.4C2442.19 215.3 2442.23 215.2 2442.27 215.11C2442.31 215.01 2442.35 214.92 2442.39 214.83C2442.43 214.74 2442.48 214.64 2442.52 214.55C2442.56 214.46 2442.6 214.37 2442.65 214.28C2442.69 214.19 2442.73 214.09 2442.78 214C2442.82 213.91 2442.87 213.82 2442.91 213.73C2442.96 213.63 2443.01 213.54 2443.05 213.45C2443.1 213.36 2443.15 213.27 2443.2 213.17C2443.25 213.08 2443.29 212.99 2443.34 212.9C2443.4 212.81 2443.45 212.71 2443.5 212.62C2443.56 212.53 2443.61 212.43 2443.67 212.34C2443.72 212.25 2443.78 212.16 2443.83 212.06C2443.89 211.97 2443.95 211.88 2444 211.79C2444.05 211.71 2444.1 211.64 2444.15 211.56C2444.2 211.48 2444.25 211.41 2444.3 211.33C2444.35 211.25 2444.4 211.18 2444.45 211.1C2444.5 211.03 2444.55 210.95 2444.6 210.88C2444.67 210.78 2444.73 210.69 2444.8 210.59C2444.86 210.5 2444.93 210.4 2445 210.31C2445.07 210.22 2445.13 210.12 2445.2 210.03C2445.27 209.94 2445.34 209.85 2445.41 209.75C2445.47 209.68 2445.53 209.61 2445.59 209.53C2445.64 209.46 2445.7 209.39 2445.76 209.31C2445.82 209.24 2445.88 209.17 2445.94 209.09C2446 209.02 2446.07 208.95 2446.13 208.88C2446.19 208.8 2446.26 208.72 2446.33 208.64C2446.4 208.56 2446.47 208.48 2446.54 208.4C2446.61 208.32 2446.68 208.24 2446.75 208.17C2446.83 208.09 2446.9 208.01 2446.97 207.93C2447.04 207.86 2447.1 207.8 2447.17 207.73C2447.23 207.66 2447.3 207.59 2447.37 207.52C2447.44 207.45 2447.5 207.39 2447.57 207.32C2447.64 207.25 2447.71 207.19 2447.78 207.12C2447.86 207.04 2447.94 206.96 2448.02 206.89C2448.1 206.81 2448.18 206.73 2448.26 206.66C2448.34 206.58 2448.42 206.51 2448.5 206.43C2448.58 206.36 2448.66 206.28 2448.75 206.21C2448.82 206.15 2448.89 206.09 2448.96 206.03C2449.03 205.97 2449.1 205.91 2449.17 205.85C2449.24 205.79 2449.31 205.73 2449.39 205.68C2449.46 205.62 2449.53 205.56 2449.6 205.5C2449.69 205.43 2449.78 205.37 2449.87 205.3C2449.95 205.23 2450.04 205.17 2450.13 205.1C2450.22 205.03 2450.31 204.97 2450.4 204.9C2450.49 204.84 2450.58 204.78 2450.68 204.71C2450.75 204.66 2450.82 204.61 2450.9 204.56C2450.97 204.5 2451.05 204.45 2451.12 204.4C2451.2 204.35 2451.27 204.3 2451.35 204.25C2451.42 204.2 2451.5 204.15 2451.58 204.1C2451.62 204.07 2451.67 204.04 2451.72 204C2451.77 203.97 2451.82 203.94 2451.87 203.9C2451.92 203.87 2451.97 203.84 2452.02 203.8C2452.07 203.77 2452.12 203.74 2452.16 203.71L2785.06 4.4C2785.09 4.38 2785.12 4.37 2785.15 4.35C2785.17 4.33 2785.2 4.32 2785.23 4.3C2785.26 4.29 2785.28 4.27 2785.31 4.25C2785.34 4.24 2785.37 4.22 2785.4 4.21C2785.43 4.19 2785.47 4.16 2785.51 4.14C2785.55 4.12 2785.58 4.1 2785.62 4.08C2785.66 4.06 2785.7 4.04 2785.73 4.02C2785.77 4 2785.81 3.98 2785.85 3.96C2785.95 3.9 2786.05 3.85 2786.15 3.8C2786.25 3.74 2786.35 3.69 2786.45 3.64C2786.55 3.59 2786.65 3.54 2786.75 3.49C2786.85 3.44 2786.96 3.39 2787.06 3.35C2787.15 3.3 2787.25 3.26 2787.34 3.21C2787.43 3.17 2787.53 3.13 2787.62 3.09C2787.72 3.04 2787.81 3 2787.91 2.96C2788 2.92 2788.1 2.88 2788.19 2.84C2788.19 2.84 2788.19 2.84 2788.2 2.84C2788.2 2.84 2788.2 2.84 2788.2 2.84C2788.2 2.84 2788.21 2.83 2788.21 2.83C2788.21 2.83 2788.21 2.83 2788.21 2.83C2788.22 2.83 2788.22 2.83 2788.22 2.83C2788.22 2.83 2788.22 2.83 2788.23 2.82C2788.23 2.82 2788.23 2.82 2788.23 2.82C2788.23 2.82 2788.24 2.82 2788.24 2.82C2788.24 2.82 2788.24 2.82 2788.25 2.82C2788.25 2.81 2788.25 2.81 2788.26 2.81C2788.26 2.81 2788.26 2.81 2788.26 2.81C2788.27 2.81 2788.27 2.81 2788.27 2.81C2788.36 2.77 2788.44 2.74 2788.52 2.71C2788.6 2.68 2788.68 2.65 2788.77 2.62C2788.85 2.59 2788.93 2.56 2789.02 2.53C2789.1 2.5 2789.18 2.48 2789.27 2.45C2789.36 2.41 2789.45 2.38 2789.54 2.35C2789.63 2.31 2789.72 2.28 2789.81 2.25C2789.9 2.22 2790 2.19 2790.09 2.16C2790.18 2.12 2790.27 2.09 2790.36 2.06C2790.37 2.06 2790.38 2.06 2790.39 2.06C2790.39 2.06 2790.4 2.05 2790.41 2.05C2790.42 2.05 2790.42 2.05 2790.43 2.05C2790.44 2.04 2790.45 2.04 2790.46 2.04C2790.47 2.04 2790.48 2.03 2790.49 2.03C2790.51 2.02 2790.52 2.02 2790.53 2.02C2790.54 2.01 2790.56 2.01 2790.57 2C2790.58 2 2790.59 2 2790.61 1.99C2790.68 1.97 2790.76 1.95 2790.84 1.93C2790.91 1.91 2790.99 1.89 2791.07 1.87C2791.14 1.86 2791.22 1.84 2791.3 1.82C2791.37 1.8 2791.45 1.78 2791.53 1.77C2791.63 1.74 2791.73 1.71 2791.82 1.69C2791.92 1.67 2792.02 1.64 2792.12 1.62C2792.22 1.6 2792.32 1.57 2792.42 1.55C2792.52 1.53 2792.62 1.51 2792.72 1.49C2792.73 1.49 2792.74 1.49 2792.75 1.48C2792.76 1.48 2792.77 1.48 2792.78 1.48C2792.79 1.48 2792.79 1.47 2792.8 1.47C2792.81 1.47 2792.82 1.47 2792.83 1.47C2792.84 1.46 2792.85 1.46 2792.86 1.46C2792.88 1.46 2792.89 1.46 2792.9 1.45C2792.91 1.45 2792.92 1.45 2792.93 1.45C2792.94 1.45 2792.95 1.44 2792.96 1.44C2793.04 1.43 2793.11 1.42 2793.19 1.41C2793.26 1.39 2793.34 1.38 2793.42 1.37C2793.49 1.36 2793.57 1.35 2793.64 1.34C2793.72 1.33 2793.8 1.32 2793.87 1.31C2793.97 1.3 2794.07 1.28 2794.17 1.27C2794.28 1.25 2794.38 1.24 2794.48 1.23C2794.58 1.22 2794.68 1.21 2794.78 1.2C2794.88 1.19 2794.98 1.18 2795.08 1.17C2795.11 1.16 2795.14 1.16 2795.16 1.16C2795.19 1.16 2795.21 1.16 2795.24 1.15C2795.27 1.15 2795.29 1.15 2795.32 1.15C2795.34 1.15 2795.37 1.14 2795.4 1.14C2795.43 1.14 2795.47 1.14 2795.51 1.14C2795.55 1.13 2795.59 1.13 2795.63 1.13C2795.67 1.13 2795.7 1.13 2795.74 1.12C2795.78 1.12 2795.82 1.12 2795.86 1.12C2795.88 1.12 2795.9 1.12 2795.93 1.12C2795.95 1.11 2795.97 1.11 2796 1.11C2796.02 1.11 2796.04 1.11 2796.07 1.11C2796.09 1.11 2796.11 1.11 2796.14 1.11C2796.22 1.1 2796.31 1.1 2796.39 1.09C2796.48 1.09 2796.56 1.08 2796.65 1.08C2796.73 1.07 2796.82 1.07 2796.91 1.07C2796.99 1.06 2797.08 1.06 2797.16 1.06L2797.16 1.06ZM2638.51 275.11L2955.63 275.11L2797.07 66.25L2638.51 275.11ZM2512.24 225.28L2583.02 267.65L2700.98 112.27L2512.24 225.28ZM3011.13 267.65L3081.92 225.28L2893.16 112.27L3011.13 267.65ZM2488.2 494.46L2558.99 310.81L2488.2 268.43L2488.2 494.46ZM3035.16 310.81L3105.94 494.45L3105.94 268.43L3035.16 310.81ZM2797.07 623.9L2963.51 324.93L2630.63 324.93L2797.07 623.9ZM2497.8 603.76L2751.52 641.74L2592.96 356.92L2497.8 603.76ZM2842.62 641.74L3096.34 603.76L3001.18 356.93L2842.62 641.74ZM2773.04 780.06L2773.04 695.29L2584.29 667.05L2773.04 780.06ZM2821.1 695.3L2821.1 780.06L3009.86 667.05L2821.1 695.3Z" />
	</g>
</svg>