<svg id="svg" version="1.1" xmlns="http://www.w3.org/2000/svg" xmlns:xlink="http://www.w3.org/1999/xlink" width="400" height="444.4112627986348" viewBox="0, 0, 400,444.4112627986348"><g id="svgg"><path id="path0" d="M198.704 26.537 C 198.347 26.672,197.485 27.132,196.787 27.558 C 196.089 27.985,195.478 28.333,195.429 28.333 C 195.347 28.333,193.896 29.182,189.688 31.689 C 188.854 32.186,188.127 32.593,188.071 32.593 C 188.015 32.593,187.406 32.938,186.716 33.360 C 186.027 33.782,184.838 34.480,184.074 34.911 C 180.964 36.666,178.746 37.936,177.870 38.464 C 176.100 39.531,173.235 41.189,172.273 41.704 C 171.740 41.989,170.848 42.513,170.291 42.870 C 169.733 43.227,169.222 43.519,169.155 43.519 C 169.088 43.519,168.147 44.048,167.063 44.694 C 162.834 47.217,161.872 47.778,161.774 47.778 C 161.672 47.778,160.291 48.582,159.074 49.351 C 158.502 49.712,156.276 50.991,153.724 52.424 C 151.490 53.679,148.751 55.278,147.858 55.849 C 147.315 56.197,146.811 56.481,146.739 56.481 C 146.667 56.481,145.795 56.981,144.800 57.593 C 143.806 58.204,142.936 58.704,142.867 58.704 C 142.798 58.704,141.991 59.168,141.074 59.735 C 140.157 60.303,139.263 60.823,139.088 60.893 C 138.913 60.962,137.942 61.510,136.931 62.111 C 135.920 62.712,134.343 63.637,133.426 64.166 C 132.509 64.694,130.926 65.619,129.908 66.221 C 128.890 66.823,127.973 67.345,127.871 67.381 C 127.683 67.449,125.411 68.761,122.685 70.375 C 121.870 70.858,120.712 71.518,120.112 71.842 C 119.512 72.167,118.516 72.760,117.899 73.160 C 117.283 73.561,116.714 73.889,116.636 73.889 C 116.558 73.889,115.739 74.347,114.815 74.907 C 113.891 75.468,113.097 75.926,113.051 75.926 C 113.004 75.926,112.028 76.480,110.881 77.157 C 109.734 77.834,108.046 78.822,107.130 79.353 C 106.213 79.884,104.775 80.726,103.934 81.224 C 103.093 81.722,102.007 82.338,101.521 82.593 C 99.727 83.532,98.664 84.380,98.224 85.222 C 98.009 85.634,97.963 87.407,97.963 95.240 L 97.963 104.757 98.935 105.570 C 99.470 106.018,101.215 107.531,102.814 108.933 C 104.412 110.335,105.808 111.481,105.916 111.481 C 106.050 111.481,106.111 108.631,106.111 102.329 L 106.111 93.177 107.824 93.924 C 108.766 94.335,110.287 94.942,111.204 95.272 C 112.120 95.603,113.779 96.260,114.888 96.733 C 115.998 97.206,117.020 97.593,117.159 97.593 C 117.299 97.593,117.557 97.674,117.734 97.773 C 118.379 98.134,122.474 99.815,122.710 99.815 C 122.843 99.815,123.407 100.023,123.964 100.278 C 124.521 100.532,125.021 100.741,125.076 100.741 C 125.131 100.741,125.722 100.991,126.389 101.296 C 127.056 101.602,127.704 101.852,127.829 101.852 C 127.953 101.852,129.251 102.352,130.711 102.963 C 132.172 103.574,133.443 104.074,133.535 104.074 C 133.627 104.074,134.877 104.574,136.311 105.185 C 137.746 105.796,139.005 106.296,139.108 106.296 C 139.212 106.296,140.378 106.755,141.699 107.315 C 143.021 107.875,144.219 108.333,144.361 108.333 C 144.504 108.333,145.143 108.568,145.782 108.856 C 146.422 109.143,147.422 109.580,148.006 109.828 C 149.090 110.287,149.273 110.531,148.817 110.909 C 148.675 111.027,148.381 111.516,148.164 111.997 C 147.947 112.477,147.316 113.579,146.762 114.444 C 146.207 115.310,145.751 116.106,145.747 116.213 C 145.744 116.320,145.400 116.932,144.984 117.573 C 144.568 118.213,144.013 119.167,143.752 119.693 C 143.490 120.218,143.045 120.988,142.763 121.403 C 142.480 121.818,141.898 122.813,141.468 123.613 C 141.039 124.414,140.367 125.566,139.974 126.174 C 139.581 126.782,139.259 127.342,139.259 127.418 C 139.259 127.494,138.760 128.377,138.149 129.380 C 137.538 130.383,137.038 131.272,137.038 131.356 C 137.037 131.439,136.800 131.856,136.511 132.281 C 136.221 132.707,135.666 133.631,135.276 134.333 L 134.567 135.611 135.226 136.185 C 135.589 136.501,136.388 137.197,137.003 137.731 C 137.617 138.266,138.175 138.704,138.244 138.704 C 138.313 138.704,138.915 139.204,139.582 139.815 C 141.055 141.164,140.949 141.161,141.686 139.873 C 142.017 139.294,142.565 138.400,142.903 137.887 C 143.242 137.373,143.519 136.888,143.519 136.808 C 143.519 136.728,143.974 135.926,144.531 135.026 C 145.088 134.126,145.621 133.185,145.716 132.935 C 145.811 132.685,146.138 132.110,146.442 131.657 C 146.747 131.204,147.265 130.333,147.594 129.722 C 147.923 129.111,148.587 127.944,149.069 127.130 C 150.438 124.818,151.931 122.236,152.601 121.019 C 152.937 120.407,153.448 119.559,153.736 119.133 C 154.024 118.708,154.259 118.267,154.259 118.155 C 154.259 118.042,154.390 117.751,154.549 117.507 C 154.890 116.988,155.046 117.256,157.903 123.241 C 158.778 125.074,160.473 128.574,161.668 131.019 C 163.720 135.214,164.584 136.995,167.910 143.889 C 170.069 148.363,172.200 152.728,173.018 154.352 C 173.429 155.167,173.820 155.958,173.887 156.111 C 174.008 156.387,175.093 158.645,177.492 163.611 C 178.180 165.037,179.044 166.787,179.410 167.500 C 179.777 168.213,180.164 169.002,180.270 169.254 C 180.537 169.887,182.561 174.080,183.894 176.759 C 184.502 177.981,185.645 180.335,186.435 181.989 C 188.129 185.537,188.382 185.720,188.242 183.287 C 188.188 182.345,188.059 179.741,187.956 177.500 C 187.720 172.376,187.250 165.055,187.117 164.444 C 187.028 164.037,184.967 159.735,181.485 152.685 C 180.881 151.463,179.461 148.546,178.329 146.204 C 177.196 143.861,175.659 140.694,174.912 139.167 C 174.165 137.639,172.829 134.889,171.944 133.056 C 171.058 131.222,169.683 128.389,168.888 126.759 C 168.093 125.130,166.434 121.713,165.202 119.167 C 163.971 116.620,162.715 114.058,162.412 113.472 L 161.862 112.407 176.577 112.407 L 191.293 112.407 192.406 110.081 C 193.018 108.801,193.519 107.656,193.520 107.535 C 193.521 107.414,193.854 106.624,194.261 105.779 C 194.667 104.934,195.000 104.205,195.000 104.159 C 195.000 104.112,187.679 104.074,178.731 104.074 L 162.461 104.074 162.925 103.102 C 163.180 102.567,163.575 101.880,163.803 101.574 C 164.031 101.269,164.615 100.269,165.101 99.352 C 165.587 98.435,166.167 97.435,166.390 97.130 C 166.612 96.824,167.193 95.824,167.680 94.907 C 168.167 93.991,168.624 93.199,168.695 93.148 C 168.824 93.055,169.500 91.819,169.707 91.296 C 169.768 91.144,170.149 90.519,170.555 89.907 C 170.960 89.296,171.505 88.341,171.765 87.784 C 172.025 87.227,172.299 86.727,172.374 86.673 C 172.536 86.556,173.889 84.281,173.889 84.126 C 173.889 84.068,174.389 83.211,175.000 82.222 C 175.611 81.233,176.111 80.370,176.111 80.303 C 176.111 80.236,176.567 79.445,177.124 78.544 C 177.681 77.644,178.224 76.707,178.331 76.463 C 178.438 76.219,178.785 75.602,179.102 75.093 C 179.419 74.583,179.970 73.625,180.325 72.963 C 180.680 72.301,181.075 71.634,181.201 71.481 C 181.328 71.329,181.910 70.329,182.495 69.259 C 183.080 68.190,183.665 67.190,183.795 67.037 C 183.925 66.884,184.259 66.305,184.538 65.750 C 184.816 65.196,185.455 64.085,185.957 63.283 C 186.460 62.481,186.941 61.644,187.026 61.422 C 187.111 61.200,187.606 60.332,188.127 59.494 C 188.648 58.655,189.074 57.893,189.074 57.800 C 189.074 57.706,189.375 57.184,189.743 56.639 C 190.110 56.094,190.790 54.940,191.254 54.074 C 191.717 53.208,192.287 52.248,192.520 51.939 C 192.754 51.631,193.094 51.047,193.278 50.642 C 193.635 49.852,194.134 48.993,195.121 47.469 C 195.462 46.942,195.741 46.385,195.741 46.230 C 195.741 46.075,195.822 45.898,195.921 45.836 C 196.090 45.732,196.710 44.705,198.056 42.301 C 198.361 41.756,198.930 40.765,199.321 40.100 L 200.031 38.891 200.495 39.770 C 200.751 40.253,201.066 40.773,201.195 40.926 C 201.325 41.079,201.789 41.870,202.227 42.685 C 202.664 43.500,203.342 44.662,203.733 45.268 C 204.124 45.874,204.444 46.446,204.444 46.539 C 204.444 46.725,206.027 49.358,206.422 49.829 C 206.556 49.990,206.667 50.249,206.667 50.403 C 206.667 50.558,206.902 51.010,207.189 51.407 C 207.477 51.805,208.194 53.005,208.783 54.074 C 209.372 55.144,209.967 56.147,210.105 56.303 C 210.243 56.460,210.526 56.960,210.733 57.414 C 210.940 57.869,211.486 58.824,211.945 59.537 C 212.404 60.250,212.913 61.125,213.076 61.481 C 213.239 61.838,213.822 62.858,214.372 63.748 C 214.921 64.638,215.370 65.438,215.370 65.525 C 215.370 65.612,215.716 66.217,216.139 66.869 C 216.561 67.522,217.242 68.681,217.651 69.444 C 218.060 70.208,218.673 71.239,219.012 71.734 C 219.352 72.229,219.630 72.712,219.630 72.808 C 219.630 73.036,221.462 76.077,221.682 76.213 C 221.775 76.271,221.852 76.434,221.852 76.575 C 221.852 76.716,222.308 77.565,222.865 78.462 C 223.423 79.359,224.042 80.444,224.241 80.873 C 224.440 81.303,224.844 82.011,225.139 82.448 C 225.433 82.884,226.022 83.881,226.447 84.664 C 226.871 85.447,227.470 86.459,227.776 86.913 C 228.083 87.367,228.334 87.810,228.336 87.897 C 228.337 87.984,228.755 88.722,229.264 89.537 C 229.773 90.352,230.315 91.290,230.468 91.621 C 230.621 91.953,231.026 92.661,231.367 93.195 C 231.708 93.730,232.222 94.625,232.509 95.185 C 232.796 95.745,233.376 96.745,233.798 97.407 C 234.587 98.647,235.948 101.032,236.970 102.970 L 237.551 104.072 221.287 104.119 L 205.023 104.167 205.766 105.741 C 206.175 106.606,206.627 107.654,206.770 108.069 C 206.913 108.484,207.411 109.630,207.878 110.615 L 208.727 112.407 223.438 112.407 L 238.148 112.407 237.700 113.287 C 237.454 113.771,236.750 115.208,236.136 116.481 C 235.045 118.746,232.140 124.730,229.261 130.648 C 228.468 132.278,227.052 135.194,226.115 137.130 C 225.177 139.065,223.840 141.815,223.142 143.241 C 222.444 144.667,220.907 147.833,219.726 150.278 C 218.544 152.722,217.085 155.722,216.483 156.944 C 215.881 158.167,214.832 160.296,214.151 161.677 C 212.964 164.086,212.908 164.261,212.762 166.029 C 212.493 169.286,212.049 177.214,211.937 180.741 C 211.878 182.625,211.791 184.354,211.744 184.583 C 211.599 185.296,212.110 185.056,212.530 184.213 C 213.314 182.639,215.232 178.699,217.329 174.352 C 218.508 171.907,219.963 168.907,220.562 167.685 C 221.161 166.463,222.171 164.380,222.807 163.056 C 223.836 160.913,224.752 159.045,225.480 157.608 C 225.779 157.018,228.311 151.784,230.460 147.315 C 231.341 145.481,232.674 142.731,233.420 141.204 C 234.167 139.676,235.586 136.759,236.573 134.722 C 237.561 132.685,239.037 129.644,239.855 127.963 C 240.673 126.282,241.886 123.782,242.552 122.407 C 245.450 116.422,245.167 116.785,245.837 118.194 C 246.091 118.729,246.635 119.708,247.046 120.370 C 247.457 121.032,247.875 121.770,247.974 122.009 C 248.072 122.249,248.431 122.874,248.771 123.398 C 249.412 124.389,251.351 127.744,252.212 129.352 C 252.485 129.861,253.099 130.901,253.576 131.662 C 254.054 132.423,254.444 133.113,254.444 133.195 C 254.444 133.277,254.944 134.138,255.556 135.108 C 256.167 136.078,256.667 136.920,256.667 136.979 C 256.667 137.174,258.951 140.926,259.069 140.926 C 259.133 140.926,259.639 140.529,260.195 140.043 C 260.750 139.557,261.495 138.941,261.852 138.673 C 262.208 138.405,262.792 137.920,263.148 137.594 C 263.505 137.268,264.157 136.751,264.599 136.444 C 265.565 135.773,265.552 135.628,264.351 133.674 C 263.891 132.927,263.343 131.956,263.133 131.517 C 262.923 131.079,262.517 130.371,262.231 129.943 C 261.945 129.516,261.478 128.708,261.192 128.148 C 260.906 127.588,260.324 126.588,259.898 125.926 C 259.473 125.264,258.894 124.264,258.611 123.704 C 258.329 123.144,257.734 122.127,257.290 121.445 C 256.845 120.763,256.481 120.152,256.481 120.088 C 256.481 119.921,254.965 117.333,254.802 117.222 C 254.727 117.171,254.451 116.671,254.189 116.111 C 253.927 115.551,253.377 114.563,252.967 113.917 C 252.558 113.270,252.222 112.686,252.222 112.620 C 252.221 112.554,251.926 112.011,251.565 111.412 C 251.205 110.814,250.934 110.311,250.964 110.294 C 250.994 110.277,251.435 110.083,251.944 109.863 C 254.531 108.743,255.543 108.333,255.717 108.333 C 255.823 108.333,256.767 107.967,257.816 107.519 C 258.864 107.072,260.222 106.537,260.833 106.331 C 261.444 106.126,262.736 105.610,263.704 105.186 C 264.671 104.762,266.053 104.219,266.775 103.979 C 267.497 103.739,268.945 103.162,269.994 102.697 C 271.042 102.232,272.019 101.852,272.165 101.852 C 272.310 101.852,273.488 101.394,274.783 100.833 C 276.077 100.273,277.236 99.815,277.358 99.815 C 277.480 99.815,277.854 99.692,278.188 99.541 C 279.738 98.845,282.813 97.593,282.973 97.593 C 283.071 97.593,284.047 97.208,285.141 96.737 C 286.235 96.267,287.880 95.609,288.796 95.275 C 289.713 94.941,291.234 94.333,292.176 93.922 L 293.889 93.177 293.889 102.343 C 293.889 110.166,293.927 111.500,294.152 111.449 C 294.297 111.416,295.645 110.306,297.147 108.981 C 298.650 107.657,300.407 106.135,301.051 105.598 L 302.222 104.621 302.218 95.413 C 302.213 84.340,302.258 84.519,299.112 82.938 C 298.633 82.697,297.907 82.284,297.500 82.020 C 297.093 81.756,296.176 81.223,295.463 80.835 C 294.750 80.447,293.750 79.863,293.241 79.537 C 292.731 79.211,291.648 78.587,290.833 78.151 C 290.019 77.714,289.227 77.253,289.074 77.126 C 288.833 76.926,286.334 75.490,283.478 73.909 C 282.275 73.244,279.065 71.394,277.500 70.463 C 274.887 68.911,272.673 67.627,272.181 67.382 C 271.904 67.243,270.960 66.692,270.084 66.157 C 269.207 65.623,268.430 65.185,268.356 65.185 C 268.282 65.185,267.726 64.865,267.120 64.475 C 266.514 64.084,265.527 63.497,264.926 63.169 C 264.325 62.842,263.223 62.204,262.476 61.750 C 261.729 61.297,261.060 60.926,260.991 60.926 C 260.921 60.926,260.238 60.530,259.473 60.046 C 258.708 59.562,257.677 58.958,257.182 58.704 C 256.687 58.449,255.597 57.834,254.761 57.336 C 253.253 56.439,251.483 55.407,248.009 53.402 C 247.016 52.829,245.311 51.829,244.220 51.180 C 243.129 50.531,242.185 50.000,242.122 50.000 C 242.060 50.000,241.194 49.500,240.200 48.889 C 239.205 48.278,238.336 47.778,238.268 47.778 C 238.200 47.778,237.470 47.355,236.646 46.839 C 235.822 46.322,235.010 45.849,234.842 45.787 C 234.674 45.725,233.817 45.232,232.938 44.691 C 232.058 44.150,231.183 43.644,230.993 43.567 C 230.651 43.427,228.624 42.248,225.135 40.158 C 224.139 39.562,223.275 39.074,223.213 39.074 C 223.152 39.074,222.424 38.671,221.597 38.179 C 216.704 35.266,215.930 34.815,215.826 34.815 C 215.763 34.815,214.898 34.315,213.904 33.704 C 212.909 33.093,212.042 32.593,211.977 32.593 C 211.912 32.593,211.420 32.314,210.883 31.974 C 210.347 31.634,209.324 31.039,208.611 30.652 C 207.898 30.264,206.883 29.672,206.356 29.336 C 205.828 29.000,205.078 28.565,204.689 28.370 C 204.300 28.175,203.387 27.666,202.661 27.238 C 201.161 26.353,199.814 26.115,198.704 26.537 M188.133 42.731 C 187.901 43.113,187.485 43.850,187.210 44.368 C 186.935 44.886,186.506 45.636,186.256 46.034 C 186.007 46.433,185.538 47.246,185.213 47.841 C 184.889 48.436,184.220 49.603,183.727 50.434 C 183.234 51.265,182.371 52.736,181.810 53.704 C 178.590 59.249,178.278 59.794,176.944 62.204 C 176.537 62.940,175.725 64.307,175.141 65.243 C 174.556 66.179,174.077 67.008,174.076 67.085 C 174.075 67.163,173.618 67.963,173.062 68.863 C 172.505 69.763,171.971 70.704,171.876 70.954 C 171.781 71.204,171.450 71.784,171.140 72.244 C 170.830 72.703,170.288 73.616,169.936 74.271 C 169.584 74.927,168.892 76.146,168.398 76.981 C 167.285 78.863,166.577 80.090,165.741 81.588 C 165.384 82.226,164.692 83.418,164.202 84.237 C 163.712 85.057,163.120 86.084,162.885 86.521 C 162.651 86.957,162.199 87.731,161.880 88.241 C 161.562 88.750,161.200 89.375,161.077 89.630 C 160.822 90.154,159.574 92.308,157.842 95.211 C 157.196 96.295,156.667 97.226,156.667 97.279 C 156.667 97.332,156.291 97.987,155.832 98.734 C 155.372 99.481,154.818 100.468,154.599 100.926 C 154.380 101.384,154.027 102.009,153.814 102.315 C 153.601 102.620,153.416 102.895,153.403 102.925 C 153.390 102.954,152.900 102.767,152.315 102.508 C 151.729 102.249,151.131 102.037,150.985 102.037 C 150.840 102.037,150.371 101.880,149.944 101.689 C 147.435 100.564,146.059 100.000,145.365 99.813 C 144.933 99.697,144.154 99.408,143.633 99.172 C 141.966 98.415,140.388 97.778,140.179 97.778 C 140.067 97.778,139.502 97.561,138.923 97.296 C 138.344 97.031,137.120 96.523,136.204 96.168 C 134.709 95.589,132.024 94.522,127.685 92.785 C 126.870 92.459,125.537 91.938,124.722 91.627 C 123.907 91.317,122.157 90.615,120.833 90.067 C 119.509 89.520,118.339 89.072,118.233 89.073 C 118.127 89.074,116.859 88.574,115.416 87.963 C 113.973 87.352,112.680 86.852,112.543 86.852 C 112.247 86.852,111.485 86.311,111.768 86.302 C 111.875 86.299,112.533 85.921,113.231 85.463 C 113.928 85.005,114.569 84.630,114.654 84.630 C 114.840 84.630,116.455 83.680,117.530 82.939 C 117.954 82.647,118.364 82.407,118.440 82.407 C 118.620 82.407,121.544 80.708,121.670 80.530 C 121.723 80.455,122.007 80.302,122.300 80.191 C 122.593 80.079,123.570 79.532,124.470 78.975 C 125.371 78.419,126.164 77.963,126.232 77.963 C 126.301 77.963,126.948 77.597,127.670 77.149 C 128.391 76.701,129.473 76.071,130.073 75.748 C 130.673 75.425,131.669 74.833,132.286 74.432 C 132.902 74.032,133.483 73.704,133.576 73.704 C 133.762 73.704,136.395 72.121,136.866 71.726 C 137.027 71.592,137.286 71.481,137.441 71.481 C 137.595 71.481,138.059 71.238,138.470 70.940 C 138.882 70.642,139.957 70.006,140.859 69.527 C 141.762 69.048,142.770 68.454,143.101 68.208 C 143.431 67.962,144.014 67.617,144.397 67.442 C 144.780 67.267,145.700 66.750,146.443 66.294 C 147.186 65.837,148.323 65.171,148.970 64.815 C 150.970 63.713,152.645 62.758,153.611 62.170 C 154.120 61.860,155.204 61.238,156.019 60.787 C 156.833 60.336,158.006 59.641,158.624 59.243 C 159.242 58.844,159.812 58.519,159.891 58.519 C 159.969 58.519,160.852 58.019,161.852 57.407 C 162.852 56.796,163.741 56.296,163.828 56.296 C 163.915 56.296,164.402 56.018,164.910 55.678 C 165.418 55.338,166.458 54.725,167.222 54.316 C 167.986 53.908,169.145 53.228,169.797 52.805 C 170.450 52.383,171.055 52.037,171.142 52.037 C 171.229 52.037,172.070 51.558,173.011 50.972 C 173.952 50.387,174.847 49.866,175.000 49.815 C 175.255 49.730,177.654 48.344,179.907 46.980 C 180.417 46.672,181.561 46.020,182.451 45.531 C 183.341 45.043,184.507 44.348,185.041 43.988 C 185.576 43.628,186.098 43.331,186.201 43.329 C 186.304 43.327,186.847 43.037,187.407 42.685 C 187.968 42.333,188.455 42.044,188.491 42.041 C 188.526 42.039,188.365 42.350,188.133 42.731 M214.167 43.516 C 214.778 43.844,215.403 44.218,215.556 44.348 C 215.708 44.477,216.500 44.942,217.315 45.380 C 218.130 45.819,219.153 46.418,219.590 46.713 C 220.026 47.008,220.734 47.413,221.164 47.614 C 221.593 47.815,222.611 48.389,223.426 48.889 C 224.241 49.389,224.992 49.802,225.096 49.807 C 225.200 49.811,225.612 50.044,226.013 50.324 C 226.414 50.604,227.548 51.292,228.533 51.852 C 231.670 53.636,232.225 53.957,234.205 55.139 C 235.272 55.775,236.235 56.296,236.345 56.296 C 236.455 56.296,236.676 56.406,236.837 56.541 C 237.308 56.936,239.942 58.519,240.127 58.519 C 240.220 58.519,240.802 58.847,241.420 59.249 C 242.038 59.650,243.118 60.284,243.818 60.658 C 244.519 61.031,245.509 61.609,246.019 61.942 C 246.900 62.520,249.170 63.812,251.068 64.816 C 251.550 65.071,252.278 65.496,252.685 65.760 C 253.093 66.024,254.067 66.585,254.850 67.007 C 255.634 67.429,256.592 67.991,256.980 68.257 C 257.368 68.522,258.185 68.992,258.796 69.302 C 259.407 69.611,260.465 70.229,261.148 70.673 C 261.830 71.118,262.472 71.481,262.575 71.481 C 262.677 71.481,263.051 71.669,263.404 71.898 C 265.158 73.035,266.277 73.704,266.427 73.704 C 266.518 73.704,267.089 74.024,267.695 74.415 C 268.301 74.807,269.421 75.463,270.185 75.872 C 270.949 76.282,272.031 76.920,272.588 77.290 C 273.146 77.660,273.670 77.963,273.752 77.963 C 273.834 77.963,274.711 78.446,275.701 79.036 C 276.690 79.626,277.708 80.209,277.963 80.332 C 278.218 80.455,279.093 80.971,279.907 81.479 C 280.722 81.987,281.458 82.404,281.543 82.405 C 281.627 82.406,282.127 82.691,282.654 83.037 C 283.180 83.383,284.278 84.036,285.093 84.488 C 288.456 86.354,288.693 86.558,287.739 86.768 C 287.412 86.840,285.975 87.388,284.545 87.986 C 283.115 88.584,281.873 89.074,281.786 89.074 C 281.699 89.074,280.532 89.525,279.194 90.076 C 277.855 90.627,276.176 91.300,275.463 91.571 C 274.750 91.842,273.500 92.335,272.685 92.668 C 271.870 93.000,269.870 93.793,268.241 94.430 C 262.948 96.499,261.958 96.901,261.071 97.343 C 260.591 97.582,260.061 97.778,259.893 97.778 C 259.726 97.778,258.702 98.164,257.619 98.636 C 256.535 99.108,255.148 99.657,254.537 99.857 C 253.545 100.180,251.868 100.863,250.278 101.591 C 249.972 101.731,249.347 101.962,248.889 102.105 C 248.431 102.248,247.746 102.499,247.368 102.664 L 246.680 102.962 246.210 102.272 C 245.952 101.892,245.741 101.494,245.741 101.388 C 245.741 101.282,245.443 100.743,245.079 100.190 C 244.715 99.637,244.018 98.473,243.531 97.602 C 242.111 95.066,241.119 93.355,240.062 91.618 C 239.519 90.726,239.074 89.946,239.074 89.885 C 239.074 89.824,238.637 89.054,238.102 88.175 C 237.567 87.295,237.022 86.330,236.891 86.028 C 236.760 85.727,236.376 85.060,236.037 84.546 C 235.698 84.032,235.066 82.944,234.632 82.130 C 234.199 81.315,233.737 80.523,233.606 80.370 C 233.476 80.218,233.015 79.426,232.583 78.611 C 232.151 77.796,231.522 76.711,231.186 76.198 C 230.849 75.686,230.507 75.103,230.426 74.902 C 230.174 74.282,228.651 71.763,228.487 71.698 C 228.403 71.664,228.327 71.497,228.319 71.327 C 228.311 71.157,228.065 70.644,227.773 70.185 C 227.481 69.727,226.790 68.560,226.238 67.593 C 224.405 64.379,222.667 61.399,222.164 60.606 C 221.890 60.175,221.667 59.771,221.667 59.708 C 221.667 59.646,221.208 58.846,220.648 57.930 C 220.088 57.015,219.630 56.207,219.630 56.134 C 219.630 56.061,219.130 55.189,218.519 54.197 C 217.907 53.205,217.407 52.342,217.407 52.281 C 217.407 52.219,216.907 51.359,216.296 50.370 C 215.685 49.382,215.185 48.518,215.185 48.451 C 215.185 48.384,214.728 47.591,214.170 46.688 C 213.611 45.785,213.098 44.890,213.028 44.699 C 212.959 44.508,212.764 44.144,212.595 43.889 C 212.426 43.634,212.088 43.095,211.844 42.690 L 211.400 41.954 212.228 42.437 C 212.683 42.703,213.556 43.189,214.167 43.516 M198.923 104.072 C 198.395 105.196,197.963 106.198,197.963 106.299 C 197.963 106.400,197.579 107.289,197.109 108.274 C 196.640 109.259,196.064 110.571,195.830 111.190 C 195.595 111.809,195.022 113.106,194.556 114.074 C 194.090 115.042,193.707 115.929,193.706 116.046 C 193.705 116.163,193.204 117.311,192.593 118.596 C 191.981 119.881,191.481 121.014,191.481 121.112 C 191.481 121.211,191.028 122.252,190.475 123.426 C 189.921 124.600,189.413 125.747,189.346 125.975 C 189.278 126.202,188.901 127.098,188.507 127.965 C 187.616 129.927,187.490 131.005,187.847 133.611 C 189.712 147.226,191.174 164.539,191.664 178.796 C 192.381 199.650,192.352 214.342,191.556 233.935 L 191.430 237.037 187.567 237.037 C 183.079 237.037,183.071 237.042,185.013 238.477 L 186.323 239.444 200.016 239.444 L 213.709 239.444 215.003 238.504 C 216.986 237.061,216.944 237.037,212.436 237.037 L 208.576 237.037 208.453 233.657 C 208.386 231.799,208.237 227.653,208.123 224.444 C 207.854 216.898,207.851 192.726,208.118 185.926 C 208.232 183.023,208.414 178.398,208.521 175.648 C 208.881 166.421,209.199 162.044,210.556 147.593 C 210.771 145.301,211.285 140.759,211.699 137.500 C 212.559 130.711,212.552 130.132,211.577 128.048 C 211.219 127.284,210.926 126.579,210.926 126.482 C 210.926 126.385,210.502 125.411,209.984 124.318 C 209.466 123.225,208.852 121.827,208.619 121.212 C 208.387 120.596,207.811 119.313,207.339 118.360 C 206.867 117.406,206.481 116.517,206.481 116.383 C 206.481 116.249,205.981 115.098,205.370 113.826 C 204.759 112.554,204.259 111.424,204.259 111.315 C 204.259 111.206,203.801 110.144,203.241 108.957 C 202.681 107.769,202.222 106.726,202.222 106.639 C 202.222 106.355,200.202 102.135,200.040 102.081 C 199.954 102.052,199.451 102.948,198.923 104.072 M195.649 123.068 C 196.741 123.809,197.977 125.715,197.956 126.625 C 197.945 127.068,199.880 133.516,200.024 133.518 C 200.088 133.518,200.226 133.206,200.330 132.824 C 200.435 132.442,200.903 130.861,201.371 129.311 C 201.839 127.761,202.222 126.363,202.222 126.203 C 202.222 125.228,204.442 122.593,205.263 122.593 C 205.467 122.593,206.667 125.131,206.667 125.563 C 206.667 125.676,207.175 126.991,207.797 128.486 L 208.927 131.204 208.833 133.056 C 208.782 134.074,208.406 137.157,207.998 139.907 C 207.243 145.000,207.018 146.993,206.200 155.833 C 204.751 171.482,204.461 177.546,204.328 194.907 C 204.220 208.996,204.447 226.917,204.803 232.500 C 204.977 235.221,204.982 235.206,203.741 235.325 C 202.143 235.479,200.913 234.476,200.335 232.546 C 200.058 231.622,199.940 231.668,199.568 232.849 C 199.028 234.563,198.074 235.370,196.589 235.370 C 195.115 235.370,195.077 235.291,195.219 232.538 C 195.655 224.090,195.754 218.529,195.755 202.456 C 195.755 185.008,195.665 180.914,195.078 171.481 C 194.818 167.310,194.652 165.203,193.805 155.370 C 193.326 149.801,192.808 145.228,192.043 139.815 C 190.853 131.386,190.831 131.866,192.600 127.500 C 193.136 126.176,193.791 124.530,194.056 123.843 C 194.597 122.439,194.670 122.404,195.649 123.068 M175.115 196.991 C 174.766 199.030,174.074 203.732,174.074 204.062 C 174.074 204.442,174.124 204.444,181.296 204.444 L 188.519 204.444 188.519 200.370 L 188.519 196.296 181.876 196.296 L 175.234 196.296 175.115 196.991 M211.481 200.370 L 211.481 204.444 218.704 204.444 L 225.926 204.444 225.924 203.935 C 225.922 203.407,225.351 199.475,224.984 197.454 L 224.773 196.296 218.127 196.296 L 211.481 196.296 211.481 200.370 M177.253 238.450 C 174.626 242.504,177.386 250.930,181.564 251.608 L 182.191 251.710 182.090 250.598 C 181.787 247.253,182.661 246.597,187.525 246.514 L 191.068 246.454 192.131 247.995 C 193.327 249.729,193.428 249.931,194.349 252.457 C 196.610 258.658,196.933 270.828,194.920 273.975 C 194.104 275.250,194.271 275.281,192.419 273.519 C 190.534 271.725,190.665 271.729,190.794 273.472 C 190.973 275.876,191.574 277.010,193.139 277.892 C 194.778 278.816,197.404 278.279,197.682 276.963 C 197.923 275.821,199.193 270.165,199.641 268.241 C 199.940 266.956,200.164 266.279,200.172 266.636 C 200.186 267.279,202.129 276.214,202.438 277.055 C 203.077 278.797,206.681 278.734,208.193 276.954 C 208.736 276.316,209.285 274.242,209.223 273.070 L 209.167 272.014 207.603 273.529 C 205.833 275.244,205.804 275.247,204.958 273.750 C 203.597 271.341,203.457 259.943,204.734 255.420 C 205.585 252.403,206.675 249.844,207.880 248.033 L 208.927 246.460 212.487 246.517 C 217.407 246.596,218.210 247.203,217.926 250.628 C 217.825 251.844,218.027 251.938,219.365 251.290 C 223.303 249.384,225.165 242.552,222.833 238.565 C 222.293 237.643,222.137 237.597,221.893 238.287 C 221.381 239.729,219.425 241.202,217.279 241.761 C 215.693 242.174,184.307 242.174,182.721 241.761 C 180.541 241.193,178.901 239.956,178.236 238.380 C 177.914 237.618,177.786 237.627,177.253 238.450 M199.650 275.971 C 199.104 277.244,197.963 280.331,197.963 280.533 C 197.963 280.632,197.708 281.349,197.397 282.126 L 196.831 283.539 197.397 284.940 C 197.708 285.711,197.963 286.459,197.963 286.602 C 197.963 286.746,198.158 287.340,198.397 287.922 C 198.635 288.505,199.072 289.626,199.369 290.414 C 199.665 291.202,199.951 291.848,200.004 291.850 C 200.105 291.852,201.429 288.549,201.969 286.944 C 202.141 286.435,202.484 285.454,202.732 284.764 L 203.184 283.510 202.703 282.308 C 202.439 281.648,202.222 281.010,202.222 280.892 C 202.222 280.679,200.211 275.345,200.078 275.205 C 200.040 275.165,199.848 275.510,199.650 275.971 M355.278 355.370 C 351.812 356.401,352.328 356.376,332.037 356.479 L 313.241 356.574 313.241 357.130 C 313.241 357.684,313.244 357.685,314.537 357.791 C 316.735 357.971,319.245 359.694,319.575 361.248 C 319.656 361.631,319.722 373.153,319.722 386.852 L 319.722 411.759 319.261 412.663 C 318.351 414.445,316.203 415.741,314.160 415.741 C 313.159 415.741,313.148 415.747,313.148 416.297 L 313.148 416.853 335.590 416.806 L 358.032 416.759 358.203 416.111 C 358.296 415.755,358.518 414.671,358.695 413.704 C 358.871 412.736,359.438 410.153,359.953 407.963 C 361.041 403.337,361.853 399.636,361.852 399.306 C 361.851 398.867,360.779 399.031,360.641 399.491 C 360.438 400.167,358.683 404.102,358.354 404.618 C 357.150 406.506,354.281 409.815,353.847 409.815 C 353.757 409.815,353.209 410.129,352.629 410.514 C 349.657 412.483,348.816 412.632,340.139 412.725 L 332.963 412.801 332.963 401.030 L 332.963 389.259 339.255 389.259 C 345.486 389.259,345.559 389.264,346.756 389.714 C 349.475 390.738,351.296 393.386,351.296 396.316 C 351.296 397.199,351.310 397.222,351.852 397.222 L 352.407 397.222 352.407 387.130 L 352.407 377.037 351.877 377.037 C 351.354 377.037,351.345 377.057,351.250 378.287 C 351.004 381.512,349.249 383.788,346.223 384.811 C 345.198 385.156,344.647 385.185,339.038 385.185 L 332.963 385.185 332.963 372.858 L 332.963 360.531 340.880 360.598 C 349.484 360.671,349.343 360.655,351.583 361.815 C 352.422 362.249,354.348 364.171,354.497 364.722 C 354.552 364.926,354.765 365.553,354.971 366.116 C 355.176 366.678,355.403 367.866,355.475 368.755 L 355.606 370.370 356.137 370.370 L 356.667 370.370 356.667 362.685 C 356.667 358.458,356.604 355.009,356.528 355.020 C 356.451 355.030,355.889 355.188,355.278 355.370 M38.148 357.117 L 38.148 357.778 39.232 357.778 C 41.399 357.778,43.208 358.935,44.152 360.926 L 44.722 362.130 44.722 386.759 L 44.722 411.389 44.113 412.643 C 43.185 414.552,41.719 415.524,39.515 415.691 C 38.159 415.793,38.148 415.798,38.148 416.323 L 38.148 416.852 51.389 416.852 L 64.630 416.852 64.630 416.321 C 64.630 415.793,64.621 415.789,63.287 415.702 C 61.208 415.566,59.312 414.354,58.476 412.628 L 58.056 411.759 58.007 386.250 L 57.958 360.741 61.718 360.741 C 70.580 360.741,74.074 364.224,74.074 373.056 C 74.074 381.824,70.129 386.278,62.350 386.293 L 60.348 386.296 60.405 386.977 C 60.461 387.629,60.503 387.668,61.470 387.936 C 63.650 388.540,64.766 390.186,68.773 398.705 C 76.535 415.206,79.035 416.852,96.340 416.852 L 102.222 416.852 102.222 416.296 C 102.222 415.814,102.155 415.740,101.713 415.738 C 98.380 415.716,93.244 412.287,91.204 408.719 C 91.102 408.541,90.717 408.027,90.349 407.577 C 89.603 406.666,89.113 405.970,86.571 402.217 C 85.605 400.792,84.815 399.586,84.815 399.538 C 84.815 399.490,84.348 398.762,83.778 397.920 C 83.207 397.078,82.622 396.161,82.478 395.882 C 82.246 395.434,81.448 394.441,80.132 392.963 C 79.236 391.956,77.667 390.753,76.365 390.074 L 74.997 389.361 76.063 389.119 C 85.842 386.905,90.602 377.163,87.109 366.513 C 86.834 365.675,86.327 364.603,86.129 364.444 C 86.066 364.394,85.730 363.935,85.383 363.426 C 84.607 362.289,82.553 360.469,81.354 359.855 C 78.535 358.413,77.711 358.072,76.026 357.651 C 71.767 356.587,72.481 356.624,54.676 356.537 L 38.148 356.457 38.148 357.117 M234.073 363.090 C 234.073 363.487,232.579 367.849,232.065 368.954 C 230.862 371.541,230.556 372.243,230.556 372.406 C 230.556 372.507,230.042 373.652,229.415 374.952 C 228.788 376.251,227.829 378.236,227.285 379.361 C 226.741 380.487,226.296 381.475,226.296 381.558 C 226.296 381.641,225.850 382.637,225.304 383.771 C 224.758 384.905,223.748 387.042,223.059 388.519 C 222.371 389.995,221.317 392.224,220.718 393.472 C 220.120 394.720,219.630 395.808,219.630 395.892 C 219.630 395.975,219.171 396.945,218.611 398.047 C 218.051 399.150,217.593 400.133,217.593 400.231 C 217.593 400.330,217.100 401.423,216.497 402.659 C 214.877 405.985,212.824 410.409,212.700 410.841 C 212.045 413.129,208.416 415.741,205.892 415.741 C 205.230 415.741,205.185 415.776,205.185 416.296 L 205.185 416.852 213.981 416.852 L 222.778 416.852 222.778 416.296 C 222.778 415.772,222.736 415.741,222.041 415.741 C 219.776 415.741,218.259 413.812,218.981 411.850 C 219.149 411.393,219.397 410.685,219.532 410.278 C 219.668 409.870,220.111 408.829,220.517 407.963 C 220.924 407.097,221.521 405.701,221.845 404.861 L 222.434 403.333 231.356 403.334 L 240.278 403.334 240.880 404.676 C 241.212 405.414,241.483 406.093,241.482 406.184 C 241.482 406.275,241.995 407.484,242.623 408.869 C 244.639 413.321,243.979 415.741,240.747 415.741 C 240.040 415.741,240.000 415.771,240.000 416.296 L 240.000 416.852 273.154 416.852 C 299.520 416.852,306.321 416.804,306.372 416.620 C 306.407 416.493,306.524 415.847,306.633 415.185 C 306.742 414.523,307.046 413.065,307.310 411.944 C 307.766 410.005,308.257 407.716,309.095 403.611 C 309.303 402.593,309.517 401.572,309.571 401.343 C 309.800 400.376,308.433 400.794,308.057 401.806 C 307.877 402.289,307.491 403.212,307.199 403.856 C 306.906 404.499,306.667 405.064,306.667 405.111 C 306.667 405.471,304.664 408.120,303.576 409.200 C 300.279 412.472,297.872 413.148,289.521 413.148 L 284.074 413.148 284.075 391.620 C 284.076 377.978,284.143 369.851,284.260 369.432 C 284.732 367.732,286.494 366.481,288.419 366.481 L 289.630 366.481 289.630 365.833 L 289.630 365.185 277.581 365.185 L 265.532 365.185 265.590 365.787 L 265.648 366.389 267.065 366.489 C 268.552 366.595,268.692 366.661,269.951 367.849 C 271.391 369.210,271.309 367.714,271.253 391.400 L 271.204 412.500 270.792 413.269 C 269.819 415.090,268.178 415.818,265.291 415.711 C 261.577 415.574,259.816 414.208,257.687 409.815 C 257.021 408.440,255.977 406.305,255.368 405.070 C 254.758 403.835,254.259 402.754,254.259 402.668 C 254.259 402.582,253.789 401.550,253.213 400.376 C 252.638 399.202,251.690 397.241,251.107 396.019 C 250.524 394.796,249.531 392.713,248.899 391.389 C 248.268 390.065,247.314 388.065,246.780 386.944 C 246.246 385.824,245.345 383.949,244.779 382.778 C 244.212 381.606,243.372 379.856,242.912 378.889 C 240.482 373.773,238.383 369.343,237.649 367.778 C 235.654 363.527,235.259 362.875,234.643 362.812 C 234.196 362.767,234.074 362.826,234.073 363.090 M124.041 364.361 C 121.159 364.612,119.676 364.935,116.389 366.025 C 114.580 366.625,113.525 367.115,110.588 368.720 C 109.240 369.457,105.627 372.565,104.711 373.776 C 104.412 374.172,103.855 374.878,103.474 375.344 C 103.093 375.811,102.282 377.165,101.672 378.353 C 97.296 386.873,98.193 399.695,103.675 406.969 C 104.796 408.457,108.178 411.852,108.539 411.852 C 108.644 411.852,108.858 411.980,109.014 412.136 C 112.548 415.670,122.839 418.447,131.019 418.073 C 135.022 417.890,137.019 417.550,141.944 416.213 C 143.411 415.815,147.260 413.950,148.706 412.936 C 149.339 412.493,150.064 411.992,150.318 411.824 C 153.273 409.867,156.772 405.163,158.284 401.111 C 161.310 393.003,159.755 380.312,155.096 375.093 C 154.641 374.583,154.267 374.105,154.264 374.029 C 154.257 373.820,151.848 371.463,151.013 370.846 C 150.609 370.548,149.969 370.031,149.592 369.698 C 149.216 369.364,148.591 368.934,148.204 368.741 C 147.817 368.548,146.917 368.056,146.204 367.648 C 144.874 366.886,141.610 365.693,138.981 365.008 C 135.837 364.188,129.281 363.905,124.041 364.361 M157.072 365.787 L 157.130 366.389 158.981 366.491 C 162.113 366.664,164.114 368.054,166.471 371.694 C 167.220 372.850,168.225 374.380,168.704 375.093 C 169.183 375.806,169.608 376.472,169.649 376.574 C 169.689 376.676,170.139 377.373,170.648 378.124 C 171.157 378.875,171.656 379.625,171.757 379.791 C 171.858 379.957,172.530 381.009,173.252 382.130 C 173.973 383.250,174.962 384.792,175.449 385.556 C 175.936 386.319,177.272 388.377,178.418 390.128 C 179.564 391.879,180.601 393.552,180.722 393.845 C 181.037 394.604,180.914 411.838,180.587 412.816 C 180.085 414.318,178.231 415.559,176.282 415.699 C 175.016 415.789,175.000 415.797,175.000 416.321 L 175.000 416.852 187.222 416.852 L 199.444 416.852 199.444 416.296 C 199.444 415.764,199.410 415.741,198.641 415.741 C 196.682 415.741,194.736 414.549,193.954 412.870 L 193.522 411.944 193.520 403.001 L 193.519 394.058 194.584 392.446 C 195.170 391.559,195.732 390.692,195.834 390.519 C 195.935 390.346,196.236 389.887,196.502 389.500 C 196.768 389.113,197.633 387.796,198.425 386.574 C 201.053 382.513,202.265 380.661,203.173 379.322 C 203.667 378.593,204.154 377.801,204.256 377.563 C 204.359 377.325,204.865 376.546,205.382 375.833 C 205.899 375.120,206.379 374.412,206.448 374.258 C 208.406 369.915,212.556 366.481,215.848 366.481 L 217.407 366.481 217.407 365.833 L 217.407 365.185 208.148 365.185 L 198.889 365.185 198.889 365.833 L 198.889 366.481 199.997 366.481 C 202.899 366.481,203.407 368.948,201.216 372.403 C 200.649 373.298,200.185 374.114,200.185 374.216 C 200.185 374.319,199.907 374.808,199.567 375.303 C 199.226 375.799,198.586 376.870,198.143 377.685 C 197.700 378.500,197.153 379.417,196.928 379.722 C 196.703 380.028,196.207 380.861,195.826 381.574 C 195.446 382.287,194.862 383.287,194.529 383.796 C 194.197 384.306,193.792 385.014,193.630 385.370 C 193.468 385.727,193.002 386.519,192.593 387.130 C 192.185 387.741,191.703 388.560,191.523 388.950 L 191.195 389.660 190.341 388.302 C 189.872 387.555,189.300 386.569,189.071 386.111 C 188.842 385.653,188.383 384.861,188.049 384.352 C 187.716 383.843,187.145 382.858,186.779 382.163 C 186.413 381.468,185.821 380.460,185.464 379.921 C 185.107 379.383,184.815 378.864,184.815 378.768 C 184.815 378.671,184.493 378.096,184.100 377.491 C 183.706 376.885,183.149 375.931,182.862 375.370 C 182.574 374.810,181.991 373.810,181.565 373.148 C 179.647 370.165,179.366 369.216,180.019 367.909 C 180.603 366.740,181.013 366.490,182.361 366.486 L 183.519 366.481 183.519 365.833 L 183.519 365.185 170.266 365.185 L 157.014 365.185 157.072 365.787 M133.148 368.336 C 137.875 369.322,141.917 373.018,144.081 378.333 C 145.367 381.492,145.567 382.336,146.117 386.944 C 146.701 391.842,146.025 398.661,144.586 402.379 C 144.284 403.159,143.919 404.114,143.775 404.503 C 142.356 408.318,137.895 412.379,133.619 413.749 C 128.192 415.489,120.440 412.947,117.336 408.410 C 116.044 406.522,115.185 405.157,115.185 404.991 C 115.185 404.886,115.006 404.449,114.786 404.020 C 114.062 402.604,113.126 399.561,112.953 398.056 C 112.859 397.241,112.700 395.949,112.600 395.185 C 112.089 391.272,112.628 383.936,113.647 380.949 C 117.119 370.768,123.871 366.401,133.148 368.336 M231.726 383.102 C 231.885 383.607,233.255 386.935,234.147 388.981 C 236.151 393.582,236.737 394.969,237.041 395.833 C 237.220 396.343,237.667 397.415,238.035 398.218 C 238.403 399.020,238.704 399.707,238.704 399.745 C 238.704 399.784,235.406 399.815,231.376 399.815 C 224.189 399.815,224.051 399.808,224.164 399.453 C 224.227 399.254,224.600 398.434,224.992 397.631 C 225.385 396.828,225.831 395.803,225.984 395.354 C 226.137 394.905,226.718 393.537,227.275 392.315 C 227.832 391.093,228.348 389.895,228.423 389.653 C 228.497 389.410,228.966 388.339,229.464 387.272 C 229.963 386.205,230.370 385.247,230.370 385.143 C 230.370 384.828,231.337 382.778,231.485 382.778 C 231.561 382.778,231.669 382.924,231.726 383.102 " stroke="none" fill="#fcfcfc" fill-rule="evenodd"></path><path id="path1" d="M39.550 55.349 C 39.202 55.912,38.860 61.489,38.951 65.093 C 39.121 71.795,39.494 73.790,41.842 80.556 C 42.328 81.958,44.346 86.377,44.781 86.995 C 44.977 87.273,45.367 87.955,45.647 88.510 C 46.115 89.439,47.381 91.418,48.672 93.241 C 50.152 95.329,51.894 97.593,52.022 97.593 C 52.101 97.593,52.241 97.758,52.333 97.961 C 52.798 98.984,61.841 108.063,62.643 108.311 C 62.768 108.350,63.037 108.579,63.241 108.821 C 63.444 109.062,64.153 109.676,64.815 110.185 C 66.900 111.786,70.814 114.728,71.296 115.055 C 71.551 115.228,72.634 115.993,73.704 116.756 C 74.773 117.518,76.315 118.603,77.130 119.166 C 77.944 119.730,79.361 120.729,80.278 121.386 C 81.194 122.043,82.611 123.041,83.426 123.604 C 85.638 125.132,86.734 125.904,86.979 126.107 C 87.099 126.207,88.058 126.888,89.108 127.620 C 90.159 128.352,91.308 129.187,91.663 129.476 C 92.017 129.764,92.380 130.000,92.469 130.000 C 92.559 130.000,92.969 130.271,93.381 130.602 C 93.792 130.933,94.564 131.495,95.095 131.852 C 95.627 132.208,96.582 132.875,97.219 133.333 C 97.856 133.792,98.523 134.252,98.701 134.357 C 98.879 134.461,99.474 134.888,100.022 135.306 C 100.570 135.723,101.324 136.263,101.697 136.505 C 102.070 136.747,103.469 137.736,104.806 138.704 C 106.143 139.671,107.557 140.671,107.948 140.926 C 108.601 141.350,110.417 142.626,114.339 145.414 C 115.161 145.998,116.375 146.854,117.037 147.316 C 117.699 147.778,119.116 148.782,120.185 149.546 C 121.255 150.310,122.671 151.305,123.333 151.757 C 125.306 153.103,127.438 154.619,128.443 155.389 C 128.962 155.786,129.453 156.111,129.535 156.111 C 129.617 156.111,130.026 156.386,130.444 156.723 C 130.862 157.059,132.037 157.908,133.056 158.609 C 134.074 159.310,134.949 159.931,135.000 159.989 C 135.051 160.046,135.581 160.427,136.178 160.834 C 138.363 162.324,142.512 165.237,143.816 166.199 C 144.234 166.507,144.734 166.861,144.927 166.986 C 145.264 167.203,145.264 167.207,144.907 167.095 C 144.704 167.031,144.162 166.713,143.704 166.388 C 143.245 166.064,142.037 165.314,141.019 164.722 C 140.000 164.130,139.125 163.586,139.074 163.512 C 139.023 163.439,138.552 163.140,138.028 162.847 C 137.058 162.306,133.810 160.338,132.130 159.274 C 129.378 157.532,127.792 156.571,127.130 156.247 C 126.722 156.048,126.222 155.738,126.019 155.559 C 125.815 155.380,124.845 154.765,123.863 154.192 C 122.881 153.619,121.644 152.858,121.113 152.501 C 120.582 152.144,120.082 151.852,120.001 151.852 C 119.920 151.852,119.177 151.394,118.350 150.833 C 117.522 150.273,116.769 149.815,116.675 149.815 C 116.582 149.815,115.979 149.455,115.336 149.016 C 114.693 148.576,113.542 147.854,112.778 147.411 C 112.014 146.967,111.135 146.414,110.825 146.180 C 110.515 145.946,110.015 145.645,109.714 145.512 C 109.413 145.378,108.438 144.791,107.548 144.208 C 106.658 143.625,105.872 143.148,105.802 143.148 C 105.731 143.148,104.992 142.690,104.159 142.130 C 103.325 141.569,102.586 141.111,102.516 141.111 C 102.446 141.111,101.694 140.654,100.845 140.095 C 99.996 139.536,99.147 139.023,98.957 138.955 C 98.767 138.886,98.236 138.564,97.778 138.239 C 97.319 137.913,96.319 137.287,95.556 136.846 C 94.792 136.406,93.698 135.727,93.126 135.338 C 92.553 134.948,92.021 134.630,91.942 134.630 C 91.864 134.630,91.124 134.188,90.298 133.648 C 89.472 133.107,88.421 132.473,87.963 132.238 C 87.505 132.004,87.088 131.745,87.037 131.664 C 86.986 131.584,85.986 130.953,84.815 130.262 C 83.644 129.572,82.360 128.772,81.963 128.485 C 81.566 128.198,81.134 127.963,81.004 127.963 C 80.874 127.963,80.657 127.858,80.522 127.729 C 80.167 127.390,77.871 125.926,77.695 125.926 C 77.612 125.926,77.046 125.586,76.437 125.169 C 75.827 124.753,74.609 123.988,73.729 123.469 C 72.849 122.950,71.805 122.291,71.407 122.004 C 71.010 121.716,70.606 121.481,70.510 121.481 C 70.414 121.481,69.646 121.023,68.804 120.463 C 67.962 119.903,67.219 119.444,67.152 119.444 C 67.085 119.444,66.269 118.944,65.340 118.333 C 64.411 117.722,63.591 117.222,63.519 117.222 C 63.446 117.222,62.626 116.722,61.697 116.111 C 60.768 115.500,59.935 115.000,59.846 115.000 C 59.758 115.000,59.340 114.750,58.918 114.444 C 57.429 113.366,57.441 113.281,58.267 118.981 C 58.518 120.713,58.805 122.739,58.905 123.484 C 59.005 124.229,59.468 126.145,59.933 127.743 C 60.398 129.341,60.840 130.898,60.916 131.204 C 61.094 131.918,61.876 134.110,62.040 134.352 C 62.109 134.454,62.475 135.310,62.852 136.255 C 63.230 137.200,63.889 138.605,64.316 139.378 C 64.743 140.152,65.346 141.254,65.655 141.827 C 69.909 149.721,78.548 156.904,87.963 160.378 C 88.727 160.660,90.227 161.267,91.296 161.727 C 94.683 163.182,97.833 164.486,98.981 164.907 C 99.593 165.131,100.926 165.671,101.944 166.107 C 105.802 167.756,108.442 168.851,108.889 168.987 C 109.144 169.064,110.394 169.583,111.667 170.140 C 112.940 170.696,114.315 171.259,114.722 171.391 C 115.130 171.522,116.421 172.043,117.593 172.548 C 121.005 174.020,123.896 175.218,125.093 175.656 C 125.704 175.880,127.079 176.438,128.148 176.896 C 131.598 178.373,134.266 179.484,135.621 180.006 C 136.349 180.287,137.653 180.825,138.519 181.202 C 139.384 181.580,140.426 181.997,140.833 182.130 C 141.241 182.262,142.532 182.783,143.704 183.287 C 144.875 183.792,146.688 184.563,147.732 185.002 C 150.189 186.035,150.062 186.080,147.240 185.176 C 145.984 184.774,144.861 184.445,144.746 184.445 C 144.631 184.445,142.995 183.954,141.111 183.355 C 139.227 182.755,137.102 182.095,136.389 181.887 C 135.676 181.680,133.968 181.163,132.593 180.740 C 131.218 180.316,128.593 179.511,126.759 178.951 C 119.491 176.732,116.056 175.670,112.746 174.617 C 110.844 174.013,109.175 173.519,109.036 173.519 C 108.897 173.519,107.391 173.060,105.690 172.500 C 103.988 171.940,102.479 171.481,102.336 171.481 C 102.193 171.481,100.559 170.981,98.704 170.370 C 96.849 169.759,95.210 169.259,95.063 169.259 C 94.915 169.259,93.403 168.797,91.703 168.231 C 90.002 167.665,88.278 167.135,87.870 167.053 C 87.463 166.971,85.671 166.440,83.889 165.874 C 82.106 165.307,79.148 164.386,77.315 163.827 C 75.481 163.268,72.981 162.502,71.759 162.124 C 70.537 161.747,69.391 161.397,69.213 161.346 C 68.648 161.184,68.762 162.908,69.627 167.593 C 69.964 169.420,71.835 173.481,73.109 175.150 C 73.456 175.605,73.881 176.208,74.052 176.490 C 74.758 177.651,78.817 181.579,79.880 182.131 C 80.140 182.266,80.568 182.576,80.830 182.819 C 82.735 184.585,90.813 187.900,94.698 188.511 C 102.176 189.685,110.142 190.959,115.278 191.800 C 118.741 192.368,122.199 192.894,122.963 192.970 C 123.727 193.045,127.060 193.564,130.370 194.123 C 133.681 194.681,137.056 195.216,137.870 195.310 C 140.439 195.608,149.007 197.127,148.426 197.182 C 148.120 197.211,139.790 196.773,129.913 196.210 C 120.036 195.646,111.213 195.185,110.305 195.185 C 108.808 195.185,86.994 194.020,84.676 193.816 C 83.538 193.716,83.493 193.819,84.101 195.149 C 84.320 195.627,84.734 196.542,85.022 197.181 C 85.309 197.820,85.787 198.695,86.083 199.126 C 86.380 199.557,86.809 200.242,87.037 200.649 C 88.599 203.437,95.491 210.370,96.699 210.370 C 96.797 210.370,97.249 210.626,97.702 210.937 C 98.485 211.476,99.432 211.941,101.944 213.019 C 106.757 215.084,113.458 215.452,120.833 214.057 C 123.729 213.510,128.135 212.726,132.870 211.915 C 134.398 211.654,136.675 211.238,137.930 210.991 C 139.185 210.744,140.893 210.457,141.726 210.352 C 142.559 210.248,144.964 209.835,147.069 209.433 C 149.175 209.032,151.008 208.707,151.143 208.712 C 151.512 208.723,149.440 209.556,147.037 210.362 C 145.866 210.755,144.116 211.382,143.148 211.756 C 142.181 212.131,141.097 212.512,140.741 212.603 C 140.384 212.695,139.426 213.026,138.611 213.340 C 137.796 213.654,136.505 214.124,135.741 214.384 C 134.977 214.644,133.141 215.305,131.661 215.854 C 130.180 216.403,128.879 216.852,128.769 216.852 C 128.659 216.852,127.662 217.199,126.553 217.623 C 124.682 218.339,122.348 219.166,116.759 221.097 C 115.537 221.519,113.579 222.222,112.407 222.660 C 110.021 223.552,107.836 224.325,104.493 225.460 C 101.627 226.433,101.531 226.550,103.006 227.272 C 114.082 232.693,126.370 233.890,134.120 230.302 C 134.655 230.054,135.301 229.791,135.556 229.718 C 135.810 229.644,136.832 229.136,137.826 228.588 C 138.820 228.041,139.690 227.593,139.758 227.593 C 139.826 227.593,140.555 227.153,141.376 226.615 C 142.198 226.078,143.087 225.529,143.352 225.395 C 143.617 225.261,144.242 224.829,144.741 224.435 C 145.240 224.040,145.898 223.577,146.204 223.407 C 147.100 222.906,152.966 218.269,154.441 216.895 C 155.370 216.030,155.163 216.537,154.040 217.879 C 153.397 218.647,152.678 219.543,152.443 219.869 C 152.208 220.196,151.742 220.755,151.406 221.111 C 151.071 221.468,150.556 222.093,150.262 222.500 C 149.967 222.907,149.459 223.532,149.133 223.889 C 148.806 224.245,148.305 224.845,148.019 225.222 C 147.734 225.599,146.754 226.807,145.843 227.907 C 144.931 229.007,144.122 229.991,144.044 230.093 C 143.860 230.335,141.562 233.124,140.382 234.537 C 139.872 235.148,138.943 236.273,138.318 237.037 C 137.694 237.801,137.045 238.593,136.876 238.796 C 134.692 241.436,133.353 243.083,133.022 243.538 C 132.799 243.843,132.175 244.593,131.634 245.205 C 131.094 245.817,130.574 246.456,130.479 246.625 C 130.385 246.794,129.986 247.267,129.593 247.676 C 128.706 248.598,128.753 248.918,129.817 249.208 C 130.274 249.332,131.377 249.686,132.269 249.994 C 138.222 252.050,143.540 251.227,147.401 247.653 C 148.649 246.497,151.916 242.379,152.221 241.577 C 152.304 241.360,152.577 240.938,152.828 240.638 C 153.079 240.338,153.723 239.301,154.258 238.333 C 154.793 237.366,155.375 236.366,155.552 236.111 C 155.956 235.527,157.023 233.439,159.564 228.262 L 160.463 226.431 160.702 228.169 C 161.355 232.920,162.868 238.780,164.568 243.148 C 165.024 244.319,165.489 245.528,165.601 245.833 C 165.982 246.871,168.218 251.190,168.926 252.255 C 169.313 252.838,169.630 253.367,169.630 253.430 C 169.630 253.600,170.745 255.189,171.147 255.591 C 171.338 255.783,171.640 256.178,171.818 256.470 C 172.546 257.668,176.685 261.996,177.567 262.482 C 177.734 262.574,178.225 262.972,178.658 263.366 C 179.091 263.760,179.674 264.183,179.954 264.306 C 180.234 264.429,180.505 264.585,180.556 264.652 C 180.742 264.899,183.804 266.666,184.046 266.666 C 184.183 266.667,184.534 266.808,184.827 266.981 C 185.923 267.629,185.571 266.975,183.932 265.320 C 179.278 260.621,175.593 255.064,173.692 249.875 C 168.257 235.041,167.818 220.873,171.958 193.889 C 172.122 192.819,172.631 190.032,173.089 187.695 L 173.921 183.446 173.845 179.825 C 173.779 176.706,173.712 176.050,173.368 175.093 C 172.577 172.893,171.284 170.602,170.006 169.133 C 168.461 167.358,168.295 167.216,162.407 162.661 C 161.745 162.149,160.914 161.466,160.560 161.143 C 160.207 160.820,159.853 160.556,159.774 160.556 C 159.695 160.556,159.286 160.243,158.865 159.861 C 158.444 159.479,157.702 158.875,157.215 158.519 C 156.728 158.162,155.301 157.038,154.044 156.022 C 152.788 155.005,151.426 153.916,151.019 153.602 C 150.611 153.289,149.988 152.766,149.635 152.442 C 149.281 152.117,148.930 151.852,148.855 151.852 C 148.779 151.852,148.204 151.394,147.576 150.833 C 146.948 150.273,146.365 149.815,146.280 149.815 C 146.196 149.815,145.935 149.619,145.702 149.380 C 145.469 149.141,143.861 147.818,142.130 146.439 C 140.398 145.060,138.823 143.756,138.629 143.540 C 138.435 143.324,138.180 143.148,138.063 143.148 C 137.946 143.148,137.563 142.849,137.212 142.482 C 136.861 142.116,136.241 141.585,135.833 141.301 C 135.426 141.018,134.676 140.402,134.167 139.932 C 133.657 139.462,133.186 139.077,133.119 139.076 C 133.007 139.074,131.493 137.822,128.900 135.590 C 128.347 135.113,127.679 134.589,127.416 134.427 C 127.153 134.265,126.690 133.887,126.386 133.587 C 126.082 133.287,125.500 132.796,125.093 132.496 C 124.685 132.197,124.023 131.631,123.622 131.240 C 123.221 130.849,122.662 130.410,122.381 130.264 C 122.100 130.119,121.804 129.888,121.722 129.752 C 121.641 129.616,121.068 129.095,120.450 128.595 C 119.831 128.094,118.339 126.852,117.134 125.833 C 115.929 124.815,114.685 123.778,114.369 123.530 C 114.054 123.282,113.360 122.699,112.827 122.234 C 112.293 121.769,111.316 120.931,110.654 120.370 C 109.993 119.810,108.985 118.935,108.415 118.426 C 107.844 117.917,107.239 117.426,107.069 117.335 C 106.898 117.244,106.593 116.984,106.389 116.757 C 106.185 116.530,104.227 114.817,102.037 112.951 C 99.847 111.085,97.847 109.364,97.593 109.127 C 97.178 108.741,96.349 108.008,93.241 105.281 C 92.731 104.834,91.720 103.942,90.993 103.299 C 90.267 102.656,89.142 101.661,88.493 101.088 C 83.062 96.286,67.265 81.869,64.983 79.630 C 64.515 79.172,62.978 77.713,61.568 76.389 C 56.679 71.798,42.388 57.840,40.760 56.065 C 39.944 55.175,39.734 55.051,39.550 55.349 M356.759 58.666 C 350.826 64.532,343.515 71.639,340.909 74.074 C 339.546 75.347,338.055 76.757,337.595 77.207 C 337.136 77.657,335.593 79.108,334.167 80.430 C 332.741 81.752,331.157 83.227,330.648 83.707 C 330.139 84.187,329.144 85.112,328.438 85.762 C 327.732 86.412,326.846 87.236,326.469 87.593 C 326.092 87.949,325.089 88.866,324.240 89.630 C 323.390 90.394,321.652 91.980,320.376 93.155 C 318.205 95.153,314.033 98.889,311.311 101.273 C 310.656 101.846,309.781 102.644,309.366 103.046 C 308.951 103.448,308.278 104.038,307.870 104.357 C 307.463 104.676,306.755 105.285,306.296 105.709 C 304.847 107.051,304.228 107.597,303.260 108.393 C 302.742 108.818,302.234 109.265,302.131 109.386 C 302.029 109.506,301.561 109.923,301.093 110.312 C 300.207 111.048,294.322 116.106,293.458 116.875 C 293.186 117.117,292.378 117.815,291.664 118.426 C 290.950 119.037,289.880 119.975,289.286 120.509 C 288.693 121.044,288.134 121.481,288.045 121.481 C 287.956 121.481,287.505 121.852,287.043 122.304 C 286.582 122.757,285.896 123.361,285.521 123.647 C 285.145 123.933,283.369 125.417,281.572 126.944 C 279.776 128.472,278.000 129.956,277.626 130.242 C 277.251 130.528,276.611 131.075,276.204 131.458 C 275.796 131.842,275.287 132.274,275.072 132.420 C 274.857 132.566,273.648 133.545,272.387 134.595 C 271.125 135.645,269.350 137.103,268.443 137.836 C 267.535 138.568,266.369 139.546,265.850 140.010 C 265.332 140.473,264.679 140.996,264.399 141.170 C 264.120 141.345,263.537 141.815,263.103 142.215 C 262.670 142.615,262.051 143.134,261.729 143.369 C 260.503 144.264,254.887 148.868,254.458 149.331 C 254.212 149.597,253.913 149.815,253.796 149.815 C 253.678 149.815,253.087 150.252,252.481 150.787 C 251.876 151.322,251.247 151.843,251.083 151.944 C 250.919 152.046,250.287 152.546,249.678 153.056 C 247.944 154.507,243.539 158.000,242.702 158.588 C 242.285 158.880,241.615 159.443,241.213 159.838 C 240.811 160.232,240.399 160.556,240.296 160.556 C 240.194 160.556,239.856 160.796,239.546 161.090 C 239.235 161.383,238.557 161.946,238.038 162.340 C 235.352 164.377,233.011 166.233,232.648 166.611 C 232.423 166.846,232.157 167.037,232.056 167.037 C 231.955 167.037,231.192 167.808,230.359 168.750 C 226.124 173.543,225.157 179.085,226.990 188.056 C 227.407 190.093,227.880 192.634,228.042 193.704 C 229.304 202.021,229.945 206.796,230.393 211.204 C 230.712 214.343,230.712 230.766,230.394 233.241 C 228.983 244.186,225.725 253.355,221.026 259.607 C 220.615 260.154,220.103 260.842,219.889 261.134 C 219.180 262.106,217.705 263.750,216.047 265.416 C 214.438 267.032,214.119 267.604,215.173 266.981 C 215.466 266.808,215.817 266.667,215.954 266.667 C 216.160 266.666,217.609 265.863,219.721 264.577 C 220.210 264.279,221.549 263.283,221.667 263.129 C 221.718 263.062,222.134 262.721,222.593 262.371 C 224.054 261.254,227.743 257.413,228.219 256.513 C 228.309 256.343,228.574 255.995,228.807 255.741 C 229.323 255.177,232.593 249.994,232.593 249.739 C 232.593 249.639,232.974 248.819,233.440 247.917 C 233.906 247.014,234.527 245.635,234.821 244.851 C 235.115 244.067,235.730 242.426,236.189 241.204 C 236.647 239.981,237.027 238.815,237.031 238.611 C 237.036 238.407,237.207 237.699,237.411 237.037 C 238.064 234.920,238.908 231.271,239.078 229.827 C 239.359 227.441,239.490 226.667,239.614 226.667 C 239.743 226.667,241.242 229.568,241.575 230.463 C 241.689 230.769,242.214 231.800,242.743 232.755 C 243.271 233.711,243.704 234.564,243.704 234.651 C 243.704 234.840,246.247 239.180,247.651 241.390 C 253.597 250.740,258.958 252.885,268.551 249.753 C 271.314 248.850,271.381 248.775,270.431 247.644 C 270.108 247.259,269.400 246.417,268.857 245.772 C 268.314 245.127,267.620 244.278,267.315 243.886 C 267.009 243.494,265.509 241.655,263.981 239.799 C 262.454 237.943,261.003 236.167,260.757 235.851 C 260.511 235.536,260.001 234.944,259.623 234.537 C 259.245 234.130,258.863 233.655,258.772 233.483 C 258.682 233.310,258.166 232.668,257.625 232.057 C 257.084 231.445,256.460 230.695,256.238 230.390 C 256.015 230.085,255.125 228.983,254.259 227.942 C 253.394 226.900,252.246 225.504,251.709 224.838 C 251.173 224.173,250.672 223.583,250.597 223.527 C 250.522 223.471,250.220 223.093,249.925 222.685 C 249.630 222.278,249.114 221.653,248.779 221.296 C 248.444 220.940,247.977 220.381,247.742 220.054 C 247.507 219.728,246.809 218.853,246.191 218.110 C 244.714 216.335,244.570 216.056,245.567 216.899 C 247.563 218.586,249.995 220.547,251.019 221.293 C 251.630 221.739,252.171 222.164,252.222 222.237 C 252.381 222.466,254.418 223.847,259.198 226.968 C 259.725 227.311,260.253 227.593,260.373 227.593 C 260.493 227.593,260.812 227.747,261.083 227.936 C 261.807 228.443,264.470 229.815,264.730 229.815 C 264.853 229.815,265.593 230.106,266.374 230.462 C 270.959 232.552,279.926 232.870,286.481 231.175 C 289.626 230.362,292.462 229.405,294.352 228.519 C 295.370 228.042,296.469 227.547,296.792 227.420 C 298.414 226.782,298.262 226.341,296.204 225.710 C 295.491 225.492,293.964 224.950,292.810 224.506 C 291.657 224.062,290.407 223.625,290.032 223.533 C 289.658 223.442,288.353 222.982,287.133 222.511 C 285.912 222.041,284.504 221.534,284.003 221.385 C 283.503 221.236,281.877 220.669,280.389 220.125 C 278.902 219.581,277.310 219.009,276.852 218.856 C 276.394 218.702,274.935 218.181,273.611 217.698 C 271.045 216.761,266.372 215.102,264.537 214.476 C 263.926 214.267,262.634 213.796,261.667 213.428 C 260.699 213.061,259.616 212.687,259.259 212.597 C 258.903 212.508,257.489 212.002,256.117 211.474 C 254.745 210.946,253.245 210.408,252.783 210.279 C 251.597 209.949,247.940 208.483,248.611 208.607 C 248.917 208.664,251.158 209.084,253.591 209.540 C 256.024 209.997,258.206 210.370,258.439 210.370 C 258.672 210.370,261.277 210.829,264.226 211.389 C 267.176 211.949,269.790 212.407,270.036 212.407 C 270.282 212.407,272.895 212.870,275.843 213.436 C 288.105 215.790,295.282 215.221,301.574 211.396 C 301.981 211.148,302.648 210.762,303.056 210.538 C 306.097 208.866,311.616 203.348,313.070 200.526 C 313.245 200.186,313.578 199.657,313.810 199.352 C 314.352 198.637,316.296 194.502,316.296 194.064 C 316.296 193.774,316.169 193.742,315.324 193.817 C 313.095 194.015,291.247 195.185,289.772 195.185 C 288.890 195.185,280.059 195.646,270.149 196.210 C 260.238 196.773,251.880 197.211,251.574 197.182 C 250.929 197.121,255.732 196.336,284.167 191.854 C 308.222 188.061,306.795 188.306,309.034 187.592 C 313.159 186.276,317.261 184.340,319.243 182.773 C 319.755 182.368,320.242 182.037,320.325 182.037 C 320.553 182.037,322.516 180.275,324.034 178.708 C 326.539 176.122,329.086 171.943,330.076 168.796 C 330.755 166.637,331.441 161.296,331.040 161.296 C 331.001 161.296,329.939 161.630,328.681 162.037 C 327.422 162.444,326.287 162.778,326.158 162.778 C 326.028 162.778,324.530 163.236,322.829 163.796 C 321.127 164.356,319.621 164.815,319.483 164.815 C 319.243 164.815,316.404 165.696,308.698 168.161 C 306.811 168.765,305.155 169.259,305.017 169.259 C 304.879 169.259,303.214 169.751,301.318 170.351 C 297.508 171.558,294.111 172.604,292.130 173.182 C 291.417 173.390,289.292 174.040,287.407 174.627 C 285.523 175.215,283.273 175.902,282.407 176.155 C 280.231 176.791,276.965 177.801,273.235 178.993 C 271.501 179.547,269.960 180.000,269.813 180.000 C 269.665 180.000,268.027 180.500,266.174 181.111 C 264.320 181.722,262.685 182.222,262.540 182.222 C 262.396 182.222,260.766 182.722,258.919 183.333 C 257.072 183.944,255.445 184.444,255.302 184.444 C 255.160 184.444,254.013 184.778,252.755 185.185 C 251.496 185.593,250.424 185.922,250.372 185.917 C 250.201 185.902,252.663 184.787,253.889 184.326 C 255.010 183.903,256.568 183.258,261.204 181.298 C 262.222 180.867,263.772 180.241,264.647 179.907 C 265.523 179.573,267.023 178.967,267.980 178.562 C 268.938 178.156,270.556 177.470,271.574 177.038 C 272.593 176.606,273.843 176.087,274.352 175.884 C 274.861 175.681,276.361 175.071,277.685 174.529 C 279.009 173.986,281.301 173.048,282.778 172.444 C 284.255 171.840,286.171 171.051,287.037 170.690 C 290.406 169.288,291.103 169.000,293.611 167.968 C 295.037 167.381,296.537 166.776,296.944 166.622 C 297.352 166.469,298.477 166.009,299.444 165.601 C 300.412 165.192,302.412 164.360,303.889 163.752 C 305.366 163.143,307.782 162.142,309.259 161.526 C 310.736 160.911,312.486 160.197,313.148 159.940 C 314.996 159.224,318.334 157.618,319.222 157.019 C 319.661 156.723,320.286 156.345,320.611 156.179 C 323.013 154.952,328.818 149.697,331.016 146.759 C 331.626 145.944,332.168 145.236,332.221 145.185 C 333.508 143.958,337.918 135.218,338.855 132.037 C 338.960 131.681,339.299 130.556,339.608 129.537 C 340.447 126.771,341.119 123.968,341.294 122.506 C 341.380 121.790,341.616 120.079,341.818 118.704 C 342.595 113.412,342.585 113.356,341.082 114.444 C 340.660 114.750,340.243 115.000,340.156 115.000 C 340.068 115.000,339.268 115.482,338.378 116.070 C 337.488 116.659,336.497 117.249,336.177 117.381 C 335.857 117.513,335.438 117.767,335.246 117.946 C 334.931 118.239,331.821 120.160,329.370 121.574 C 328.841 121.880,327.885 122.484,327.246 122.917 C 326.608 123.350,326.013 123.704,325.925 123.704 C 325.836 123.704,325.234 124.067,324.586 124.510 C 323.938 124.954,322.995 125.546,322.491 125.826 C 321.987 126.106,321.021 126.702,320.345 127.149 C 319.670 127.597,319.061 127.963,318.993 127.963 C 318.925 127.963,318.186 128.410,317.351 128.957 C 316.516 129.504,315.542 130.099,315.185 130.280 C 314.829 130.460,314.168 130.867,313.716 131.183 C 313.264 131.500,312.457 132.009,311.923 132.315 C 309.862 133.493,308.924 134.087,308.703 134.353 C 308.576 134.505,308.367 134.630,308.237 134.630 C 308.107 134.630,307.566 134.922,307.035 135.279 C 306.505 135.636,305.267 136.400,304.285 136.976 C 303.303 137.552,302.250 138.205,301.944 138.428 C 301.639 138.652,301.255 138.881,301.092 138.938 C 300.929 138.995,300.108 139.507,299.267 140.076 C 298.426 140.645,297.661 141.111,297.566 141.111 C 297.356 141.111,296.522 141.620,296.019 142.055 C 295.815 142.231,295.273 142.575,294.815 142.819 C 293.868 143.323,292.556 144.121,291.807 144.650 C 291.528 144.847,290.945 145.202,290.511 145.439 C 289.606 145.933,286.323 147.955,282.037 150.658 C 281.171 151.204,280.183 151.779,279.841 151.935 C 279.499 152.092,278.832 152.502,278.360 152.846 C 277.887 153.190,277.000 153.748,276.389 154.086 C 275.778 154.424,274.763 155.039,274.134 155.452 C 273.505 155.865,272.142 156.704,271.106 157.315 C 270.069 157.926,268.705 158.768,268.074 159.186 C 267.443 159.604,266.514 160.176,266.010 160.456 C 265.505 160.736,264.551 161.321,263.889 161.756 C 263.227 162.191,262.426 162.678,262.110 162.838 C 261.794 162.999,261.044 163.452,260.443 163.846 C 259.843 164.240,258.810 164.873,258.148 165.253 C 257.486 165.633,256.611 166.184,256.204 166.478 C 255.452 167.021,254.729 167.326,254.918 167.020 C 254.975 166.927,255.116 166.852,255.231 166.852 C 255.346 166.852,255.903 166.493,256.470 166.054 C 257.036 165.615,258.333 164.679,259.352 163.973 C 260.370 163.268,261.579 162.418,262.037 162.086 C 262.495 161.753,263.454 161.082,264.167 160.594 C 264.880 160.107,266.453 159.003,267.664 158.141 C 268.874 157.279,270.374 156.218,270.997 155.782 C 271.620 155.346,273.005 154.369,274.074 153.611 C 275.144 152.852,276.560 151.852,277.222 151.388 C 277.884 150.924,279.301 149.921,280.370 149.158 C 281.440 148.396,282.773 147.470,283.333 147.101 C 283.894 146.731,284.685 146.170,285.093 145.853 C 285.500 145.537,285.974 145.194,286.146 145.093 C 286.318 144.991,287.223 144.366,288.158 143.704 C 291.177 141.566,292.285 140.783,293.843 139.687 C 294.684 139.095,295.956 138.174,296.670 137.639 C 297.384 137.104,298.021 136.667,298.086 136.667 C 298.150 136.667,298.854 136.188,299.649 135.602 C 300.445 135.016,301.935 133.954,302.961 133.241 C 303.987 132.528,305.404 131.528,306.109 131.019 C 306.814 130.509,308.108 129.593,308.984 128.981 C 310.820 127.701,313.096 126.089,315.132 124.630 C 315.914 124.069,316.694 123.528,316.866 123.426 C 317.039 123.324,318.230 122.491,319.514 121.574 C 322.266 119.609,322.318 119.572,325.598 117.257 C 326.996 116.270,328.412 115.280,328.746 115.056 C 331.245 113.376,337.379 108.532,339.167 106.825 C 343.360 102.822,347.778 98.222,347.778 97.859 C 347.778 97.734,347.889 97.590,348.025 97.537 C 348.161 97.485,348.915 96.580,349.701 95.527 C 350.487 94.473,351.299 93.403,351.504 93.148 C 351.710 92.894,352.049 92.357,352.257 91.956 C 352.465 91.555,352.751 91.112,352.892 90.971 C 353.783 90.079,357.614 82.505,358.393 80.093 C 360.407 73.861,360.699 72.520,361.035 67.963 C 361.379 63.301,360.967 55.180,360.387 55.186 C 360.327 55.187,358.694 56.753,356.759 58.666 M150.602 197.353 C 150.373 197.397,149.998 197.397,149.769 197.353 C 149.539 197.309,149.727 197.273,150.185 197.273 C 150.644 197.273,150.831 197.309,150.602 197.353 M250.231 197.353 C 250.002 197.397,249.627 197.397,249.398 197.353 C 249.169 197.309,249.356 197.273,249.815 197.273 C 250.273 197.273,250.461 197.309,250.231 197.353 M63.889 300.856 C 55.295 301.659,49.657 303.935,45.087 308.446 C 43.958 309.560,43.855 309.681,42.490 311.475 C 41.495 312.783,39.475 316.931,39.264 318.097 C 39.176 318.583,38.914 319.815,38.682 320.833 C 37.111 327.725,39.007 337.747,42.716 342.157 C 43.106 342.621,43.551 343.203,43.704 343.450 C 44.001 343.931,47.176 346.852,47.401 346.852 C 47.475 346.852,47.736 347.028,47.981 347.244 C 51.382 350.242,58.462 352.317,66.019 352.531 C 76.031 352.814,82.317 350.135,86.712 343.713 C 87.115 343.123,87.113 341.963,86.696 335.556 L 86.389 330.833 85.897 330.776 C 85.388 330.717,85.000 331.714,85.000 333.082 C 85.000 334.161,83.417 338.907,82.353 341.019 C 81.864 341.988,80.001 344.813,79.844 344.821 C 79.777 344.825,79.264 345.249,78.704 345.763 C 73.594 350.454,62.987 350.478,57.330 345.812 C 49.547 339.392,47.350 321.322,53.271 312.420 C 53.648 311.853,54.053 311.204,54.171 310.978 C 54.497 310.352,57.055 307.777,58.159 306.963 C 62.167 304.006,69.196 303.229,74.229 305.187 C 75.010 305.491,75.715 305.739,75.797 305.740 C 76.631 305.745,80.126 308.927,81.400 310.842 C 82.413 312.365,82.690 312.954,83.681 315.694 C 84.088 316.819,84.234 317.037,84.583 317.037 C 85.071 317.037,85.099 316.238,84.878 308.659 L 84.757 304.481 83.906 304.102 C 78.242 301.577,70.172 300.269,63.889 300.856 M299.125 308.472 C 297.834 312.163,297.859 312.104,294.783 318.796 C 293.080 322.501,291.629 325.604,290.389 328.189 C 289.768 329.484,289.261 330.609,289.264 330.689 C 289.266 330.768,288.776 331.833,288.176 333.056 C 287.575 334.278,286.605 336.319,286.020 337.593 C 285.436 338.866,284.548 340.757,284.049 341.795 C 283.549 342.833,282.883 344.292,282.569 345.036 C 281.809 346.834,280.416 349.020,279.826 349.338 C 277.783 350.441,277.483 350.556,276.635 350.556 C 275.765 350.556,275.741 350.571,275.741 351.111 L 275.741 351.667 282.963 351.667 L 290.185 351.667 290.185 351.111 C 290.185 350.581,290.149 350.555,289.398 350.554 C 287.028 350.551,286.375 348.505,287.802 345.556 C 288.221 344.690,288.754 343.481,288.987 342.870 C 289.219 342.259,289.519 341.487,289.654 341.155 L 289.898 340.551 297.283 340.600 L 304.669 340.648 305.644 342.870 C 307.919 348.052,308.018 348.611,306.881 349.807 C 306.248 350.472,306.073 350.556,305.306 350.556 C 304.472 350.556,304.444 350.573,304.444 351.111 L 304.444 351.667 331.752 351.667 L 359.060 351.667 359.238 350.972 C 359.645 349.390,361.521 340.534,361.808 338.843 C 361.972 337.875,360.862 338.123,360.566 339.120 C 359.612 342.341,356.733 346.001,354.231 347.175 C 351.716 348.354,351.473 348.392,345.875 348.474 L 340.732 348.549 340.783 330.525 L 340.833 312.500 341.267 311.743 C 341.935 310.577,342.969 310.000,344.389 310.000 L 345.556 310.000 345.556 309.448 C 345.556 308.668,345.845 308.688,335.185 308.745 L 325.648 308.796 325.590 309.398 L 325.532 310.000 326.747 310.000 C 327.887 310.000,328.009 310.042,328.717 310.682 C 330.316 312.127,330.197 310.465,330.142 330.540 C 330.086 350.778,330.270 348.710,328.413 349.972 L 327.500 350.591 325.463 350.519 C 321.639 350.383,319.953 348.627,317.276 341.989 C 317.122 341.607,316.588 340.527,316.090 339.591 C 315.593 338.654,315.186 337.801,315.187 337.694 C 315.188 337.587,314.674 336.458,314.045 335.185 C 313.417 333.912,312.468 331.954,311.938 330.833 C 310.162 327.083,308.687 324.000,307.596 321.759 C 307.000 320.537,305.372 317.120,303.978 314.167 C 300.392 306.573,300.541 306.852,300.085 306.852 C 299.758 306.852,299.598 307.122,299.125 308.472 M162.222 313.411 L 162.222 319.074 162.685 319.074 C 163.114 319.074,163.148 319.009,163.150 318.194 C 163.155 315.919,164.533 313.608,166.507 312.565 C 167.284 312.154,167.512 312.135,172.458 312.070 L 177.602 312.002 177.551 329.936 C 177.495 349.697,177.578 348.338,176.359 349.470 C 175.568 350.204,174.742 350.556,173.805 350.556 C 172.993 350.556,172.963 350.575,172.963 351.111 L 172.963 351.667 182.870 351.667 L 192.778 351.667 192.778 351.133 C 192.778 350.614,192.749 350.598,191.666 350.520 C 190.288 350.420,189.207 349.725,188.579 348.536 L 188.148 347.720 188.148 329.863 L 188.148 312.006 193.194 312.072 C 199.005 312.149,199.121 312.175,200.614 313.755 C 201.888 315.104,202.213 315.891,202.218 317.639 L 202.222 319.074 202.870 319.074 L 203.519 319.074 203.519 313.426 C 203.519 310.319,203.447 307.778,203.359 307.778 C 203.271 307.778,202.334 307.965,201.276 308.194 C 199.362 308.609,199.262 308.611,183.056 308.611 C 166.017 308.611,166.466 308.628,162.731 307.854 L 162.222 307.748 162.222 313.411 M251.481 308.163 C 238.944 309.752,231.561 317.456,231.176 329.352 C 230.798 341.059,236.887 349.013,248.241 351.640 C 254.693 353.133,262.606 352.761,267.151 350.750 C 269.930 349.521,272.810 347.276,274.010 345.403 L 274.642 344.418 274.265 340.166 C 274.058 337.827,273.889 335.416,273.889 334.809 C 273.889 333.608,273.095 333.062,272.889 334.120 C 271.706 340.168,270.418 343.198,267.968 345.697 C 267.245 346.434,266.566 347.037,266.458 347.037 C 266.349 347.037,266.040 347.195,265.769 347.387 C 262.803 349.499,255.097 350.005,251.403 348.330 C 249.206 347.335,246.686 345.200,245.721 343.519 C 245.516 343.162,245.014 342.287,244.604 341.574 C 240.619 334.638,241.705 321.350,246.735 315.505 C 251.832 309.583,263.397 309.662,268.493 315.654 C 269.623 316.982,271.647 320.891,271.802 322.040 C 271.885 322.665,271.968 322.778,272.339 322.778 L 272.778 322.778 272.778 316.978 L 272.778 311.179 271.713 310.696 C 266.717 308.431,257.986 307.338,251.481 308.163 M93.194 308.819 C 93.067 308.874,92.963 309.163,92.963 309.460 L 92.963 310.000 94.171 310.000 C 95.477 310.000,96.662 310.775,97.329 312.065 C 97.716 312.813,97.724 347.475,97.337 348.401 C 96.862 349.537,95.510 350.437,94.147 350.523 C 92.983 350.597,92.963 350.608,92.963 351.133 L 92.963 351.667 102.870 351.667 L 112.778 351.667 112.778 351.111 C 112.778 350.571,112.753 350.556,111.890 350.556 C 110.673 350.556,109.129 349.639,108.612 348.610 C 108.249 347.887,108.240 347.461,108.190 330.046 L 108.139 312.222 110.806 312.222 C 113.779 312.222,114.343 312.352,116.152 313.451 C 121.057 316.430,120.289 326.617,114.952 329.376 C 114.532 329.594,113.704 329.713,112.177 329.776 C 109.576 329.883,109.169 330.305,110.872 331.130 C 111.768 331.563,113.148 332.691,113.148 332.988 C 113.148 333.081,113.355 333.469,113.608 333.851 C 113.861 334.233,114.271 335.127,114.520 335.837 C 115.415 338.394,115.723 339.098,116.789 341.014 C 120.810 348.246,123.385 350.525,128.428 351.318 C 129.252 351.448,135.092 351.553,144.491 351.606 L 159.259 351.691 159.259 351.145 C 159.259 350.612,159.236 350.598,158.157 350.520 C 156.715 350.416,155.365 349.546,154.765 348.333 L 154.352 347.500 154.352 330.185 L 154.352 312.870 154.804 312.080 C 155.597 310.696,156.699 310.000,158.098 310.000 L 159.283 310.000 159.225 309.398 L 159.167 308.796 149.167 308.796 L 139.167 308.796 139.109 309.398 L 139.051 310.000 140.177 310.000 C 141.490 310.000,142.419 310.480,143.272 311.599 L 143.796 312.286 143.796 330.263 C 143.796 350.453,143.944 348.635,142.204 349.798 C 139.033 351.915,135.611 350.173,131.620 344.409 C 129.752 341.712,128.490 339.765,128.320 339.317 C 127.646 337.544,124.616 334.100,122.562 332.772 L 121.436 332.045 121.934 331.856 C 122.208 331.752,122.628 331.667,122.869 331.667 C 123.322 331.667,125.591 330.563,126.100 330.096 C 126.259 329.950,126.726 329.541,127.138 329.187 C 127.549 328.834,128.006 328.310,128.152 328.022 C 128.299 327.735,128.599 327.250,128.821 326.944 C 130.343 324.842,130.956 319.447,130.000 316.573 C 128.710 312.699,125.315 310.343,119.259 309.121 C 117.869 308.840,93.784 308.561,93.194 308.819 M206.977 308.826 C 206.375 309.428,206.870 310.000,207.993 310.000 C 209.472 310.000,210.491 310.567,211.230 311.802 L 211.759 312.685 211.817 329.630 C 211.857 341.362,211.812 346.862,211.673 347.510 C 211.290 349.289,209.670 350.556,207.780 350.556 C 206.872 350.556,206.852 350.568,206.852 351.111 L 206.852 351.667 217.037 351.667 L 227.222 351.667 227.222 351.111 C 227.222 350.570,227.199 350.556,226.319 350.556 C 224.817 350.556,223.393 349.690,222.663 348.333 C 222.258 347.580,222.012 314.245,222.401 312.802 C 222.845 311.154,224.374 310.000,226.114 310.000 L 227.246 310.000 227.188 309.398 L 227.130 308.796 217.116 308.748 C 211.608 308.722,207.046 308.757,206.977 308.826 M297.755 324.074 C 297.870 324.380,298.059 324.900,298.177 325.231 C 298.295 325.562,298.706 326.513,299.090 327.344 C 299.475 328.176,299.917 329.234,300.074 329.696 C 300.231 330.158,300.523 330.895,300.723 331.333 C 301.739 333.559,302.223 334.701,302.228 334.887 C 302.231 335.000,302.469 335.593,302.756 336.204 L 303.278 337.315 300.354 337.366 C 298.747 337.394,296.051 337.394,294.364 337.366 L 291.298 337.315 292.408 334.921 C 293.019 333.604,293.519 332.429,293.519 332.310 C 293.519 332.191,293.861 331.394,294.279 330.538 C 294.698 329.682,295.354 328.190,295.737 327.222 C 297.234 323.441,297.414 323.161,297.755 324.074 " stroke="none" fill="#fcec04" fill-rule="evenodd"></path></g></svg>