<svg id="svg" version="1.1" xmlns="http://www.w3.org/2000/svg" xmlns:xlink="http://www.w3.org/1999/xlink" width="400" height="320.6837606837607" viewBox="0, 0, 400,320.6837606837607"><g id="svgg"><path id="path0" d="M198.750 17.404 C 198.292 17.518,197.654 17.773,197.333 17.971 C 197.012 18.168,196.600 18.396,196.417 18.478 C 196.233 18.560,193.625 20.061,190.621 21.814 C 187.617 23.566,185.086 25.000,184.996 25.000 C 184.907 25.000,184.833 25.061,184.833 25.136 C 184.833 25.210,184.571 25.374,184.250 25.500 C 183.929 25.626,183.667 25.790,183.667 25.864 C 183.667 25.939,183.586 26.000,183.487 26.000 C 183.388 26.000,181.720 26.929,179.779 28.066 C 177.838 29.202,175.969 30.289,175.625 30.482 C 175.281 30.675,174.737 30.983,174.417 31.167 C 174.096 31.350,173.571 31.650,173.250 31.833 C 172.929 32.017,172.423 32.305,172.125 32.474 C 171.827 32.643,170.196 33.593,168.500 34.583 C 166.804 35.574,165.117 36.542,164.750 36.734 C 164.383 36.926,164.046 37.121,164.000 37.167 C 163.911 37.255,163.567 37.455,162.346 38.123 C 161.228 38.736,160.428 39.218,160.333 39.337 C 160.287 39.394,160.118 39.490,159.956 39.549 C 159.795 39.609,158.145 40.548,156.290 41.636 C 154.435 42.723,152.579 43.794,152.167 44.015 C 151.754 44.236,151.379 44.458,151.333 44.509 C 151.287 44.560,151.006 44.701,150.708 44.821 C 150.410 44.942,150.167 45.090,150.167 45.150 C 150.167 45.211,149.960 45.349,149.708 45.457 C 149.456 45.566,149.137 45.731,149.000 45.824 C 148.617 46.083,142.154 49.833,142.090 49.833 C 142.059 49.833,141.540 50.133,140.937 50.500 C 140.333 50.867,139.763 51.167,139.670 51.167 C 139.576 51.167,139.500 51.233,139.500 51.314 C 139.500 51.395,139.369 51.503,139.208 51.554 C 139.048 51.604,138.729 51.761,138.500 51.901 C 137.867 52.289,131.356 56.057,130.487 56.539 C 129.172 57.267,128.919 57.414,128.833 57.500 C 128.787 57.546,128.525 57.695,128.250 57.830 C 127.975 57.966,127.487 58.237,127.167 58.433 C 125.049 59.724,120.168 62.500,120.017 62.500 C 119.916 62.500,119.833 62.563,119.833 62.639 C 119.833 62.716,119.440 62.987,118.958 63.242 C 118.477 63.497,117.783 63.878,117.417 64.088 C 117.050 64.299,116.356 64.677,115.875 64.929 C 115.394 65.182,115.000 65.451,115.000 65.527 C 115.000 65.604,114.914 65.667,114.808 65.667 C 114.703 65.667,112.997 66.618,111.017 67.780 C 109.037 68.942,107.117 70.049,106.750 70.238 C 106.383 70.428,106.046 70.621,106.000 70.667 C 105.914 70.753,105.640 70.912,104.346 71.627 C 103.927 71.859,102.271 72.814,100.667 73.750 C 99.063 74.686,97.407 75.641,96.987 75.873 C 95.693 76.588,95.420 76.747,95.333 76.833 C 95.287 76.879,94.950 77.073,94.583 77.265 C 93.929 77.606,86.324 82.011,85.833 82.332 C 85.696 82.422,85.366 82.617,85.100 82.765 C 84.476 83.113,83.751 83.911,83.378 84.659 C 83.107 85.203,83.080 86.108,83.038 95.924 L 82.993 106.598 84.430 107.840 C 85.220 108.524,86.111 109.308,86.409 109.583 C 86.969 110.099,88.331 111.277,89.304 112.089 C 89.609 112.343,90.061 112.746,90.310 112.984 C 91.261 113.897,91.998 114.500,92.162 114.500 C 92.277 114.500,92.333 111.097,92.333 104.083 C 92.333 96.625,92.385 93.667,92.516 93.667 C 92.617 93.667,92.936 93.775,93.225 93.908 C 93.514 94.040,94.462 94.424,95.333 94.761 C 96.204 95.098,97.217 95.507,97.583 95.668 C 97.950 95.830,98.783 96.153,99.434 96.385 C 100.510 96.770,101.934 97.336,103.250 97.903 C 103.525 98.021,104.237 98.294,104.833 98.509 C 105.429 98.725,106.104 98.998,106.333 99.116 C 106.563 99.234,106.814 99.332,106.891 99.332 C 106.969 99.333,107.269 99.441,107.558 99.572 C 108.049 99.795,113.979 102.130,115.083 102.536 C 115.603 102.727,116.839 103.240,117.417 103.504 C 117.600 103.588,118.275 103.847,118.917 104.080 C 119.558 104.313,120.233 104.573,120.417 104.659 C 120.600 104.744,121.537 105.121,122.500 105.496 C 123.462 105.871,124.400 106.245,124.583 106.328 C 124.767 106.411,125.104 106.530,125.333 106.593 C 125.563 106.655,126.087 106.853,126.500 107.032 C 128.011 107.688,128.270 107.792,129.333 108.169 C 129.929 108.381,130.492 108.607,130.583 108.672 C 130.675 108.737,131.050 108.884,131.417 109.000 C 131.783 109.116,132.158 109.263,132.250 109.328 C 132.342 109.393,132.904 109.620,133.500 109.833 C 134.096 110.047,134.658 110.271,134.750 110.332 C 134.842 110.394,135.517 110.655,136.250 110.913 C 136.983 111.172,137.658 111.437,137.750 111.503 C 137.842 111.569,138.205 111.716,138.558 111.830 C 138.910 111.944,139.398 112.140,139.641 112.267 C 139.884 112.394,140.202 112.498,140.347 112.499 C 140.492 112.500,140.666 112.556,140.734 112.625 C 140.802 112.694,141.070 112.825,141.330 112.917 L 141.803 113.083 140.659 115.000 C 140.029 116.054,139.511 117.010,139.507 117.125 C 139.503 117.240,139.443 117.333,139.374 117.333 C 139.305 117.333,139.142 117.577,139.012 117.875 C 138.883 118.173,138.733 118.454,138.680 118.500 C 138.627 118.546,138.464 118.808,138.318 119.083 C 138.172 119.358,137.066 121.276,135.860 123.346 C 134.654 125.415,133.667 127.196,133.667 127.304 C 133.667 127.412,133.604 127.500,133.527 127.500 C 133.451 127.500,133.182 127.894,132.929 128.375 C 132.677 128.856,132.292 129.550,132.073 129.917 C 131.854 130.283,131.627 130.715,131.568 130.875 C 131.509 131.035,131.413 131.167,131.355 131.167 C 131.296 131.167,131.147 131.394,131.025 131.672 C 130.902 131.949,129.976 133.581,128.967 135.297 C 127.958 137.013,126.964 138.717,126.757 139.083 C 126.550 139.450,126.208 140.050,125.997 140.417 C 124.891 142.343,124.835 142.137,126.903 143.750 C 127.444 144.172,128.917 145.373,130.250 146.479 C 130.433 146.631,130.883 146.979,131.250 147.253 C 131.617 147.526,131.942 147.806,131.972 147.875 C 132.180 148.343,133.249 146.698,136.433 141.006 C 136.717 140.499,137.111 139.802,137.308 139.458 C 137.505 139.115,137.825 138.552,138.018 138.208 C 138.211 137.865,139.298 135.995,140.434 134.055 C 141.571 132.114,142.500 130.445,142.500 130.346 C 142.500 130.247,142.566 130.167,142.646 130.167 C 142.727 130.167,142.891 129.923,143.012 129.625 C 143.132 129.327,143.280 129.046,143.340 129.000 C 143.449 128.917,144.104 127.790,144.697 126.667 C 145.062 125.976,145.382 125.449,145.507 125.333 C 145.557 125.287,145.707 125.024,145.840 124.748 C 146.251 123.898,148.071 120.833,148.163 120.835 C 148.238 120.837,149.225 122.829,152.692 129.984 C 153.429 131.505,155.041 134.815,158.664 142.250 C 159.557 144.083,160.795 146.633,161.414 147.917 C 162.033 149.200,163.234 151.675,164.082 153.417 C 165.722 156.784,167.363 160.160,169.793 165.167 C 172.193 170.111,174.261 174.363,175.832 177.583 C 177.455 180.911,179.543 185.203,181.752 189.750 C 182.554 191.400,183.877 194.100,184.692 195.750 L 186.174 198.750 186.085 194.333 C 186.035 191.904,185.919 188.829,185.826 187.500 C 185.733 186.171,185.547 182.909,185.412 180.252 L 185.167 175.420 184.432 173.918 C 184.028 173.092,182.968 170.917,182.078 169.083 C 181.188 167.250,179.728 164.250,178.833 162.417 C 177.939 160.583,176.590 157.808,175.835 156.250 C 173.645 151.731,171.911 148.164,170.164 144.583 C 167.928 140.004,165.795 135.617,164.167 132.250 C 163.414 130.692,162.122 128.029,161.297 126.333 C 158.191 119.950,157.103 117.717,156.560 116.607 C 156.252 115.978,156.000 115.434,156.000 115.398 C 156.000 115.363,163.636 115.333,172.968 115.333 L 189.936 115.333 190.244 114.625 C 190.737 113.491,191.340 112.111,191.500 111.750 C 191.582 111.567,191.803 111.060,191.991 110.625 C 192.179 110.190,192.487 109.477,192.676 109.042 C 192.864 108.606,193.086 108.100,193.168 107.917 C 193.395 107.414,193.833 106.301,193.833 106.230 C 193.833 106.195,185.471 106.167,175.250 106.167 C 159.328 106.167,156.667 106.133,156.667 105.931 C 156.667 105.801,156.723 105.669,156.792 105.639 C 156.860 105.608,157.073 105.283,157.265 104.917 C 157.456 104.550,158.925 102.000,160.529 99.250 C 162.133 96.500,163.497 94.138,163.559 94.000 C 163.622 93.862,163.858 93.450,164.083 93.083 C 164.308 92.717,164.540 92.285,164.599 92.125 C 164.657 91.965,164.772 91.833,164.853 91.833 C 164.934 91.833,165.000 91.751,165.000 91.651 C 165.000 91.550,165.945 89.855,167.101 87.884 C 168.256 85.913,169.362 83.989,169.559 83.608 C 169.756 83.228,169.954 82.879,170.000 82.833 C 170.046 82.787,170.184 82.571,170.307 82.352 C 170.431 82.133,170.685 81.683,170.873 81.352 C 171.060 81.021,171.404 80.412,171.635 80.000 C 171.867 79.587,172.654 78.237,173.385 77.000 C 174.115 75.762,174.924 74.360,175.183 73.882 C 175.892 72.577,176.075 72.258,176.167 72.167 C 176.254 72.079,176.436 71.765,177.125 70.513 C 177.574 69.697,182.752 60.752,183.018 60.333 C 183.105 60.196,183.220 59.952,183.274 59.792 C 183.328 59.631,183.424 59.500,183.488 59.500 C 183.552 59.500,183.707 59.237,183.833 58.917 C 183.959 58.596,184.123 58.333,184.198 58.333 C 184.272 58.333,184.333 58.256,184.333 58.162 C 184.333 58.068,185.263 56.400,186.398 54.454 C 187.534 52.508,188.622 50.635,188.815 50.292 C 189.008 49.948,189.317 49.404,189.500 49.083 C 190.350 47.596,190.572 47.205,190.923 46.583 C 191.130 46.217,192.114 44.527,193.108 42.829 C 194.103 41.131,195.029 39.519,195.166 39.246 C 195.304 38.973,195.454 38.712,195.500 38.667 C 195.583 38.584,195.731 38.329,196.365 37.185 C 197.430 35.260,199.759 31.334,199.831 31.340 C 199.878 31.344,200.704 32.708,201.667 34.371 C 202.629 36.034,203.659 37.812,203.955 38.322 C 204.251 38.832,204.587 39.438,204.701 39.667 C 204.816 39.896,204.949 40.121,204.997 40.167 C 205.045 40.212,205.192 40.475,205.325 40.750 C 205.458 41.025,205.725 41.475,205.918 41.750 C 206.112 42.025,206.369 42.494,206.489 42.792 C 206.609 43.090,206.773 43.333,206.854 43.333 C 206.934 43.333,207.000 43.412,207.000 43.508 C 207.000 43.604,208.040 45.460,209.311 47.633 C 210.582 49.806,211.811 51.927,212.042 52.346 C 212.737 53.610,212.913 53.913,213.001 54.000 C 213.048 54.046,213.305 54.493,213.573 54.995 C 213.841 55.496,214.853 57.260,215.822 58.915 C 216.791 60.570,217.696 62.148,217.833 62.421 C 217.970 62.693,218.120 62.954,218.166 63.000 C 218.212 63.046,218.351 63.262,218.474 63.481 C 218.597 63.700,218.852 64.150,219.039 64.481 C 219.227 64.812,219.570 65.421,219.801 65.833 C 220.374 66.853,223.473 72.189,223.674 72.500 C 223.763 72.637,223.927 72.938,224.039 73.167 C 224.152 73.396,224.288 73.621,224.342 73.667 C 224.396 73.712,224.490 73.862,224.550 74.000 C 224.610 74.137,224.848 74.550,225.078 74.917 C 225.308 75.283,225.564 75.733,225.646 75.917 C 225.728 76.100,227.079 78.445,228.648 81.127 C 230.217 83.809,231.500 86.078,231.500 86.169 C 231.500 86.259,231.561 86.333,231.636 86.333 C 231.710 86.333,231.874 86.596,232.000 86.917 C 232.126 87.237,232.290 87.500,232.364 87.500 C 232.439 87.500,232.500 87.572,232.500 87.659 C 232.500 87.747,233.408 89.378,234.517 91.284 C 235.626 93.190,236.703 95.050,236.910 95.417 C 237.261 96.038,237.480 96.424,238.333 97.917 C 238.517 98.237,238.826 98.781,239.020 99.125 C 239.215 99.469,240.155 101.083,241.111 102.713 C 242.066 104.342,242.890 105.786,242.941 105.921 C 243.024 106.137,240.751 106.167,224.434 106.167 C 211.500 106.167,205.833 106.220,205.833 106.342 C 205.833 106.508,205.946 106.776,206.935 108.962 C 207.154 109.446,207.526 110.308,207.763 110.879 C 207.999 111.450,208.410 112.369,208.676 112.922 C 208.941 113.475,209.262 114.225,209.388 114.588 L 209.617 115.250 226.628 115.333 L 243.639 115.417 243.244 116.250 C 242.666 117.469,239.535 123.927,237.748 127.583 C 236.196 130.761,234.508 134.235,231.877 139.667 C 231.100 141.271,229.788 143.971,228.961 145.667 C 225.575 152.614,224.467 154.892,223.083 157.750 C 222.285 159.400,221.009 162.025,220.249 163.583 C 218.088 168.014,215.770 172.796,215.119 174.167 C 214.423 175.632,214.160 178.766,213.672 191.417 C 213.577 193.892,213.450 196.547,213.389 197.318 C 213.248 199.125,213.408 199.029,214.567 196.613 C 215.542 194.583,217.979 189.567,220.413 184.583 C 222.570 180.167,224.567 176.062,226.127 172.833 C 227.592 169.803,229.714 165.438,232.082 160.583 C 232.932 158.842,234.281 156.067,235.081 154.417 C 235.881 152.767,237.083 150.292,237.751 148.917 C 242.114 139.948,244.980 134.052,247.069 129.750 C 251.779 120.048,251.531 120.468,251.959 121.463 C 252.067 121.712,252.231 122.029,252.324 122.167 C 252.567 122.525,256.176 128.743,256.774 129.833 C 257.517 131.187,257.741 131.574,257.833 131.667 C 257.879 131.712,258.097 132.087,258.318 132.500 C 258.539 132.912,259.488 134.563,260.426 136.167 C 261.364 137.771,262.300 139.383,262.506 139.750 C 262.712 140.117,263.016 140.642,263.182 140.917 C 263.348 141.192,263.704 141.829,263.972 142.333 C 264.779 143.850,265.077 144.331,265.208 144.332 C 265.277 144.333,265.333 144.421,265.333 144.529 C 265.333 144.887,267.247 148.001,267.441 147.959 C 267.546 147.936,267.921 147.675,268.274 147.379 C 269.579 146.288,274.093 142.623,274.389 142.414 C 274.683 142.207,273.243 139.496,270.099 134.333 C 269.904 134.012,269.633 133.525,269.497 133.250 C 269.362 132.975,269.211 132.712,269.164 132.667 C 269.116 132.621,268.985 132.396,268.873 132.167 C 268.761 131.938,268.595 131.637,268.504 131.500 C 268.295 131.184,264.528 124.677,263.961 123.654 C 263.235 122.343,263.086 122.086,263.000 122.000 C 262.954 121.954,262.804 121.693,262.666 121.421 C 262.529 121.148,261.603 119.535,260.608 117.837 C 257.466 112.473,257.601 113.218,259.625 112.419 C 260.519 112.066,261.475 111.682,261.750 111.565 C 262.025 111.447,262.962 111.076,263.833 110.740 C 264.704 110.404,265.642 110.026,265.917 109.902 C 266.192 109.777,267.092 109.421,267.917 109.112 C 269.298 108.593,271.277 107.820,272.083 107.484 C 272.267 107.408,273.129 107.071,274.000 106.736 C 274.871 106.400,275.883 105.995,276.250 105.834 C 276.617 105.674,277.367 105.381,277.917 105.184 C 278.467 104.986,279.067 104.755,279.250 104.670 C 279.772 104.427,281.462 103.758,282.833 103.250 C 283.521 102.996,284.383 102.657,284.750 102.498 C 285.706 102.082,288.481 101.000,288.591 101.000 C 288.677 101.000,289.790 100.531,290.583 100.159 C 290.767 100.073,291.442 99.811,292.083 99.577 C 292.725 99.343,293.475 99.053,293.750 98.933 C 294.025 98.813,295.000 98.429,295.917 98.079 C 296.833 97.729,297.655 97.381,297.742 97.305 C 297.829 97.229,298.016 97.166,298.158 97.166 C 298.300 97.165,298.616 97.061,298.859 96.934 C 299.102 96.807,299.590 96.610,299.942 96.497 C 300.295 96.383,300.658 96.237,300.750 96.172 C 300.842 96.107,301.404 95.881,302.000 95.669 C 302.596 95.458,303.308 95.187,303.583 95.068 C 303.858 94.948,304.833 94.551,305.750 94.184 L 307.417 93.518 307.460 104.018 C 307.501 114.252,307.510 114.512,307.815 114.298 C 307.988 114.177,308.643 113.622,309.273 113.065 C 309.902 112.507,311.129 111.431,312.000 110.673 C 313.495 109.371,315.115 107.948,316.194 106.988 L 316.676 106.559 316.630 95.905 C 316.584 85.344,316.580 85.244,316.223 84.583 C 315.536 83.312,314.771 82.803,306.042 77.810 C 304.672 77.026,304.199 76.757,303.500 76.366 C 303.087 76.135,301.230 75.058,299.373 73.973 C 297.516 72.888,295.922 72.000,295.831 72.000 C 295.741 72.000,295.667 71.943,295.667 71.874 C 295.667 71.805,295.423 71.642,295.125 71.512 C 294.827 71.383,294.546 71.233,294.500 71.180 C 294.454 71.127,294.079 70.902,293.667 70.680 C 292.897 70.267,285.450 65.950,285.000 65.656 C 284.862 65.567,284.525 65.381,284.250 65.244 C 283.975 65.107,283.637 64.924,283.500 64.838 C 283.185 64.641,274.636 59.664,273.792 59.187 C 273.448 58.992,272.885 58.671,272.542 58.472 C 272.198 58.273,271.654 57.971,271.333 57.800 C 271.012 57.630,270.487 57.334,270.167 57.142 C 267.327 55.449,262.453 52.667,262.326 52.667 C 262.238 52.667,262.167 52.606,262.167 52.531 C 262.167 52.457,261.904 52.293,261.583 52.167 C 261.262 52.041,261.000 51.877,261.000 51.802 C 261.000 51.728,260.925 51.667,260.834 51.667 C 260.702 51.667,252.495 46.971,251.500 46.326 C 251.362 46.237,251.063 46.073,250.833 45.961 C 250.604 45.848,250.379 45.718,250.333 45.670 C 250.246 45.579,249.946 45.405,248.680 44.709 C 248.260 44.478,245.892 43.109,243.417 41.667 C 240.942 40.224,238.573 38.856,238.154 38.625 C 236.905 37.938,236.588 37.754,236.500 37.667 C 236.454 37.621,236.079 37.402,235.667 37.180 C 235.254 36.958,233.679 36.052,232.167 35.166 C 230.654 34.280,229.079 33.366,228.667 33.135 C 228.254 32.903,227.635 32.553,227.292 32.357 C 226.948 32.161,226.385 31.839,226.042 31.643 C 225.698 31.447,225.117 31.117,224.750 30.910 C 224.383 30.703,222.694 29.720,220.996 28.725 C 219.298 27.730,217.685 26.804,217.413 26.667 C 217.140 26.530,216.879 26.380,216.833 26.334 C 216.747 26.247,216.470 26.086,215.180 25.373 C 214.760 25.141,212.437 23.793,210.016 22.378 C 207.596 20.962,205.496 19.759,205.350 19.706 C 205.203 19.652,204.858 19.449,204.583 19.254 C 204.308 19.059,203.858 18.791,203.583 18.658 C 203.308 18.526,203.046 18.380,203.000 18.333 C 202.816 18.148,201.376 17.518,200.750 17.349 C 199.950 17.132,199.819 17.136,198.750 17.404 M186.033 36.435 C 185.497 37.342,184.832 38.496,184.557 39.000 C 183.828 40.333,183.594 40.740,183.499 40.833 C 183.452 40.879,183.196 41.325,182.929 41.823 C 182.663 42.322,181.651 44.085,180.681 45.740 C 179.710 47.396,178.804 48.975,178.667 49.250 C 178.530 49.525,178.380 49.788,178.334 49.833 C 178.204 49.962,177.881 50.511,177.449 51.334 C 177.232 51.747,175.992 53.895,174.694 56.108 C 173.396 58.321,172.333 60.214,172.333 60.316 C 172.333 60.417,172.273 60.500,172.200 60.500 C 172.126 60.500,171.902 60.819,171.701 61.208 C 171.499 61.598,171.114 62.292,170.844 62.750 C 170.574 63.208,170.237 63.808,170.094 64.083 C 169.952 64.358,169.676 64.846,169.481 65.167 C 168.170 67.330,165.000 72.877,165.000 73.007 C 165.000 73.095,164.939 73.167,164.864 73.167 C 164.790 73.167,164.626 73.429,164.500 73.750 C 164.374 74.071,164.210 74.333,164.136 74.333 C 164.061 74.333,164.000 74.405,164.000 74.493 C 164.000 74.580,163.092 76.211,161.983 78.118 C 160.874 80.024,159.797 81.883,159.590 82.250 C 159.239 82.872,159.020 83.257,158.167 84.750 C 157.983 85.071,157.674 85.615,157.480 85.958 C 157.286 86.302,156.198 88.166,155.063 90.100 C 153.929 92.034,153.000 93.703,153.000 93.808 C 153.000 93.914,152.944 94.000,152.875 94.001 C 152.744 94.002,152.446 94.483,151.639 96.000 C 151.370 96.504,151.015 97.142,150.849 97.417 C 150.683 97.692,150.378 98.217,150.172 98.583 C 148.978 100.706,146.758 104.450,146.577 104.645 C 146.374 104.863,145.173 104.571,144.583 104.160 C 144.492 104.096,144.117 103.949,143.750 103.833 C 143.383 103.718,143.008 103.569,142.917 103.503 C 142.825 103.437,142.150 103.172,141.417 102.913 C 140.683 102.655,140.008 102.394,139.917 102.332 C 139.825 102.271,139.262 102.047,138.667 101.833 C 138.071 101.620,137.508 101.393,137.417 101.328 C 137.325 101.263,136.961 101.117,136.609 101.003 C 136.256 100.890,135.769 100.693,135.526 100.566 C 135.282 100.439,134.957 100.335,134.802 100.334 C 134.646 100.334,134.478 100.267,134.428 100.185 C 134.378 100.104,134.130 99.985,133.877 99.922 C 133.624 99.859,133.192 99.706,132.917 99.583 C 131.360 98.882,130.833 98.667,130.674 98.667 C 130.576 98.667,130.365 98.594,130.206 98.506 C 130.047 98.417,129.017 98.000,127.917 97.579 C 126.817 97.158,125.692 96.715,125.417 96.594 C 125.142 96.474,124.542 96.241,124.083 96.076 C 123.625 95.911,123.175 95.724,123.083 95.660 C 122.992 95.596,122.617 95.449,122.250 95.333 C 121.883 95.218,121.508 95.070,121.417 95.005 C 121.325 94.941,120.763 94.714,120.167 94.501 C 119.571 94.288,118.221 93.763,117.167 93.333 C 116.112 92.904,114.763 92.378,114.167 92.166 C 113.571 91.953,113.008 91.726,112.917 91.661 C 112.825 91.596,112.450 91.449,112.083 91.333 C 111.717 91.218,111.342 91.071,111.250 91.007 C 111.158 90.943,110.708 90.756,110.250 90.591 C 109.792 90.426,109.192 90.198,108.917 90.083 C 107.262 89.396,105.616 88.748,104.591 88.382 C 103.526 88.001,102.481 87.577,101.583 87.161 C 101.400 87.075,100.653 86.790,99.924 86.526 C 98.087 85.861,98.025 85.944,101.990 83.734 C 102.500 83.450,103.198 83.056,103.542 82.859 C 103.885 82.661,104.410 82.361,104.708 82.190 C 105.435 81.774,108.855 79.789,110.917 78.587 C 111.833 78.053,112.883 77.458,113.250 77.266 C 113.617 77.074,113.954 76.879,114.000 76.833 C 114.087 76.747,114.372 76.581,115.654 75.874 C 116.495 75.409,123.101 71.579,123.500 71.324 C 123.638 71.236,123.938 71.073,124.167 70.961 C 124.396 70.848,124.622 70.705,124.668 70.642 C 124.715 70.578,125.165 70.321,125.668 70.070 C 126.172 69.820,126.621 69.568,126.667 69.512 C 126.712 69.456,126.938 69.318,127.167 69.206 C 127.396 69.094,127.696 68.930,127.833 68.841 C 128.204 68.601,134.794 64.782,135.680 64.293 C 136.958 63.588,137.247 63.420,137.333 63.333 C 137.379 63.288,137.717 63.093,138.083 62.901 C 138.450 62.709,139.500 62.114,140.417 61.579 C 144.763 59.045,146.024 58.333,146.173 58.333 C 146.261 58.333,146.333 58.267,146.333 58.186 C 146.333 58.105,146.465 57.997,146.625 57.946 C 146.785 57.896,147.104 57.739,147.333 57.598 C 147.563 57.457,149.512 56.327,151.667 55.086 C 153.821 53.844,155.696 52.754,155.833 52.663 C 155.971 52.572,156.271 52.406,156.500 52.294 C 156.729 52.182,156.954 52.042,157.000 51.984 C 157.046 51.925,157.496 51.670,158.000 51.417 C 158.504 51.163,158.954 50.906,159.000 50.844 C 159.046 50.782,159.327 50.632,159.625 50.512 C 159.923 50.391,160.167 50.227,160.167 50.146 C 160.167 50.066,160.246 50.000,160.343 50.000 C 160.441 50.000,162.034 49.112,163.885 48.026 C 165.736 46.940,167.587 45.863,168.000 45.633 C 168.412 45.402,169.021 45.060,169.352 44.873 C 169.683 44.685,170.133 44.431,170.352 44.307 C 170.571 44.184,170.787 44.046,170.833 44.000 C 170.879 43.954,171.254 43.735,171.667 43.513 C 172.079 43.291,173.767 42.323,175.417 41.362 C 177.067 40.401,178.717 39.458,179.083 39.266 C 179.450 39.074,179.787 38.879,179.833 38.833 C 179.924 38.743,180.300 38.525,181.583 37.819 C 182.042 37.567,183.429 36.765,184.667 36.037 C 185.904 35.309,186.937 34.730,186.963 34.750 C 186.988 34.770,186.570 35.529,186.033 36.435 M215.833 36.538 C 217.162 37.316,218.588 38.139,219.000 38.369 C 219.695 38.756,220.112 38.992,221.542 39.810 C 222.398 40.300,225.238 41.943,227.383 43.190 C 228.465 43.819,229.421 44.333,229.508 44.333 C 229.595 44.333,229.667 44.390,229.667 44.459 C 229.667 44.529,229.910 44.691,230.208 44.821 C 230.506 44.951,230.787 45.100,230.833 45.153 C 230.919 45.252,231.154 45.391,232.487 46.126 C 233.373 46.615,239.963 50.435,240.333 50.674 C 240.471 50.763,240.771 50.927,241.000 51.039 C 241.229 51.152,241.457 51.298,241.506 51.365 C 241.555 51.432,241.855 51.604,242.173 51.746 C 242.758 52.008,243.348 52.345,243.500 52.503 C 243.546 52.551,243.771 52.682,244.000 52.794 C 244.229 52.906,244.529 53.069,244.667 53.157 C 245.034 53.392,251.622 57.215,252.500 57.703 C 252.912 57.932,253.531 58.280,253.875 58.476 C 254.219 58.673,254.781 58.991,255.125 59.185 C 255.469 59.378,256.875 60.193,258.250 60.996 C 259.625 61.799,261.093 62.645,261.513 62.875 C 262.820 63.594,263.081 63.747,263.167 63.847 C 263.212 63.900,263.494 64.049,263.792 64.179 C 264.090 64.309,264.333 64.471,264.333 64.541 C 264.333 64.610,264.408 64.667,264.499 64.667 C 264.591 64.667,266.634 65.816,269.041 67.221 C 271.448 68.626,273.529 69.830,273.667 69.896 C 273.804 69.962,274.217 70.195,274.583 70.414 C 274.950 70.632,275.644 71.020,276.125 71.274 C 276.606 71.528,277.000 71.796,277.000 71.868 C 277.000 71.941,277.081 72.000,277.180 72.000 C 277.278 72.000,278.947 72.929,280.888 74.066 C 282.829 75.202,284.698 76.289,285.042 76.482 C 285.385 76.675,285.929 76.983,286.250 77.167 C 286.571 77.350,287.096 77.650,287.417 77.833 C 287.737 78.017,288.244 78.305,288.542 78.474 C 288.840 78.643,290.471 79.593,292.167 80.583 C 293.862 81.574,295.550 82.542,295.917 82.734 C 296.283 82.926,296.621 83.121,296.667 83.167 C 296.756 83.256,297.051 83.428,298.505 84.237 C 301.681 86.006,301.576 85.821,299.792 86.498 C 299.035 86.785,298.192 87.118,297.917 87.239 C 297.642 87.359,297.042 87.593,296.583 87.758 C 296.125 87.922,295.675 88.110,295.583 88.174 C 295.492 88.238,295.117 88.384,294.750 88.500 C 294.383 88.616,294.008 88.763,293.917 88.828 C 293.825 88.893,293.262 89.119,292.667 89.332 C 292.071 89.544,291.283 89.843,290.917 89.996 C 290.550 90.149,289.912 90.410,289.500 90.576 C 289.087 90.743,288.525 90.970,288.250 91.082 C 287.975 91.193,287.262 91.458,286.667 91.669 C 286.071 91.881,285.508 92.108,285.417 92.173 C 285.325 92.239,285.063 92.348,284.833 92.415 C 284.604 92.482,284.192 92.637,283.917 92.759 C 283.642 92.882,282.704 93.258,281.833 93.595 C 280.962 93.932,279.950 94.340,279.583 94.502 C 279.217 94.663,278.384 94.986,277.733 95.219 C 276.656 95.603,275.233 96.169,273.917 96.736 C 273.642 96.854,272.929 97.124,272.333 97.336 C 271.737 97.548,271.175 97.774,271.083 97.839 C 270.992 97.904,270.617 98.051,270.250 98.167 C 269.883 98.282,269.508 98.430,269.417 98.495 C 269.325 98.559,268.762 98.790,268.167 99.007 C 267.571 99.224,266.896 99.498,266.667 99.616 C 266.438 99.734,266.166 99.832,266.062 99.832 C 265.959 99.833,265.434 100.029,264.896 100.268 C 264.357 100.506,263.392 100.890,262.750 101.120 C 261.702 101.495,260.703 101.901,259.750 102.338 C 259.567 102.422,258.892 102.681,258.250 102.913 C 257.608 103.146,256.933 103.406,256.750 103.491 C 256.066 103.808,253.370 104.833,253.219 104.833 C 253.132 104.833,252.542 103.926,251.906 102.816 C 251.270 101.706,250.571 100.488,250.351 100.108 C 249.736 99.041,249.325 98.318,248.866 97.500 C 248.635 97.087,247.558 95.230,246.473 93.373 C 245.388 91.516,244.500 89.922,244.500 89.831 C 244.500 89.741,244.439 89.667,244.364 89.667 C 244.290 89.667,244.126 89.404,244.000 89.083 C 243.874 88.763,243.710 88.500,243.636 88.500 C 243.561 88.500,243.500 88.428,243.500 88.341 C 243.500 88.253,242.592 86.622,241.483 84.716 C 240.374 82.810,239.297 80.950,239.090 80.583 C 238.883 80.217,238.555 79.654,238.361 79.333 C 238.168 79.012,237.870 78.487,237.699 78.167 C 237.066 76.976,236.446 75.914,236.338 75.833 C 236.276 75.787,236.179 75.624,236.122 75.469 C 236.065 75.315,234.990 73.440,233.732 71.302 C 232.474 69.165,231.266 67.079,231.049 66.667 C 230.831 66.254,230.516 65.692,230.350 65.417 C 230.183 65.142,229.897 64.654,229.714 64.333 C 229.530 64.012,228.858 62.850,228.220 61.750 C 227.581 60.650,226.633 59.016,226.113 58.119 C 225.592 57.222,225.167 56.416,225.167 56.327 C 225.167 56.239,225.110 56.167,225.041 56.167 C 224.971 56.167,224.809 55.923,224.679 55.625 C 224.549 55.327,224.400 55.046,224.347 55.000 C 224.248 54.915,224.111 54.682,223.374 53.346 C 222.896 52.481,219.745 47.049,219.499 46.667 C 219.411 46.529,219.201 46.154,219.034 45.833 C 218.634 45.065,218.270 44.437,218.167 44.333 C 217.993 44.159,217.658 43.560,217.399 42.958 C 217.251 42.615,217.064 42.333,216.982 42.333 C 216.900 42.333,216.833 42.253,216.833 42.154 C 216.833 42.055,215.896 40.375,214.750 38.420 C 212.501 34.584,212.482 34.544,213.042 34.892 C 213.248 35.020,214.504 35.761,215.833 36.538 M199.580 104.023 C 199.513 104.240,199.237 104.904,198.965 105.500 C 198.417 106.705,197.878 107.910,197.661 108.417 C 197.582 108.600,197.356 109.125,197.157 109.583 C 196.958 110.042,196.650 110.754,196.472 111.167 C 196.294 111.579,196.083 112.067,196.002 112.250 C 195.922 112.433,195.743 112.846,195.606 113.167 C 195.468 113.487,195.050 114.414,194.678 115.225 C 194.305 116.036,194.000 116.737,194.000 116.783 C 194.000 116.871,193.889 117.122,192.929 119.212 C 192.601 119.924,192.333 120.548,192.333 120.598 C 192.333 120.647,192.138 121.114,191.899 121.636 C 191.661 122.157,190.718 124.308,189.804 126.417 C 188.890 128.525,187.923 130.709,187.655 131.270 C 187.386 131.832,187.167 132.345,187.167 132.412 C 187.167 132.478,187.060 132.769,186.929 133.058 C 186.041 135.017,185.955 135.308,185.883 136.578 C 185.813 137.810,185.916 138.930,186.595 144.333 C 187.399 150.735,188.239 159.032,188.821 166.333 C 188.913 167.479,189.068 169.279,189.167 170.333 C 189.365 172.449,189.739 178.540,190.087 185.333 C 190.304 189.562,190.463 193.753,190.834 205.083 C 191.053 211.748,191.053 230.839,190.835 237.917 C 190.419 251.380,190.299 255.030,190.217 256.708 L 190.129 258.500 185.731 258.500 C 183.312 258.500,181.334 258.556,181.334 258.625 C 181.334 258.694,181.904 259.162,182.600 259.667 C 183.296 260.171,183.966 260.677,184.088 260.792 C 184.412 261.096,215.252 261.096,215.584 260.792 C 215.708 260.677,216.375 260.171,217.064 259.667 C 217.754 259.162,218.322 258.694,218.326 258.625 C 218.330 258.556,216.353 258.500,213.932 258.500 L 209.531 258.500 209.432 256.958 C 208.747 246.334,208.465 209.220,208.991 199.000 C 209.083 197.213,209.235 193.350,209.329 190.417 C 209.424 187.483,209.577 184.071,209.670 182.833 C 209.763 181.596,209.912 179.308,210.002 177.750 C 210.625 166.884,211.859 153.768,213.341 142.250 C 214.044 136.787,213.993 135.783,212.890 133.363 C 212.584 132.692,212.333 132.113,212.333 132.076 C 212.333 131.990,211.603 130.363,210.985 129.070 C 210.718 128.513,210.500 128.002,210.500 127.934 C 210.500 127.867,210.305 127.386,210.066 126.864 C 209.827 126.343,208.885 124.192,207.972 122.083 C 207.060 119.975,206.136 117.875,205.919 117.417 C 205.312 116.132,204.833 115.029,204.833 114.913 C 204.833 114.855,204.576 114.269,204.261 113.612 C 203.947 112.955,203.542 112.042,203.361 111.583 C 203.181 111.125,202.809 110.263,202.534 109.667 C 202.260 109.071,201.874 108.208,201.675 107.750 C 201.477 107.292,201.249 106.767,201.169 106.583 C 201.089 106.400,200.818 105.763,200.567 105.167 C 199.974 103.760,199.743 103.492,199.580 104.023 M194.692 127.596 C 196.167 128.582,197.016 129.800,197.470 131.583 C 197.690 132.450,198.783 136.344,199.106 137.417 C 199.244 137.875,199.450 138.585,199.563 138.994 C 199.794 139.830,199.912 139.750,200.257 138.527 C 201.454 134.272,201.732 133.260,201.983 132.247 C 202.521 130.072,204.202 127.500,205.085 127.500 C 205.206 127.500,205.331 127.427,205.361 127.338 C 205.603 126.634,206.210 127.130,206.682 128.417 C 206.951 129.150,207.274 129.975,207.399 130.250 C 207.525 130.525,207.871 131.425,208.168 132.250 C 208.465 133.075,208.841 134.050,209.002 134.417 C 209.164 134.783,209.507 135.708,209.764 136.472 L 210.231 137.860 209.934 140.138 C 209.645 142.364,209.241 145.396,208.742 149.083 C 208.398 151.634,207.480 159.898,207.076 164.083 C 206.788 167.075,206.237 173.944,206.007 177.417 C 205.916 178.792,205.764 180.929,205.670 182.167 C 205.576 183.404,205.425 186.404,205.334 188.833 C 205.242 191.262,205.074 194.938,204.959 197.000 C 204.678 202.050,204.677 235.664,204.958 240.500 C 205.431 248.631,205.574 255.831,205.268 256.135 C 204.755 256.647,202.521 256.516,201.751 255.929 C 201.154 255.474,200.167 253.747,200.167 253.157 C 200.166 252.466,199.718 252.258,199.599 252.894 C 199.186 255.094,197.850 256.407,196.019 256.411 C 194.050 256.416,193.967 256.328,194.075 254.365 C 195.783 223.464,195.167 190.610,192.337 161.750 C 191.704 155.287,190.276 143.766,189.673 140.250 C 189.331 138.251,189.479 137.115,190.327 135.250 C 190.411 135.067,190.530 134.729,190.593 134.500 C 190.699 134.112,191.025 133.318,191.595 132.058 C 191.726 131.769,191.833 131.450,191.833 131.348 C 191.833 131.246,191.906 131.032,191.995 130.873 C 192.084 130.714,192.471 129.777,192.856 128.792 C 193.659 126.737,193.531 126.820,194.692 127.596 M171.492 211.792 C 171.487 211.860,171.374 212.667,171.240 213.583 C 171.006 215.181,170.670 217.575,170.369 219.792 L 170.228 220.833 178.447 220.833 L 186.667 220.833 186.665 216.875 C 186.664 214.698,186.617 212.635,186.560 212.292 L 186.456 211.667 178.978 211.667 C 174.865 211.667,171.496 211.723,171.492 211.792 M213.167 216.250 L 213.167 220.833 221.250 220.833 L 229.333 220.833 229.328 220.458 C 229.325 220.252,229.248 219.558,229.157 218.917 C 229.066 218.275,228.835 216.625,228.645 215.250 C 228.455 213.875,228.261 212.506,228.215 212.208 L 228.130 211.667 220.648 211.667 L 213.167 211.667 213.167 216.250 M174.041 259.625 C 172.063 262.502,172.337 268.567,174.576 271.476 C 175.793 273.056,178.264 275.000,179.059 275.000 C 179.193 275.000,179.233 274.533,179.193 273.425 C 179.123 271.519,179.541 270.368,180.591 269.566 L 181.223 269.083 185.425 269.034 C 189.021 268.991,189.664 269.021,189.882 269.239 C 190.731 270.088,192.373 273.012,193.163 275.083 C 193.373 275.633,193.607 276.233,193.683 276.417 C 194.743 278.973,195.667 286.022,195.667 291.560 C 195.667 296.547,194.956 299.801,193.522 301.375 C 192.951 302.002,193.026 302.040,191.050 300.125 L 189.287 298.417 189.377 300.116 C 189.688 305.956,196.316 307.849,197.433 302.417 C 198.065 299.344,198.387 297.794,198.612 296.750 C 198.750 296.108,199.011 294.871,199.191 294.000 C 199.371 293.129,199.573 292.154,199.639 291.833 C 199.788 291.119,199.913 291.358,200.250 293.000 C 200.721 295.290,201.210 297.624,201.420 298.583 C 201.540 299.133,201.755 300.146,201.896 300.833 C 202.581 304.156,203.043 304.986,204.410 305.354 C 207.552 306.200,210.443 303.447,210.299 299.746 L 210.250 298.495 208.535 300.164 C 206.578 302.068,206.709 302.009,206.068 301.286 C 203.259 298.115,203.322 282.776,206.174 275.917 C 206.250 275.733,206.364 275.396,206.428 275.167 C 206.587 274.594,207.887 271.930,208.042 271.861 C 208.110 271.831,208.167 271.731,208.167 271.640 C 208.167 271.549,208.555 270.918,209.031 270.237 L 209.895 269.000 213.964 269.000 C 218.393 269.000,218.716 269.056,219.531 269.971 C 220.395 270.940,220.854 273.314,220.432 274.625 C 219.904 276.263,224.223 273.000,225.450 270.833 C 227.318 267.533,227.502 262.967,225.883 260.069 C 225.331 259.082,225.253 259.063,224.874 259.829 C 224.026 261.543,222.609 262.782,220.667 263.511 L 219.583 263.917 199.833 263.917 C 181.418 263.917,180.029 263.897,179.283 263.624 C 177.217 262.869,175.716 261.648,174.922 260.079 C 174.382 259.013,174.441 259.043,174.041 259.625 M199.106 303.806 C 198.753 304.784,198.360 305.820,198.233 306.109 C 198.105 306.397,198.000 306.721,198.000 306.828 C 198.000 306.934,197.855 307.373,197.679 307.802 C 197.502 308.232,197.129 309.222,196.849 310.003 L 196.340 311.422 196.851 312.919 C 197.132 313.743,197.459 314.642,197.578 314.917 C 197.696 315.192,197.998 316.017,198.247 316.750 C 198.497 317.483,198.806 318.320,198.934 318.609 C 199.062 318.897,199.167 319.217,199.167 319.319 C 199.167 319.421,199.236 319.635,199.321 319.794 C 199.406 319.953,199.519 320.221,199.571 320.389 C 199.755 320.977,200.077 320.546,200.578 319.043 C 200.856 318.209,201.140 317.471,201.208 317.402 C 201.277 317.334,201.333 317.170,201.333 317.039 C 201.333 316.908,201.437 316.564,201.563 316.275 C 201.690 315.986,201.996 315.150,202.244 314.417 C 202.492 313.683,202.762 312.933,202.844 312.750 C 203.321 311.682,203.325 311.534,202.901 310.300 C 202.671 309.631,202.374 308.847,202.241 308.558 C 202.109 308.269,202.000 307.943,202.000 307.833 C 202.000 307.724,201.895 307.397,201.767 307.109 C 201.639 306.820,201.177 305.587,200.742 304.370 C 199.766 301.639,199.873 301.676,199.106 303.806 " stroke="none" fill="#fcfcfc" fill-rule="evenodd"></path><path id="path1" d="M16.179 50.718 C 15.200 53.292,15.192 65.876,16.167 69.667 C 16.249 69.987,16.519 71.150,16.766 72.250 C 17.334 74.780,18.537 78.541,19.458 80.667 C 20.877 83.942,22.655 87.453,23.769 89.182 C 24.030 89.586,24.320 90.049,24.413 90.210 C 24.794 90.865,26.249 93.096,26.410 93.271 C 26.505 93.375,26.696 93.624,26.833 93.826 C 30.323 98.944,35.415 104.499,41.894 110.252 C 41.998 110.345,42.533 110.795,43.083 111.252 C 43.633 111.709,44.121 112.123,44.167 112.172 C 44.212 112.221,45.150 112.968,46.250 113.833 C 47.350 114.697,48.325 115.467,48.417 115.543 C 48.747 115.819,50.288 116.937,51.802 118.000 C 52.651 118.596,54.242 119.721,55.337 120.500 C 56.432 121.279,57.873 122.300,58.539 122.770 C 59.888 123.720,70.565 131.228,72.466 132.563 C 73.135 133.032,74.051 133.679,74.502 134.000 C 74.953 134.321,75.702 134.846,76.167 135.167 C 76.632 135.487,77.532 136.125,78.167 136.583 C 78.801 137.042,79.701 137.679,80.167 138.000 C 80.632 138.321,81.532 138.958,82.167 139.417 C 82.801 139.875,83.680 140.499,84.119 140.802 C 84.815 141.284,87.965 143.511,89.417 144.548 C 89.692 144.745,90.892 145.587,92.083 146.421 C 93.275 147.254,94.644 148.213,95.125 148.551 C 97.429 150.171,97.817 150.441,98.750 151.073 C 99.300 151.445,99.787 151.787,99.833 151.834 C 99.879 151.880,100.254 152.142,100.667 152.417 C 101.490 152.965,101.566 153.021,102.151 153.503 C 102.371 153.685,102.603 153.833,102.667 153.833 C 102.730 153.833,102.963 153.982,103.183 154.164 C 103.767 154.645,103.843 154.701,104.667 155.250 C 105.490 155.799,105.567 155.855,106.151 156.336 C 106.371 156.518,106.603 156.667,106.667 156.667 C 106.730 156.667,106.963 156.815,107.183 156.997 C 107.767 157.479,107.843 157.535,108.667 158.083 C 109.079 158.358,109.454 158.620,109.500 158.667 C 109.546 158.713,109.921 158.976,110.333 159.250 C 110.746 159.525,111.174 159.825,111.286 159.917 C 111.711 160.266,111.939 160.432,112.667 160.916 C 113.079 161.191,113.454 161.454,113.500 161.500 C 113.546 161.546,113.921 161.809,114.333 162.084 C 114.746 162.359,115.172 162.658,115.280 162.750 C 115.388 162.842,115.838 163.165,116.280 163.469 C 116.722 163.773,118.358 164.912,119.917 166.000 C 121.475 167.088,123.111 168.227,123.553 168.531 C 123.995 168.835,124.445 169.158,124.553 169.250 C 124.661 169.342,125.087 169.641,125.500 169.916 C 125.912 170.191,126.287 170.454,126.333 170.500 C 126.379 170.546,126.754 170.809,127.167 171.084 C 127.579 171.359,127.992 171.642,128.083 171.713 C 128.175 171.785,128.662 172.139,129.167 172.500 C 129.671 172.861,130.158 173.215,130.250 173.287 C 130.342 173.358,130.754 173.641,131.167 173.916 C 131.579 174.191,131.954 174.454,132.000 174.500 C 132.046 174.546,132.421 174.809,132.833 175.084 C 133.246 175.359,133.674 175.658,133.786 175.750 C 134.211 176.100,134.439 176.265,135.167 176.750 C 135.579 177.024,135.954 177.287,136.000 177.333 C 136.046 177.380,136.421 177.642,136.833 177.917 C 137.629 178.447,137.714 178.509,138.273 178.961 C 138.469 179.120,138.936 179.438,139.310 179.667 C 139.685 179.896,139.993 180.136,139.996 180.200 C 140.000 180.327,138.811 179.633,135.417 177.530 C 134.225 176.791,132.500 175.733,131.583 175.179 C 130.667 174.624,129.129 173.685,128.167 173.092 C 127.204 172.498,125.522 171.466,124.428 170.798 C 123.334 170.130,121.708 169.133,120.814 168.583 C 119.921 168.033,118.378 167.088,117.387 166.482 C 116.395 165.876,114.758 164.872,113.750 164.250 C 112.742 163.628,111.695 162.998,111.424 162.851 C 111.153 162.704,110.841 162.508,110.731 162.417 C 110.620 162.325,109.725 161.762,108.741 161.167 C 106.332 159.708,102.532 157.382,101.000 156.428 C 100.313 156.000,98.684 154.997,97.381 154.200 C 94.110 152.198,94.010 152.137,93.226 151.667 C 92.843 151.438,91.980 150.912,91.307 150.500 C 90.634 150.087,90.008 149.720,89.917 149.683 C 89.825 149.647,89.712 149.564,89.667 149.500 C 89.592 149.396,87.556 148.162,86.366 147.500 C 86.119 147.362,85.879 147.209,85.833 147.160 C 85.669 146.982,82.630 145.167,82.497 145.167 C 82.422 145.167,82.336 145.109,82.306 145.039 C 82.275 144.969,81.800 144.641,81.250 144.310 C 80.700 143.979,79.275 143.113,78.083 142.385 C 76.892 141.658,75.729 140.955,75.500 140.823 C 75.271 140.691,75.046 140.543,75.000 140.495 C 74.900 140.388,72.487 138.945,72.250 138.850 C 72.158 138.813,72.046 138.731,72.000 138.668 C 71.954 138.604,71.172 138.109,70.262 137.568 C 69.352 137.026,68.364 136.433,68.067 136.250 C 65.790 134.847,65.062 134.408,64.917 134.350 C 64.825 134.313,64.712 134.232,64.667 134.169 C 64.621 134.106,64.208 133.841,63.750 133.579 C 63.292 133.318,62.429 132.794,61.833 132.414 C 61.237 132.034,60.637 131.673,60.500 131.612 C 60.362 131.552,59.663 131.126,58.945 130.668 C 58.228 130.209,57.572 129.833,57.487 129.833 C 57.402 129.833,57.333 129.758,57.333 129.667 C 57.333 129.575,57.264 129.500,57.180 129.500 C 57.095 129.500,56.439 129.125,55.721 128.666 C 55.004 128.208,54.231 127.753,54.003 127.656 C 53.776 127.559,53.551 127.420,53.503 127.348 C 53.423 127.227,51.065 125.796,50.323 125.419 C 50.145 125.328,50.000 125.197,50.000 125.127 C 50.000 125.057,49.926 125.000,49.835 125.000 C 49.744 125.000,49.144 124.662,48.500 124.250 C 47.856 123.837,47.256 123.500,47.165 123.500 C 47.074 123.500,47.000 123.443,47.000 123.373 C 47.000 123.303,46.856 123.172,46.679 123.081 C 46.376 122.926,43.793 121.392,43.094 120.953 C 42.917 120.841,42.149 120.356,41.388 119.875 C 40.626 119.394,39.927 119.000,39.835 119.000 C 39.742 119.000,39.667 118.934,39.667 118.853 C 39.667 118.772,39.535 118.660,39.375 118.604 C 39.215 118.549,38.671 118.243,38.167 117.925 C 37.662 117.607,37.183 117.343,37.101 117.340 C 36.753 117.325,37.764 125.398,38.573 129.083 C 38.806 130.146,38.944 130.733,39.494 133.000 C 41.105 139.642,44.958 148.123,48.541 152.917 C 49.429 154.104,50.598 155.624,50.738 155.772 C 50.836 155.876,51.179 156.285,51.500 156.680 C 52.876 158.378,55.819 161.152,58.125 162.924 C 60.176 164.500,59.890 164.296,61.250 165.164 C 61.892 165.574,62.454 165.949,62.500 165.996 C 62.652 166.155,63.557 166.631,66.167 167.924 C 68.927 169.292,68.860 169.262,70.500 169.920 C 71.096 170.159,71.820 170.462,72.109 170.594 C 72.397 170.726,72.683 170.833,72.743 170.833 C 72.842 170.833,73.575 171.143,74.942 171.762 C 75.231 171.893,75.516 172.000,75.576 172.000 C 75.670 172.000,76.291 172.258,77.583 172.833 C 78.876 173.409,79.496 173.667,79.591 173.667 C 79.651 173.667,79.936 173.776,80.225 173.909 C 80.514 174.042,81.575 174.484,82.583 174.892 C 83.592 175.299,85.279 175.982,86.333 176.408 C 87.388 176.834,88.486 177.292,88.775 177.425 C 89.064 177.558,89.349 177.667,89.409 177.667 C 89.504 177.667,90.124 177.924,91.417 178.500 C 92.690 179.067,93.329 179.333,93.417 179.333 C 93.510 179.333,94.265 179.653,95.609 180.262 C 95.897 180.393,96.186 180.500,96.250 180.500 C 96.314 180.500,96.603 180.607,96.891 180.739 C 97.180 180.870,98.167 181.286,99.083 181.664 C 100.000 182.042,101.275 182.569,101.917 182.837 C 103.856 183.645,108.331 185.498,109.750 186.080 C 110.483 186.381,113.033 187.428,115.417 188.405 C 117.800 189.383,119.986 190.292,120.275 190.425 C 120.564 190.558,120.849 190.667,120.909 190.667 C 121.009 190.667,121.742 190.976,123.109 191.595 C 123.397 191.726,123.683 191.833,123.743 191.833 C 123.842 191.833,124.575 192.143,125.942 192.762 C 126.231 192.893,126.516 193.000,126.576 193.000 C 126.670 193.000,127.427 193.315,128.583 193.835 C 128.767 193.917,130.342 194.553,132.083 195.247 C 133.825 195.940,135.400 196.577,135.583 196.662 C 136.504 197.086,137.493 197.500,137.583 197.500 C 137.677 197.500,138.431 197.820,139.775 198.429 C 140.064 198.560,140.349 198.667,140.409 198.667 C 140.469 198.667,140.870 198.822,141.301 199.012 C 142.636 199.601,143.051 199.775,144.083 200.177 C 145.189 200.608,145.547 200.833,145.127 200.833 C 144.976 200.833,144.813 200.768,144.763 200.688 C 144.714 200.608,144.434 200.495,144.142 200.437 C 143.646 200.338,141.861 199.803,138.250 198.673 C 137.425 198.415,136.188 198.038,135.500 197.836 C 134.144 197.438,132.837 197.032,131.214 196.504 C 130.644 196.318,130.061 196.167,129.920 196.167 C 129.778 196.167,129.532 196.097,129.373 196.011 C 129.103 195.867,126.949 195.194,124.000 194.335 C 123.313 194.135,122.450 193.869,122.083 193.746 C 121.717 193.622,120.854 193.361,120.167 193.165 C 119.479 192.970,118.767 192.743,118.583 192.662 C 118.400 192.580,117.912 192.431,117.500 192.329 C 117.087 192.228,116.225 191.970,115.583 191.757 C 114.942 191.544,113.854 191.204,113.167 191.002 C 110.657 190.263,104.607 188.416,103.583 188.076 C 103.217 187.954,102.354 187.693,101.667 187.496 C 100.979 187.299,100.117 187.036,99.750 186.912 C 99.383 186.789,98.521 186.526,97.833 186.328 C 97.146 186.130,96.058 185.794,95.417 185.581 C 94.775 185.368,93.912 185.110,93.500 185.007 C 93.087 184.904,92.600 184.757,92.417 184.681 C 92.106 184.551,91.363 184.326,88.417 183.465 C 87.775 183.278,87.100 183.065,86.917 182.991 C 86.733 182.918,85.908 182.660,85.083 182.419 C 84.258 182.177,83.396 181.914,83.167 181.835 C 82.938 181.756,82.188 181.529,81.500 181.331 C 79.637 180.795,76.463 179.812,76.083 179.653 C 75.900 179.576,75.412 179.430,75.000 179.326 C 74.587 179.223,73.575 178.926,72.750 178.665 C 71.133 178.154,67.717 177.106,66.500 176.748 C 66.087 176.627,64.775 176.221,63.583 175.847 C 62.391 175.473,61.300 175.167,61.158 175.167 C 61.016 175.167,60.829 175.102,60.742 175.023 C 60.655 174.944,60.283 174.799,59.917 174.702 C 59.174 174.504,58.157 174.203,56.417 173.667 C 55.775 173.469,54.913 173.206,54.500 173.083 C 54.087 172.960,53.225 172.698,52.583 172.500 C 51.942 172.302,51.050 172.038,50.601 171.912 L 49.786 171.684 49.882 173.717 C 50.045 177.166,51.124 180.997,52.901 184.442 C 53.540 185.680,54.030 186.535,54.175 186.667 C 54.226 186.713,54.429 187.016,54.626 187.341 C 54.824 187.666,55.120 188.091,55.284 188.286 C 55.449 188.482,55.771 188.886,56.000 189.184 C 57.235 190.793,59.910 193.413,61.833 194.898 C 67.489 199.263,74.576 201.996,83.500 203.253 C 84.462 203.388,85.925 203.609,86.750 203.743 C 87.575 203.878,89.225 204.138,90.417 204.321 C 92.518 204.645,94.399 204.944,97.333 205.423 C 98.112 205.550,99.725 205.804,100.917 205.986 C 102.108 206.168,103.796 206.431,104.667 206.570 C 105.537 206.709,107.263 206.979,108.500 207.170 C 110.757 207.518,112.693 207.826,115.333 208.257 C 116.112 208.384,117.725 208.638,118.917 208.821 C 120.108 209.005,121.796 209.268,122.667 209.407 C 124.297 209.668,127.673 210.197,130.167 210.584 C 130.946 210.705,132.333 210.925,133.250 211.074 C 134.167 211.223,135.854 211.490,137.000 211.667 C 140.322 212.179,142.188 212.478,143.083 212.642 L 143.917 212.794 142.917 212.810 C 142.367 212.818,140.604 212.750,139.000 212.658 C 134.419 212.396,127.494 212.028,120.333 211.666 C 116.712 211.483,111.688 211.222,109.167 211.085 C 106.646 210.949,101.583 210.684,97.917 210.498 C 94.250 210.311,89.225 210.049,86.750 209.916 C 84.275 209.784,80.075 209.564,77.417 209.430 C 74.758 209.295,72.171 209.145,71.667 209.097 C 71.162 209.049,69.832 208.968,68.711 208.917 L 66.671 208.824 66.839 209.287 C 67.762 211.835,71.396 218.265,72.328 219.000 C 72.386 219.046,72.856 219.608,73.372 220.250 C 75.714 223.161,82.552 228.833,83.719 228.833 C 83.786 228.833,84.120 229.008,84.462 229.222 C 85.171 229.665,88.821 231.167,89.189 231.167 C 89.324 231.167,89.505 231.234,89.592 231.316 C 89.679 231.398,90.087 231.543,90.500 231.638 C 90.912 231.734,91.921 231.967,92.742 232.156 C 95.763 232.853,102.296 233.037,105.083 232.504 C 105.542 232.416,106.592 232.222,107.417 232.072 C 108.891 231.805,109.327 231.728,113.500 231.000 C 114.646 230.800,116.146 230.538,116.833 230.417 C 117.521 230.296,118.983 230.043,120.083 229.854 C 121.183 229.666,122.758 229.389,123.583 229.239 C 126.416 228.725,127.587 228.518,129.583 228.179 C 130.683 227.992,132.221 227.721,133.000 227.578 C 133.779 227.434,135.279 227.171,136.333 226.992 C 137.387 226.813,138.850 226.557,139.583 226.423 C 145.516 225.340,145.699 225.310,145.795 225.406 C 145.842 225.453,145.777 225.527,145.649 225.571 C 145.521 225.614,144.817 225.847,144.083 226.088 C 143.350 226.329,142.514 226.633,142.225 226.763 C 141.936 226.893,141.610 227.000,141.500 227.000 C 141.390 227.000,141.064 227.104,140.775 227.231 C 140.261 227.456,138.949 227.928,134.917 229.337 C 133.817 229.721,132.654 230.136,132.333 230.258 C 132.012 230.381,131.000 230.744,130.083 231.067 C 129.167 231.389,127.479 231.989,126.333 232.401 C 125.188 232.813,124.043 233.199,123.790 233.260 C 123.537 233.321,123.289 233.437,123.239 233.518 C 123.188 233.600,123.032 233.667,122.890 233.667 C 122.749 233.667,122.397 233.772,122.109 233.901 C 121.820 234.029,120.983 234.331,120.250 234.572 C 119.517 234.813,118.767 235.075,118.583 235.154 C 118.400 235.234,117.650 235.501,116.917 235.747 C 116.183 235.994,115.433 236.255,115.250 236.329 C 115.067 236.402,114.017 236.777,112.917 237.163 C 111.817 237.548,110.767 237.928,110.583 238.008 C 110.400 238.087,109.650 238.348,108.917 238.589 C 108.183 238.830,107.347 239.133,107.058 239.263 C 106.769 239.393,106.443 239.500,106.333 239.500 C 106.224 239.500,105.897 239.604,105.609 239.732 C 105.094 239.960,102.730 240.810,99.417 241.958 C 98.500 242.276,97.487 242.636,97.167 242.758 C 96.846 242.881,95.796 243.256,94.833 243.593 C 93.871 243.929,92.933 244.264,92.750 244.337 C 92.567 244.410,91.629 244.743,90.667 245.076 C 87.183 246.284,87.199 246.122,90.417 247.662 C 93.067 248.930,93.500 249.120,94.043 249.256 C 94.296 249.319,94.544 249.437,94.595 249.518 C 94.645 249.600,94.802 249.667,94.943 249.667 C 95.084 249.667,95.436 249.773,95.725 249.902 C 96.504 250.252,98.805 250.902,101.670 251.584 C 106.115 252.641,115.526 253.020,118.583 252.265 C 119.955 251.927,123.131 250.937,124.083 250.551 C 125.048 250.160,127.168 249.203,127.750 248.895 C 130.568 247.408,131.360 246.962,132.833 246.034 C 133.429 245.659,134.254 245.148,134.667 244.898 C 135.439 244.430,139.528 241.576,140.417 240.884 C 140.692 240.670,140.992 240.437,141.083 240.365 C 143.982 238.113,145.685 236.729,147.348 235.273 C 147.677 234.986,148.127 234.598,148.348 234.412 C 148.569 234.227,149.086 233.777,149.496 233.412 L 150.242 232.750 149.675 233.500 C 149.364 233.912,149.028 234.325,148.929 234.417 C 148.831 234.508,148.300 235.146,147.750 235.833 C 147.201 236.521,146.713 237.121,146.667 237.167 C 146.621 237.213,146.096 237.850,145.500 238.583 C 144.904 239.317,144.290 240.067,144.134 240.250 C 143.838 240.599,141.029 244.025,139.282 246.167 C 138.721 246.854,138.222 247.454,138.172 247.500 C 138.123 247.546,137.637 248.146,137.092 248.833 C 136.548 249.521,136.020 250.158,135.919 250.250 C 135.819 250.342,135.514 250.714,135.243 251.078 C 134.972 251.441,134.637 251.859,134.500 252.006 C 134.362 252.153,133.650 253.009,132.917 253.908 C 132.183 254.808,131.471 255.678,131.333 255.841 C 130.943 256.306,130.642 256.674,129.773 257.750 C 129.329 258.300,128.693 259.080,128.358 259.483 C 128.024 259.886,127.487 260.532,127.167 260.919 C 126.846 261.306,126.435 261.802,126.253 262.020 C 126.072 262.238,125.562 262.867,125.120 263.417 C 123.813 265.043,123.265 265.709,123.000 265.993 C 122.862 266.140,122.528 266.559,122.257 266.922 C 121.986 267.286,121.682 267.658,121.582 267.750 C 121.482 267.842,121.105 268.292,120.745 268.750 C 120.385 269.208,120.014 269.668,119.920 269.772 C 118.287 271.584,118.287 271.588,120.069 272.258 C 125.572 274.329,131.216 274.749,134.583 273.340 C 134.767 273.263,135.179 273.102,135.500 272.983 C 137.445 272.257,139.106 270.865,142.123 267.430 C 142.600 266.886,145.333 262.983,145.333 262.845 C 145.333 262.762,145.390 262.669,145.460 262.639 C 145.575 262.589,147.174 259.986,147.850 258.750 C 148.000 258.475,148.463 257.675,148.878 256.973 C 149.513 255.899,152.836 249.282,154.178 246.419 L 154.568 245.587 154.855 247.585 C 155.601 252.789,156.818 257.840,158.609 263.167 C 159.299 265.220,159.556 265.882,160.262 267.442 C 160.393 267.731,160.500 268.011,160.500 268.064 C 160.500 268.160,161.588 270.556,162.132 271.659 C 162.289 271.976,162.773 272.863,163.208 273.631 C 163.644 274.398,164.000 275.095,164.000 275.180 C 164.000 275.264,164.075 275.333,164.167 275.333 C 164.258 275.333,164.333 275.409,164.333 275.501 C 164.333 275.700,166.231 278.627,166.980 279.583 C 167.267 279.950,167.670 280.473,167.876 280.745 C 171.559 285.622,176.998 290.003,182.381 292.426 C 183.412 292.890,183.264 292.676,180.869 290.242 C 178.500 287.833,178.083 287.372,177.247 286.250 C 176.973 285.884,176.614 285.434,176.448 285.250 C 176.282 285.067,175.795 284.392,175.365 283.750 C 174.935 283.108,174.543 282.546,174.493 282.500 C 173.926 281.977,169.667 273.807,169.667 273.243 C 169.667 273.183,169.559 272.897,169.427 272.609 C 168.717 271.056,167.143 265.878,166.581 263.250 C 166.424 262.517,166.195 261.467,166.071 260.917 C 165.753 259.505,165.350 256.578,164.808 251.750 C 164.504 249.047,164.496 234.634,164.797 231.583 C 164.914 230.392,165.080 228.629,165.166 227.667 C 165.758 221.048,166.724 213.813,167.915 207.083 C 168.061 206.258,168.323 204.758,168.497 203.750 C 168.937 201.208,169.278 199.384,169.479 198.500 C 170.099 195.768,170.030 190.518,169.340 188.108 C 168.690 185.832,167.157 182.548,166.490 182.000 C 166.434 181.954,166.320 181.792,166.236 181.639 C 165.737 180.731,163.465 178.497,161.430 176.917 C 161.077 176.642,160.704 176.339,160.602 176.244 C 160.500 176.149,160.117 175.849,159.750 175.577 C 159.383 175.306,158.997 175.008,158.892 174.917 C 158.787 174.825,158.487 174.585,158.226 174.384 C 157.964 174.182,157.250 173.620,156.640 173.134 C 156.029 172.648,154.904 171.763,154.140 171.167 C 152.558 169.935,152.497 169.887,151.566 169.135 C 151.190 168.832,150.628 168.384,150.316 168.141 C 148.414 166.655,145.032 163.957,144.750 163.702 C 144.567 163.535,144.155 163.217,143.836 162.994 C 143.516 162.770,143.139 162.474,142.997 162.336 C 142.855 162.197,142.450 161.858,142.096 161.583 C 141.743 161.308,141.370 161.006,141.269 160.911 C 141.167 160.816,140.786 160.516,140.422 160.244 C 140.059 159.972,139.644 159.637,139.500 159.500 C 139.356 159.362,138.949 159.025,138.595 158.750 C 138.241 158.475,137.673 158.025,137.333 157.750 C 136.994 157.475,136.432 157.025,136.085 156.750 C 135.737 156.475,135.330 156.137,135.179 156.000 C 135.029 155.862,134.608 155.526,134.245 155.253 C 133.574 154.748,133.116 154.385,132.773 154.083 C 132.669 153.992,132.021 153.467,131.333 152.917 C 130.646 152.367,130.046 151.871,130.000 151.814 C 129.954 151.757,129.317 151.237,128.583 150.659 C 127.850 150.081,127.212 149.562,127.167 149.505 C 127.121 149.449,126.333 148.808,125.417 148.080 C 124.500 147.353,123.712 146.710,123.667 146.651 C 123.621 146.592,123.096 146.158,122.500 145.687 C 121.126 144.600,120.175 143.819,119.837 143.500 C 119.691 143.362,119.277 143.028,118.917 142.756 C 118.557 142.484,118.140 142.147,117.992 142.006 C 117.650 141.682,116.174 140.446,115.991 140.330 C 115.803 140.211,114.504 139.142,114.173 138.833 C 114.025 138.696,113.347 138.133,112.667 137.583 C 111.986 137.033,111.307 136.471,111.159 136.333 C 111.010 136.196,110.524 135.783,110.079 135.417 C 109.213 134.703,108.203 133.855,107.895 133.583 C 107.791 133.492,107.388 133.158,106.999 132.842 C 106.610 132.526,106.207 132.185,106.104 132.083 C 106.001 131.982,105.504 131.564,105.000 131.154 C 104.496 130.743,103.896 130.247,103.667 130.050 C 102.749 129.263,99.313 126.353,98.098 125.333 C 97.388 124.737,96.638 124.100,96.432 123.917 C 96.226 123.733,95.650 123.237,95.154 122.815 C 94.657 122.392,93.650 121.529,92.917 120.896 C 92.183 120.264,91.365 119.560,91.097 119.332 C 89.583 118.039,88.056 116.718,87.824 116.500 C 87.678 116.362,87.237 115.987,86.845 115.667 C 86.453 115.346,85.966 114.933,85.764 114.750 C 85.562 114.567,84.400 113.554,83.182 112.500 C 81.964 111.446,80.801 110.433,80.598 110.250 C 80.229 109.917,79.495 109.273,76.500 106.652 C 75.629 105.889,74.654 105.030,74.333 104.742 C 72.689 103.266,71.615 102.308,70.418 101.250 C 69.691 100.608,68.939 99.933,68.745 99.750 C 68.551 99.567,67.877 98.967,67.247 98.417 C 66.617 97.867,65.943 97.267,65.750 97.083 C 65.558 96.900,65.104 96.485,64.742 96.161 C 63.142 94.730,60.122 91.999,58.683 90.683 C 57.821 89.895,56.993 89.138,56.843 89.000 C 55.846 88.089,52.862 85.344,52.494 85.000 C 52.249 84.771,51.197 83.796,50.155 82.833 C 49.114 81.871,47.734 80.583,47.089 79.972 C 46.444 79.360,45.692 78.657,45.417 78.408 C 45.142 78.160,43.794 76.898,42.423 75.603 C 41.051 74.309,39.651 72.987,39.311 72.667 C 36.094 69.633,25.167 58.993,20.868 54.708 C 16.031 49.887,16.381 50.185,16.179 50.718 M377.972 55.459 C 372.342 61.104,370.354 63.053,364.925 68.250 C 362.914 70.175,360.829 72.179,360.292 72.704 C 359.755 73.228,358.438 74.470,357.366 75.463 C 356.294 76.457,355.072 77.602,354.651 78.010 C 354.230 78.417,352.955 79.612,351.817 80.667 C 350.680 81.721,349.228 83.071,348.590 83.667 C 347.953 84.262,347.344 84.825,347.237 84.917 C 346.890 85.215,343.438 88.402,342.883 88.937 C 342.585 89.224,341.801 89.936,341.139 90.521 C 340.477 91.105,339.701 91.808,339.415 92.083 C 338.957 92.523,338.096 93.303,335.179 95.917 C 334.770 96.283,334.314 96.696,334.167 96.833 C 334.019 96.971,333.268 97.646,332.498 98.333 C 331.168 99.521,329.788 100.754,328.500 101.907 C 328.179 102.194,326.942 103.287,325.750 104.336 C 324.558 105.385,323.501 106.319,323.401 106.413 C 323.300 106.507,322.702 107.033,322.072 107.583 C 321.442 108.133,320.724 108.771,320.477 109.000 C 320.229 109.229,319.705 109.679,319.312 110.000 C 318.919 110.321,318.257 110.891,317.840 111.267 C 316.687 112.308,315.340 113.493,314.261 114.417 C 313.726 114.875,313.203 115.325,313.100 115.417 C 312.997 115.508,312.389 116.033,311.748 116.583 C 311.108 117.132,310.500 117.657,310.398 117.749 C 310.296 117.841,309.775 118.292,309.240 118.750 C 308.706 119.208,307.923 119.883,307.501 120.250 C 307.079 120.617,306.332 121.254,305.841 121.667 C 305.351 122.079,304.827 122.529,304.678 122.667 C 304.529 122.804,303.999 123.254,303.500 123.667 C 303.001 124.079,302.471 124.529,302.322 124.667 C 302.033 124.933,301.139 125.693,299.250 127.278 C 298.608 127.817,297.896 128.417,297.667 128.612 C 296.824 129.329,295.705 130.267,294.919 130.917 C 294.475 131.283,293.991 131.696,293.843 131.833 C 293.695 131.971,293.164 132.421,292.664 132.833 C 292.163 133.246,291.565 133.744,291.335 133.940 C 291.105 134.136,290.317 134.798,289.583 135.412 C 288.850 136.026,288.063 136.690,287.833 136.886 C 287.604 137.083,286.972 137.603,286.428 138.041 C 285.192 139.038,284.028 140.007,283.675 140.333 C 283.526 140.471,282.845 141.033,282.161 141.583 C 281.476 142.133,280.879 142.620,280.833 142.667 C 280.787 142.713,280.188 143.196,279.500 143.741 C 278.813 144.286,278.175 144.811,278.083 144.907 C 277.992 145.004,277.354 145.533,276.667 146.083 C 275.979 146.633,275.379 147.129,275.333 147.186 C 275.287 147.243,274.650 147.763,273.917 148.341 C 273.183 148.919,272.546 149.437,272.500 149.493 C 272.454 149.549,272.042 149.888,271.583 150.247 C 271.125 150.606,270.675 150.978,270.583 151.075 C 270.492 151.171,270.117 151.471,269.750 151.741 C 269.383 152.011,269.046 152.275,269.000 152.327 C 268.954 152.379,268.504 152.757,268.000 153.167 C 267.496 153.577,267.046 153.951,267.000 153.999 C 266.954 154.046,266.617 154.307,266.250 154.578 C 265.883 154.848,265.508 155.154,265.417 155.257 C 265.325 155.360,264.537 155.995,263.667 156.669 C 262.796 157.343,262.046 157.942,262.000 158.000 C 261.954 158.059,261.167 158.698,260.250 159.420 C 259.333 160.142,258.546 160.774,258.500 160.826 C 258.454 160.877,258.119 161.140,257.756 161.412 C 257.393 161.683,256.973 162.020,256.824 162.161 C 256.675 162.302,255.932 162.899,255.174 163.489 C 254.416 164.079,253.710 164.644,253.606 164.745 C 253.502 164.846,253.117 165.151,252.750 165.422 C 252.383 165.693,252.046 165.958,252.000 166.011 C 251.954 166.065,251.017 166.809,249.917 167.667 C 248.817 168.524,247.879 169.269,247.833 169.322 C 247.787 169.375,247.450 169.639,247.083 169.909 C 246.717 170.178,246.379 170.446,246.333 170.503 C 246.269 170.583,243.155 173.038,240.530 175.079 C 240.409 175.173,240.181 175.362,240.024 175.500 C 239.867 175.637,239.293 176.084,238.749 176.492 C 234.588 179.609,232.369 182.434,230.692 186.750 C 229.845 188.928,229.449 193.328,229.836 196.250 C 229.996 197.455,230.631 201.039,231.417 205.167 C 231.565 205.946,231.835 207.521,232.018 208.667 C 232.200 209.813,232.457 211.425,232.588 212.250 C 235.522 230.646,235.953 247.886,233.775 259.750 C 233.007 263.932,231.813 268.569,231.064 270.275 C 230.937 270.564,230.833 270.916,230.833 271.057 C 230.833 271.198,230.767 271.355,230.685 271.405 C 230.604 271.456,230.485 271.703,230.422 271.954 C 230.144 273.062,228.208 277.274,226.973 279.458 C 226.804 279.756,226.509 280.278,226.317 280.618 C 225.785 281.558,223.420 285.091,223.161 285.333 C 223.112 285.379,222.777 285.792,222.417 286.250 C 221.701 287.160,219.000 290.173,218.333 290.805 C 218.104 291.022,217.592 291.499,217.196 291.865 C 216.799 292.231,216.518 292.573,216.571 292.626 C 216.780 292.836,222.056 289.985,223.119 289.088 C 223.408 288.844,223.614 288.687,224.869 287.750 C 226.409 286.601,230.857 282.079,231.836 280.667 C 232.059 280.346,232.378 279.934,232.546 279.751 C 232.714 279.568,233.089 279.043,233.379 278.584 C 233.668 278.125,233.949 277.712,234.001 277.667 C 234.573 277.166,238.070 270.722,239.066 268.333 C 239.238 267.921,239.513 267.281,239.677 266.911 C 239.841 266.541,240.029 266.016,240.094 265.744 C 240.159 265.472,240.269 265.175,240.338 265.083 C 240.407 264.992,240.668 264.279,240.918 263.500 C 241.168 262.721,241.433 261.933,241.508 261.750 C 241.582 261.567,241.804 260.854,242.001 260.167 C 242.197 259.479,242.426 258.729,242.510 258.500 C 243.044 257.032,244.596 249.531,244.976 246.583 L 245.083 245.750 245.375 246.162 C 245.535 246.389,245.667 246.643,245.667 246.727 C 245.667 246.883,247.540 250.801,248.627 252.917 C 248.956 253.558,249.494 254.608,249.821 255.250 C 250.149 255.892,250.473 256.442,250.542 256.472 C 250.610 256.503,250.667 256.602,250.667 256.692 C 250.667 256.783,251.272 257.883,252.012 259.137 C 253.566 261.772,253.705 262.004,253.877 262.241 C 253.947 262.338,254.201 262.717,254.442 263.083 C 254.925 263.820,256.128 265.551,256.874 266.583 C 261.604 273.127,266.921 275.236,274.750 273.673 C 275.990 273.425,279.022 272.511,279.750 272.165 C 279.933 272.078,280.290 271.932,280.542 271.841 C 280.794 271.750,281.000 271.577,281.000 271.458 C 281.000 271.339,280.794 271.010,280.542 270.728 C 279.951 270.069,279.511 269.540,279.031 268.917 C 278.465 268.181,277.619 267.147,277.333 266.840 C 277.196 266.692,276.633 266.011,276.083 265.328 C 275.533 264.644,274.708 263.633,274.250 263.081 C 273.792 262.530,273.154 261.754,272.833 261.358 C 272.200 260.575,271.842 260.146,271.280 259.498 C 271.080 259.267,270.694 258.782,270.423 258.420 C 270.151 258.058,269.813 257.640,269.673 257.492 C 269.352 257.154,268.113 255.675,267.998 255.494 C 267.896 255.333,267.134 254.387,266.333 253.428 C 266.012 253.044,265.487 252.400,265.167 251.997 C 264.846 251.595,264.471 251.149,264.333 251.006 C 264.196 250.864,263.933 250.551,263.750 250.312 C 263.190 249.580,261.441 247.422,261.336 247.333 C 261.282 247.287,260.756 246.650,260.167 245.917 C 259.577 245.183,259.055 244.546,259.006 244.500 C 258.956 244.454,258.467 243.854,257.918 243.167 C 256.990 242.004,256.451 241.362,255.833 240.681 C 255.696 240.530,255.362 240.108,255.092 239.745 C 254.822 239.381,254.557 239.046,254.503 239.000 C 254.449 238.954,253.923 238.317,253.333 237.583 C 252.744 236.850,252.221 236.213,252.170 236.167 C 252.120 236.121,251.742 235.671,251.331 235.167 C 250.920 234.662,250.415 234.063,250.208 233.835 C 249.679 233.250,249.741 233.020,250.292 233.524 C 250.680 233.879,252.442 235.405,254.000 236.734 C 254.348 237.031,256.232 238.550,257.163 239.283 C 257.302 239.393,258.317 240.160,259.417 240.987 C 260.517 241.815,261.492 242.552,261.583 242.625 C 261.675 242.699,262.237 243.072,262.833 243.454 C 263.429 243.837,263.992 244.211,264.083 244.286 C 264.522 244.647,267.523 246.500,267.668 246.500 C 267.759 246.500,267.834 246.556,267.835 246.625 C 267.835 246.694,268.004 246.830,268.210 246.928 C 268.415 247.026,269.333 247.515,270.250 248.015 C 271.167 248.515,272.704 249.271,273.667 249.696 C 277.377 251.334,279.083 251.877,282.500 252.508 C 283.529 252.698,289.911 252.693,291.750 252.501 C 294.008 252.264,296.814 251.865,297.750 251.646 C 300.849 250.922,303.017 250.279,305.333 249.396 C 308.355 248.243,312.096 246.318,311.726 246.106 C 311.439 245.942,308.899 245.018,307.750 244.661 C 307.475 244.575,307.100 244.437,306.917 244.353 C 306.733 244.269,305.983 243.999,305.250 243.753 C 304.517 243.506,303.767 243.238,303.583 243.157 C 303.118 242.951,301.863 242.512,301.167 242.312 C 300.846 242.221,300.347 242.038,300.058 241.906 C 299.769 241.774,299.453 241.667,299.355 241.667 C 299.258 241.667,298.932 241.560,298.631 241.430 C 298.330 241.300,297.296 240.918,296.333 240.580 C 295.371 240.243,294.433 239.907,294.250 239.835 C 294.067 239.762,292.904 239.348,291.667 238.914 C 290.429 238.480,288.629 237.844,287.667 237.500 C 286.704 237.156,284.904 236.521,283.667 236.089 C 282.429 235.657,281.286 235.235,281.127 235.152 C 280.968 235.068,280.754 235.000,280.652 235.000 C 280.550 235.000,280.231 234.895,279.942 234.766 C 279.653 234.637,278.817 234.335,278.083 234.095 C 277.350 233.854,276.600 233.591,276.417 233.511 C 275.868 233.269,272.733 232.167,272.595 232.167 C 272.525 232.167,272.231 232.063,271.942 231.937 C 271.653 231.810,270.817 231.504,270.083 231.256 C 269.350 231.008,268.600 230.738,268.417 230.657 C 268.082 230.509,267.882 230.438,265.417 229.599 C 264.683 229.350,263.933 229.079,263.750 228.998 C 263.567 228.917,262.742 228.616,261.917 228.329 C 261.092 228.043,259.367 227.431,258.083 226.971 C 256.800 226.511,255.277 225.983,254.700 225.798 C 252.782 225.183,253.460 225.216,257.250 225.920 C 257.983 226.056,259.221 226.277,260.000 226.411 C 260.779 226.545,262.317 226.815,263.417 227.011 C 265.916 227.457,267.376 227.711,269.917 228.143 C 271.017 228.330,272.592 228.607,273.417 228.758 C 274.911 229.032,275.615 229.156,279.417 229.818 C 280.517 230.009,282.054 230.282,282.833 230.424 C 283.612 230.567,285.112 230.829,286.167 231.008 C 287.978 231.315,288.611 231.428,292.250 232.093 C 293.075 232.244,294.125 232.433,294.583 232.513 C 297.367 233.001,303.872 232.853,306.662 232.238 C 310.285 231.441,316.588 228.917,317.667 227.833 C 317.712 227.787,318.200 227.458,318.750 227.102 C 320.947 225.679,325.295 221.698,326.596 219.917 C 326.864 219.550,327.222 219.100,327.391 218.917 C 327.728 218.550,329.973 215.179,330.348 214.475 C 330.993 213.265,332.500 210.167,332.501 210.050 C 332.502 209.977,332.615 209.699,332.754 209.434 C 333.092 208.785,333.274 208.811,329.819 209.004 C 326.849 209.169,322.303 209.415,312.917 209.916 C 310.442 210.048,305.454 210.309,301.833 210.494 C 298.212 210.680,293.150 210.944,290.583 211.080 C 288.017 211.217,282.954 211.481,279.333 211.666 C 270.383 212.125,263.958 212.467,260.667 212.659 C 257.287 212.856,255.399 212.858,256.417 212.665 C 257.147 212.526,259.433 212.160,262.667 211.664 C 265.587 211.217,267.658 210.889,269.500 210.581 C 270.371 210.436,272.058 210.168,273.250 209.986 C 274.442 209.803,276.092 209.545,276.917 209.411 C 277.742 209.277,279.392 209.022,280.583 208.844 C 281.775 208.665,283.462 208.403,284.333 208.260 C 288.095 207.642,289.200 207.466,291.167 207.166 C 292.313 206.992,293.962 206.736,294.833 206.597 C 295.704 206.458,297.392 206.194,298.583 206.011 C 299.775 205.828,301.462 205.560,302.333 205.416 C 304.243 205.101,306.373 204.764,309.167 204.335 C 310.313 204.160,311.962 203.902,312.833 203.763 C 313.704 203.624,315.392 203.358,316.583 203.171 C 320.703 202.526,322.831 202.107,323.343 201.839 C 323.486 201.765,324.049 201.612,324.593 201.500 C 325.138 201.388,325.658 201.251,325.750 201.196 C 325.842 201.140,326.506 200.889,327.226 200.636 C 330.133 199.618,335.019 197.099,336.137 196.042 C 336.258 195.927,336.415 195.833,336.486 195.833 C 336.557 195.833,336.796 195.685,337.016 195.503 C 337.483 195.118,337.545 195.070,338.383 194.444 C 339.962 193.264,342.441 190.783,343.623 189.200 C 343.876 188.861,344.158 188.492,344.250 188.381 C 344.672 187.868,344.803 187.683,345.470 186.667 C 347.697 183.273,349.293 178.787,349.657 174.898 C 349.759 173.808,349.880 172.630,349.925 172.279 C 349.997 171.729,349.967 171.653,349.712 171.723 C 348.820 171.969,346.729 172.587,345.417 172.993 C 344.592 173.248,343.242 173.663,342.417 173.914 C 341.592 174.166,340.242 174.582,339.417 174.838 C 338.592 175.095,337.354 175.468,336.667 175.667 C 335.979 175.866,335.117 176.131,334.750 176.254 C 334.383 176.378,333.521 176.639,332.833 176.835 C 332.146 177.030,331.433 177.250,331.250 177.324 C 330.894 177.467,328.859 178.079,328.167 178.251 C 327.938 178.308,327.600 178.419,327.417 178.499 C 327.233 178.578,326.521 178.806,325.833 179.005 C 323.073 179.803,320.734 180.531,320.461 180.678 C 320.301 180.763,320.055 180.833,319.914 180.833 C 319.772 180.833,319.227 180.973,318.703 181.144 C 318.179 181.315,317.188 181.624,316.500 181.830 C 315.813 182.036,314.950 182.301,314.583 182.420 C 313.067 182.908,306.933 184.770,305.000 185.329 C 304.313 185.528,303.600 185.754,303.417 185.833 C 302.908 186.050,300.258 186.833,300.030 186.833 C 299.919 186.833,299.699 186.904,299.539 186.991 C 299.380 187.078,298.688 187.308,298.000 187.502 C 297.313 187.695,296.450 187.955,296.083 188.079 C 295.717 188.203,294.854 188.466,294.167 188.664 C 293.479 188.863,292.729 189.090,292.500 189.169 C 292.271 189.248,291.408 189.510,290.583 189.752 C 289.758 189.994,288.933 190.258,288.750 190.339 C 288.567 190.420,288.079 190.571,287.667 190.674 C 287.254 190.777,286.204 191.088,285.333 191.365 C 284.462 191.642,283.412 191.968,283.000 192.089 C 282.296 192.296,280.794 192.751,276.417 194.086 C 275.408 194.393,274.396 194.692,274.167 194.750 C 273.938 194.807,273.600 194.915,273.417 194.990 C 273.233 195.064,272.521 195.291,271.833 195.494 C 271.146 195.697,270.396 195.927,270.167 196.005 C 269.938 196.082,269.075 196.347,268.250 196.592 C 265.773 197.330,264.606 197.685,264.167 197.834 C 263.938 197.912,263.188 198.135,262.500 198.330 C 261.813 198.525,261.120 198.755,260.961 198.842 C 260.801 198.929,260.568 199.000,260.442 199.000 C 260.316 199.000,259.434 199.257,258.482 199.570 C 257.529 199.884,256.337 200.250,255.833 200.385 C 255.329 200.519,254.773 200.687,254.598 200.759 C 254.388 200.845,254.316 200.830,254.388 200.713 C 254.448 200.616,254.701 200.486,254.951 200.423 C 255.349 200.323,256.156 199.998,257.250 199.496 C 257.433 199.411,258.821 198.845,260.333 198.237 C 263.882 196.811,265.006 196.353,265.417 196.168 C 265.600 196.085,266.500 195.709,267.417 195.332 C 271.146 193.800,271.931 193.475,272.250 193.331 C 272.433 193.249,273.071 192.987,273.667 192.750 C 274.262 192.513,274.900 192.250,275.083 192.167 C 275.267 192.083,275.904 191.821,276.500 191.583 C 277.096 191.346,277.733 191.084,277.917 191.001 C 278.100 190.918,279.000 190.541,279.917 190.164 C 280.833 189.786,281.820 189.370,282.109 189.239 C 282.397 189.107,282.683 189.000,282.743 189.000 C 282.842 189.000,283.575 188.691,284.942 188.071 C 285.231 187.940,285.516 187.833,285.576 187.833 C 285.670 187.833,286.291 187.576,287.583 187.000 C 288.876 186.424,289.496 186.167,289.591 186.167 C 289.651 186.167,289.936 186.058,290.225 185.925 C 290.514 185.792,291.594 185.342,292.625 184.925 C 293.656 184.508,295.344 183.826,296.375 183.409 C 297.406 182.992,298.486 182.542,298.775 182.409 C 299.064 182.276,299.349 182.167,299.409 182.167 C 299.504 182.167,300.124 181.909,301.417 181.333 C 302.709 180.758,303.330 180.500,303.424 180.500 C 303.484 180.500,303.769 180.391,304.058 180.257 C 304.347 180.123,305.221 179.758,306.000 179.446 C 306.779 179.133,311.354 177.247,316.167 175.253 C 320.979 173.260,325.742 171.296,326.750 170.890 C 327.758 170.483,328.820 170.042,329.109 169.909 C 329.397 169.776,329.683 169.667,329.743 169.667 C 330.135 169.667,335.818 166.841,337.167 165.975 C 337.396 165.828,338.108 165.370,338.750 164.958 C 341.767 163.019,345.566 159.654,348.190 156.597 C 348.498 156.238,348.863 155.823,349.000 155.675 C 349.477 155.162,351.594 152.244,352.333 151.083 C 352.742 150.442,353.115 149.879,353.163 149.833 C 353.211 149.787,353.363 149.525,353.500 149.250 C 353.637 148.975,353.787 148.712,353.833 148.667 C 354.056 148.444,355.686 145.268,356.399 143.666 C 357.472 141.253,357.739 140.587,358.270 139.000 C 358.499 138.313,358.752 137.600,358.831 137.417 C 359.244 136.462,360.373 132.378,360.859 130.083 C 361.498 127.066,361.693 125.882,362.327 121.167 C 362.588 119.219,362.718 117.333,362.589 117.333 C 362.445 117.333,361.212 118.063,358.500 119.752 C 357.354 120.465,355.596 121.544,354.593 122.150 C 353.589 122.755,352.526 123.400,352.230 123.583 C 350.340 124.754,349.228 125.425,349.083 125.483 C 348.992 125.520,348.879 125.601,348.833 125.662 C 348.787 125.724,348.004 126.219,347.092 126.762 C 346.180 127.306,345.192 127.900,344.896 128.083 C 343.104 129.195,341.895 129.925,341.750 129.983 C 341.658 130.020,341.546 130.099,341.500 130.158 C 341.454 130.217,340.779 130.635,340.000 131.086 C 339.221 131.537,338.484 132.002,338.363 132.119 C 338.242 132.237,338.036 132.333,337.905 132.333 C 337.774 132.333,337.667 132.400,337.667 132.481 C 337.667 132.562,337.535 132.672,337.375 132.726 C 337.215 132.780,336.596 133.135,336.000 133.516 C 334.716 134.337,334.458 134.495,332.640 135.578 C 331.876 136.033,331.151 136.502,331.030 136.619 C 330.909 136.737,330.709 136.833,330.585 136.833 C 330.462 136.833,330.336 136.891,330.306 136.961 C 330.257 137.073,329.544 137.524,327.177 138.938 C 326.850 139.133,326.096 139.603,325.500 139.984 C 324.904 140.365,324.285 140.720,324.125 140.774 C 323.965 140.828,323.833 140.938,323.833 141.019 C 323.833 141.100,323.726 141.167,323.595 141.167 C 323.464 141.167,323.258 141.260,323.137 141.375 C 322.828 141.667,320.326 143.167,320.147 143.167 C 320.066 143.167,320.000 143.242,320.000 143.333 C 320.000 143.425,319.928 143.500,319.839 143.500 C 319.751 143.500,319.039 143.912,318.257 144.417 C 317.476 144.921,316.761 145.333,316.668 145.333 C 316.576 145.333,316.500 145.408,316.500 145.500 C 316.500 145.592,316.435 145.667,316.355 145.667 C 316.227 145.667,313.199 147.442,312.741 147.785 C 312.418 148.027,310.058 149.449,309.483 149.748 C 309.309 149.838,309.167 149.970,309.167 150.040 C 309.167 150.109,309.099 150.167,309.016 150.167 C 308.865 150.167,306.578 151.517,306.237 151.807 C 306.138 151.891,305.895 152.011,305.696 152.074 C 305.496 152.137,305.333 152.259,305.333 152.345 C 305.333 152.430,305.267 152.500,305.186 152.500 C 305.105 152.500,304.465 152.856,303.763 153.292 C 301.966 154.406,301.559 154.653,300.157 155.486 C 299.475 155.891,298.892 156.285,298.861 156.361 C 298.831 156.438,298.705 156.500,298.581 156.500 C 298.458 156.500,298.258 156.596,298.137 156.714 C 298.016 156.832,297.279 157.297,296.500 157.748 C 295.721 158.198,295.046 158.614,295.000 158.671 C 294.954 158.728,294.804 158.823,294.667 158.883 C 294.529 158.943,293.892 159.334,293.250 159.751 C 292.608 160.168,291.952 160.554,291.792 160.608 C 291.631 160.662,291.500 160.772,291.500 160.853 C 291.500 160.934,291.437 161.000,291.360 161.000 C 291.234 161.000,290.375 161.509,285.583 164.420 C 284.850 164.866,284.212 165.280,284.167 165.340 C 284.121 165.401,284.008 165.480,283.917 165.517 C 283.720 165.596,280.536 167.516,277.833 169.188 C 276.779 169.840,275.467 170.643,274.917 170.973 C 274.367 171.303,273.879 171.613,273.833 171.662 C 273.787 171.710,273.525 171.871,273.250 172.020 C 272.975 172.168,271.925 172.799,270.917 173.421 C 269.908 174.044,268.521 174.894,267.833 175.310 C 267.146 175.725,266.546 176.107,266.500 176.158 C 266.454 176.208,266.214 176.362,265.966 176.500 C 265.220 176.914,262.821 178.359,261.667 179.090 C 259.936 180.184,259.148 180.614,259.667 180.181 C 260.220 179.719,260.294 179.665,261.167 179.083 C 261.946 178.564,262.204 178.375,262.551 178.068 C 262.664 177.968,262.938 177.789,263.160 177.670 C 263.381 177.552,263.642 177.388,263.740 177.306 C 263.942 177.135,265.277 176.179,266.452 175.363 C 267.225 174.826,282.033 164.389,286.083 161.527 C 289.432 159.160,289.704 158.968,291.083 158.001 C 291.817 157.488,294.367 155.691,296.750 154.010 C 299.133 152.328,301.631 150.570,302.300 150.101 C 302.969 149.633,303.885 148.987,304.335 148.667 C 304.786 148.346,305.535 147.821,306.000 147.500 C 306.465 147.179,307.210 146.654,307.656 146.333 C 308.102 146.012,308.632 145.637,308.833 145.500 C 309.035 145.362,309.565 144.987,310.011 144.667 C 310.457 144.346,311.202 143.821,311.667 143.500 C 312.132 143.179,313.032 142.542,313.667 142.083 C 314.301 141.625,315.180 141.001,315.619 140.698 C 316.315 140.216,319.465 137.989,320.917 136.952 C 321.192 136.755,322.392 135.913,323.583 135.079 C 324.775 134.246,326.162 133.273,326.667 132.917 C 327.171 132.562,328.033 131.966,328.583 131.594 C 329.675 130.855,329.730 130.814,330.317 130.330 C 330.537 130.149,330.770 130.000,330.833 130.000 C 330.934 130.000,331.120 129.863,331.927 129.192 C 332.025 129.111,332.286 128.948,332.507 128.830 C 332.729 128.711,333.002 128.532,333.116 128.432 C 333.463 128.125,333.720 127.936,334.500 127.417 C 335.324 126.868,335.400 126.812,335.984 126.330 C 336.204 126.149,336.436 126.000,336.500 126.000 C 336.601 126.000,336.787 125.863,337.594 125.192 C 337.691 125.111,337.952 124.948,338.174 124.830 C 338.395 124.711,338.663 124.532,338.768 124.432 C 338.873 124.332,339.125 124.138,339.328 124.000 C 339.532 123.862,339.852 123.619,340.041 123.458 C 340.230 123.298,340.436 123.167,340.500 123.167 C 340.601 123.167,340.787 123.030,341.594 122.359 C 341.691 122.278,341.952 122.115,342.174 121.996 C 342.395 121.878,342.669 121.699,342.782 121.599 C 343.130 121.291,343.387 121.103,344.167 120.584 C 344.579 120.309,344.954 120.046,345.000 120.000 C 345.046 119.954,345.421 119.691,345.833 119.416 C 346.246 119.141,346.658 118.858,346.750 118.787 C 346.842 118.715,347.329 118.360,347.833 117.997 C 348.337 117.635,348.876 117.243,349.029 117.127 C 349.183 117.011,349.471 116.804,349.669 116.667 C 351.260 115.564,353.055 114.147,357.158 110.754 C 357.382 110.568,357.725 110.267,357.920 110.083 C 358.115 109.900,358.794 109.300,359.428 108.750 C 360.063 108.200,361.745 106.585,363.166 105.161 C 365.413 102.910,366.495 101.747,368.333 99.605 C 368.563 99.339,368.842 99.025,368.955 98.909 C 370.348 97.471,374.276 91.900,376.118 88.750 C 377.666 86.103,380.151 81.172,380.172 80.705 C 380.175 80.638,380.323 80.283,380.500 79.917 C 380.677 79.550,380.825 79.155,380.828 79.039 C 380.831 78.924,380.902 78.699,380.987 78.539 C 381.737 77.123,382.923 72.624,383.670 68.363 C 384.343 64.523,384.501 57.959,384.012 54.167 C 383.679 51.584,383.436 50.333,383.266 50.334 C 383.165 50.335,380.783 52.641,377.972 55.459 " stroke="none" fill="#fcec04" fill-rule="evenodd"></path></g></svg>