<svg id="svg" version="1.1" xmlns="http://www.w3.org/2000/svg" xmlns:xlink="http://www.w3.org/1999/xlink" width="400" height="158.5909594777682" viewBox="0, 0, 400,158.5909594777682"><g id="svgg"><path id="path0" d="M381.250 71.116 C 375.898 72.662,375.816 72.667,352.484 72.667 L 332.333 72.667 332.333 73.230 L 332.333 73.793 333.792 73.868 C 336.495 74.009,338.607 75.480,339.575 77.895 C 339.989 78.928,339.966 135.384,339.551 136.494 C 338.554 139.167,336.592 140.637,333.813 140.795 L 332.333 140.880 332.333 141.440 L 332.333 142.000 358.064 142.000 L 383.796 142.000 383.881 141.542 C 383.960 141.117,384.386 139.137,384.912 136.750 C 385.153 135.656,385.572 133.812,385.935 132.250 C 386.063 131.700,386.315 130.575,386.496 129.750 C 386.677 128.925,386.863 128.100,386.910 127.917 C 386.956 127.733,387.148 126.908,387.336 126.083 C 387.524 125.258,387.790 124.096,387.928 123.500 C 388.394 121.476,388.419 121.667,387.688 121.667 C 387.078 121.667,387.030 121.702,386.929 122.243 C 386.870 122.560,386.712 123.029,386.578 123.285 C 386.445 123.541,386.335 123.807,386.334 123.876 C 386.329 124.512,383.976 128.779,382.778 130.322 C 381.246 132.297,378.564 134.743,377.507 135.132 C 377.365 135.183,377.212 135.272,377.167 135.328 C 377.095 135.415,376.663 135.611,374.583 136.499 C 372.351 137.452,370.049 137.667,362.085 137.667 L 355.000 137.667 355.000 123.833 L 355.000 110.000 361.625 110.001 C 369.439 110.003,369.984 110.062,372.144 111.137 C 374.405 112.263,376.167 115.313,376.167 118.101 L 376.167 119.333 376.750 119.333 L 377.333 119.333 377.333 107.750 L 377.333 96.167 376.772 96.167 L 376.211 96.167 376.122 97.792 C 375.956 100.803,374.531 103.101,371.917 104.573 C 370.068 105.614,369.589 105.667,361.903 105.667 L 355.000 105.667 355.000 91.322 L 355.000 76.977 364.125 77.042 C 372.776 77.104,373.302 77.125,374.250 77.448 C 375.433 77.850,376.561 78.366,376.639 78.542 C 376.669 78.610,376.799 78.667,376.927 78.667 C 377.313 78.667,379.387 80.874,379.864 81.792 C 380.594 83.200,381.000 84.971,381.000 86.752 L 381.000 88.333 381.583 88.333 L 382.167 88.333 382.167 79.583 C 382.167 74.771,382.148 70.843,382.125 70.854 C 382.102 70.865,381.708 70.983,381.250 71.116 M14.500 73.224 L 14.500 73.795 16.125 73.870 C 18.646 73.988,20.287 75.075,21.511 77.438 L 22.083 78.543 22.083 107.396 L 22.083 136.250 21.631 137.167 C 20.452 139.552,18.754 140.656,16.048 140.798 L 14.500 140.879 14.500 141.439 L 14.500 142.000 29.667 142.000 L 44.833 142.000 44.833 141.437 L 44.833 140.874 43.375 140.803 C 41.547 140.714,40.396 140.223,39.238 139.038 C 38.171 137.945,38.145 137.910,37.662 136.833 L 37.250 135.917 37.205 106.542 L 37.160 77.167 41.559 77.167 C 48.081 77.167,49.674 77.660,52.583 80.583 C 54.215 82.221,54.924 83.662,55.785 87.083 C 56.406 89.555,56.138 95.836,55.329 97.750 C 55.251 97.933,55.139 98.271,55.081 98.500 C 54.922 99.118,54.036 101.131,53.833 101.333 C 53.788 101.379,53.637 101.613,53.500 101.854 C 51.677 105.041,48.097 106.814,43.199 106.955 L 40.315 107.038 40.366 107.631 C 40.412 108.172,40.483 108.246,41.167 108.469 C 43.095 109.099,46.833 113.037,46.833 114.439 C 46.833 114.491,47.321 115.545,47.917 116.781 C 48.513 118.017,49.000 119.057,49.000 119.092 C 49.000 119.181,50.891 123.124,52.873 127.167 C 57.545 136.699,60.721 139.440,69.167 141.227 C 71.751 141.774,73.262 141.868,80.792 141.951 L 88.500 142.035 88.500 141.468 L 88.500 140.901 86.792 140.707 C 82.615 140.233,80.455 138.743,76.101 133.333 C 75.769 132.921,75.432 132.502,75.352 132.404 C 74.789 131.707,72.271 128.233,71.738 127.417 C 71.378 126.867,71.042 126.379,70.990 126.333 C 70.938 126.287,70.509 125.650,70.037 124.917 C 69.566 124.183,69.118 123.508,69.042 123.417 C 68.966 123.325,68.197 122.125,67.333 120.750 C 66.469 119.375,65.704 118.175,65.632 118.083 C 65.560 117.992,64.986 117.242,64.356 116.417 C 63.262 114.985,61.221 112.924,60.333 112.355 C 60.104 112.208,59.818 111.993,59.696 111.877 C 59.575 111.761,59.375 111.667,59.252 111.667 C 59.129 111.667,59.003 111.610,58.972 111.542 C 58.942 111.473,58.355 111.135,57.669 110.792 C 56.620 110.266,56.501 110.167,56.919 110.167 C 58.736 110.169,62.304 108.872,64.583 107.383 C 65.668 106.674,68.190 104.064,68.669 103.156 C 68.787 102.933,68.932 102.712,68.992 102.667 C 69.384 102.365,71.333 98.493,71.333 98.015 C 71.333 97.921,71.442 97.524,71.575 97.131 C 72.821 93.442,72.302 86.790,70.476 83.035 C 67.956 77.852,63.107 74.747,55.000 73.123 C 53.293 72.781,52.776 72.771,33.875 72.713 L 14.500 72.654 14.500 73.224 M240.745 80.792 C 240.468 81.794,239.901 83.513,239.659 84.083 C 239.582 84.267,239.373 84.754,239.196 85.167 C 239.019 85.579,238.609 86.592,238.286 87.417 C 237.962 88.242,237.391 89.577,237.015 90.385 C 236.640 91.192,236.333 91.878,236.333 91.908 C 236.333 91.938,235.968 92.740,235.522 93.690 C 235.075 94.639,234.467 95.942,234.169 96.583 C 233.872 97.225,233.330 98.388,232.965 99.167 C 232.601 99.946,232.093 101.033,231.837 101.583 C 231.580 102.133,231.071 103.221,230.704 104.000 C 230.338 104.779,229.796 105.942,229.501 106.583 C 229.206 107.225,228.679 108.350,228.329 109.083 C 227.979 109.817,227.469 110.904,227.196 111.500 C 226.023 114.061,225.662 114.841,224.923 116.417 C 224.493 117.333,223.856 118.683,223.507 119.417 C 223.157 120.150,222.721 121.087,222.538 121.500 C 222.184 122.294,221.536 123.685,220.248 126.417 C 218.707 129.683,218.360 130.427,217.994 131.250 C 217.791 131.708,217.296 132.773,216.895 133.615 C 216.495 134.458,216.167 135.185,216.167 135.232 C 216.167 135.278,215.893 135.783,215.558 136.354 C 213.960 139.081,211.175 140.816,208.375 140.829 L 207.500 140.833 207.500 141.417 L 207.500 142.000 217.500 142.000 L 227.500 142.000 227.500 141.417 L 227.500 140.833 226.708 140.832 C 224.256 140.830,222.471 138.873,222.995 136.764 C 223.205 135.918,223.264 135.765,224.071 133.953 C 224.307 133.424,224.500 132.960,224.500 132.923 C 224.500 132.887,224.730 132.345,225.011 131.720 C 225.291 131.095,225.587 130.433,225.668 130.250 C 226.217 129.001,226.655 127.975,226.931 127.292 L 227.250 126.501 237.668 126.501 L 248.085 126.500 248.283 126.958 C 248.391 127.210,248.814 128.242,249.222 129.250 C 249.860 130.825,250.279 131.807,251.002 133.417 C 252.306 136.320,252.547 137.527,252.042 138.619 C 251.290 140.245,250.355 140.833,248.522 140.833 L 247.667 140.833 247.667 141.417 L 247.667 142.000 262.417 142.000 L 277.167 142.000 277.167 141.441 L 277.167 140.883 275.767 140.784 C 273.659 140.635,271.929 139.812,270.440 138.250 C 269.490 137.253,268.904 136.188,266.541 131.167 C 266.174 130.387,265.482 128.925,265.001 127.917 C 264.159 126.148,263.615 125.009,261.295 120.167 C 259.141 115.670,258.846 115.051,257.951 113.167 C 255.981 109.017,255.422 107.842,254.500 105.917 C 253.973 104.817,253.149 103.092,252.669 102.083 C 252.188 101.075,251.362 99.350,250.833 98.250 C 250.305 97.150,249.553 95.575,249.163 94.750 C 248.772 93.925,247.950 92.200,247.334 90.917 C 246.719 89.633,245.932 87.983,245.585 87.250 C 245.239 86.517,244.451 84.867,243.834 83.583 C 243.217 82.300,242.571 80.933,242.398 80.546 C 241.877 79.380,241.103 79.495,240.745 80.792 M114.750 81.444 C 113.801 81.522,110.735 81.986,109.750 82.201 C 108.372 82.500,105.773 83.174,105.417 83.324 C 105.233 83.402,104.708 83.595,104.250 83.755 C 99.175 85.521,93.731 89.413,90.618 93.500 C 90.094 94.188,89.608 94.825,89.536 94.917 C 88.841 95.813,87.315 98.873,86.627 100.750 C 85.920 102.680,85.742 103.348,85.160 106.254 C 84.659 108.758,84.668 115.765,85.175 118.331 C 86.532 125.194,88.566 129.200,92.917 133.575 C 94.469 135.136,94.583 135.236,96.250 136.497 C 101.175 140.223,107.563 142.466,115.250 143.167 C 119.452 143.550,126.325 143.216,129.583 142.470 C 134.470 141.352,137.149 140.366,140.652 138.398 C 143.377 136.867,147.558 133.227,149.113 131.033 C 149.463 130.539,149.825 130.048,149.917 129.942 C 150.534 129.231,151.817 126.896,152.632 125.000 C 155.074 119.324,155.627 111.879,154.166 104.333 C 154.068 103.829,153.923 103.267,153.843 103.083 C 153.763 102.900,153.601 102.375,153.483 101.917 C 153.365 101.458,153.171 100.896,153.052 100.667 C 152.933 100.438,152.835 100.189,152.834 100.114 C 152.830 99.583,150.053 94.482,149.505 94.000 C 149.453 93.954,148.913 93.317,148.306 92.583 C 145.676 89.409,141.686 86.470,137.583 84.686 C 136.667 84.287,135.767 83.895,135.583 83.815 C 134.916 83.522,132.720 82.863,131.500 82.590 C 130.813 82.436,129.950 82.239,129.583 82.153 C 128.739 81.954,126.967 81.687,125.250 81.500 C 124.003 81.364,116.225 81.323,114.750 81.444 M152.000 83.066 L 152.000 83.632 153.375 83.717 C 155.035 83.820,156.178 84.059,157.123 84.502 C 157.512 84.684,157.873 84.833,157.927 84.833 C 158.548 84.833,160.968 87.114,162.014 88.686 C 163.032 90.216,164.750 92.884,165.167 93.583 C 165.387 93.950,165.611 94.287,165.667 94.333 C 165.723 94.379,166.214 95.129,166.759 96.000 C 167.304 96.871,167.806 97.608,167.875 97.639 C 167.944 97.669,168.000 97.761,168.000 97.842 C 168.000 97.923,168.290 98.423,168.645 98.953 C 168.999 99.483,169.700 100.554,170.201 101.333 C 170.703 102.112,171.625 103.537,172.251 104.500 C 172.876 105.462,173.875 107.000,174.471 107.917 C 175.067 108.833,175.842 110.020,176.194 110.553 C 176.545 111.087,176.833 111.587,176.833 111.665 C 176.833 111.742,176.890 111.831,176.958 111.861 C 177.027 111.892,177.530 112.629,178.077 113.500 C 178.623 114.371,179.170 115.185,179.291 115.309 C 179.470 115.493,179.503 117.532,179.464 126.226 L 179.417 136.917 179.026 137.648 C 177.947 139.672,176.405 140.666,174.146 140.795 L 172.667 140.880 172.667 141.440 L 172.667 142.000 186.667 142.000 L 200.667 142.000 200.667 141.438 L 200.667 140.875 199.292 140.799 C 196.942 140.668,195.318 139.617,194.324 137.583 L 193.917 136.750 193.867 126.279 L 193.817 115.807 194.269 115.029 C 194.518 114.600,194.769 114.212,194.828 114.167 C 194.887 114.121,195.381 113.371,195.925 112.500 C 196.470 111.629,196.977 110.842,197.052 110.750 C 197.293 110.454,199.000 107.806,199.000 107.728 C 199.000 107.687,199.081 107.562,199.179 107.451 C 199.343 107.268,200.859 104.962,203.531 100.833 C 204.094 99.962,205.019 98.537,205.586 97.667 C 208.034 93.904,209.125 92.208,209.499 91.583 C 209.719 91.217,209.942 90.879,209.995 90.833 C 210.048 90.787,210.424 90.225,210.831 89.583 C 211.989 87.760,212.732 86.966,214.696 85.451 C 215.898 84.524,218.658 83.667,220.438 83.667 L 221.500 83.667 221.500 83.083 L 221.500 82.500 210.833 82.500 L 200.167 82.500 200.167 83.083 L 200.167 83.667 201.042 83.679 C 203.142 83.710,204.667 85.162,204.667 87.130 C 204.667 87.861,202.462 92.027,200.326 95.333 C 200.237 95.471,200.073 95.771,199.961 96.000 C 199.848 96.229,199.718 96.454,199.670 96.500 C 199.622 96.546,199.501 96.733,199.401 96.917 C 198.968 97.709,198.745 98.089,198.667 98.167 C 198.621 98.212,198.483 98.429,198.359 98.648 C 198.236 98.867,197.999 99.288,197.833 99.583 C 197.667 99.879,197.431 100.300,197.307 100.519 C 197.184 100.738,197.044 100.954,196.997 101.000 C 196.949 101.046,196.818 101.271,196.706 101.500 C 196.594 101.729,196.427 102.029,196.335 102.167 C 196.185 102.392,194.381 105.461,192.099 109.373 C 191.632 110.174,191.202 110.830,191.144 110.831 C 191.006 110.834,189.667 108.580,189.667 108.346 C 189.667 108.247,189.605 108.167,189.530 108.167 C 189.454 108.167,189.217 107.810,189.002 107.375 C 188.787 106.940,187.761 105.139,186.722 103.374 C 185.683 101.609,184.833 100.090,184.833 99.999 C 184.833 99.908,184.777 99.833,184.707 99.833 C 184.638 99.833,184.475 99.590,184.346 99.292 C 184.216 98.994,184.065 98.712,184.010 98.667 C 183.955 98.621,183.818 98.396,183.706 98.167 C 183.594 97.938,183.428 97.638,183.337 97.500 C 182.764 96.636,180.500 92.654,180.500 92.509 C 180.500 92.412,180.439 92.333,180.364 92.333 C 180.290 92.333,180.126 92.071,180.000 91.750 C 179.874 91.429,179.710 91.167,179.636 91.167 C 179.561 91.167,179.500 91.094,179.500 91.005 C 179.500 90.916,179.131 90.219,178.681 89.457 C 176.811 86.290,178.105 83.672,181.542 83.668 L 182.333 83.667 182.333 83.083 L 182.333 82.500 167.167 82.500 L 152.000 82.500 152.000 83.066 M277.333 83.083 L 277.333 83.667 278.208 83.668 C 280.423 83.673,282.166 84.725,283.276 86.728 L 283.750 87.583 283.750 112.333 L 283.750 137.083 283.276 137.938 C 282.205 139.870,280.962 140.654,278.748 140.792 L 277.333 140.880 277.333 141.440 L 277.333 142.000 300.720 142.000 L 324.106 142.000 324.385 140.542 C 324.538 139.740,324.781 138.558,324.925 137.917 C 325.069 137.275,325.287 136.262,325.411 135.667 C 325.534 135.071,325.759 134.021,325.910 133.333 C 326.062 132.646,326.323 131.408,326.492 130.583 C 326.660 129.758,326.924 128.483,327.079 127.750 C 327.234 127.017,327.461 125.929,327.583 125.333 C 327.706 124.737,327.860 124.114,327.925 123.948 C 328.030 123.680,327.962 123.651,327.334 123.698 L 326.623 123.750 326.233 124.917 C 326.018 125.558,325.769 126.233,325.680 126.417 C 325.591 126.600,325.356 127.125,325.157 127.583 C 324.041 130.161,321.770 133.104,319.692 134.667 C 319.387 134.896,319.048 135.158,318.937 135.250 C 318.329 135.756,316.558 136.628,315.359 137.013 C 314.749 137.208,314.025 137.451,313.750 137.552 C 313.423 137.672,310.670 137.757,305.790 137.795 L 298.329 137.855 298.373 112.636 L 298.417 87.417 298.784 86.731 C 299.852 84.733,301.691 83.667,304.067 83.667 L 305.000 83.667 305.000 83.083 L 305.000 82.500 291.167 82.500 L 277.333 82.500 277.333 83.083 M122.512 85.591 C 132.903 87.128,139.112 96.417,139.441 110.917 C 139.785 126.070,134.706 135.496,124.500 138.641 C 122.760 139.177,118.043 139.288,116.083 138.838 C 114.159 138.397,113.736 138.284,113.583 138.169 C 113.492 138.100,113.117 137.948,112.750 137.830 C 110.816 137.212,106.791 133.987,105.575 132.081 C 105.401 131.807,105.218 131.546,105.170 131.500 C 104.574 130.934,102.522 126.964,102.154 125.667 C 102.037 125.254,101.886 124.842,101.819 124.750 C 101.752 124.658,101.642 124.283,101.576 123.917 C 101.510 123.550,101.410 123.175,101.353 123.083 C 101.296 122.992,101.157 122.467,101.042 121.917 C 99.171 112.900,100.029 102.807,103.210 96.417 C 103.789 95.252,105.007 93.121,105.161 93.000 C 105.220 92.954,105.685 92.392,106.195 91.750 C 109.982 86.988,116.170 84.652,122.512 85.591 M238.246 103.333 C 238.380 103.782,238.527 104.131,239.320 105.887 C 239.602 106.512,239.833 107.063,239.833 107.111 C 239.833 107.160,239.941 107.436,240.073 107.725 C 240.205 108.014,240.508 108.737,240.747 109.333 C 240.986 109.929,241.249 110.567,241.332 110.750 C 241.414 110.933,241.641 111.458,241.836 111.917 C 242.031 112.375,242.291 112.975,242.414 113.250 C 242.536 113.525,243.023 114.688,243.495 115.833 C 243.967 116.979,244.421 118.067,244.503 118.250 C 244.585 118.433,244.837 119.033,245.064 119.583 C 245.290 120.133,245.667 121.015,245.902 121.542 L 246.329 122.500 237.673 122.500 L 229.017 122.500 229.278 121.875 C 229.422 121.531,229.793 120.701,230.103 120.029 C 230.413 119.358,230.667 118.770,230.667 118.721 C 230.667 118.673,230.773 118.397,230.904 118.109 C 231.034 117.820,231.415 116.946,231.750 116.167 C 232.086 115.388,232.461 114.525,232.585 114.250 C 232.708 113.975,233.493 112.138,234.329 110.167 C 235.165 108.196,235.909 106.471,235.983 106.333 C 236.056 106.196,236.474 105.235,236.911 104.199 C 237.749 102.213,237.885 102.125,238.246 103.333 " stroke="none" fill="#fcfcfc" fill-rule="evenodd"></path><path id="path1" d="M44.750 8.349 C 41.844 8.588,39.436 8.854,38.833 9.003 C 38.512 9.082,37.688 9.272,37.000 9.425 C 33.998 10.093,29.319 11.970,27.385 13.282 C 27.073 13.494,26.779 13.667,26.731 13.667 C 26.682 13.667,26.545 13.760,26.425 13.875 C 26.305 13.990,26.037 14.196,25.828 14.333 C 20.304 17.974,16.143 24.825,14.998 32.167 C 13.210 43.629,16.579 54.071,24.081 60.318 C 24.931 61.025,27.793 63.000,27.969 63.000 C 28.062 63.000,28.164 63.056,28.194 63.125 C 28.249 63.247,29.985 64.128,31.522 64.813 C 40.229 68.694,55.757 68.773,62.216 64.970 C 62.655 64.712,63.053 64.500,63.100 64.500 C 63.904 64.500,67.832 61.066,69.391 59.000 C 69.910 58.313,70.410 57.658,70.504 57.545 C 70.821 57.162,70.854 56.422,70.679 53.583 C 70.583 52.025,70.424 49.100,70.324 47.083 C 70.106 42.646,70.109 42.667,69.595 42.667 C 69.253 42.667,69.181 42.769,69.089 43.375 C 68.921 44.495,68.297 47.136,67.661 49.417 C 67.110 51.396,66.122 53.732,64.817 56.135 C 62.508 60.391,57.692 63.270,51.671 63.996 C 48.352 64.397,43.928 64.030,41.750 63.174 C 38.382 61.850,35.691 59.829,33.531 57.000 C 33.146 56.496,32.773 56.008,32.702 55.917 C 32.482 55.631,31.500 53.999,31.500 53.919 C 31.500 53.877,31.239 53.305,30.919 52.649 C 30.600 51.993,30.180 50.959,29.986 50.353 C 29.792 49.746,29.570 49.100,29.493 48.917 C 29.216 48.257,28.860 46.400,28.317 42.772 C 28.063 41.075,28.067 34.638,28.323 32.917 C 28.432 32.183,28.598 31.058,28.691 30.417 C 28.884 29.091,28.919 28.957,29.756 26.333 C 30.377 24.387,31.921 21.000,32.187 21.000 C 32.268 21.000,32.333 20.899,32.333 20.776 C 32.333 20.652,32.482 20.371,32.664 20.151 C 33.049 19.684,33.097 19.621,33.721 18.786 C 35.360 16.592,40.351 13.000,41.759 13.000 C 41.894 13.000,42.135 12.927,42.294 12.837 C 43.617 12.094,50.483 11.612,52.500 12.122 C 52.913 12.226,53.737 12.402,54.333 12.514 C 54.929 12.625,55.492 12.760,55.583 12.813 C 55.675 12.866,56.087 13.025,56.500 13.166 C 59.478 14.188,63.520 17.555,64.840 20.112 C 64.973 20.371,65.122 20.621,65.169 20.667 C 65.383 20.872,66.820 23.992,67.012 24.667 C 67.129 25.079,67.277 25.492,67.341 25.583 C 67.404 25.675,67.507 26.031,67.569 26.375 C 67.663 26.897,67.749 27.000,68.091 27.000 L 68.500 27.000 68.500 19.835 L 68.500 12.670 67.095 12.015 C 66.323 11.655,65.217 11.196,64.637 10.996 C 64.058 10.796,63.433 10.569,63.250 10.491 C 62.568 10.201,60.298 9.618,58.167 9.185 C 54.206 8.381,48.609 8.033,44.750 8.349 M316.444 15.444 C 316.383 15.506,316.333 15.699,316.333 15.875 C 316.333 16.183,315.638 18.402,315.328 19.083 C 315.244 19.267,315.020 19.829,314.830 20.333 C 314.640 20.837,314.384 21.475,314.260 21.750 C 314.136 22.025,313.873 22.625,313.675 23.083 C 313.111 24.389,313.075 24.469,312.094 26.551 C 311.584 27.634,311.167 28.544,311.167 28.574 C 311.167 28.604,310.709 29.594,310.151 30.773 C 309.592 31.952,308.872 33.479,308.551 34.167 C 308.230 34.854,307.757 35.867,307.499 36.417 C 306.946 37.597,305.928 39.783,305.168 41.417 C 304.870 42.058,304.344 43.183,304.000 43.917 C 303.656 44.650,303.206 45.625,303.000 46.083 C 302.793 46.542,302.232 47.742,301.752 48.750 C 301.273 49.758,300.673 51.033,300.420 51.583 C 300.167 52.133,299.699 53.146,299.381 53.833 C 299.062 54.521,298.666 55.383,298.500 55.750 C 298.334 56.117,297.788 57.279,297.287 58.333 C 296.786 59.387,296.165 60.699,295.907 61.249 C 295.377 62.377,295.375 62.379,294.287 63.580 C 293.216 64.761,291.682 65.520,290.139 65.630 C 289.015 65.710,289.000 65.718,289.000 66.189 L 289.000 66.667 297.250 66.667 L 305.500 66.667 305.500 66.189 C 305.500 65.723,305.475 65.710,304.443 65.627 C 303.189 65.527,302.634 65.205,302.077 64.253 C 301.662 63.546,301.502 62.122,301.815 61.928 C 301.896 61.878,302.014 61.632,302.077 61.382 C 302.198 60.899,302.456 60.283,303.665 57.595 C 303.950 56.959,304.416 55.853,304.699 55.136 L 305.214 53.833 313.839 53.833 L 322.464 53.833 322.577 54.286 C 322.676 54.680,322.897 55.230,323.500 56.583 C 323.582 56.767,323.807 57.292,324.000 57.750 C 324.193 58.208,324.420 58.733,324.503 58.917 C 326.540 63.391,326.002 65.667,322.906 65.667 C 322.196 65.667,322.167 65.686,322.167 66.167 L 322.167 66.667 334.250 66.667 L 346.333 66.667 346.333 66.191 C 346.333 65.720,346.321 65.714,345.125 65.619 C 342.735 65.429,340.672 63.923,339.471 61.490 C 338.794 60.120,336.975 56.323,336.004 54.250 C 335.248 52.638,333.491 48.958,330.870 43.500 C 329.676 41.014,328.426 38.390,327.295 36.000 C 326.840 35.037,326.108 33.500,325.667 32.583 C 325.227 31.667,324.420 29.979,323.873 28.833 C 323.326 27.688,322.447 25.850,321.919 24.750 C 321.391 23.650,320.623 22.037,320.214 21.167 C 319.804 20.296,319.106 18.833,318.663 17.917 C 318.220 17.000,317.778 16.044,317.683 15.792 C 317.513 15.346,316.756 15.133,316.444 15.444 M157.833 22.814 L 157.833 29.333 158.309 29.333 L 158.784 29.333 158.880 27.792 C 159.056 24.937,160.307 22.886,162.558 21.761 C 163.895 21.093,164.844 21.000,170.356 21.000 L 175.500 21.000 175.500 41.717 L 175.500 62.435 175.070 63.297 C 174.321 64.801,172.910 65.646,171.125 65.659 C 170.173 65.667,170.167 65.670,170.167 66.167 L 170.167 66.667 181.583 66.667 L 193.000 66.667 193.000 66.167 L 193.000 65.667 191.958 65.663 C 190.264 65.657,188.765 64.734,187.904 63.167 C 187.593 62.601,187.582 61.946,187.539 41.780 L 187.494 20.977 193.289 21.033 C 199.025 21.089,199.093 21.094,200.059 21.503 C 202.541 22.555,204.038 24.861,204.280 28.007 C 204.383 29.330,204.384 29.333,204.858 29.333 L 205.333 29.333 205.333 22.814 L 205.333 16.296 204.875 16.386 C 204.623 16.436,203.929 16.595,203.333 16.740 C 200.510 17.428,200.867 17.417,182.000 17.417 C 168.427 17.417,163.430 17.365,162.500 17.213 C 161.302 17.018,159.258 16.623,158.292 16.400 L 157.833 16.294 157.833 22.814 M262.667 16.674 C 261.521 16.757,260.246 16.898,259.833 16.988 C 259.421 17.078,258.746 17.198,258.333 17.256 C 257.529 17.368,255.133 17.950,254.583 18.167 C 254.400 18.239,253.875 18.428,253.417 18.587 C 251.240 19.341,247.486 21.284,246.833 21.995 C 246.787 22.044,246.450 22.309,246.083 22.582 C 245.193 23.244,243.012 25.419,242.404 26.250 C 242.136 26.617,241.842 27.008,241.750 27.119 C 241.142 27.858,240.921 28.236,240.065 30.000 C 238.890 32.423,238.650 33.074,238.232 34.974 C 237.071 40.254,237.237 46.089,238.685 50.917 C 239.085 52.249,240.792 55.877,241.313 56.500 C 241.783 57.063,241.847 57.149,242.375 57.917 C 242.926 58.718,245.351 61.120,246.167 61.672 C 246.487 61.890,246.787 62.108,246.833 62.159 C 247.451 62.836,251.047 64.754,252.917 65.404 C 253.650 65.659,254.400 65.934,254.583 66.014 C 254.767 66.095,255.254 66.242,255.667 66.341 C 256.079 66.440,256.867 66.632,257.417 66.768 C 262.440 68.010,270.690 68.075,275.083 66.907 C 277.494 66.267,281.299 64.714,281.472 64.299 C 281.503 64.226,281.593 64.167,281.673 64.167 C 282.304 64.167,285.292 61.556,286.533 59.920 L 287.542 58.590 287.441 57.337 C 287.386 56.647,287.223 54.658,287.079 52.917 C 286.936 51.175,286.751 48.925,286.669 47.917 C 286.586 46.908,286.515 46.065,286.510 46.042 C 286.356 45.377,285.500 46.681,285.500 47.580 C 285.500 47.948,284.925 50.388,284.478 51.917 C 283.211 56.251,281.465 59.013,278.457 61.438 C 274.684 64.482,265.002 65.211,260.122 62.819 C 257.044 61.310,254.682 58.894,252.884 55.417 C 251.753 53.229,251.362 52.021,250.489 48.000 C 250.030 45.891,250.032 38.098,250.491 36.000 C 250.581 35.587,250.777 34.688,250.926 34.000 C 252.301 27.673,256.151 22.841,261.250 21.044 C 264.838 19.779,271.220 19.673,273.917 20.833 C 274.100 20.912,274.532 21.063,274.877 21.169 C 276.209 21.576,280.167 24.177,280.167 24.644 C 280.167 24.713,280.378 24.991,280.637 25.260 C 281.218 25.866,282.167 27.248,282.167 27.488 C 282.167 27.586,282.242 27.667,282.333 27.667 C 282.425 27.667,282.500 27.740,282.500 27.829 C 282.500 27.918,282.762 28.531,283.083 29.190 C 283.404 29.849,283.667 30.458,283.667 30.544 C 283.667 30.630,283.772 30.936,283.900 31.225 C 284.028 31.514,284.268 32.144,284.433 32.625 C 284.645 33.246,284.820 33.500,285.033 33.500 C 285.317 33.500,285.333 33.146,285.333 26.856 L 285.333 20.212 284.292 19.761 C 283.719 19.513,283.100 19.245,282.917 19.165 C 280.698 18.203,277.074 17.343,273.083 16.833 C 271.277 16.602,264.984 16.506,262.667 16.674 M77.833 17.977 C 77.833 18.443,77.858 18.456,78.885 18.539 C 80.716 18.686,82.123 19.569,82.818 21.008 C 83.298 22.000,83.376 61.950,82.901 63.105 C 82.273 64.632,80.935 65.528,79.125 65.634 L 77.833 65.709 77.833 66.188 L 77.833 66.667 89.167 66.667 L 100.500 66.667 100.500 66.167 C 100.500 65.671,100.492 65.667,99.574 65.667 C 97.889 65.667,96.130 64.515,95.555 63.034 C 95.266 62.292,95.248 61.149,95.205 41.689 L 95.160 21.127 98.372 21.213 C 101.824 21.305,102.128 21.367,104.146 22.382 C 109.316 24.983,110.014 34.791,105.373 39.618 C 103.891 41.160,102.555 41.680,99.792 41.792 L 97.667 41.878 97.667 42.335 C 97.667 42.711,97.757 42.810,98.175 42.893 C 98.841 43.026,99.981 43.821,100.647 44.615 C 101.333 45.435,101.344 45.451,101.821 46.334 C 102.429 47.461,102.444 47.496,102.826 48.732 C 103.275 50.189,104.195 52.209,105.817 55.304 C 106.120 55.880,108.686 60.006,108.946 60.333 C 110.803 62.674,113.154 64.685,114.500 65.084 C 114.729 65.152,114.992 65.267,115.085 65.341 C 115.353 65.553,117.928 66.136,119.821 66.413 C 121.285 66.627,124.138 66.667,137.946 66.667 L 154.333 66.667 154.333 66.190 C 154.333 65.715,154.332 65.714,153.024 65.625 C 151.209 65.500,149.776 64.580,149.066 63.083 C 148.557 62.010,148.574 21.847,149.083 21.083 C 150.212 19.390,151.792 18.508,153.708 18.502 C 154.291 18.500,154.333 18.466,154.333 18.000 L 154.333 17.500 142.667 17.500 L 131.000 17.500 131.000 18.000 C 131.000 18.482,131.027 18.500,131.755 18.500 C 132.532 18.500,134.329 19.023,134.784 19.381 C 135.421 19.883,136.051 20.613,136.346 21.191 C 136.855 22.190,136.847 61.886,136.336 63.076 C 135.577 64.849,134.233 65.583,131.750 65.583 C 128.554 65.583,126.746 64.481,124.088 60.914 C 123.816 60.549,123.463 60.108,123.304 59.934 C 122.789 59.374,119.581 54.481,118.249 52.225 C 116.107 48.599,113.737 46.096,111.124 44.702 L 110.165 44.191 111.124 44.003 C 111.652 43.900,112.233 43.749,112.417 43.667 C 112.600 43.585,113.162 43.351,113.667 43.146 C 115.325 42.473,117.227 41.022,118.088 39.773 C 118.269 39.511,118.494 39.211,118.589 39.107 C 121.008 36.445,121.750 30.080,120.153 25.698 C 119.304 23.370,117.272 21.254,114.667 19.988 C 113.888 19.609,113.135 19.241,112.995 19.171 C 112.854 19.100,112.481 18.986,112.167 18.917 C 111.852 18.848,111.479 18.731,111.339 18.658 C 109.510 17.706,105.996 17.503,91.292 17.501 L 77.833 17.500 77.833 17.977 M209.444 17.611 C 209.018 18.037,209.352 18.500,210.086 18.500 C 212.010 18.500,213.697 19.432,214.761 21.083 C 215.260 21.857,215.267 62.243,214.768 63.167 C 213.957 64.670,212.531 65.537,210.708 65.635 L 209.333 65.708 209.333 66.188 L 209.333 66.667 221.083 66.667 L 232.833 66.667 232.833 66.188 C 232.833 65.710,232.833 65.709,231.542 65.625 C 229.606 65.498,228.156 64.571,227.482 63.028 C 226.989 61.899,226.990 22.166,227.483 21.202 C 227.767 20.646,228.385 19.931,229.055 19.385 C 229.472 19.045,231.353 18.500,232.111 18.500 C 232.802 18.500,232.833 18.479,232.833 18.000 L 232.833 17.500 221.194 17.500 C 214.793 17.500,209.506 17.550,209.444 17.611 M346.500 18.000 C 346.500 18.466,346.542 18.500,347.125 18.502 C 349.088 18.507,350.834 19.648,351.568 21.406 C 352.039 22.533,351.964 61.999,351.489 63.111 C 350.799 64.728,349.631 65.506,347.708 65.632 C 346.508 65.710,346.500 65.713,346.500 66.189 L 346.500 66.667 365.826 66.667 L 385.152 66.667 385.246 66.125 C 385.372 65.409,385.592 64.345,385.909 62.917 C 386.052 62.275,386.318 61.000,386.500 60.083 C 386.860 58.278,387.227 56.539,387.610 54.833 C 387.744 54.237,387.950 53.244,388.068 52.625 L 388.283 51.500 387.731 51.500 C 387.223 51.500,387.165 51.556,386.990 52.208 C 386.886 52.598,386.748 52.992,386.684 53.083 C 386.621 53.175,386.388 53.700,386.168 54.250 C 384.854 57.536,382.319 60.419,379.513 61.822 C 376.999 63.079,375.251 63.327,368.875 63.330 L 363.833 63.333 363.833 42.797 C 363.833 20.341,363.782 21.577,364.774 20.224 C 365.481 19.259,367.167 18.506,368.625 18.502 C 369.301 18.500,369.333 18.477,369.333 18.000 L 369.333 17.500 357.917 17.500 L 346.500 17.500 346.500 18.000 M315.330 37.360 C 315.893 38.674,316.420 39.900,316.501 40.083 C 316.582 40.267,316.807 40.792,317.000 41.250 C 317.193 41.708,317.420 42.233,317.505 42.417 C 317.589 42.600,317.813 43.156,318.004 43.653 C 318.308 44.445,318.640 45.233,319.167 46.417 C 319.248 46.600,319.473 47.125,319.667 47.583 C 319.860 48.042,320.089 48.567,320.175 48.750 C 320.261 48.933,320.441 49.402,320.575 49.792 L 320.819 50.500 313.737 50.500 C 307.045 50.500,306.663 50.484,306.808 50.208 C 306.892 50.048,307.123 49.542,307.323 49.083 C 307.522 48.625,307.752 48.100,307.833 47.917 C 308.366 46.720,308.667 46.008,308.667 45.941 C 308.667 45.898,308.934 45.275,309.262 44.557 C 309.951 43.044,310.028 42.869,310.500 41.750 C 311.019 40.519,311.104 40.322,311.472 39.500 C 311.657 39.087,312.001 38.283,312.238 37.712 C 312.474 37.142,312.843 36.279,313.058 35.796 C 313.272 35.312,313.548 34.662,313.671 34.350 L 313.895 33.783 314.100 34.376 C 314.213 34.703,314.766 36.045,315.330 37.360 " stroke="none" fill="#fcec04" fill-rule="evenodd"></path></g></svg>